%TF.GenerationSoftware,KiCad,Pcbnew,8.0.2*%
%TF.CreationDate,2024-07-17T11:39:07+05:30*%
%TF.ProjectId,smart lock,736d6172-7420-46c6-9f63-6b2e6b696361,v1*%
%TF.SameCoordinates,Original*%
%TF.FileFunction,Copper,L2,Bot*%
%TF.FilePolarity,Positive*%
%FSLAX46Y46*%
G04 Gerber Fmt 4.6, Leading zero omitted, Abs format (unit mm)*
G04 Created by KiCad (PCBNEW 8.0.2) date 2024-07-17 11:39:07*
%MOMM*%
%LPD*%
G01*
G04 APERTURE LIST*
%TA.AperFunction,ComponentPad*%
%ADD10R,1.800000X1.800000*%
%TD*%
%TA.AperFunction,ComponentPad*%
%ADD11C,1.800000*%
%TD*%
%TA.AperFunction,ComponentPad*%
%ADD12C,1.508000*%
%TD*%
%TA.AperFunction,ComponentPad*%
%ADD13C,1.440000*%
%TD*%
%TA.AperFunction,ComponentPad*%
%ADD14C,1.600000*%
%TD*%
%TA.AperFunction,ComponentPad*%
%ADD15O,1.600000X1.600000*%
%TD*%
%TA.AperFunction,ComponentPad*%
%ADD16C,1.950000*%
%TD*%
%TA.AperFunction,ComponentPad*%
%ADD17C,4.000000*%
%TD*%
%TA.AperFunction,ComponentPad*%
%ADD18R,1.800000X2.600000*%
%TD*%
%TA.AperFunction,ComponentPad*%
%ADD19O,1.800000X2.600000*%
%TD*%
%TA.AperFunction,ComponentPad*%
%ADD20R,1.700000X1.700000*%
%TD*%
%TA.AperFunction,ComponentPad*%
%ADD21O,1.700000X1.700000*%
%TD*%
%TA.AperFunction,ViaPad*%
%ADD22C,0.600000*%
%TD*%
%TA.AperFunction,Conductor*%
%ADD23C,0.250000*%
%TD*%
%TA.AperFunction,Conductor*%
%ADD24C,0.300000*%
%TD*%
%TA.AperFunction,Conductor*%
%ADD25C,0.500000*%
%TD*%
G04 APERTURE END LIST*
D10*
%TO.P,D1,1,K*%
%TO.N,GND*%
X159225000Y-137250000D03*
D11*
%TO.P,D1,2,A*%
%TO.N,Net-(D1-A)*%
X161765000Y-137250000D03*
%TD*%
D12*
%TO.P,MOD1,D*%
%TO.N,/D*%
X126040000Y-116500000D03*
%TO.P,MOD1,E*%
%TO.N,/E*%
X123500000Y-116500000D03*
%TO.P,MOD1,F*%
%TO.N,/F*%
X120960000Y-116500000D03*
%TO.P,MOD1,G*%
%TO.N,/G*%
X118420000Y-116500000D03*
%TO.P,MOD1,H*%
%TO.N,/H*%
X115880000Y-116500000D03*
%TO.P,MOD1,J*%
%TO.N,/J*%
X113340000Y-116500000D03*
%TO.P,MOD1,K*%
%TO.N,/K*%
X110800000Y-116500000D03*
%TD*%
D13*
%TO.P,VR1,1*%
%TO.N,GND*%
X176000000Y-85500000D03*
%TO.P,VR1,2*%
%TO.N,/POTM*%
X173460000Y-85500000D03*
%TO.P,VR1,3*%
%TO.N,+3.3V*%
X170920000Y-85500000D03*
%TD*%
D10*
%TO.P,D2,1,K*%
%TO.N,GND*%
X165725000Y-137250000D03*
D11*
%TO.P,D2,2,A*%
%TO.N,Net-(D2-A)*%
X168265000Y-137250000D03*
%TD*%
D14*
%TO.P,R3,1*%
%TO.N,/G LED*%
X156380000Y-129250000D03*
D15*
%TO.P,R3,2*%
%TO.N,Net-(D2-A)*%
X171620000Y-129250000D03*
%TD*%
D14*
%TO.P,R2,1*%
%TO.N,/R LED*%
X156380000Y-121750000D03*
D15*
%TO.P,R2,2*%
%TO.N,Net-(D1-A)*%
X171620000Y-121750000D03*
%TD*%
D14*
%TO.P,R1,1*%
%TO.N,Net-(DS1-LEDA)*%
X150880000Y-85500000D03*
D15*
%TO.P,R1,2*%
%TO.N,+3.3V*%
X166120000Y-85500000D03*
%TD*%
D16*
%TO.P,LS1,1*%
%TO.N,/piezo*%
X64300000Y-107000000D03*
%TO.P,LS1,2*%
%TO.N,Net-(LS1-Pad2)*%
X79500000Y-107000000D03*
%TD*%
D14*
%TO.P,R4,1*%
%TO.N,Net-(LS1-Pad2)*%
X79500000Y-127380000D03*
D15*
%TO.P,R4,2*%
%TO.N,GND*%
X79500000Y-142620000D03*
%TD*%
D17*
%TO.P,DS1,*%
%TO.N,*%
X61379580Y-35225760D03*
X61379580Y-72225940D03*
X176380620Y-35225760D03*
X176380620Y-72225940D03*
D18*
%TO.P,DS1,1,LEDK*%
%TO.N,GND*%
X130780000Y-34225000D03*
D19*
%TO.P,DS1,2,LEDA*%
%TO.N,Net-(DS1-LEDA)*%
X133320000Y-34225000D03*
%TO.P,DS1,3,VSS*%
%TO.N,GND*%
X135860000Y-34225000D03*
%TO.P,DS1,4,VDD*%
%TO.N,+3.3V*%
X138400000Y-34225000D03*
%TO.P,DS1,5,Vo*%
%TO.N,/POTM*%
X140940000Y-34225000D03*
%TO.P,DS1,6,RS*%
%TO.N,/RS*%
X143480000Y-34225000D03*
%TO.P,DS1,7,R/~{W}*%
%TO.N,GND*%
X146020000Y-34225000D03*
%TO.P,DS1,8,E*%
%TO.N,/E*%
X148560000Y-34225000D03*
%TO.P,DS1,9,DB0*%
%TO.N,unconnected-(DS1-DB0-Pad9)*%
X151100000Y-34225000D03*
%TO.P,DS1,10,DB1*%
%TO.N,unconnected-(DS1-DB1-Pad10)*%
X153640000Y-34225000D03*
%TO.P,DS1,11,DB2*%
%TO.N,unconnected-(DS1-DB2-Pad11)*%
X156180000Y-34225000D03*
%TO.P,DS1,12,DB3*%
%TO.N,unconnected-(DS1-DB3-Pad12)*%
X158720000Y-34225000D03*
%TO.P,DS1,13,DB4*%
%TO.N,/DB4*%
X161260000Y-34225000D03*
%TO.P,DS1,14,DB5*%
%TO.N,/DB5*%
X163800000Y-34225000D03*
%TO.P,DS1,15,DB6*%
%TO.N,/DB6*%
X166340000Y-34225000D03*
%TO.P,DS1,16,DB7*%
%TO.N,/DB7*%
X168880000Y-34225000D03*
%TD*%
D20*
%TO.P,M1,1,PWM*%
%TO.N,/servo*%
X71025000Y-146875000D03*
D21*
%TO.P,M1,2,+*%
%TO.N,+3.3V*%
X68485000Y-146875000D03*
%TO.P,M1,3,-*%
%TO.N,GND*%
X65945000Y-146875000D03*
%TD*%
D22*
%TO.N,GND*%
X62750000Y-84000000D03*
X174750000Y-103000000D03*
X164750000Y-133750000D03*
%TO.N,/DB4*%
X165200000Y-94550000D03*
%TO.N,Net-(DS1-LEDA)*%
X133250000Y-84750000D03*
%TO.N,/RS*%
X166000000Y-105500000D03*
X162500000Y-94500000D03*
X163000000Y-97500000D03*
%TO.N,+3.3V*%
X62750000Y-87750000D03*
X153000000Y-140750000D03*
%TO.N,/E*%
X148560000Y-97940000D03*
X148560000Y-92000000D03*
X154000000Y-101500000D03*
X162000000Y-102750000D03*
X157750000Y-101500000D03*
X162000000Y-104750000D03*
X148500000Y-101500000D03*
%TO.N,/DB6*%
X177750000Y-110250000D03*
%TO.N,/DB5*%
X164400000Y-92750000D03*
%TO.N,/piezo*%
X166800000Y-96800000D03*
%TO.N,/servo*%
X164400000Y-111100000D03*
%TO.N,/G*%
X162000000Y-112500000D03*
%TO.N,/F*%
X161250000Y-114000000D03*
%TO.N,/D*%
X152500000Y-100750000D03*
X126000000Y-102500000D03*
X126000000Y-100750000D03*
X156750000Y-100750000D03*
%TO.N,/H*%
X162750000Y-111500000D03*
%TO.N,/K*%
X166000000Y-97500000D03*
%TO.N,/J*%
X163600000Y-109400000D03*
%TO.N,/R LED*%
X172000000Y-101500000D03*
%TO.N,/G LED*%
X170500000Y-100750000D03*
%TD*%
D23*
%TO.N,GND*%
X175250000Y-103500000D02*
X174750000Y-103000000D01*
X175250000Y-132000000D02*
X175250000Y-103500000D01*
X164750000Y-133750000D02*
X165500000Y-133000000D01*
X165500000Y-133000000D02*
X174250000Y-133000000D01*
X174250000Y-133000000D02*
X175250000Y-132000000D01*
D24*
%TO.N,/DB4*%
X165050000Y-94550000D02*
X164000000Y-93500000D01*
X162000000Y-93500000D02*
X161260000Y-92760000D01*
X161260000Y-92760000D02*
X161260000Y-34225000D01*
X165200000Y-94550000D02*
X165050000Y-94550000D01*
X164000000Y-93500000D02*
X162000000Y-93500000D01*
%TO.N,Net-(DS1-LEDA)*%
X133320000Y-34225000D02*
X133320000Y-84680000D01*
X133320000Y-84680000D02*
X133250000Y-84750000D01*
%TO.N,/RS*%
X143480000Y-69480000D02*
X143480000Y-34225000D01*
X146000000Y-92750000D02*
X146000000Y-72000000D01*
X162500000Y-94500000D02*
X147750000Y-94500000D01*
X146000000Y-72000000D02*
X143480000Y-69480000D01*
D23*
X164000000Y-103000000D02*
X165000000Y-103000000D01*
X163000000Y-102000000D02*
X163000000Y-97500000D01*
X165000000Y-103000000D02*
X165750000Y-103750000D01*
D24*
X143480000Y-34225000D02*
X144057300Y-34802300D01*
D23*
X164000000Y-103000000D02*
X163000000Y-102000000D01*
X165750000Y-103750000D02*
X166000000Y-104000000D01*
X166000000Y-104000000D02*
X166000000Y-105500000D01*
D24*
X147750000Y-94500000D02*
X146000000Y-92750000D01*
D25*
%TO.N,+3.3V*%
X73500000Y-154750000D02*
X73750000Y-154750000D01*
X73750000Y-154750000D02*
X151250000Y-154750000D01*
X69750000Y-151000000D02*
X73500000Y-154750000D01*
X151250000Y-154750000D02*
X153000000Y-153000000D01*
X68485000Y-149735000D02*
X69750000Y-151000000D01*
X68485000Y-146875000D02*
X68485000Y-149735000D01*
X153000000Y-153000000D02*
X153000000Y-140750000D01*
D24*
%TO.N,/E*%
X148560000Y-33725000D02*
X148560000Y-92000000D01*
D23*
X162000000Y-102750000D02*
X162000000Y-104750000D01*
D24*
X148560000Y-99250000D02*
X148560000Y-97940000D01*
X154000000Y-101500000D02*
X157750000Y-101500000D01*
X148560000Y-99250000D02*
X148560000Y-101440000D01*
X148560000Y-101440000D02*
X148500000Y-101500000D01*
%TO.N,/DB6*%
X178000000Y-110250000D02*
X177500000Y-110250000D01*
X166340000Y-34225000D02*
X166340000Y-79090000D01*
X166340000Y-79090000D02*
X167500000Y-80250000D01*
X178500000Y-80250000D02*
X179500000Y-81250000D01*
X167500000Y-80250000D02*
X178500000Y-80250000D01*
X179500000Y-81250000D02*
X179500000Y-108750000D01*
X179500000Y-108750000D02*
X178000000Y-110250000D01*
%TO.N,/DB5*%
X163800000Y-92150000D02*
X163800000Y-34225000D01*
X164400000Y-92750000D02*
X163800000Y-92150000D01*
%TO.N,/piezo*%
X165500000Y-95500000D02*
X66000000Y-95500000D01*
X64300000Y-97200000D02*
X64300000Y-107000000D01*
X166800000Y-96800000D02*
X165500000Y-95500000D01*
X66000000Y-95500000D02*
X64300000Y-97200000D01*
%TO.N,/servo*%
X76500000Y-124000000D02*
X74500000Y-126000000D01*
X151750000Y-116000000D02*
X150750000Y-117000000D01*
X150750000Y-123000000D02*
X149750000Y-124000000D01*
X73425000Y-146875000D02*
X71025000Y-146875000D01*
X149750000Y-124000000D02*
X76500000Y-124000000D01*
X164400000Y-111100000D02*
X164400000Y-115350000D01*
X163750000Y-116000000D02*
X151750000Y-116000000D01*
X74500000Y-145800000D02*
X73425000Y-146875000D01*
X150750000Y-117000000D02*
X150750000Y-123000000D01*
X164400000Y-115350000D02*
X163750000Y-116000000D01*
X74500000Y-126000000D02*
X74500000Y-145800000D01*
%TO.N,/G*%
X118420000Y-114080000D02*
X118750000Y-113750000D01*
X118750000Y-113750000D02*
X160375000Y-113750000D01*
X161625000Y-112500000D02*
X162000000Y-112500000D01*
X160375000Y-113750000D02*
X161625000Y-112500000D01*
X118420000Y-116500000D02*
X118420000Y-114080000D01*
%TO.N,/F*%
X160500000Y-114750000D02*
X161250000Y-114000000D01*
X121500000Y-114750000D02*
X160500000Y-114750000D01*
X120960000Y-115290000D02*
X121500000Y-114750000D01*
X120960000Y-116500000D02*
X120960000Y-115290000D01*
D23*
%TO.N,/D*%
X152500000Y-100750000D02*
X156750000Y-100750000D01*
D24*
X126000000Y-102500000D02*
X126000000Y-100750000D01*
%TO.N,/H*%
X115880000Y-113620000D02*
X115880000Y-116500000D01*
X116500000Y-113000000D02*
X115880000Y-113620000D01*
X161250000Y-111500000D02*
X159750000Y-113000000D01*
X159750000Y-113000000D02*
X116500000Y-113000000D01*
X162750000Y-111500000D02*
X161250000Y-111500000D01*
%TO.N,/K*%
X111750000Y-96750000D02*
X165250000Y-96750000D01*
X110800000Y-97700000D02*
X111750000Y-96750000D01*
X165250000Y-96750000D02*
X166000000Y-97500000D01*
X110800000Y-116500000D02*
X110800000Y-97700000D01*
%TO.N,/J*%
X114500000Y-110750000D02*
X113340000Y-111910000D01*
X113340000Y-111910000D02*
X113340000Y-116500000D01*
X163600000Y-110150000D02*
X163000000Y-110750000D01*
X163000000Y-110750000D02*
X114500000Y-110750000D01*
X163600000Y-109400000D02*
X163600000Y-110150000D01*
%TO.N,/R LED*%
X154500000Y-118250000D02*
X170250000Y-118250000D01*
X156380000Y-121750000D02*
X154250000Y-121750000D01*
X172250000Y-116250000D02*
X172250000Y-101750000D01*
X170250000Y-118250000D02*
X172250000Y-116250000D01*
X154250000Y-121750000D02*
X153500000Y-121000000D01*
X172250000Y-101750000D02*
X172000000Y-101500000D01*
X153500000Y-119250000D02*
X154500000Y-118250000D01*
X153500000Y-121000000D02*
X153500000Y-119250000D01*
%TO.N,/G LED*%
X156380000Y-129250000D02*
X153000000Y-129250000D01*
X171000000Y-116000000D02*
X171000000Y-101250000D01*
X151750000Y-117750000D02*
X152500000Y-117000000D01*
X152500000Y-117000000D02*
X170000000Y-117000000D01*
X153000000Y-129250000D02*
X151750000Y-128000000D01*
X171000000Y-101250000D02*
X170500000Y-100750000D01*
X170000000Y-117000000D02*
X171000000Y-116000000D01*
X151750000Y-128000000D02*
X151750000Y-117750000D01*
%TD*%
%TA.AperFunction,Conductor*%
%TO.N,GND*%
G36*
X146270000Y-36002854D02*
G01*
X146347834Y-35990526D01*
X146347837Y-35990526D01*
X146557410Y-35922432D01*
X146753760Y-35822386D01*
X146932041Y-35692857D01*
X147087857Y-35537041D01*
X147087862Y-35537035D01*
X147189372Y-35397319D01*
X147244702Y-35354653D01*
X147314315Y-35348674D01*
X147376110Y-35381279D01*
X147390008Y-35397319D01*
X147491752Y-35537358D01*
X147491756Y-35537363D01*
X147647636Y-35693243D01*
X147647641Y-35693247D01*
X147825973Y-35822812D01*
X147825975Y-35822813D01*
X147825978Y-35822815D01*
X147841795Y-35830874D01*
X147892591Y-35878848D01*
X147909500Y-35941359D01*
X147909500Y-91494931D01*
X147890494Y-91560903D01*
X147834211Y-91650477D01*
X147834209Y-91650481D01*
X147774633Y-91820737D01*
X147774630Y-91820750D01*
X147754435Y-91999996D01*
X147754435Y-92000003D01*
X147774630Y-92179249D01*
X147774631Y-92179254D01*
X147834211Y-92349523D01*
X147884271Y-92429192D01*
X147930184Y-92502262D01*
X148057738Y-92629816D01*
X148070475Y-92637819D01*
X148168069Y-92699142D01*
X148210478Y-92725789D01*
X148279678Y-92750003D01*
X148380745Y-92785368D01*
X148380750Y-92785369D01*
X148559996Y-92805565D01*
X148560000Y-92805565D01*
X148560004Y-92805565D01*
X148739249Y-92785369D01*
X148739252Y-92785368D01*
X148739255Y-92785368D01*
X148909522Y-92725789D01*
X149062262Y-92629816D01*
X149189816Y-92502262D01*
X149285789Y-92349522D01*
X149345368Y-92179255D01*
X149362837Y-92024211D01*
X149365565Y-92000003D01*
X149365565Y-91999996D01*
X149345369Y-91820750D01*
X149345366Y-91820737D01*
X149285790Y-91650481D01*
X149285789Y-91650478D01*
X149264008Y-91615814D01*
X149229506Y-91560903D01*
X149210500Y-91494931D01*
X149210500Y-85499998D01*
X149574532Y-85499998D01*
X149574532Y-85500001D01*
X149594364Y-85726686D01*
X149594366Y-85726697D01*
X149653258Y-85946488D01*
X149653261Y-85946497D01*
X149749431Y-86152732D01*
X149749432Y-86152734D01*
X149879954Y-86339141D01*
X150040858Y-86500045D01*
X150040861Y-86500047D01*
X150227266Y-86630568D01*
X150433504Y-86726739D01*
X150653308Y-86785635D01*
X150815230Y-86799801D01*
X150879998Y-86805468D01*
X150880000Y-86805468D01*
X150880002Y-86805468D01*
X150936673Y-86800509D01*
X151106692Y-86785635D01*
X151326496Y-86726739D01*
X151532734Y-86630568D01*
X151719139Y-86500047D01*
X151880047Y-86339139D01*
X152010568Y-86152734D01*
X152106739Y-85946496D01*
X152165635Y-85726692D01*
X152185468Y-85500000D01*
X152165635Y-85273308D01*
X152119069Y-85099522D01*
X152106741Y-85053511D01*
X152106738Y-85053502D01*
X152048800Y-84929254D01*
X152010568Y-84847266D01*
X151880047Y-84660861D01*
X151880045Y-84660858D01*
X151719141Y-84499954D01*
X151532734Y-84369432D01*
X151532732Y-84369431D01*
X151326497Y-84273261D01*
X151326488Y-84273258D01*
X151106697Y-84214366D01*
X151106693Y-84214365D01*
X151106692Y-84214365D01*
X151106691Y-84214364D01*
X151106686Y-84214364D01*
X150880002Y-84194532D01*
X150879998Y-84194532D01*
X150653313Y-84214364D01*
X150653302Y-84214366D01*
X150433511Y-84273258D01*
X150433502Y-84273261D01*
X150227267Y-84369431D01*
X150227265Y-84369432D01*
X150040858Y-84499954D01*
X149879954Y-84660858D01*
X149749432Y-84847265D01*
X149749431Y-84847267D01*
X149653261Y-85053502D01*
X149653258Y-85053511D01*
X149594366Y-85273302D01*
X149594364Y-85273313D01*
X149574532Y-85499998D01*
X149210500Y-85499998D01*
X149210500Y-35941359D01*
X149230185Y-35874320D01*
X149278205Y-35830874D01*
X149294022Y-35822815D01*
X149472365Y-35693242D01*
X149628242Y-35537365D01*
X149638804Y-35522826D01*
X149729682Y-35397745D01*
X149785011Y-35355079D01*
X149854625Y-35349100D01*
X149916420Y-35381705D01*
X149930318Y-35397745D01*
X150031752Y-35537358D01*
X150031756Y-35537363D01*
X150187636Y-35693243D01*
X150187641Y-35693247D01*
X150343192Y-35806260D01*
X150365978Y-35822815D01*
X150475948Y-35878848D01*
X150562393Y-35922895D01*
X150562396Y-35922896D01*
X150619221Y-35941359D01*
X150772049Y-35991015D01*
X150989778Y-36025500D01*
X150989779Y-36025500D01*
X151210221Y-36025500D01*
X151210222Y-36025500D01*
X151427951Y-35991015D01*
X151637606Y-35922895D01*
X151834022Y-35822815D01*
X152012365Y-35693242D01*
X152168242Y-35537365D01*
X152178804Y-35522826D01*
X152269682Y-35397745D01*
X152325011Y-35355079D01*
X152394625Y-35349100D01*
X152456420Y-35381705D01*
X152470318Y-35397745D01*
X152571752Y-35537358D01*
X152571756Y-35537363D01*
X152727636Y-35693243D01*
X152727641Y-35693247D01*
X152883192Y-35806260D01*
X152905978Y-35822815D01*
X153015948Y-35878848D01*
X153102393Y-35922895D01*
X153102396Y-35922896D01*
X153159221Y-35941359D01*
X153312049Y-35991015D01*
X153529778Y-36025500D01*
X153529779Y-36025500D01*
X153750221Y-36025500D01*
X153750222Y-36025500D01*
X153967951Y-35991015D01*
X154177606Y-35922895D01*
X154374022Y-35822815D01*
X154552365Y-35693242D01*
X154708242Y-35537365D01*
X154718804Y-35522826D01*
X154809682Y-35397745D01*
X154865011Y-35355079D01*
X154934625Y-35349100D01*
X154996420Y-35381705D01*
X155010318Y-35397745D01*
X155111752Y-35537358D01*
X155111756Y-35537363D01*
X155267636Y-35693243D01*
X155267641Y-35693247D01*
X155423192Y-35806260D01*
X155445978Y-35822815D01*
X155555948Y-35878848D01*
X155642393Y-35922895D01*
X155642396Y-35922896D01*
X155699221Y-35941359D01*
X155852049Y-35991015D01*
X156069778Y-36025500D01*
X156069779Y-36025500D01*
X156290221Y-36025500D01*
X156290222Y-36025500D01*
X156507951Y-35991015D01*
X156717606Y-35922895D01*
X156914022Y-35822815D01*
X157092365Y-35693242D01*
X157248242Y-35537365D01*
X157258804Y-35522826D01*
X157349682Y-35397745D01*
X157405011Y-35355079D01*
X157474625Y-35349100D01*
X157536420Y-35381705D01*
X157550318Y-35397745D01*
X157651752Y-35537358D01*
X157651756Y-35537363D01*
X157807636Y-35693243D01*
X157807641Y-35693247D01*
X157963192Y-35806260D01*
X157985978Y-35822815D01*
X158095948Y-35878848D01*
X158182393Y-35922895D01*
X158182396Y-35922896D01*
X158239221Y-35941359D01*
X158392049Y-35991015D01*
X158609778Y-36025500D01*
X158609779Y-36025500D01*
X158830221Y-36025500D01*
X158830222Y-36025500D01*
X159047951Y-35991015D01*
X159257606Y-35922895D01*
X159454022Y-35822815D01*
X159632365Y-35693242D01*
X159788242Y-35537365D01*
X159798804Y-35522826D01*
X159889682Y-35397745D01*
X159945011Y-35355079D01*
X160014625Y-35349100D01*
X160076420Y-35381705D01*
X160090318Y-35397745D01*
X160191752Y-35537358D01*
X160191756Y-35537363D01*
X160347636Y-35693243D01*
X160347641Y-35693247D01*
X160525973Y-35822812D01*
X160525975Y-35822813D01*
X160525978Y-35822815D01*
X160541795Y-35830874D01*
X160592591Y-35878848D01*
X160609500Y-35941359D01*
X160609500Y-92824069D01*
X160609500Y-92824071D01*
X160609499Y-92824071D01*
X160632509Y-92939740D01*
X160634498Y-92949740D01*
X160634500Y-92949747D01*
X160683532Y-93068123D01*
X160683535Y-93068127D01*
X160748041Y-93164669D01*
X160754726Y-93174673D01*
X160754727Y-93174674D01*
X161217873Y-93637819D01*
X161251358Y-93699142D01*
X161246374Y-93768833D01*
X161204503Y-93824767D01*
X161139038Y-93849184D01*
X161130192Y-93849500D01*
X148070808Y-93849500D01*
X148003769Y-93829815D01*
X147983127Y-93813181D01*
X146686819Y-92516873D01*
X146653334Y-92455550D01*
X146650500Y-92429192D01*
X146650500Y-71935928D01*
X146625502Y-71810261D01*
X146625501Y-71810260D01*
X146625501Y-71810256D01*
X146576465Y-71691873D01*
X146576464Y-71691872D01*
X146576461Y-71691866D01*
X146505277Y-71585332D01*
X146505276Y-71585331D01*
X146414669Y-71494724D01*
X144166819Y-69246873D01*
X144133334Y-69185550D01*
X144130500Y-69159192D01*
X144130500Y-35941359D01*
X144150185Y-35874320D01*
X144198205Y-35830874D01*
X144214022Y-35822815D01*
X144392365Y-35693242D01*
X144548242Y-35537365D01*
X144649991Y-35397317D01*
X144705320Y-35354653D01*
X144774933Y-35348674D01*
X144836729Y-35381279D01*
X144850627Y-35397318D01*
X144952142Y-35537041D01*
X145107958Y-35692857D01*
X145286239Y-35822386D01*
X145482589Y-35922432D01*
X145692163Y-35990526D01*
X145769999Y-36002854D01*
X145770000Y-36002854D01*
X145770000Y-34773482D01*
X145788409Y-34784111D01*
X145941009Y-34825000D01*
X146098991Y-34825000D01*
X146251591Y-34784111D01*
X146270000Y-34773482D01*
X146270000Y-36002854D01*
G37*
%TD.AperFunction*%
%TA.AperFunction,Conductor*%
G36*
X182692539Y-28270185D02*
G01*
X182738294Y-28322989D01*
X182749500Y-28374500D01*
X182749500Y-157625500D01*
X182729815Y-157692539D01*
X182677011Y-157738294D01*
X182625500Y-157749500D01*
X55374500Y-157749500D01*
X55307461Y-157729815D01*
X55261706Y-157677011D01*
X55250500Y-157625500D01*
X55250500Y-106999994D01*
X62819443Y-106999994D01*
X62819443Y-107000005D01*
X62839634Y-107243683D01*
X62839636Y-107243695D01*
X62899663Y-107480734D01*
X62997888Y-107704666D01*
X63131632Y-107909378D01*
X63297242Y-108089277D01*
X63297246Y-108089281D01*
X63490212Y-108239473D01*
X63705267Y-108355855D01*
X63705270Y-108355856D01*
X63936541Y-108435251D01*
X63936543Y-108435251D01*
X63936545Y-108435252D01*
X64177737Y-108475500D01*
X64177738Y-108475500D01*
X64422262Y-108475500D01*
X64422263Y-108475500D01*
X64663455Y-108435252D01*
X64894733Y-108355855D01*
X65109788Y-108239473D01*
X65302754Y-108089281D01*
X65468368Y-107909377D01*
X65602111Y-107704667D01*
X65700336Y-107480736D01*
X65760364Y-107243692D01*
X65780557Y-107000000D01*
X65780557Y-106999994D01*
X78019443Y-106999994D01*
X78019443Y-107000005D01*
X78039634Y-107243683D01*
X78039636Y-107243695D01*
X78099663Y-107480734D01*
X78197888Y-107704666D01*
X78331632Y-107909378D01*
X78497242Y-108089277D01*
X78497246Y-108089281D01*
X78690212Y-108239473D01*
X78905267Y-108355855D01*
X78905270Y-108355856D01*
X79136541Y-108435251D01*
X79136543Y-108435251D01*
X79136545Y-108435252D01*
X79377737Y-108475500D01*
X79377738Y-108475500D01*
X79622262Y-108475500D01*
X79622263Y-108475500D01*
X79863455Y-108435252D01*
X80094733Y-108355855D01*
X80309788Y-108239473D01*
X80502754Y-108089281D01*
X80668368Y-107909377D01*
X80802111Y-107704667D01*
X80900336Y-107480736D01*
X80960364Y-107243692D01*
X80980557Y-107000000D01*
X80960364Y-106756308D01*
X80900336Y-106519264D01*
X80802111Y-106295333D01*
X80693974Y-106129816D01*
X80668367Y-106090621D01*
X80502757Y-105910722D01*
X80502747Y-105910713D01*
X80309791Y-105760529D01*
X80309787Y-105760526D01*
X80094734Y-105644145D01*
X80094729Y-105644143D01*
X79863458Y-105564748D01*
X79682561Y-105534562D01*
X79622263Y-105524500D01*
X79377737Y-105524500D01*
X79329498Y-105532549D01*
X79136541Y-105564748D01*
X78905270Y-105644143D01*
X78905265Y-105644145D01*
X78690212Y-105760526D01*
X78690208Y-105760529D01*
X78497252Y-105910713D01*
X78497242Y-105910722D01*
X78331632Y-106090621D01*
X78197888Y-106295333D01*
X78099663Y-106519265D01*
X78039636Y-106756304D01*
X78039634Y-106756316D01*
X78019443Y-106999994D01*
X65780557Y-106999994D01*
X65760364Y-106756308D01*
X65700336Y-106519264D01*
X65602111Y-106295333D01*
X65493974Y-106129816D01*
X65468367Y-106090621D01*
X65302757Y-105910722D01*
X65302747Y-105910713D01*
X65109791Y-105760529D01*
X65109782Y-105760523D01*
X65015481Y-105709489D01*
X64965891Y-105660269D01*
X64950500Y-105600435D01*
X64950500Y-97520808D01*
X64970185Y-97453769D01*
X64986819Y-97433127D01*
X66233127Y-96186819D01*
X66294450Y-96153334D01*
X66320808Y-96150500D01*
X111130191Y-96150500D01*
X111197230Y-96170185D01*
X111242985Y-96222989D01*
X111252929Y-96292147D01*
X111223904Y-96355703D01*
X111217872Y-96362181D01*
X110294727Y-97285325D01*
X110294726Y-97285326D01*
X110224969Y-97389728D01*
X110224959Y-97389743D01*
X110223534Y-97391873D01*
X110174499Y-97510255D01*
X110174497Y-97510261D01*
X110149500Y-97635928D01*
X110149500Y-115359472D01*
X110129815Y-115426511D01*
X110096624Y-115461047D01*
X109990543Y-115535326D01*
X109990541Y-115535327D01*
X109835327Y-115690541D01*
X109835322Y-115690547D01*
X109709423Y-115870349D01*
X109709419Y-115870357D01*
X109616655Y-116069291D01*
X109616653Y-116069295D01*
X109616653Y-116069297D01*
X109592642Y-116158902D01*
X109559839Y-116281324D01*
X109559838Y-116281331D01*
X109540708Y-116499997D01*
X109540708Y-116500002D01*
X109555114Y-116664672D01*
X109559839Y-116718674D01*
X109616653Y-116930703D01*
X109616654Y-116930706D01*
X109616655Y-116930708D01*
X109709419Y-117129642D01*
X109709423Y-117129650D01*
X109835322Y-117309452D01*
X109835327Y-117309458D01*
X109990541Y-117464672D01*
X109990547Y-117464677D01*
X110170349Y-117590576D01*
X110170351Y-117590577D01*
X110170354Y-117590579D01*
X110369297Y-117683347D01*
X110581326Y-117740161D01*
X110737521Y-117753826D01*
X110799998Y-117759292D01*
X110800000Y-117759292D01*
X110800002Y-117759292D01*
X110854668Y-117754509D01*
X111018674Y-117740161D01*
X111230703Y-117683347D01*
X111429646Y-117590579D01*
X111609457Y-117464674D01*
X111764674Y-117309457D01*
X111890579Y-117129646D01*
X111957618Y-116985878D01*
X112003790Y-116933439D01*
X112070983Y-116914287D01*
X112137864Y-116934502D01*
X112182382Y-116985879D01*
X112249419Y-117129642D01*
X112249423Y-117129650D01*
X112375322Y-117309452D01*
X112375327Y-117309458D01*
X112530541Y-117464672D01*
X112530547Y-117464677D01*
X112710349Y-117590576D01*
X112710351Y-117590577D01*
X112710354Y-117590579D01*
X112909297Y-117683347D01*
X113121326Y-117740161D01*
X113277521Y-117753826D01*
X113339998Y-117759292D01*
X113340000Y-117759292D01*
X113340002Y-117759292D01*
X113394668Y-117754509D01*
X113558674Y-117740161D01*
X113770703Y-117683347D01*
X113969646Y-117590579D01*
X114149457Y-117464674D01*
X114304674Y-117309457D01*
X114430579Y-117129646D01*
X114497618Y-116985878D01*
X114543790Y-116933439D01*
X114610983Y-116914287D01*
X114677864Y-116934502D01*
X114722382Y-116985879D01*
X114789419Y-117129642D01*
X114789423Y-117129650D01*
X114915322Y-117309452D01*
X114915327Y-117309458D01*
X115070541Y-117464672D01*
X115070547Y-117464677D01*
X115250349Y-117590576D01*
X115250351Y-117590577D01*
X115250354Y-117590579D01*
X115449297Y-117683347D01*
X115661326Y-117740161D01*
X115817521Y-117753826D01*
X115879998Y-117759292D01*
X115880000Y-117759292D01*
X115880002Y-117759292D01*
X115934668Y-117754509D01*
X116098674Y-117740161D01*
X116310703Y-117683347D01*
X116509646Y-117590579D01*
X116689457Y-117464674D01*
X116844674Y-117309457D01*
X116970579Y-117129646D01*
X117037618Y-116985878D01*
X117083790Y-116933439D01*
X117150983Y-116914287D01*
X117217864Y-116934502D01*
X117262382Y-116985879D01*
X117329419Y-117129642D01*
X117329423Y-117129650D01*
X117455322Y-117309452D01*
X117455327Y-117309458D01*
X117610541Y-117464672D01*
X117610547Y-117464677D01*
X117790349Y-117590576D01*
X117790351Y-117590577D01*
X117790354Y-117590579D01*
X117989297Y-117683347D01*
X118201326Y-117740161D01*
X118357521Y-117753826D01*
X118419998Y-117759292D01*
X118420000Y-117759292D01*
X118420002Y-117759292D01*
X118474668Y-117754509D01*
X118638674Y-117740161D01*
X118850703Y-117683347D01*
X119049646Y-117590579D01*
X119229457Y-117464674D01*
X119384674Y-117309457D01*
X119510579Y-117129646D01*
X119577618Y-116985878D01*
X119623790Y-116933439D01*
X119690983Y-116914287D01*
X119757864Y-116934502D01*
X119802382Y-116985879D01*
X119869419Y-117129642D01*
X119869423Y-117129650D01*
X119995322Y-117309452D01*
X119995327Y-117309458D01*
X120150541Y-117464672D01*
X120150547Y-117464677D01*
X120330349Y-117590576D01*
X120330351Y-117590577D01*
X120330354Y-117590579D01*
X120529297Y-117683347D01*
X120741326Y-117740161D01*
X120897521Y-117753826D01*
X120959998Y-117759292D01*
X120960000Y-117759292D01*
X120960002Y-117759292D01*
X121014668Y-117754509D01*
X121178674Y-117740161D01*
X121390703Y-117683347D01*
X121589646Y-117590579D01*
X121769457Y-117464674D01*
X121924674Y-117309457D01*
X122050579Y-117129646D01*
X122117618Y-116985878D01*
X122163790Y-116933439D01*
X122230983Y-116914287D01*
X122297864Y-116934502D01*
X122342382Y-116985879D01*
X122409419Y-117129642D01*
X122409423Y-117129650D01*
X122535322Y-117309452D01*
X122535327Y-117309458D01*
X122690541Y-117464672D01*
X122690547Y-117464677D01*
X122870349Y-117590576D01*
X122870351Y-117590577D01*
X122870354Y-117590579D01*
X123069297Y-117683347D01*
X123281326Y-117740161D01*
X123437521Y-117753826D01*
X123499998Y-117759292D01*
X123500000Y-117759292D01*
X123500002Y-117759292D01*
X123554668Y-117754509D01*
X123718674Y-117740161D01*
X123930703Y-117683347D01*
X124129646Y-117590579D01*
X124309457Y-117464674D01*
X124464674Y-117309457D01*
X124590579Y-117129646D01*
X124657618Y-116985878D01*
X124703790Y-116933439D01*
X124770983Y-116914287D01*
X124837864Y-116934502D01*
X124882382Y-116985879D01*
X124949419Y-117129642D01*
X124949423Y-117129650D01*
X125075322Y-117309452D01*
X125075327Y-117309458D01*
X125230541Y-117464672D01*
X125230547Y-117464677D01*
X125410349Y-117590576D01*
X125410351Y-117590577D01*
X125410354Y-117590579D01*
X125609297Y-117683347D01*
X125821326Y-117740161D01*
X125977521Y-117753826D01*
X126039998Y-117759292D01*
X126040000Y-117759292D01*
X126040002Y-117759292D01*
X126094668Y-117754509D01*
X126258674Y-117740161D01*
X126470703Y-117683347D01*
X126669646Y-117590579D01*
X126849457Y-117464674D01*
X127004674Y-117309457D01*
X127130579Y-117129646D01*
X127223347Y-116930703D01*
X127280161Y-116718674D01*
X127299292Y-116500000D01*
X127280161Y-116281326D01*
X127223347Y-116069297D01*
X127130579Y-115870354D01*
X127130577Y-115870351D01*
X127130576Y-115870349D01*
X127004677Y-115690547D01*
X127004672Y-115690541D01*
X126926312Y-115612181D01*
X126892827Y-115550858D01*
X126897811Y-115481166D01*
X126939683Y-115425233D01*
X127005147Y-115400816D01*
X127013993Y-115400500D01*
X151130191Y-115400500D01*
X151197230Y-115420185D01*
X151242985Y-115472989D01*
X151252929Y-115542147D01*
X151223904Y-115605703D01*
X151217872Y-115612181D01*
X150244727Y-116585325D01*
X150244721Y-116585332D01*
X150191711Y-116664668D01*
X150191712Y-116664669D01*
X150173534Y-116691874D01*
X150124499Y-116810255D01*
X150124497Y-116810261D01*
X150099500Y-116935928D01*
X150099500Y-122679192D01*
X150079815Y-122746231D01*
X150063181Y-122766873D01*
X149516873Y-123313181D01*
X149455550Y-123346666D01*
X149429192Y-123349500D01*
X76435929Y-123349500D01*
X76310261Y-123374497D01*
X76310255Y-123374499D01*
X76191875Y-123423533D01*
X76191866Y-123423538D01*
X76085331Y-123494723D01*
X76085327Y-123494726D01*
X73994727Y-125585325D01*
X73994726Y-125585326D01*
X73923534Y-125691874D01*
X73874499Y-125810255D01*
X73874497Y-125810261D01*
X73849500Y-125935928D01*
X73849500Y-145479192D01*
X73829815Y-145546231D01*
X73813181Y-145566873D01*
X73191873Y-146188181D01*
X73130550Y-146221666D01*
X73104192Y-146224500D01*
X72499499Y-146224500D01*
X72432460Y-146204815D01*
X72386705Y-146152011D01*
X72375499Y-146100500D01*
X72375499Y-145977125D01*
X72375498Y-145977123D01*
X72369091Y-145917516D01*
X72318797Y-145782671D01*
X72318793Y-145782664D01*
X72232547Y-145667455D01*
X72232544Y-145667452D01*
X72117335Y-145581206D01*
X72117328Y-145581202D01*
X71982482Y-145530908D01*
X71982483Y-145530908D01*
X71922883Y-145524501D01*
X71922881Y-145524500D01*
X71922873Y-145524500D01*
X71922864Y-145524500D01*
X70127129Y-145524500D01*
X70127123Y-145524501D01*
X70067516Y-145530908D01*
X69932671Y-145581202D01*
X69932664Y-145581206D01*
X69817455Y-145667452D01*
X69817452Y-145667455D01*
X69731206Y-145782664D01*
X69731203Y-145782669D01*
X69682189Y-145914083D01*
X69640317Y-145970016D01*
X69574853Y-145994433D01*
X69506580Y-145979581D01*
X69478326Y-145958430D01*
X69356402Y-145836506D01*
X69356395Y-145836501D01*
X69162834Y-145700967D01*
X69162830Y-145700965D01*
X69162828Y-145700964D01*
X68948663Y-145601097D01*
X68948659Y-145601096D01*
X68948655Y-145601094D01*
X68720413Y-145539938D01*
X68720403Y-145539936D01*
X68485001Y-145519341D01*
X68484999Y-145519341D01*
X68249596Y-145539936D01*
X68249586Y-145539938D01*
X68021344Y-145601094D01*
X68021335Y-145601098D01*
X67807171Y-145700964D01*
X67807169Y-145700965D01*
X67613597Y-145836505D01*
X67446508Y-146003594D01*
X67316269Y-146189595D01*
X67261692Y-146233219D01*
X67192193Y-146240412D01*
X67129839Y-146208890D01*
X67113119Y-146189594D01*
X66983113Y-146003926D01*
X66983108Y-146003920D01*
X66816082Y-145836894D01*
X66622578Y-145701399D01*
X66408492Y-145601570D01*
X66408486Y-145601567D01*
X66195000Y-145544364D01*
X66195000Y-146441988D01*
X66137993Y-146409075D01*
X66010826Y-146375000D01*
X65879174Y-146375000D01*
X65752007Y-146409075D01*
X65695000Y-146441988D01*
X65695000Y-145544364D01*
X65694999Y-145544364D01*
X65481513Y-145601567D01*
X65481507Y-145601570D01*
X65267422Y-145701399D01*
X65267420Y-145701400D01*
X65073926Y-145836886D01*
X65073920Y-145836891D01*
X64906891Y-146003920D01*
X64906886Y-146003926D01*
X64771400Y-146197420D01*
X64771399Y-146197422D01*
X64671570Y-146411507D01*
X64671567Y-146411513D01*
X64614364Y-146624999D01*
X64614364Y-146625000D01*
X65511988Y-146625000D01*
X65479075Y-146682007D01*
X65445000Y-146809174D01*
X65445000Y-146940826D01*
X65479075Y-147067993D01*
X65511988Y-147125000D01*
X64614364Y-147125000D01*
X64671567Y-147338486D01*
X64671570Y-147338492D01*
X64771399Y-147552578D01*
X64906894Y-147746082D01*
X65073917Y-147913105D01*
X65267421Y-148048600D01*
X65481507Y-148148429D01*
X65481516Y-148148433D01*
X65695000Y-148205634D01*
X65695000Y-147308012D01*
X65752007Y-147340925D01*
X65879174Y-147375000D01*
X66010826Y-147375000D01*
X66137993Y-147340925D01*
X66195000Y-147308012D01*
X66195000Y-148205633D01*
X66408483Y-148148433D01*
X66408492Y-148148429D01*
X66622578Y-148048600D01*
X66816082Y-147913105D01*
X66983105Y-147746082D01*
X67113119Y-147560405D01*
X67167696Y-147516781D01*
X67237195Y-147509588D01*
X67299549Y-147541110D01*
X67316269Y-147560405D01*
X67446505Y-147746401D01*
X67446506Y-147746402D01*
X67613595Y-147913492D01*
X67613598Y-147913494D01*
X67613599Y-147913495D01*
X67681623Y-147961125D01*
X67725248Y-148015701D01*
X67734500Y-148062700D01*
X67734500Y-149808918D01*
X67734500Y-149808920D01*
X67734499Y-149808920D01*
X67763340Y-149953907D01*
X67763343Y-149953917D01*
X67819914Y-150090492D01*
X67852812Y-150139727D01*
X67852813Y-150139730D01*
X67902046Y-150213414D01*
X67902052Y-150213421D01*
X69162707Y-151474074D01*
X69162728Y-151474097D01*
X73021584Y-155332952D01*
X73021586Y-155332954D01*
X73051058Y-155352645D01*
X73095270Y-155382186D01*
X73144505Y-155415084D01*
X73144506Y-155415084D01*
X73144507Y-155415085D01*
X73144509Y-155415086D01*
X73281082Y-155471656D01*
X73281087Y-155471658D01*
X73281091Y-155471658D01*
X73281092Y-155471659D01*
X73426079Y-155500500D01*
X73426082Y-155500500D01*
X151323920Y-155500500D01*
X151421462Y-155481096D01*
X151468913Y-155471658D01*
X151605495Y-155415084D01*
X151654729Y-155382186D01*
X151654734Y-155382183D01*
X151679071Y-155365921D01*
X151728416Y-155332952D01*
X153582952Y-153478416D01*
X153632186Y-153404729D01*
X153665084Y-153355495D01*
X153688518Y-153298920D01*
X153721659Y-153218912D01*
X153750500Y-153073917D01*
X153750500Y-152926082D01*
X153750500Y-141049972D01*
X153757458Y-141009017D01*
X153785368Y-140929254D01*
X153785369Y-140929249D01*
X153805565Y-140750003D01*
X153805565Y-140749996D01*
X153785369Y-140570750D01*
X153785368Y-140570745D01*
X153725788Y-140400476D01*
X153629815Y-140247737D01*
X153502262Y-140120184D01*
X153349523Y-140024211D01*
X153179254Y-139964631D01*
X153179249Y-139964630D01*
X153000004Y-139944435D01*
X152999996Y-139944435D01*
X152820750Y-139964630D01*
X152820745Y-139964631D01*
X152650476Y-140024211D01*
X152497737Y-140120184D01*
X152370184Y-140247737D01*
X152274211Y-140400476D01*
X152214631Y-140570745D01*
X152214630Y-140570750D01*
X152194435Y-140749996D01*
X152194435Y-140750003D01*
X152214630Y-140929249D01*
X152214631Y-140929254D01*
X152242542Y-141009017D01*
X152249500Y-141049972D01*
X152249500Y-152637770D01*
X152229815Y-152704809D01*
X152213181Y-152725451D01*
X150975451Y-153963181D01*
X150914128Y-153996666D01*
X150887770Y-153999500D01*
X73862230Y-153999500D01*
X73795191Y-153979815D01*
X73774549Y-153963181D01*
X71752697Y-151941328D01*
X90092200Y-151941328D01*
X90092200Y-152178671D01*
X90129326Y-152413077D01*
X90202668Y-152638798D01*
X90310414Y-152850259D01*
X90449915Y-153042265D01*
X90617735Y-153210085D01*
X90809741Y-153349586D01*
X90909648Y-153400491D01*
X91021201Y-153457331D01*
X91021203Y-153457331D01*
X91021206Y-153457333D01*
X91086093Y-153478416D01*
X91246922Y-153530673D01*
X91481329Y-153567800D01*
X91481334Y-153567800D01*
X91718671Y-153567800D01*
X91953077Y-153530673D01*
X92178794Y-153457333D01*
X92390259Y-153349586D01*
X92582265Y-153210085D01*
X92750085Y-153042265D01*
X92889586Y-152850259D01*
X92997333Y-152638794D01*
X93070673Y-152413077D01*
X93107800Y-152178671D01*
X93107800Y-151941328D01*
X140892200Y-151941328D01*
X140892200Y-152178671D01*
X140929326Y-152413077D01*
X141002668Y-152638798D01*
X141110414Y-152850259D01*
X141249915Y-153042265D01*
X141417735Y-153210085D01*
X141609741Y-153349586D01*
X141709648Y-153400491D01*
X141821201Y-153457331D01*
X141821203Y-153457331D01*
X141821206Y-153457333D01*
X141886093Y-153478416D01*
X142046922Y-153530673D01*
X142281329Y-153567800D01*
X142281334Y-153567800D01*
X142518671Y-153567800D01*
X142753077Y-153530673D01*
X142978794Y-153457333D01*
X143190259Y-153349586D01*
X143382265Y-153210085D01*
X143550085Y-153042265D01*
X143689586Y-152850259D01*
X143797333Y-152638794D01*
X143870673Y-152413077D01*
X143907800Y-152178671D01*
X143907800Y-151941328D01*
X143870673Y-151706922D01*
X143797331Y-151481201D01*
X143689585Y-151269740D01*
X143550085Y-151077735D01*
X143382265Y-150909915D01*
X143190259Y-150770414D01*
X142978798Y-150662668D01*
X142753077Y-150589326D01*
X142518671Y-150552200D01*
X142518666Y-150552200D01*
X142281334Y-150552200D01*
X142281329Y-150552200D01*
X142046922Y-150589326D01*
X141821201Y-150662668D01*
X141609740Y-150770414D01*
X141500194Y-150850004D01*
X141417735Y-150909915D01*
X141417733Y-150909917D01*
X141417732Y-150909917D01*
X141249917Y-151077732D01*
X141249917Y-151077733D01*
X141249915Y-151077735D01*
X141190004Y-151160194D01*
X141110414Y-151269740D01*
X141002668Y-151481201D01*
X140929326Y-151706922D01*
X140892200Y-151941328D01*
X93107800Y-151941328D01*
X93070673Y-151706922D01*
X92997331Y-151481201D01*
X92889585Y-151269740D01*
X92750085Y-151077735D01*
X92582265Y-150909915D01*
X92390259Y-150770414D01*
X92178798Y-150662668D01*
X91953077Y-150589326D01*
X91718671Y-150552200D01*
X91718666Y-150552200D01*
X91481334Y-150552200D01*
X91481329Y-150552200D01*
X91246922Y-150589326D01*
X91021201Y-150662668D01*
X90809740Y-150770414D01*
X90700194Y-150850004D01*
X90617735Y-150909915D01*
X90617733Y-150909917D01*
X90617732Y-150909917D01*
X90449917Y-151077732D01*
X90449917Y-151077733D01*
X90449915Y-151077735D01*
X90390004Y-151160194D01*
X90310414Y-151269740D01*
X90202668Y-151481201D01*
X90129326Y-151706922D01*
X90092200Y-151941328D01*
X71752697Y-151941328D01*
X70224097Y-150412728D01*
X70224074Y-150412707D01*
X69271819Y-149460451D01*
X69238334Y-149399128D01*
X69235500Y-149372770D01*
X69235500Y-148062700D01*
X69255185Y-147995661D01*
X69288375Y-147961126D01*
X69356401Y-147913495D01*
X69478329Y-147791566D01*
X69539648Y-147758084D01*
X69609340Y-147763068D01*
X69665274Y-147804939D01*
X69682189Y-147835917D01*
X69731202Y-147967328D01*
X69731206Y-147967335D01*
X69817452Y-148082544D01*
X69817455Y-148082547D01*
X69932664Y-148168793D01*
X69932671Y-148168797D01*
X70067517Y-148219091D01*
X70067516Y-148219091D01*
X70074444Y-148219835D01*
X70127127Y-148225500D01*
X71922872Y-148225499D01*
X71982483Y-148219091D01*
X72117331Y-148168796D01*
X72232546Y-148082546D01*
X72318796Y-147967331D01*
X72369091Y-147832483D01*
X72375500Y-147772873D01*
X72375500Y-147649500D01*
X72395185Y-147582461D01*
X72447989Y-147536706D01*
X72499500Y-147525500D01*
X73489071Y-147525500D01*
X73573615Y-147508682D01*
X73614744Y-147500501D01*
X73733127Y-147451465D01*
X73839669Y-147380277D01*
X75005277Y-146214669D01*
X75076466Y-146108126D01*
X75097598Y-146057107D01*
X75125501Y-145989744D01*
X75128012Y-145977125D01*
X75150499Y-145864073D01*
X75150500Y-145864071D01*
X75150500Y-142369999D01*
X78221127Y-142369999D01*
X78221128Y-142370000D01*
X79184314Y-142370000D01*
X79179920Y-142374394D01*
X79127259Y-142465606D01*
X79100000Y-142567339D01*
X79100000Y-142672661D01*
X79127259Y-142774394D01*
X79179920Y-142865606D01*
X79184314Y-142870000D01*
X78221128Y-142870000D01*
X78273730Y-143066317D01*
X78273734Y-143066326D01*
X78369865Y-143272482D01*
X78500342Y-143458820D01*
X78661179Y-143619657D01*
X78847517Y-143750134D01*
X79053673Y-143846265D01*
X79053682Y-143846269D01*
X79249999Y-143898872D01*
X79250000Y-143898871D01*
X79250000Y-142935686D01*
X79254394Y-142940080D01*
X79345606Y-142992741D01*
X79447339Y-143020000D01*
X79552661Y-143020000D01*
X79654394Y-142992741D01*
X79745606Y-142940080D01*
X79750000Y-142935686D01*
X79750000Y-143898872D01*
X79946317Y-143846269D01*
X79946326Y-143846265D01*
X80152482Y-143750134D01*
X80338820Y-143619657D01*
X80499657Y-143458820D01*
X80630134Y-143272482D01*
X80726265Y-143066326D01*
X80726269Y-143066317D01*
X80778872Y-142870000D01*
X79815686Y-142870000D01*
X79820080Y-142865606D01*
X79872741Y-142774394D01*
X79900000Y-142672661D01*
X79900000Y-142567339D01*
X79872741Y-142465606D01*
X79820080Y-142374394D01*
X79815686Y-142370000D01*
X80778872Y-142370000D01*
X80778872Y-142369999D01*
X80726269Y-142173682D01*
X80726265Y-142173673D01*
X80630134Y-141967517D01*
X80499657Y-141781179D01*
X80338820Y-141620342D01*
X80152482Y-141489865D01*
X79946328Y-141393734D01*
X79750000Y-141341127D01*
X79750000Y-142304314D01*
X79745606Y-142299920D01*
X79654394Y-142247259D01*
X79552661Y-142220000D01*
X79447339Y-142220000D01*
X79345606Y-142247259D01*
X79254394Y-142299920D01*
X79250000Y-142304314D01*
X79250000Y-141341127D01*
X79053671Y-141393734D01*
X78847517Y-141489865D01*
X78661179Y-141620342D01*
X78500342Y-141781179D01*
X78369865Y-141967517D01*
X78273734Y-142173673D01*
X78273730Y-142173682D01*
X78221127Y-142369999D01*
X75150500Y-142369999D01*
X75150500Y-136302155D01*
X157825000Y-136302155D01*
X157825000Y-137000000D01*
X158849722Y-137000000D01*
X158805667Y-137076306D01*
X158775000Y-137190756D01*
X158775000Y-137309244D01*
X158805667Y-137423694D01*
X158849722Y-137500000D01*
X157825000Y-137500000D01*
X157825000Y-138197844D01*
X157831401Y-138257372D01*
X157831403Y-138257379D01*
X157881645Y-138392086D01*
X157881649Y-138392093D01*
X157967809Y-138507187D01*
X157967812Y-138507190D01*
X158082906Y-138593350D01*
X158082913Y-138593354D01*
X158217620Y-138643596D01*
X158217627Y-138643598D01*
X158277155Y-138649999D01*
X158277172Y-138650000D01*
X158975000Y-138650000D01*
X158975000Y-137625277D01*
X159051306Y-137669333D01*
X159165756Y-137700000D01*
X159284244Y-137700000D01*
X159398694Y-137669333D01*
X159475000Y-137625277D01*
X159475000Y-138650000D01*
X160172828Y-138650000D01*
X160172844Y-138649999D01*
X160232372Y-138643598D01*
X160232379Y-138643596D01*
X160367086Y-138593354D01*
X160367093Y-138593350D01*
X160482187Y-138507190D01*
X160482190Y-138507187D01*
X160568350Y-138392093D01*
X160568355Y-138392084D01*
X160597075Y-138315081D01*
X160638945Y-138259147D01*
X160704409Y-138234729D01*
X160772682Y-138249580D01*
X160804484Y-138274428D01*
X160813216Y-138283913D01*
X160813219Y-138283915D01*
X160813222Y-138283918D01*
X160996365Y-138426464D01*
X160996371Y-138426468D01*
X160996374Y-138426470D01*
X161200497Y-138536936D01*
X161314487Y-138576068D01*
X161420015Y-138612297D01*
X161420017Y-138612297D01*
X161420019Y-138612298D01*
X161648951Y-138650500D01*
X161648952Y-138650500D01*
X161881048Y-138650500D01*
X161881049Y-138650500D01*
X162109981Y-138612298D01*
X162329503Y-138536936D01*
X162533626Y-138426470D01*
X162716784Y-138283913D01*
X162873979Y-138113153D01*
X163000924Y-137918849D01*
X163094157Y-137706300D01*
X163151134Y-137481305D01*
X163170300Y-137250000D01*
X163170300Y-137249993D01*
X163151135Y-137018702D01*
X163151133Y-137018691D01*
X163094157Y-136793699D01*
X163000924Y-136581151D01*
X162873983Y-136386852D01*
X162873980Y-136386849D01*
X162873979Y-136386847D01*
X162796015Y-136302155D01*
X164325000Y-136302155D01*
X164325000Y-137000000D01*
X165349722Y-137000000D01*
X165305667Y-137076306D01*
X165275000Y-137190756D01*
X165275000Y-137309244D01*
X165305667Y-137423694D01*
X165349722Y-137500000D01*
X164325000Y-137500000D01*
X164325000Y-138197844D01*
X164331401Y-138257372D01*
X164331403Y-138257379D01*
X164381645Y-138392086D01*
X164381649Y-138392093D01*
X164467809Y-138507187D01*
X164467812Y-138507190D01*
X164582906Y-138593350D01*
X164582913Y-138593354D01*
X164717620Y-138643596D01*
X164717627Y-138643598D01*
X164777155Y-138649999D01*
X164777172Y-138650000D01*
X165475000Y-138650000D01*
X165475000Y-137625277D01*
X165551306Y-137669333D01*
X165665756Y-137700000D01*
X165784244Y-137700000D01*
X165898694Y-137669333D01*
X165975000Y-137625277D01*
X165975000Y-138650000D01*
X166672828Y-138650000D01*
X166672844Y-138649999D01*
X166732372Y-138643598D01*
X166732379Y-138643596D01*
X166867086Y-138593354D01*
X166867093Y-138593350D01*
X166982187Y-138507190D01*
X166982190Y-138507187D01*
X167068350Y-138392093D01*
X167068355Y-138392084D01*
X167097075Y-138315081D01*
X167138945Y-138259147D01*
X167204409Y-138234729D01*
X167272682Y-138249580D01*
X167304484Y-138274428D01*
X167313216Y-138283913D01*
X167313219Y-138283915D01*
X167313222Y-138283918D01*
X167496365Y-138426464D01*
X167496371Y-138426468D01*
X167496374Y-138426470D01*
X167700497Y-138536936D01*
X167814487Y-138576068D01*
X167920015Y-138612297D01*
X167920017Y-138612297D01*
X167920019Y-138612298D01*
X168148951Y-138650500D01*
X168148952Y-138650500D01*
X168381048Y-138650500D01*
X168381049Y-138650500D01*
X168609981Y-138612298D01*
X168829503Y-138536936D01*
X169033626Y-138426470D01*
X169216784Y-138283913D01*
X169373979Y-138113153D01*
X169500924Y-137918849D01*
X169594157Y-137706300D01*
X169651134Y-137481305D01*
X169670300Y-137250000D01*
X169670300Y-137249993D01*
X169651135Y-137018702D01*
X169651133Y-137018691D01*
X169594157Y-136793699D01*
X169500924Y-136581151D01*
X169373983Y-136386852D01*
X169373980Y-136386849D01*
X169373979Y-136386847D01*
X169216784Y-136216087D01*
X169216779Y-136216083D01*
X169216777Y-136216081D01*
X169033634Y-136073535D01*
X169033628Y-136073531D01*
X168829504Y-135963064D01*
X168829495Y-135963061D01*
X168609984Y-135887702D01*
X168422404Y-135856401D01*
X168381049Y-135849500D01*
X168148951Y-135849500D01*
X168107596Y-135856401D01*
X167920015Y-135887702D01*
X167700504Y-135963061D01*
X167700495Y-135963064D01*
X167496371Y-136073531D01*
X167496365Y-136073535D01*
X167313222Y-136216081D01*
X167313215Y-136216087D01*
X167304484Y-136225572D01*
X167244595Y-136261561D01*
X167174757Y-136259458D01*
X167117143Y-136219932D01*
X167097075Y-136184918D01*
X167068355Y-136107915D01*
X167068350Y-136107906D01*
X166982190Y-135992812D01*
X166982187Y-135992809D01*
X166867093Y-135906649D01*
X166867086Y-135906645D01*
X166732379Y-135856403D01*
X166732372Y-135856401D01*
X166672844Y-135850000D01*
X165975000Y-135850000D01*
X165975000Y-136874722D01*
X165898694Y-136830667D01*
X165784244Y-136800000D01*
X165665756Y-136800000D01*
X165551306Y-136830667D01*
X165475000Y-136874722D01*
X165475000Y-135850000D01*
X164777155Y-135850000D01*
X164717627Y-135856401D01*
X164717620Y-135856403D01*
X164582913Y-135906645D01*
X164582906Y-135906649D01*
X164467812Y-135992809D01*
X164467809Y-135992812D01*
X164381649Y-136107906D01*
X164381645Y-136107913D01*
X164331403Y-136242620D01*
X164331401Y-136242627D01*
X164325000Y-136302155D01*
X162796015Y-136302155D01*
X162716784Y-136216087D01*
X162716779Y-136216083D01*
X162716777Y-136216081D01*
X162533634Y-136073535D01*
X162533628Y-136073531D01*
X162329504Y-135963064D01*
X162329495Y-135963061D01*
X162109984Y-135887702D01*
X161922404Y-135856401D01*
X161881049Y-135849500D01*
X161648951Y-135849500D01*
X161607596Y-135856401D01*
X161420015Y-135887702D01*
X161200504Y-135963061D01*
X161200495Y-135963064D01*
X160996371Y-136073531D01*
X160996365Y-136073535D01*
X160813222Y-136216081D01*
X160813215Y-136216087D01*
X160804484Y-136225572D01*
X160744595Y-136261561D01*
X160674757Y-136259458D01*
X160617143Y-136219932D01*
X160597075Y-136184918D01*
X160568355Y-136107915D01*
X160568350Y-136107906D01*
X160482190Y-135992812D01*
X160482187Y-135992809D01*
X160367093Y-135906649D01*
X160367086Y-135906645D01*
X160232379Y-135856403D01*
X160232372Y-135856401D01*
X160172844Y-135850000D01*
X159475000Y-135850000D01*
X159475000Y-136874722D01*
X159398694Y-136830667D01*
X159284244Y-136800000D01*
X159165756Y-136800000D01*
X159051306Y-136830667D01*
X158975000Y-136874722D01*
X158975000Y-135850000D01*
X158277155Y-135850000D01*
X158217627Y-135856401D01*
X158217620Y-135856403D01*
X158082913Y-135906645D01*
X158082906Y-135906649D01*
X157967812Y-135992809D01*
X157967809Y-135992812D01*
X157881649Y-136107906D01*
X157881645Y-136107913D01*
X157831403Y-136242620D01*
X157831401Y-136242627D01*
X157825000Y-136302155D01*
X75150500Y-136302155D01*
X75150500Y-127379998D01*
X78194532Y-127379998D01*
X78194532Y-127380001D01*
X78214364Y-127606686D01*
X78214366Y-127606697D01*
X78273258Y-127826488D01*
X78273261Y-127826497D01*
X78369431Y-128032732D01*
X78369432Y-128032734D01*
X78499954Y-128219141D01*
X78660858Y-128380045D01*
X78660861Y-128380047D01*
X78847266Y-128510568D01*
X79053504Y-128606739D01*
X79273308Y-128665635D01*
X79435230Y-128679801D01*
X79499998Y-128685468D01*
X79500000Y-128685468D01*
X79500002Y-128685468D01*
X79556673Y-128680509D01*
X79726692Y-128665635D01*
X79946496Y-128606739D01*
X80152734Y-128510568D01*
X80339139Y-128380047D01*
X80500047Y-128219139D01*
X80630568Y-128032734D01*
X80726739Y-127826496D01*
X80785635Y-127606692D01*
X80805468Y-127380000D01*
X80785635Y-127153308D01*
X80726739Y-126933504D01*
X80630568Y-126727266D01*
X80500047Y-126540861D01*
X80500045Y-126540858D01*
X80339141Y-126379954D01*
X80152734Y-126249432D01*
X80152732Y-126249431D01*
X79946497Y-126153261D01*
X79946488Y-126153258D01*
X79726697Y-126094366D01*
X79726693Y-126094365D01*
X79726692Y-126094365D01*
X79726691Y-126094364D01*
X79726686Y-126094364D01*
X79500002Y-126074532D01*
X79499998Y-126074532D01*
X79273313Y-126094364D01*
X79273302Y-126094366D01*
X79053511Y-126153258D01*
X79053502Y-126153261D01*
X78847267Y-126249431D01*
X78847265Y-126249432D01*
X78660858Y-126379954D01*
X78499954Y-126540858D01*
X78369432Y-126727265D01*
X78369431Y-126727267D01*
X78273261Y-126933502D01*
X78273258Y-126933511D01*
X78214366Y-127153302D01*
X78214364Y-127153313D01*
X78194532Y-127379998D01*
X75150500Y-127379998D01*
X75150500Y-126320807D01*
X75170185Y-126253768D01*
X75186819Y-126233126D01*
X76733126Y-124686819D01*
X76794449Y-124653334D01*
X76820807Y-124650500D01*
X149814071Y-124650500D01*
X149898615Y-124633682D01*
X149939744Y-124625501D01*
X150058127Y-124576465D01*
X150164669Y-124505277D01*
X150887819Y-123782127D01*
X150949142Y-123748642D01*
X151018833Y-123753626D01*
X151074767Y-123795498D01*
X151099184Y-123860962D01*
X151099500Y-123869808D01*
X151099500Y-128064069D01*
X151099500Y-128064071D01*
X151099499Y-128064071D01*
X151124497Y-128189738D01*
X151124499Y-128189744D01*
X151173535Y-128308127D01*
X151221590Y-128380047D01*
X151244726Y-128414673D01*
X152585328Y-129755275D01*
X152688228Y-129824030D01*
X152690085Y-129825270D01*
X152691873Y-129826465D01*
X152810256Y-129875501D01*
X152810260Y-129875501D01*
X152810261Y-129875502D01*
X152935928Y-129900500D01*
X152935931Y-129900500D01*
X155183317Y-129900500D01*
X155250356Y-129920185D01*
X155284892Y-129953377D01*
X155379954Y-130089141D01*
X155540858Y-130250045D01*
X155540861Y-130250047D01*
X155727266Y-130380568D01*
X155933504Y-130476739D01*
X156153308Y-130535635D01*
X156315230Y-130549801D01*
X156379998Y-130555468D01*
X156380000Y-130555468D01*
X156380002Y-130555468D01*
X156436673Y-130550509D01*
X156606692Y-130535635D01*
X156826496Y-130476739D01*
X157032734Y-130380568D01*
X157219139Y-130250047D01*
X157380047Y-130089139D01*
X157510568Y-129902734D01*
X157606739Y-129696496D01*
X157665635Y-129476692D01*
X157685468Y-129250000D01*
X157685468Y-129249998D01*
X170314532Y-129249998D01*
X170314532Y-129250001D01*
X170334364Y-129476686D01*
X170334366Y-129476697D01*
X170393258Y-129696488D01*
X170393261Y-129696497D01*
X170489431Y-129902732D01*
X170489432Y-129902734D01*
X170619954Y-130089141D01*
X170780858Y-130250045D01*
X170780861Y-130250047D01*
X170967266Y-130380568D01*
X171173504Y-130476739D01*
X171393308Y-130535635D01*
X171555230Y-130549801D01*
X171619998Y-130555468D01*
X171620000Y-130555468D01*
X171620002Y-130555468D01*
X171676673Y-130550509D01*
X171846692Y-130535635D01*
X172066496Y-130476739D01*
X172272734Y-130380568D01*
X172459139Y-130250047D01*
X172620047Y-130089139D01*
X172750568Y-129902734D01*
X172846739Y-129696496D01*
X172905635Y-129476692D01*
X172925468Y-129250000D01*
X172905635Y-129023308D01*
X172846739Y-128803504D01*
X172750568Y-128597266D01*
X172620047Y-128410861D01*
X172620045Y-128410858D01*
X172459141Y-128249954D01*
X172272734Y-128119432D01*
X172272732Y-128119431D01*
X172066497Y-128023261D01*
X172066488Y-128023258D01*
X171846697Y-127964366D01*
X171846693Y-127964365D01*
X171846692Y-127964365D01*
X171846691Y-127964364D01*
X171846686Y-127964364D01*
X171620002Y-127944532D01*
X171619998Y-127944532D01*
X171393313Y-127964364D01*
X171393302Y-127964366D01*
X171173511Y-128023258D01*
X171173502Y-128023261D01*
X170967267Y-128119431D01*
X170967265Y-128119432D01*
X170780858Y-128249954D01*
X170619954Y-128410858D01*
X170489432Y-128597265D01*
X170489431Y-128597267D01*
X170393261Y-128803502D01*
X170393258Y-128803511D01*
X170334366Y-129023302D01*
X170334364Y-129023313D01*
X170314532Y-129249998D01*
X157685468Y-129249998D01*
X157665635Y-129023308D01*
X157606739Y-128803504D01*
X157510568Y-128597266D01*
X157380047Y-128410861D01*
X157380045Y-128410858D01*
X157219141Y-128249954D01*
X157032734Y-128119432D01*
X157032732Y-128119431D01*
X156826497Y-128023261D01*
X156826488Y-128023258D01*
X156606697Y-127964366D01*
X156606693Y-127964365D01*
X156606692Y-127964365D01*
X156606691Y-127964364D01*
X156606686Y-127964364D01*
X156380002Y-127944532D01*
X156379998Y-127944532D01*
X156153313Y-127964364D01*
X156153302Y-127964366D01*
X155933511Y-128023258D01*
X155933502Y-128023261D01*
X155727267Y-128119431D01*
X155727265Y-128119432D01*
X155540858Y-128249954D01*
X155379954Y-128410858D01*
X155284892Y-128546623D01*
X155230315Y-128590248D01*
X155183317Y-128599500D01*
X153320808Y-128599500D01*
X153253769Y-128579815D01*
X153233127Y-128563181D01*
X152436819Y-127766873D01*
X152403334Y-127705550D01*
X152400500Y-127679192D01*
X152400500Y-118070807D01*
X152420185Y-118003768D01*
X152436819Y-117983126D01*
X152733126Y-117686819D01*
X152794449Y-117653334D01*
X152820807Y-117650500D01*
X153880191Y-117650500D01*
X153947230Y-117670185D01*
X153992985Y-117722989D01*
X154002929Y-117792147D01*
X153973904Y-117855703D01*
X153967872Y-117862181D01*
X152994727Y-118835325D01*
X152994726Y-118835326D01*
X152923534Y-118941874D01*
X152874499Y-119060255D01*
X152874497Y-119060261D01*
X152849500Y-119185928D01*
X152849500Y-121064070D01*
X152861521Y-121124499D01*
X152861521Y-121124501D01*
X152874497Y-121189736D01*
X152874499Y-121189744D01*
X152923534Y-121308125D01*
X152994726Y-121414673D01*
X152994727Y-121414674D01*
X153744724Y-122164669D01*
X153835331Y-122255276D01*
X153835332Y-122255277D01*
X153941866Y-122326461D01*
X153941872Y-122326464D01*
X153941873Y-122326465D01*
X154060256Y-122375501D01*
X154060260Y-122375501D01*
X154060261Y-122375502D01*
X154185928Y-122400500D01*
X154185931Y-122400500D01*
X155183317Y-122400500D01*
X155250356Y-122420185D01*
X155284892Y-122453377D01*
X155379954Y-122589141D01*
X155540858Y-122750045D01*
X155540861Y-122750047D01*
X155727266Y-122880568D01*
X155933504Y-122976739D01*
X156153308Y-123035635D01*
X156315230Y-123049801D01*
X156379998Y-123055468D01*
X156380000Y-123055468D01*
X156380002Y-123055468D01*
X156436673Y-123050509D01*
X156606692Y-123035635D01*
X156826496Y-122976739D01*
X157032734Y-122880568D01*
X157219139Y-122750047D01*
X157380047Y-122589139D01*
X157510568Y-122402734D01*
X157606739Y-122196496D01*
X157665635Y-121976692D01*
X157685468Y-121750000D01*
X157685468Y-121749998D01*
X170314532Y-121749998D01*
X170314532Y-121750001D01*
X170334364Y-121976686D01*
X170334366Y-121976697D01*
X170393258Y-122196488D01*
X170393261Y-122196497D01*
X170489431Y-122402732D01*
X170489432Y-122402734D01*
X170619954Y-122589141D01*
X170780858Y-122750045D01*
X170780861Y-122750047D01*
X170967266Y-122880568D01*
X171173504Y-122976739D01*
X171393308Y-123035635D01*
X171555230Y-123049801D01*
X171619998Y-123055468D01*
X171620000Y-123055468D01*
X171620002Y-123055468D01*
X171676673Y-123050509D01*
X171846692Y-123035635D01*
X172066496Y-122976739D01*
X172272734Y-122880568D01*
X172459139Y-122750047D01*
X172620047Y-122589139D01*
X172750568Y-122402734D01*
X172846739Y-122196496D01*
X172905635Y-121976692D01*
X172925468Y-121750000D01*
X172905635Y-121523308D01*
X172846739Y-121303504D01*
X172750568Y-121097266D01*
X172620047Y-120910861D01*
X172620045Y-120910858D01*
X172459141Y-120749954D01*
X172272734Y-120619432D01*
X172272732Y-120619431D01*
X172066497Y-120523261D01*
X172066488Y-120523258D01*
X171846697Y-120464366D01*
X171846693Y-120464365D01*
X171846692Y-120464365D01*
X171846691Y-120464364D01*
X171846686Y-120464364D01*
X171620002Y-120444532D01*
X171619998Y-120444532D01*
X171393313Y-120464364D01*
X171393302Y-120464366D01*
X171173511Y-120523258D01*
X171173502Y-120523261D01*
X170967267Y-120619431D01*
X170967265Y-120619432D01*
X170780858Y-120749954D01*
X170619954Y-120910858D01*
X170489432Y-121097265D01*
X170489431Y-121097267D01*
X170393261Y-121303502D01*
X170393258Y-121303511D01*
X170334366Y-121523302D01*
X170334364Y-121523313D01*
X170314532Y-121749998D01*
X157685468Y-121749998D01*
X157665635Y-121523308D01*
X157606739Y-121303504D01*
X157510568Y-121097266D01*
X157380047Y-120910861D01*
X157380045Y-120910858D01*
X157219141Y-120749954D01*
X157032734Y-120619432D01*
X157032732Y-120619431D01*
X156826497Y-120523261D01*
X156826488Y-120523258D01*
X156606697Y-120464366D01*
X156606693Y-120464365D01*
X156606692Y-120464365D01*
X156606691Y-120464364D01*
X156606686Y-120464364D01*
X156380002Y-120444532D01*
X156379998Y-120444532D01*
X156153313Y-120464364D01*
X156153302Y-120464366D01*
X155933511Y-120523258D01*
X155933502Y-120523261D01*
X155727267Y-120619431D01*
X155727265Y-120619432D01*
X155540858Y-120749954D01*
X155379954Y-120910858D01*
X155284892Y-121046623D01*
X155230315Y-121090248D01*
X155183317Y-121099500D01*
X154570807Y-121099500D01*
X154503768Y-121079815D01*
X154483126Y-121063181D01*
X154186819Y-120766873D01*
X154153334Y-120705550D01*
X154150500Y-120679192D01*
X154150500Y-119570808D01*
X154170185Y-119503769D01*
X154186819Y-119483127D01*
X154733127Y-118936819D01*
X154794450Y-118903334D01*
X154820808Y-118900500D01*
X170314071Y-118900500D01*
X170398615Y-118883682D01*
X170439744Y-118875501D01*
X170558127Y-118826465D01*
X170664669Y-118755277D01*
X172755276Y-116664669D01*
X172826465Y-116558127D01*
X172875501Y-116439744D01*
X172880489Y-116414669D01*
X172900500Y-116314069D01*
X172900500Y-101685931D01*
X172900500Y-101685928D01*
X172875502Y-101560261D01*
X172875501Y-101560260D01*
X172875501Y-101560256D01*
X172826465Y-101441873D01*
X172824474Y-101438893D01*
X172822499Y-101435936D01*
X172810193Y-101417520D01*
X172790073Y-101362510D01*
X172785368Y-101320745D01*
X172725789Y-101150478D01*
X172629816Y-100997738D01*
X172502262Y-100870184D01*
X172446794Y-100835331D01*
X172349523Y-100774211D01*
X172179254Y-100714631D01*
X172179249Y-100714630D01*
X172000004Y-100694435D01*
X171999996Y-100694435D01*
X171820750Y-100714630D01*
X171820737Y-100714633D01*
X171650479Y-100774209D01*
X171607499Y-100801215D01*
X171540261Y-100820214D01*
X171473427Y-100799845D01*
X171453848Y-100783902D01*
X171391029Y-100721083D01*
X171321720Y-100651774D01*
X171288237Y-100590454D01*
X171286182Y-100577973D01*
X171285368Y-100570745D01*
X171225789Y-100400478D01*
X171129816Y-100247738D01*
X171002262Y-100120184D01*
X170978883Y-100105494D01*
X170849523Y-100024211D01*
X170679254Y-99964631D01*
X170679249Y-99964630D01*
X170500004Y-99944435D01*
X170499996Y-99944435D01*
X170320750Y-99964630D01*
X170320745Y-99964631D01*
X170150476Y-100024211D01*
X169997737Y-100120184D01*
X169870184Y-100247737D01*
X169774211Y-100400476D01*
X169714631Y-100570745D01*
X169714630Y-100570750D01*
X169694435Y-100749996D01*
X169694435Y-100750003D01*
X169714630Y-100929249D01*
X169714631Y-100929254D01*
X169774211Y-101099523D01*
X169870184Y-101252262D01*
X169997738Y-101379816D01*
X170150478Y-101475789D01*
X170266456Y-101516371D01*
X170323230Y-101557091D01*
X170348978Y-101622044D01*
X170349500Y-101633412D01*
X170349500Y-115679192D01*
X170329815Y-115746231D01*
X170313181Y-115766873D01*
X169766873Y-116313181D01*
X169705550Y-116346666D01*
X169679192Y-116349500D01*
X164619808Y-116349500D01*
X164552769Y-116329815D01*
X164507014Y-116277011D01*
X164497070Y-116207853D01*
X164526095Y-116144297D01*
X164532127Y-116137819D01*
X164905273Y-115764673D01*
X164905277Y-115764669D01*
X164976465Y-115658127D01*
X165006618Y-115585331D01*
X165025501Y-115539744D01*
X165048025Y-115426511D01*
X165050500Y-115414071D01*
X165050500Y-111605067D01*
X165069507Y-111539094D01*
X165125788Y-111449524D01*
X165141951Y-111403334D01*
X165185368Y-111279255D01*
X165205565Y-111100000D01*
X165202455Y-111072401D01*
X165185369Y-110920750D01*
X165185368Y-110920745D01*
X165148039Y-110814066D01*
X165125789Y-110750478D01*
X165029816Y-110597738D01*
X164902262Y-110470184D01*
X164853808Y-110439738D01*
X164749523Y-110374211D01*
X164579254Y-110314631D01*
X164579249Y-110314630D01*
X164400004Y-110294435D01*
X164400001Y-110294435D01*
X164400000Y-110294435D01*
X164396212Y-110294861D01*
X164388380Y-110295744D01*
X164319559Y-110283687D01*
X164268181Y-110236337D01*
X164250500Y-110172523D01*
X164250500Y-109905067D01*
X164269507Y-109839094D01*
X164325788Y-109749524D01*
X164327468Y-109744723D01*
X164385368Y-109579255D01*
X164399996Y-109449427D01*
X164405565Y-109400003D01*
X164405565Y-109399996D01*
X164385369Y-109220750D01*
X164385368Y-109220745D01*
X164365748Y-109164675D01*
X164325789Y-109050478D01*
X164229816Y-108897738D01*
X164102262Y-108770184D01*
X163949523Y-108674211D01*
X163779254Y-108614631D01*
X163779249Y-108614630D01*
X163600004Y-108594435D01*
X163599996Y-108594435D01*
X163420750Y-108614630D01*
X163420745Y-108614631D01*
X163250476Y-108674211D01*
X163097737Y-108770184D01*
X162970184Y-108897737D01*
X162874211Y-109050476D01*
X162814631Y-109220745D01*
X162814630Y-109220750D01*
X162794435Y-109399996D01*
X162794435Y-109400003D01*
X162814630Y-109579249D01*
X162814631Y-109579254D01*
X162874211Y-109749524D01*
X162901214Y-109792497D01*
X162920215Y-109859734D01*
X162899848Y-109926569D01*
X162883903Y-109946151D01*
X162766871Y-110063182D01*
X162705551Y-110096666D01*
X162679192Y-110099500D01*
X114435929Y-110099500D01*
X114310261Y-110124497D01*
X114310255Y-110124499D01*
X114191874Y-110173534D01*
X114085326Y-110244726D01*
X112834726Y-111495326D01*
X112763534Y-111601874D01*
X112714499Y-111720255D01*
X112714497Y-111720261D01*
X112689500Y-111845928D01*
X112689500Y-115359472D01*
X112669815Y-115426511D01*
X112636624Y-115461047D01*
X112530543Y-115535326D01*
X112530541Y-115535327D01*
X112375327Y-115690541D01*
X112375322Y-115690547D01*
X112249423Y-115870349D01*
X112249419Y-115870357D01*
X112182382Y-116014120D01*
X112136210Y-116066560D01*
X112069017Y-116085712D01*
X112002135Y-116065496D01*
X111957618Y-116014120D01*
X111890580Y-115870357D01*
X111890579Y-115870354D01*
X111890577Y-115870351D01*
X111890576Y-115870349D01*
X111764677Y-115690547D01*
X111764672Y-115690541D01*
X111609458Y-115535327D01*
X111609457Y-115535326D01*
X111503376Y-115461047D01*
X111459751Y-115406470D01*
X111450500Y-115359472D01*
X111450500Y-100749996D01*
X125194435Y-100749996D01*
X125194435Y-100750003D01*
X125214630Y-100929249D01*
X125214631Y-100929254D01*
X125274211Y-101099524D01*
X125330493Y-101189094D01*
X125349500Y-101255067D01*
X125349500Y-101994931D01*
X125330494Y-102060903D01*
X125274211Y-102150477D01*
X125274209Y-102150481D01*
X125214633Y-102320737D01*
X125214630Y-102320750D01*
X125194435Y-102499996D01*
X125194435Y-102500003D01*
X125214630Y-102679249D01*
X125214631Y-102679254D01*
X125274211Y-102849523D01*
X125370184Y-103002262D01*
X125497738Y-103129816D01*
X125650478Y-103225789D01*
X125820745Y-103285368D01*
X125820750Y-103285369D01*
X125999996Y-103305565D01*
X126000000Y-103305565D01*
X126000004Y-103305565D01*
X126179249Y-103285369D01*
X126179252Y-103285368D01*
X126179255Y-103285368D01*
X126349522Y-103225789D01*
X126502262Y-103129816D01*
X126629816Y-103002262D01*
X126725789Y-102849522D01*
X126785368Y-102679255D01*
X126793666Y-102605608D01*
X126805565Y-102500003D01*
X126805565Y-102499996D01*
X126785369Y-102320750D01*
X126785366Y-102320737D01*
X126725790Y-102150481D01*
X126725789Y-102150478D01*
X126704008Y-102115814D01*
X126669506Y-102060903D01*
X126650500Y-101994931D01*
X126650500Y-101255067D01*
X126669507Y-101189094D01*
X126725788Y-101099524D01*
X126728971Y-101090427D01*
X126785368Y-100929255D01*
X126799949Y-100799845D01*
X126805565Y-100750003D01*
X126805565Y-100749996D01*
X126785369Y-100570750D01*
X126785368Y-100570745D01*
X126725788Y-100400476D01*
X126629815Y-100247737D01*
X126502262Y-100120184D01*
X126349523Y-100024211D01*
X126179254Y-99964631D01*
X126179249Y-99964630D01*
X126000004Y-99944435D01*
X125999996Y-99944435D01*
X125820750Y-99964630D01*
X125820745Y-99964631D01*
X125650476Y-100024211D01*
X125497737Y-100120184D01*
X125370184Y-100247737D01*
X125274211Y-100400476D01*
X125214631Y-100570745D01*
X125214630Y-100570750D01*
X125194435Y-100749996D01*
X111450500Y-100749996D01*
X111450500Y-98020808D01*
X111470185Y-97953769D01*
X111486819Y-97933127D01*
X111983127Y-97436819D01*
X112044450Y-97403334D01*
X112070808Y-97400500D01*
X147729220Y-97400500D01*
X147796259Y-97420185D01*
X147842014Y-97472989D01*
X147851958Y-97542147D01*
X147836624Y-97583912D01*
X147837231Y-97584205D01*
X147834225Y-97590446D01*
X147834218Y-97590466D01*
X147834211Y-97590476D01*
X147774631Y-97760745D01*
X147774630Y-97760750D01*
X147754435Y-97939996D01*
X147754435Y-97940003D01*
X147774630Y-98119249D01*
X147774631Y-98119254D01*
X147834211Y-98289524D01*
X147890493Y-98379094D01*
X147909500Y-98445067D01*
X147909500Y-100907060D01*
X147889815Y-100974099D01*
X147873181Y-100994741D01*
X147870184Y-100997737D01*
X147774211Y-101150476D01*
X147714631Y-101320745D01*
X147714630Y-101320750D01*
X147694435Y-101499996D01*
X147694435Y-101500003D01*
X147714630Y-101679249D01*
X147714631Y-101679254D01*
X147774211Y-101849523D01*
X147830052Y-101938393D01*
X147870184Y-102002262D01*
X147997738Y-102129816D01*
X148150478Y-102225789D01*
X148213202Y-102247737D01*
X148320745Y-102285368D01*
X148320750Y-102285369D01*
X148499996Y-102305565D01*
X148500000Y-102305565D01*
X148500004Y-102305565D01*
X148679249Y-102285369D01*
X148679252Y-102285368D01*
X148679255Y-102285368D01*
X148849522Y-102225789D01*
X149002262Y-102129816D01*
X149129816Y-102002262D01*
X149225789Y-101849522D01*
X149285368Y-101679255D01*
X149285369Y-101679249D01*
X149305565Y-101500003D01*
X149305565Y-101499996D01*
X149285369Y-101320750D01*
X149285366Y-101320737D01*
X149225790Y-101150481D01*
X149222779Y-101144227D01*
X149210500Y-101090427D01*
X149210500Y-100749996D01*
X151694435Y-100749996D01*
X151694435Y-100750003D01*
X151714630Y-100929249D01*
X151714631Y-100929254D01*
X151774211Y-101099523D01*
X151870184Y-101252262D01*
X151997738Y-101379816D01*
X152021117Y-101394506D01*
X152106234Y-101447989D01*
X152150478Y-101475789D01*
X152219678Y-101500003D01*
X152320745Y-101535368D01*
X152320750Y-101535369D01*
X152499996Y-101555565D01*
X152500000Y-101555565D01*
X152500004Y-101555565D01*
X152679249Y-101535369D01*
X152679252Y-101535368D01*
X152679255Y-101535368D01*
X152849522Y-101475789D01*
X152978883Y-101394505D01*
X153044855Y-101375500D01*
X153070435Y-101375500D01*
X153137474Y-101395185D01*
X153183229Y-101447989D01*
X153193053Y-101493148D01*
X153193655Y-101493081D01*
X153194317Y-101498958D01*
X153194435Y-101499500D01*
X153194435Y-101500003D01*
X153214630Y-101679249D01*
X153214631Y-101679254D01*
X153274211Y-101849523D01*
X153330052Y-101938393D01*
X153370184Y-102002262D01*
X153497738Y-102129816D01*
X153650478Y-102225789D01*
X153713202Y-102247737D01*
X153820745Y-102285368D01*
X153820750Y-102285369D01*
X153999996Y-102305565D01*
X154000000Y-102305565D01*
X154000004Y-102305565D01*
X154179249Y-102285369D01*
X154179251Y-102285368D01*
X154179255Y-102285368D01*
X154179258Y-102285366D01*
X154179262Y-102285366D01*
X154286798Y-102247737D01*
X154349522Y-102225789D01*
X154439096Y-102169505D01*
X154505068Y-102150500D01*
X157244932Y-102150500D01*
X157310904Y-102169506D01*
X157400477Y-102225789D01*
X157400481Y-102225790D01*
X157570737Y-102285366D01*
X157570743Y-102285367D01*
X157570745Y-102285368D01*
X157570746Y-102285368D01*
X157570750Y-102285369D01*
X157749996Y-102305565D01*
X157750000Y-102305565D01*
X157750004Y-102305565D01*
X157929249Y-102285369D01*
X157929252Y-102285368D01*
X157929255Y-102285368D01*
X158099522Y-102225789D01*
X158252262Y-102129816D01*
X158379816Y-102002262D01*
X158475789Y-101849522D01*
X158535368Y-101679255D01*
X158535369Y-101679249D01*
X158555565Y-101500003D01*
X158555565Y-101499996D01*
X158535369Y-101320750D01*
X158535368Y-101320745D01*
X158475788Y-101150476D01*
X158379815Y-100997737D01*
X158252262Y-100870184D01*
X158099523Y-100774211D01*
X157929254Y-100714631D01*
X157929249Y-100714630D01*
X157750004Y-100694435D01*
X157749996Y-100694435D01*
X157675040Y-100702880D01*
X157606218Y-100690825D01*
X157554839Y-100643476D01*
X157537936Y-100593542D01*
X157535368Y-100570745D01*
X157475789Y-100400478D01*
X157379816Y-100247738D01*
X157252262Y-100120184D01*
X157228883Y-100105494D01*
X157099523Y-100024211D01*
X156929254Y-99964631D01*
X156929249Y-99964630D01*
X156750004Y-99944435D01*
X156749996Y-99944435D01*
X156570750Y-99964630D01*
X156570745Y-99964631D01*
X156400476Y-100024211D01*
X156271117Y-100105494D01*
X156205145Y-100124500D01*
X153044855Y-100124500D01*
X152978883Y-100105494D01*
X152849523Y-100024211D01*
X152679254Y-99964631D01*
X152679249Y-99964630D01*
X152500004Y-99944435D01*
X152499996Y-99944435D01*
X152320750Y-99964630D01*
X152320745Y-99964631D01*
X152150476Y-100024211D01*
X151997737Y-100120184D01*
X151870184Y-100247737D01*
X151774211Y-100400476D01*
X151714631Y-100570745D01*
X151714630Y-100570750D01*
X151694435Y-100749996D01*
X149210500Y-100749996D01*
X149210500Y-98445067D01*
X149229507Y-98379094D01*
X149285788Y-98289524D01*
X149287242Y-98285369D01*
X149345368Y-98119255D01*
X149353751Y-98044854D01*
X149365565Y-97940003D01*
X149365565Y-97939996D01*
X149345369Y-97760750D01*
X149345368Y-97760745D01*
X149309957Y-97659546D01*
X149285789Y-97590478D01*
X149285788Y-97590476D01*
X149285782Y-97590466D01*
X149285778Y-97590454D01*
X149282769Y-97584205D01*
X149283864Y-97583677D01*
X149266787Y-97523228D01*
X149287158Y-97456394D01*
X149340428Y-97411183D01*
X149390780Y-97400500D01*
X162072411Y-97400500D01*
X162139450Y-97420185D01*
X162185205Y-97472989D01*
X162195631Y-97510617D01*
X162214630Y-97679249D01*
X162214631Y-97679254D01*
X162274211Y-97849524D01*
X162355493Y-97978881D01*
X162374500Y-98044854D01*
X162374500Y-101858188D01*
X162354815Y-101925227D01*
X162302011Y-101970982D01*
X162232853Y-101980926D01*
X162209548Y-101975230D01*
X162179264Y-101964634D01*
X162179249Y-101964630D01*
X162000004Y-101944435D01*
X161999996Y-101944435D01*
X161820750Y-101964630D01*
X161820745Y-101964631D01*
X161650476Y-102024211D01*
X161497737Y-102120184D01*
X161370184Y-102247737D01*
X161274211Y-102400476D01*
X161214631Y-102570745D01*
X161214630Y-102570750D01*
X161194435Y-102749996D01*
X161194435Y-102750003D01*
X161214630Y-102929249D01*
X161214631Y-102929254D01*
X161274211Y-103099524D01*
X161341079Y-103205942D01*
X161353549Y-103225788D01*
X161355493Y-103228881D01*
X161374500Y-103294854D01*
X161374500Y-104205145D01*
X161355494Y-104271117D01*
X161274211Y-104400476D01*
X161214631Y-104570745D01*
X161214630Y-104570750D01*
X161194435Y-104749996D01*
X161194435Y-104750003D01*
X161214630Y-104929249D01*
X161214631Y-104929254D01*
X161274211Y-105099523D01*
X161370184Y-105252262D01*
X161497738Y-105379816D01*
X161650478Y-105475789D01*
X161719678Y-105500003D01*
X161820745Y-105535368D01*
X161820750Y-105535369D01*
X161999996Y-105555565D01*
X162000000Y-105555565D01*
X162000004Y-105555565D01*
X162179249Y-105535369D01*
X162179252Y-105535368D01*
X162179255Y-105535368D01*
X162349522Y-105475789D01*
X162502262Y-105379816D01*
X162629816Y-105252262D01*
X162725789Y-105099522D01*
X162785368Y-104929255D01*
X162805565Y-104750000D01*
X162785368Y-104570745D01*
X162725789Y-104400478D01*
X162644505Y-104271116D01*
X162625500Y-104205145D01*
X162625500Y-103294854D01*
X162644507Y-103228881D01*
X162646450Y-103225789D01*
X162725789Y-103099522D01*
X162785368Y-102929255D01*
X162785369Y-102929249D01*
X162787401Y-102923443D01*
X162828123Y-102866667D01*
X162893075Y-102840919D01*
X162961637Y-102854375D01*
X162992124Y-102876716D01*
X163601263Y-103485855D01*
X163601267Y-103485858D01*
X163703710Y-103554309D01*
X163703711Y-103554309D01*
X163703715Y-103554312D01*
X163770396Y-103581931D01*
X163770398Y-103581933D01*
X163817075Y-103601267D01*
X163817548Y-103601463D01*
X163837597Y-103605451D01*
X163871196Y-103612134D01*
X163938392Y-103625501D01*
X163938394Y-103625501D01*
X164067721Y-103625501D01*
X164067741Y-103625500D01*
X164689548Y-103625500D01*
X164756587Y-103645185D01*
X164777229Y-103661819D01*
X165338181Y-104222771D01*
X165371666Y-104284094D01*
X165374500Y-104310452D01*
X165374500Y-104955145D01*
X165355494Y-105021117D01*
X165274211Y-105150476D01*
X165214631Y-105320745D01*
X165214630Y-105320750D01*
X165194435Y-105499996D01*
X165194435Y-105500003D01*
X165214630Y-105679249D01*
X165214631Y-105679254D01*
X165274211Y-105849523D01*
X165370184Y-106002262D01*
X165497738Y-106129816D01*
X165650478Y-106225789D01*
X165820745Y-106285368D01*
X165820750Y-106285369D01*
X165999996Y-106305565D01*
X166000000Y-106305565D01*
X166000004Y-106305565D01*
X166179249Y-106285369D01*
X166179252Y-106285368D01*
X166179255Y-106285368D01*
X166349522Y-106225789D01*
X166502262Y-106129816D01*
X166629816Y-106002262D01*
X166725789Y-105849522D01*
X166785368Y-105679255D01*
X166785924Y-105674324D01*
X166805565Y-105500003D01*
X166805565Y-105499996D01*
X166785369Y-105320750D01*
X166785368Y-105320745D01*
X166725788Y-105150476D01*
X166644506Y-105021117D01*
X166625500Y-104955145D01*
X166625500Y-103938393D01*
X166625499Y-103938389D01*
X166601464Y-103817555D01*
X166601463Y-103817548D01*
X166554311Y-103703714D01*
X166554310Y-103703713D01*
X166554307Y-103703707D01*
X166485859Y-103601268D01*
X166466521Y-103581930D01*
X166398733Y-103514142D01*
X166398732Y-103514141D01*
X166148733Y-103264143D01*
X165490198Y-102605608D01*
X165490178Y-102605586D01*
X165398733Y-102514141D01*
X165347509Y-102479915D01*
X165296287Y-102445689D01*
X165296286Y-102445688D01*
X165296283Y-102445686D01*
X165296280Y-102445685D01*
X165215792Y-102412347D01*
X165182454Y-102398538D01*
X165182455Y-102398538D01*
X165182452Y-102398537D01*
X165182448Y-102398536D01*
X165182444Y-102398535D01*
X165066641Y-102375500D01*
X165066636Y-102375500D01*
X165061609Y-102374500D01*
X165061607Y-102374500D01*
X165061606Y-102374500D01*
X164310453Y-102374500D01*
X164243414Y-102354815D01*
X164222772Y-102338181D01*
X163661819Y-101777228D01*
X163628334Y-101715905D01*
X163625500Y-101689547D01*
X163625500Y-98044854D01*
X163644507Y-97978881D01*
X163650436Y-97969446D01*
X163725789Y-97849522D01*
X163785368Y-97679255D01*
X163790250Y-97635931D01*
X163804369Y-97510617D01*
X163831435Y-97446203D01*
X163889030Y-97406648D01*
X163927589Y-97400500D01*
X164929192Y-97400500D01*
X164996231Y-97420185D01*
X165016873Y-97436819D01*
X165178277Y-97598223D01*
X165211762Y-97659546D01*
X165213815Y-97672012D01*
X165214630Y-97679246D01*
X165214632Y-97679255D01*
X165274210Y-97849521D01*
X165331062Y-97940000D01*
X165370184Y-98002262D01*
X165497738Y-98129816D01*
X165650478Y-98225789D01*
X165820745Y-98285368D01*
X165820750Y-98285369D01*
X165999996Y-98305565D01*
X166000000Y-98305565D01*
X166000004Y-98305565D01*
X166179249Y-98285369D01*
X166179252Y-98285368D01*
X166179255Y-98285368D01*
X166349522Y-98225789D01*
X166502262Y-98129816D01*
X166629816Y-98002262D01*
X166725789Y-97849522D01*
X166785368Y-97679255D01*
X166785368Y-97679252D01*
X166785877Y-97677799D01*
X166826599Y-97621023D01*
X166889037Y-97595533D01*
X166979249Y-97585369D01*
X166979252Y-97585368D01*
X166979255Y-97585368D01*
X167149522Y-97525789D01*
X167302262Y-97429816D01*
X167429816Y-97302262D01*
X167525789Y-97149522D01*
X167585368Y-96979255D01*
X167585369Y-96979249D01*
X167605565Y-96800003D01*
X167605565Y-96799996D01*
X167585369Y-96620750D01*
X167585368Y-96620745D01*
X167525788Y-96450476D01*
X167429815Y-96297737D01*
X167302262Y-96170184D01*
X167149521Y-96074210D01*
X166979255Y-96014632D01*
X166979246Y-96014630D01*
X166972012Y-96013815D01*
X166907600Y-95986744D01*
X166898223Y-95978277D01*
X165953323Y-95033376D01*
X165919838Y-94972053D01*
X165923963Y-94904740D01*
X165985366Y-94729262D01*
X165985369Y-94729249D01*
X166005565Y-94550003D01*
X166005565Y-94549996D01*
X165985369Y-94370750D01*
X165985368Y-94370745D01*
X165925788Y-94200476D01*
X165829815Y-94047737D01*
X165702262Y-93920184D01*
X165549523Y-93824211D01*
X165379254Y-93764631D01*
X165379250Y-93764630D01*
X165202973Y-93744769D01*
X165138559Y-93717702D01*
X165129176Y-93709230D01*
X164938693Y-93518747D01*
X164905208Y-93457424D01*
X164910192Y-93387732D01*
X164938693Y-93343385D01*
X165029816Y-93252262D01*
X165125789Y-93099522D01*
X165185368Y-92929255D01*
X165185369Y-92929249D01*
X165205565Y-92750003D01*
X165205565Y-92749996D01*
X165185369Y-92570750D01*
X165185368Y-92570745D01*
X165183242Y-92564669D01*
X165125789Y-92400478D01*
X165029816Y-92247738D01*
X164902262Y-92120184D01*
X164749521Y-92024210D01*
X164579255Y-91964632D01*
X164579246Y-91964630D01*
X164572012Y-91963815D01*
X164507600Y-91936744D01*
X164498223Y-91928277D01*
X164486819Y-91916873D01*
X164453334Y-91855550D01*
X164450500Y-91829192D01*
X164450500Y-85499998D01*
X164814532Y-85499998D01*
X164814532Y-85500001D01*
X164834364Y-85726686D01*
X164834366Y-85726697D01*
X164893258Y-85946488D01*
X164893261Y-85946497D01*
X164989431Y-86152732D01*
X164989432Y-86152734D01*
X165119954Y-86339141D01*
X165280858Y-86500045D01*
X165280861Y-86500047D01*
X165467266Y-86630568D01*
X165673504Y-86726739D01*
X165893308Y-86785635D01*
X166055230Y-86799801D01*
X166119998Y-86805468D01*
X166120000Y-86805468D01*
X166120002Y-86805468D01*
X166176673Y-86800509D01*
X166346692Y-86785635D01*
X166566496Y-86726739D01*
X166772734Y-86630568D01*
X166959139Y-86500047D01*
X167120047Y-86339139D01*
X167250568Y-86152734D01*
X167346739Y-85946496D01*
X167405635Y-85726692D01*
X167425468Y-85500000D01*
X167425468Y-85499998D01*
X169694838Y-85499998D01*
X169694838Y-85500001D01*
X169713450Y-85712741D01*
X169713452Y-85712752D01*
X169768721Y-85919022D01*
X169768723Y-85919026D01*
X169768724Y-85919030D01*
X169811171Y-86010058D01*
X169858977Y-86112578D01*
X169981472Y-86287521D01*
X170132478Y-86438527D01*
X170132481Y-86438529D01*
X170307419Y-86561021D01*
X170307421Y-86561022D01*
X170307420Y-86561022D01*
X170371936Y-86591106D01*
X170500970Y-86651276D01*
X170707253Y-86706549D01*
X170859215Y-86719844D01*
X170919998Y-86725162D01*
X170920000Y-86725162D01*
X170920002Y-86725162D01*
X170973186Y-86720508D01*
X171132747Y-86706549D01*
X171339030Y-86651276D01*
X171532581Y-86561021D01*
X171707519Y-86438529D01*
X171858529Y-86287519D01*
X171981021Y-86112581D01*
X172071276Y-85919030D01*
X172071280Y-85919013D01*
X172073130Y-85913936D01*
X172075253Y-85914709D01*
X172106576Y-85863305D01*
X172169419Y-85832766D01*
X172238796Y-85841050D01*
X172292680Y-85885528D01*
X172305827Y-85914315D01*
X172306870Y-85913936D01*
X172308722Y-85919022D01*
X172308724Y-85919030D01*
X172351171Y-86010058D01*
X172398977Y-86112578D01*
X172521472Y-86287521D01*
X172672478Y-86438527D01*
X172672481Y-86438529D01*
X172847419Y-86561021D01*
X172847421Y-86561022D01*
X172847420Y-86561022D01*
X172911936Y-86591106D01*
X173040970Y-86651276D01*
X173247253Y-86706549D01*
X173399215Y-86719844D01*
X173459998Y-86725162D01*
X173460000Y-86725162D01*
X173460002Y-86725162D01*
X173513186Y-86720508D01*
X173672747Y-86706549D01*
X173879030Y-86651276D01*
X174072581Y-86561021D01*
X174247519Y-86438529D01*
X174398529Y-86287519D01*
X174521021Y-86112581D01*
X174611276Y-85919030D01*
X174611280Y-85919013D01*
X174613130Y-85913936D01*
X174614981Y-85914609D01*
X174646847Y-85862328D01*
X174709694Y-85831797D01*
X174779069Y-85840091D01*
X174832948Y-85884575D01*
X174846430Y-85914095D01*
X174847342Y-85913764D01*
X174849197Y-85918859D01*
X174939413Y-86112329D01*
X174978415Y-86168030D01*
X175600000Y-85546445D01*
X175600000Y-85552661D01*
X175627259Y-85654394D01*
X175679920Y-85745606D01*
X175754394Y-85820080D01*
X175845606Y-85872741D01*
X175947339Y-85900000D01*
X175953553Y-85900000D01*
X175331968Y-86521584D01*
X175387663Y-86560582D01*
X175387669Y-86560586D01*
X175581140Y-86650802D01*
X175581146Y-86650805D01*
X175787337Y-86706054D01*
X175787345Y-86706055D01*
X175999998Y-86724660D01*
X176000002Y-86724660D01*
X176212654Y-86706055D01*
X176212662Y-86706054D01*
X176418853Y-86650805D01*
X176418864Y-86650801D01*
X176612325Y-86560589D01*
X176668030Y-86521583D01*
X176046448Y-85900000D01*
X176052661Y-85900000D01*
X176154394Y-85872741D01*
X176245606Y-85820080D01*
X176320080Y-85745606D01*
X176372741Y-85654394D01*
X176400000Y-85552661D01*
X176400000Y-85546446D01*
X177021583Y-86168029D01*
X177060589Y-86112325D01*
X177150801Y-85918864D01*
X177150805Y-85918853D01*
X177206054Y-85712662D01*
X177206055Y-85712654D01*
X177224660Y-85500002D01*
X177224660Y-85499997D01*
X177206055Y-85287345D01*
X177206054Y-85287337D01*
X177150805Y-85081146D01*
X177150802Y-85081140D01*
X177060586Y-84887669D01*
X177060582Y-84887663D01*
X177021584Y-84831968D01*
X176400000Y-85453552D01*
X176400000Y-85447339D01*
X176372741Y-85345606D01*
X176320080Y-85254394D01*
X176245606Y-85179920D01*
X176154394Y-85127259D01*
X176052661Y-85100000D01*
X176046447Y-85100000D01*
X176668030Y-84478415D01*
X176612329Y-84439413D01*
X176418859Y-84349197D01*
X176418853Y-84349194D01*
X176212662Y-84293945D01*
X176212654Y-84293944D01*
X176000002Y-84275340D01*
X175999998Y-84275340D01*
X175787345Y-84293944D01*
X175787337Y-84293945D01*
X175581146Y-84349194D01*
X175581140Y-84349197D01*
X175387671Y-84439412D01*
X175387669Y-84439413D01*
X175331969Y-84478415D01*
X175331968Y-84478415D01*
X175953554Y-85100000D01*
X175947339Y-85100000D01*
X175845606Y-85127259D01*
X175754394Y-85179920D01*
X175679920Y-85254394D01*
X175627259Y-85345606D01*
X175600000Y-85447339D01*
X175600000Y-85453553D01*
X174978415Y-84831968D01*
X174978415Y-84831969D01*
X174939413Y-84887669D01*
X174939412Y-84887671D01*
X174849197Y-85081140D01*
X174847342Y-85086236D01*
X174845445Y-85085545D01*
X174813656Y-85137684D01*
X174750805Y-85168205D01*
X174681431Y-85159901D01*
X174627559Y-85115408D01*
X174614012Y-85085742D01*
X174613130Y-85086064D01*
X174611279Y-85080983D01*
X174611276Y-85080970D01*
X174521021Y-84887419D01*
X174398529Y-84712481D01*
X174398527Y-84712478D01*
X174247521Y-84561472D01*
X174072578Y-84438977D01*
X174072579Y-84438977D01*
X173923436Y-84369431D01*
X173879030Y-84348724D01*
X173879026Y-84348723D01*
X173879022Y-84348721D01*
X173672752Y-84293452D01*
X173672748Y-84293451D01*
X173672747Y-84293451D01*
X173672746Y-84293450D01*
X173672741Y-84293450D01*
X173460002Y-84274838D01*
X173459998Y-84274838D01*
X173247258Y-84293450D01*
X173247247Y-84293452D01*
X173040977Y-84348721D01*
X173040968Y-84348725D01*
X172847421Y-84438977D01*
X172672478Y-84561472D01*
X172521472Y-84712478D01*
X172398977Y-84887421D01*
X172308725Y-85080968D01*
X172306870Y-85086064D01*
X172304749Y-85085292D01*
X172273406Y-85136710D01*
X172210558Y-85167237D01*
X172141183Y-85158939D01*
X172087307Y-85114452D01*
X172074169Y-85085685D01*
X172073130Y-85086064D01*
X172071279Y-85080983D01*
X172071276Y-85080970D01*
X171981021Y-84887419D01*
X171858529Y-84712481D01*
X171858527Y-84712478D01*
X171707521Y-84561472D01*
X171532578Y-84438977D01*
X171532579Y-84438977D01*
X171383436Y-84369431D01*
X171339030Y-84348724D01*
X171339026Y-84348723D01*
X171339022Y-84348721D01*
X171132752Y-84293452D01*
X171132748Y-84293451D01*
X171132747Y-84293451D01*
X171132746Y-84293450D01*
X171132741Y-84293450D01*
X170920002Y-84274838D01*
X170919998Y-84274838D01*
X170707258Y-84293450D01*
X170707247Y-84293452D01*
X170500977Y-84348721D01*
X170500968Y-84348725D01*
X170307421Y-84438977D01*
X170132478Y-84561472D01*
X169981472Y-84712478D01*
X169858977Y-84887421D01*
X169768725Y-85080968D01*
X169768721Y-85080977D01*
X169713452Y-85287247D01*
X169713450Y-85287258D01*
X169694838Y-85499998D01*
X167425468Y-85499998D01*
X167405635Y-85273308D01*
X167359069Y-85099522D01*
X167346741Y-85053511D01*
X167346738Y-85053502D01*
X167288800Y-84929254D01*
X167250568Y-84847266D01*
X167120047Y-84660861D01*
X167120045Y-84660858D01*
X166959141Y-84499954D01*
X166772734Y-84369432D01*
X166772732Y-84369431D01*
X166566497Y-84273261D01*
X166566488Y-84273258D01*
X166346697Y-84214366D01*
X166346693Y-84214365D01*
X166346692Y-84214365D01*
X166346691Y-84214364D01*
X166346686Y-84214364D01*
X166120002Y-84194532D01*
X166119998Y-84194532D01*
X165893313Y-84214364D01*
X165893302Y-84214366D01*
X165673511Y-84273258D01*
X165673502Y-84273261D01*
X165467267Y-84369431D01*
X165467265Y-84369432D01*
X165280858Y-84499954D01*
X165119954Y-84660858D01*
X164989432Y-84847265D01*
X164989431Y-84847267D01*
X164893261Y-85053502D01*
X164893258Y-85053511D01*
X164834366Y-85273302D01*
X164834364Y-85273313D01*
X164814532Y-85499998D01*
X164450500Y-85499998D01*
X164450500Y-35941359D01*
X164470185Y-35874320D01*
X164518205Y-35830874D01*
X164534022Y-35822815D01*
X164712365Y-35693242D01*
X164868242Y-35537365D01*
X164878804Y-35522826D01*
X164969682Y-35397745D01*
X165025011Y-35355079D01*
X165094625Y-35349100D01*
X165156420Y-35381705D01*
X165170318Y-35397745D01*
X165271752Y-35537358D01*
X165271756Y-35537363D01*
X165427636Y-35693243D01*
X165427641Y-35693247D01*
X165605973Y-35822812D01*
X165605975Y-35822813D01*
X165605978Y-35822815D01*
X165621795Y-35830874D01*
X165672591Y-35878848D01*
X165689500Y-35941359D01*
X165689500Y-79154069D01*
X165689500Y-79154071D01*
X165689499Y-79154071D01*
X165714497Y-79279738D01*
X165714499Y-79279744D01*
X165763534Y-79398125D01*
X165834726Y-79504673D01*
X167085325Y-80755272D01*
X167085332Y-80755278D01*
X167184191Y-80821333D01*
X167189982Y-80825201D01*
X167191873Y-80826465D01*
X167310256Y-80875501D01*
X167310260Y-80875501D01*
X167310261Y-80875502D01*
X167435928Y-80900500D01*
X167435931Y-80900500D01*
X178179192Y-80900500D01*
X178246231Y-80920185D01*
X178266873Y-80936819D01*
X178813181Y-81483127D01*
X178846666Y-81544450D01*
X178849500Y-81570808D01*
X178849500Y-108429191D01*
X178829815Y-108496230D01*
X178813181Y-108516872D01*
X177914110Y-109415942D01*
X177852787Y-109449427D01*
X177812547Y-109451481D01*
X177750005Y-109444435D01*
X177749996Y-109444435D01*
X177570750Y-109464630D01*
X177570745Y-109464631D01*
X177400476Y-109524211D01*
X177247738Y-109620184D01*
X177247735Y-109620186D01*
X177208083Y-109659837D01*
X177189295Y-109675256D01*
X177085331Y-109744723D01*
X177085327Y-109744726D01*
X176994726Y-109835327D01*
X176994723Y-109835331D01*
X176923538Y-109941866D01*
X176923533Y-109941875D01*
X176874499Y-110060255D01*
X176874497Y-110060261D01*
X176849500Y-110185928D01*
X176849500Y-110185931D01*
X176849500Y-110314069D01*
X176849500Y-110314071D01*
X176849499Y-110314071D01*
X176874497Y-110439738D01*
X176874499Y-110439744D01*
X176923533Y-110558124D01*
X176923538Y-110558133D01*
X176994723Y-110664668D01*
X176994726Y-110664672D01*
X177085330Y-110755276D01*
X177189297Y-110824744D01*
X177208087Y-110840165D01*
X177247738Y-110879816D01*
X177400478Y-110975789D01*
X177570745Y-111035368D01*
X177570750Y-111035369D01*
X177749996Y-111055565D01*
X177750000Y-111055565D01*
X177750004Y-111055565D01*
X177929249Y-111035369D01*
X177929252Y-111035368D01*
X177929255Y-111035368D01*
X178099522Y-110975789D01*
X178252262Y-110879816D01*
X178291912Y-110840164D01*
X178310698Y-110824746D01*
X178326679Y-110814069D01*
X178414669Y-110755277D01*
X180005276Y-109164670D01*
X180076465Y-109058127D01*
X180125501Y-108939744D01*
X180150500Y-108814069D01*
X180150500Y-81185931D01*
X180150500Y-81185928D01*
X180125502Y-81060260D01*
X180125500Y-81060254D01*
X180105189Y-81011221D01*
X180105187Y-81011216D01*
X180076468Y-80941878D01*
X180076462Y-80941868D01*
X180005278Y-80835332D01*
X180005272Y-80835325D01*
X178914673Y-79744726D01*
X178914669Y-79744723D01*
X178808127Y-79673535D01*
X178689744Y-79624499D01*
X178689738Y-79624497D01*
X178564071Y-79599500D01*
X178564069Y-79599500D01*
X167820808Y-79599500D01*
X167753769Y-79579815D01*
X167733127Y-79563181D01*
X167026819Y-78856873D01*
X166993334Y-78795550D01*
X166990500Y-78769192D01*
X166990500Y-72225934D01*
X173875176Y-72225934D01*
X173875176Y-72225945D01*
X173894930Y-72539944D01*
X173894931Y-72539951D01*
X173953890Y-72849023D01*
X174051117Y-73148256D01*
X174051119Y-73148261D01*
X174185081Y-73432943D01*
X174185084Y-73432949D01*
X174353671Y-73698601D01*
X174353674Y-73698605D01*
X174554226Y-73941030D01*
X174554228Y-73941032D01*
X174783588Y-74156416D01*
X174783598Y-74156424D01*
X175038124Y-74341348D01*
X175038129Y-74341350D01*
X175038136Y-74341356D01*
X175313854Y-74492934D01*
X175313859Y-74492936D01*
X175313861Y-74492937D01*
X175313862Y-74492938D01*
X175606391Y-74608758D01*
X175606394Y-74608759D01*
X175911143Y-74687005D01*
X175911147Y-74687006D01*
X175976630Y-74695278D01*
X176223290Y-74726439D01*
X176223299Y-74726439D01*
X176223302Y-74726440D01*
X176223304Y-74726440D01*
X176537936Y-74726440D01*
X176537938Y-74726440D01*
X176537941Y-74726439D01*
X176537949Y-74726439D01*
X176724213Y-74702908D01*
X176850093Y-74687006D01*
X177154845Y-74608759D01*
X177154848Y-74608758D01*
X177447377Y-74492938D01*
X177447378Y-74492937D01*
X177447376Y-74492937D01*
X177447386Y-74492934D01*
X177723104Y-74341356D01*
X177977650Y-74156418D01*
X178207010Y-73941034D01*
X178407567Y-73698603D01*
X178576157Y-73432947D01*
X178710123Y-73148255D01*
X178807351Y-72849019D01*
X178866308Y-72539955D01*
X178886064Y-72225940D01*
X178867818Y-71935931D01*
X178866309Y-71911935D01*
X178866308Y-71911928D01*
X178866308Y-71911925D01*
X178807351Y-71602861D01*
X178710123Y-71303625D01*
X178576157Y-71018933D01*
X178407567Y-70753277D01*
X178407565Y-70753274D01*
X178207013Y-70510849D01*
X178207011Y-70510847D01*
X177977651Y-70295463D01*
X177977641Y-70295455D01*
X177723115Y-70110531D01*
X177723108Y-70110526D01*
X177723104Y-70110524D01*
X177447386Y-69958946D01*
X177447383Y-69958944D01*
X177447378Y-69958942D01*
X177447377Y-69958941D01*
X177154848Y-69843121D01*
X177154845Y-69843120D01*
X176850096Y-69764874D01*
X176850083Y-69764872D01*
X176537949Y-69725440D01*
X176537938Y-69725440D01*
X176223302Y-69725440D01*
X176223290Y-69725440D01*
X175911156Y-69764872D01*
X175911143Y-69764874D01*
X175606394Y-69843120D01*
X175606391Y-69843121D01*
X175313862Y-69958941D01*
X175313861Y-69958942D01*
X175038136Y-70110524D01*
X175038124Y-70110531D01*
X174783598Y-70295455D01*
X174783588Y-70295463D01*
X174554228Y-70510847D01*
X174554226Y-70510849D01*
X174353674Y-70753274D01*
X174353671Y-70753278D01*
X174185084Y-71018930D01*
X174185081Y-71018936D01*
X174051119Y-71303618D01*
X174051117Y-71303623D01*
X173953890Y-71602856D01*
X173894931Y-71911928D01*
X173894930Y-71911935D01*
X173875176Y-72225934D01*
X166990500Y-72225934D01*
X166990500Y-35941359D01*
X167010185Y-35874320D01*
X167058205Y-35830874D01*
X167074022Y-35822815D01*
X167252365Y-35693242D01*
X167408242Y-35537365D01*
X167418804Y-35522826D01*
X167509682Y-35397745D01*
X167565011Y-35355079D01*
X167634625Y-35349100D01*
X167696420Y-35381705D01*
X167710318Y-35397745D01*
X167811752Y-35537358D01*
X167811756Y-35537363D01*
X167967636Y-35693243D01*
X167967641Y-35693247D01*
X168123192Y-35806260D01*
X168145978Y-35822815D01*
X168255948Y-35878848D01*
X168342393Y-35922895D01*
X168342396Y-35922896D01*
X168399221Y-35941359D01*
X168552049Y-35991015D01*
X168769778Y-36025500D01*
X168769779Y-36025500D01*
X168990221Y-36025500D01*
X168990222Y-36025500D01*
X169207951Y-35991015D01*
X169417606Y-35922895D01*
X169614022Y-35822815D01*
X169792365Y-35693242D01*
X169948242Y-35537365D01*
X170077815Y-35359022D01*
X170145719Y-35225754D01*
X173875176Y-35225754D01*
X173875176Y-35225765D01*
X173894930Y-35539764D01*
X173894931Y-35539771D01*
X173953890Y-35848843D01*
X174051117Y-36148076D01*
X174051119Y-36148081D01*
X174185081Y-36432763D01*
X174185084Y-36432769D01*
X174353671Y-36698421D01*
X174353674Y-36698425D01*
X174554226Y-36940850D01*
X174554228Y-36940852D01*
X174783588Y-37156236D01*
X174783598Y-37156244D01*
X175038124Y-37341168D01*
X175038129Y-37341170D01*
X175038136Y-37341176D01*
X175313854Y-37492754D01*
X175313859Y-37492756D01*
X175313861Y-37492757D01*
X175313862Y-37492758D01*
X175606391Y-37608578D01*
X175606394Y-37608579D01*
X175911143Y-37686825D01*
X175911147Y-37686826D01*
X175976630Y-37695098D01*
X176223290Y-37726259D01*
X176223299Y-37726259D01*
X176223302Y-37726260D01*
X176223304Y-37726260D01*
X176537936Y-37726260D01*
X176537938Y-37726260D01*
X176537941Y-37726259D01*
X176537949Y-37726259D01*
X176724213Y-37702728D01*
X176850093Y-37686826D01*
X177154845Y-37608579D01*
X177154848Y-37608578D01*
X177447377Y-37492758D01*
X177447378Y-37492757D01*
X177447376Y-37492757D01*
X177447386Y-37492754D01*
X177723104Y-37341176D01*
X177977650Y-37156238D01*
X178207010Y-36940854D01*
X178407567Y-36698423D01*
X178576157Y-36432767D01*
X178710123Y-36148075D01*
X178807351Y-35848839D01*
X178866308Y-35539775D01*
X178866480Y-35537041D01*
X178886064Y-35225765D01*
X178886064Y-35225754D01*
X178866309Y-34911755D01*
X178866308Y-34911748D01*
X178866308Y-34911745D01*
X178807351Y-34602681D01*
X178710123Y-34303445D01*
X178576157Y-34018753D01*
X178407567Y-33753097D01*
X178407565Y-33753094D01*
X178207013Y-33510669D01*
X178207011Y-33510667D01*
X177977651Y-33295283D01*
X177977641Y-33295275D01*
X177723115Y-33110351D01*
X177723108Y-33110346D01*
X177723104Y-33110344D01*
X177447386Y-32958766D01*
X177447383Y-32958764D01*
X177447378Y-32958762D01*
X177447377Y-32958761D01*
X177154848Y-32842941D01*
X177154845Y-32842940D01*
X176850096Y-32764694D01*
X176850083Y-32764692D01*
X176537949Y-32725260D01*
X176537938Y-32725260D01*
X176223302Y-32725260D01*
X176223290Y-32725260D01*
X175911156Y-32764692D01*
X175911143Y-32764694D01*
X175606394Y-32842940D01*
X175606391Y-32842941D01*
X175313862Y-32958761D01*
X175313861Y-32958762D01*
X175038136Y-33110344D01*
X175038124Y-33110351D01*
X174783598Y-33295275D01*
X174783588Y-33295283D01*
X174554228Y-33510667D01*
X174554226Y-33510669D01*
X174353674Y-33753094D01*
X174353671Y-33753098D01*
X174185084Y-34018750D01*
X174185081Y-34018756D01*
X174051119Y-34303438D01*
X174051117Y-34303443D01*
X173953890Y-34602676D01*
X173894931Y-34911748D01*
X173894930Y-34911755D01*
X173875176Y-35225754D01*
X170145719Y-35225754D01*
X170177895Y-35162606D01*
X170246015Y-34952951D01*
X170280500Y-34735222D01*
X170280500Y-33714778D01*
X170246015Y-33497049D01*
X170211955Y-33392221D01*
X170177896Y-33287396D01*
X170177895Y-33287393D01*
X170143237Y-33219375D01*
X170077815Y-33090978D01*
X169981755Y-32958762D01*
X169948247Y-32912641D01*
X169948243Y-32912636D01*
X169792363Y-32756756D01*
X169792358Y-32756752D01*
X169614025Y-32627187D01*
X169614024Y-32627186D01*
X169614022Y-32627185D01*
X169551096Y-32595122D01*
X169417606Y-32527104D01*
X169417603Y-32527103D01*
X169207952Y-32458985D01*
X169099086Y-32441742D01*
X168990222Y-32424500D01*
X168769778Y-32424500D01*
X168697201Y-32435995D01*
X168552047Y-32458985D01*
X168342396Y-32527103D01*
X168342393Y-32527104D01*
X168145974Y-32627187D01*
X167967641Y-32756752D01*
X167967636Y-32756756D01*
X167811756Y-32912636D01*
X167811752Y-32912641D01*
X167710318Y-33052254D01*
X167654988Y-33094920D01*
X167585375Y-33100899D01*
X167523580Y-33068293D01*
X167509682Y-33052254D01*
X167408247Y-32912641D01*
X167408243Y-32912636D01*
X167252363Y-32756756D01*
X167252358Y-32756752D01*
X167074025Y-32627187D01*
X167074024Y-32627186D01*
X167074022Y-32627185D01*
X167011096Y-32595122D01*
X166877606Y-32527104D01*
X166877603Y-32527103D01*
X166667952Y-32458985D01*
X166559086Y-32441742D01*
X166450222Y-32424500D01*
X166229778Y-32424500D01*
X166157201Y-32435995D01*
X166012047Y-32458985D01*
X165802396Y-32527103D01*
X165802393Y-32527104D01*
X165605974Y-32627187D01*
X165427641Y-32756752D01*
X165427636Y-32756756D01*
X165271756Y-32912636D01*
X165271752Y-32912641D01*
X165170318Y-33052254D01*
X165114988Y-33094920D01*
X165045375Y-33100899D01*
X164983580Y-33068293D01*
X164969682Y-33052254D01*
X164868247Y-32912641D01*
X164868243Y-32912636D01*
X164712363Y-32756756D01*
X164712358Y-32756752D01*
X164534025Y-32627187D01*
X164534024Y-32627186D01*
X164534022Y-32627185D01*
X164471096Y-32595122D01*
X164337606Y-32527104D01*
X164337603Y-32527103D01*
X164127952Y-32458985D01*
X164019086Y-32441742D01*
X163910222Y-32424500D01*
X163689778Y-32424500D01*
X163617201Y-32435995D01*
X163472047Y-32458985D01*
X163262396Y-32527103D01*
X163262393Y-32527104D01*
X163065974Y-32627187D01*
X162887641Y-32756752D01*
X162887636Y-32756756D01*
X162731756Y-32912636D01*
X162731752Y-32912641D01*
X162630318Y-33052254D01*
X162574988Y-33094920D01*
X162505375Y-33100899D01*
X162443580Y-33068293D01*
X162429682Y-33052254D01*
X162328247Y-32912641D01*
X162328243Y-32912636D01*
X162172363Y-32756756D01*
X162172358Y-32756752D01*
X161994025Y-32627187D01*
X161994024Y-32627186D01*
X161994022Y-32627185D01*
X161931096Y-32595122D01*
X161797606Y-32527104D01*
X161797603Y-32527103D01*
X161587952Y-32458985D01*
X161479086Y-32441742D01*
X161370222Y-32424500D01*
X161149778Y-32424500D01*
X161077201Y-32435995D01*
X160932047Y-32458985D01*
X160722396Y-32527103D01*
X160722393Y-32527104D01*
X160525974Y-32627187D01*
X160347641Y-32756752D01*
X160347636Y-32756756D01*
X160191756Y-32912636D01*
X160191752Y-32912641D01*
X160090318Y-33052254D01*
X160034988Y-33094920D01*
X159965375Y-33100899D01*
X159903580Y-33068293D01*
X159889682Y-33052254D01*
X159788247Y-32912641D01*
X159788243Y-32912636D01*
X159632363Y-32756756D01*
X159632358Y-32756752D01*
X159454025Y-32627187D01*
X159454024Y-32627186D01*
X159454022Y-32627185D01*
X159391096Y-32595122D01*
X159257606Y-32527104D01*
X159257603Y-32527103D01*
X159047952Y-32458985D01*
X158939086Y-32441742D01*
X158830222Y-32424500D01*
X158609778Y-32424500D01*
X158537201Y-32435995D01*
X158392047Y-32458985D01*
X158182396Y-32527103D01*
X158182393Y-32527104D01*
X157985974Y-32627187D01*
X157807641Y-32756752D01*
X157807636Y-32756756D01*
X157651756Y-32912636D01*
X157651752Y-32912641D01*
X157550318Y-33052254D01*
X157494988Y-33094920D01*
X157425375Y-33100899D01*
X157363580Y-33068293D01*
X157349682Y-33052254D01*
X157248247Y-32912641D01*
X157248243Y-32912636D01*
X157092363Y-32756756D01*
X157092358Y-32756752D01*
X156914025Y-32627187D01*
X156914024Y-32627186D01*
X156914022Y-32627185D01*
X156851096Y-32595122D01*
X156717606Y-32527104D01*
X156717603Y-32527103D01*
X156507952Y-32458985D01*
X156399086Y-32441742D01*
X156290222Y-32424500D01*
X156069778Y-32424500D01*
X155997201Y-32435995D01*
X155852047Y-32458985D01*
X155642396Y-32527103D01*
X155642393Y-32527104D01*
X155445974Y-32627187D01*
X155267641Y-32756752D01*
X155267636Y-32756756D01*
X155111756Y-32912636D01*
X155111752Y-32912641D01*
X155010318Y-33052254D01*
X154954988Y-33094920D01*
X154885375Y-33100899D01*
X154823580Y-33068293D01*
X154809682Y-33052254D01*
X154708247Y-32912641D01*
X154708243Y-32912636D01*
X154552363Y-32756756D01*
X154552358Y-32756752D01*
X154374025Y-32627187D01*
X154374024Y-32627186D01*
X154374022Y-32627185D01*
X154311096Y-32595122D01*
X154177606Y-32527104D01*
X154177603Y-32527103D01*
X153967952Y-32458985D01*
X153859086Y-32441742D01*
X153750222Y-32424500D01*
X153529778Y-32424500D01*
X153457201Y-32435995D01*
X153312047Y-32458985D01*
X153102396Y-32527103D01*
X153102393Y-32527104D01*
X152905974Y-32627187D01*
X152727641Y-32756752D01*
X152727636Y-32756756D01*
X152571756Y-32912636D01*
X152571752Y-32912641D01*
X152470318Y-33052254D01*
X152414988Y-33094920D01*
X152345375Y-33100899D01*
X152283580Y-33068293D01*
X152269682Y-33052254D01*
X152168247Y-32912641D01*
X152168243Y-32912636D01*
X152012363Y-32756756D01*
X152012358Y-32756752D01*
X151834025Y-32627187D01*
X151834024Y-32627186D01*
X151834022Y-32627185D01*
X151771096Y-32595122D01*
X151637606Y-32527104D01*
X151637603Y-32527103D01*
X151427952Y-32458985D01*
X151319086Y-32441742D01*
X151210222Y-32424500D01*
X150989778Y-32424500D01*
X150917201Y-32435995D01*
X150772047Y-32458985D01*
X150562396Y-32527103D01*
X150562393Y-32527104D01*
X150365974Y-32627187D01*
X150187641Y-32756752D01*
X150187636Y-32756756D01*
X150031756Y-32912636D01*
X150031752Y-32912641D01*
X149930318Y-33052254D01*
X149874988Y-33094920D01*
X149805375Y-33100899D01*
X149743580Y-33068293D01*
X149729682Y-33052254D01*
X149628247Y-32912641D01*
X149628243Y-32912636D01*
X149472363Y-32756756D01*
X149472358Y-32756752D01*
X149294025Y-32627187D01*
X149294024Y-32627186D01*
X149294022Y-32627185D01*
X149231096Y-32595122D01*
X149097606Y-32527104D01*
X149097603Y-32527103D01*
X148887952Y-32458985D01*
X148779086Y-32441742D01*
X148670222Y-32424500D01*
X148449778Y-32424500D01*
X148377201Y-32435995D01*
X148232047Y-32458985D01*
X148022396Y-32527103D01*
X148022393Y-32527104D01*
X147825974Y-32627187D01*
X147647641Y-32756752D01*
X147647636Y-32756756D01*
X147491756Y-32912636D01*
X147390008Y-33052681D01*
X147334678Y-33095346D01*
X147265065Y-33101325D01*
X147203270Y-33068719D01*
X147189372Y-33052680D01*
X147087862Y-32912964D01*
X147087857Y-32912958D01*
X146932041Y-32757142D01*
X146753760Y-32627613D01*
X146557410Y-32527567D01*
X146347836Y-32459473D01*
X146270000Y-32447144D01*
X146270000Y-33676517D01*
X146251591Y-33665889D01*
X146098991Y-33625000D01*
X145941009Y-33625000D01*
X145788409Y-33665889D01*
X145770000Y-33676517D01*
X145770000Y-32447144D01*
X145692164Y-32459473D01*
X145692161Y-32459473D01*
X145482589Y-32527567D01*
X145286239Y-32627613D01*
X145107958Y-32757142D01*
X144952142Y-32912958D01*
X144952142Y-32912959D01*
X144850627Y-33052681D01*
X144795297Y-33095346D01*
X144725683Y-33101325D01*
X144663888Y-33068719D01*
X144649991Y-33052680D01*
X144548247Y-32912641D01*
X144548243Y-32912636D01*
X144392363Y-32756756D01*
X144392358Y-32756752D01*
X144214025Y-32627187D01*
X144214024Y-32627186D01*
X144214022Y-32627185D01*
X144151096Y-32595122D01*
X144017606Y-32527104D01*
X144017603Y-32527103D01*
X143807952Y-32458985D01*
X143699086Y-32441742D01*
X143590222Y-32424500D01*
X143369778Y-32424500D01*
X143297201Y-32435995D01*
X143152047Y-32458985D01*
X142942396Y-32527103D01*
X142942393Y-32527104D01*
X142745974Y-32627187D01*
X142567641Y-32756752D01*
X142567636Y-32756756D01*
X142411756Y-32912636D01*
X142411752Y-32912641D01*
X142310318Y-33052254D01*
X142254988Y-33094920D01*
X142185375Y-33100899D01*
X142123580Y-33068293D01*
X142109682Y-33052254D01*
X142008247Y-32912641D01*
X142008243Y-32912636D01*
X141852363Y-32756756D01*
X141852358Y-32756752D01*
X141674025Y-32627187D01*
X141674024Y-32627186D01*
X141674022Y-32627185D01*
X141611096Y-32595122D01*
X141477606Y-32527104D01*
X141477603Y-32527103D01*
X141267952Y-32458985D01*
X141159086Y-32441742D01*
X141050222Y-32424500D01*
X140829778Y-32424500D01*
X140757201Y-32435995D01*
X140612047Y-32458985D01*
X140402396Y-32527103D01*
X140402393Y-32527104D01*
X140205974Y-32627187D01*
X140027641Y-32756752D01*
X140027636Y-32756756D01*
X139871756Y-32912636D01*
X139871752Y-32912641D01*
X139770318Y-33052254D01*
X139714988Y-33094920D01*
X139645375Y-33100899D01*
X139583580Y-33068293D01*
X139569682Y-33052254D01*
X139468247Y-32912641D01*
X139468243Y-32912636D01*
X139312363Y-32756756D01*
X139312358Y-32756752D01*
X139134025Y-32627187D01*
X139134024Y-32627186D01*
X139134022Y-32627185D01*
X139071096Y-32595122D01*
X138937606Y-32527104D01*
X138937603Y-32527103D01*
X138727952Y-32458985D01*
X138619086Y-32441742D01*
X138510222Y-32424500D01*
X138289778Y-32424500D01*
X138217201Y-32435995D01*
X138072047Y-32458985D01*
X137862396Y-32527103D01*
X137862393Y-32527104D01*
X137665974Y-32627187D01*
X137487641Y-32756752D01*
X137487636Y-32756756D01*
X137331756Y-32912636D01*
X137230008Y-33052681D01*
X137174678Y-33095346D01*
X137105065Y-33101325D01*
X137043270Y-33068719D01*
X137029372Y-33052680D01*
X136927862Y-32912964D01*
X136927857Y-32912958D01*
X136772041Y-32757142D01*
X136593760Y-32627613D01*
X136397410Y-32527567D01*
X136187836Y-32459473D01*
X136110000Y-32447144D01*
X136110000Y-33676517D01*
X136091591Y-33665889D01*
X135938991Y-33625000D01*
X135781009Y-33625000D01*
X135628409Y-33665889D01*
X135610000Y-33676517D01*
X135610000Y-32447144D01*
X135532164Y-32459473D01*
X135532161Y-32459473D01*
X135322589Y-32527567D01*
X135126239Y-32627613D01*
X134947958Y-32757142D01*
X134792142Y-32912958D01*
X134792142Y-32912959D01*
X134690627Y-33052681D01*
X134635297Y-33095346D01*
X134565683Y-33101325D01*
X134503888Y-33068719D01*
X134489991Y-33052680D01*
X134388247Y-32912641D01*
X134388243Y-32912636D01*
X134232363Y-32756756D01*
X134232358Y-32756752D01*
X134054025Y-32627187D01*
X134054024Y-32627186D01*
X134054022Y-32627185D01*
X133991096Y-32595122D01*
X133857606Y-32527104D01*
X133857603Y-32527103D01*
X133647952Y-32458985D01*
X133539086Y-32441742D01*
X133430222Y-32424500D01*
X133209778Y-32424500D01*
X133137201Y-32435995D01*
X132992047Y-32458985D01*
X132782396Y-32527103D01*
X132782393Y-32527104D01*
X132585974Y-32627187D01*
X132407641Y-32756752D01*
X132407636Y-32756756D01*
X132357075Y-32807317D01*
X132295752Y-32840801D01*
X132226060Y-32835816D01*
X132170127Y-32793945D01*
X132153213Y-32762968D01*
X132123354Y-32682913D01*
X132123350Y-32682906D01*
X132037190Y-32567812D01*
X132037187Y-32567809D01*
X131922093Y-32481649D01*
X131922086Y-32481645D01*
X131787379Y-32431403D01*
X131787372Y-32431401D01*
X131727844Y-32425000D01*
X131030000Y-32425000D01*
X131030000Y-33676517D01*
X131011591Y-33665889D01*
X130858991Y-33625000D01*
X130701009Y-33625000D01*
X130548409Y-33665889D01*
X130530000Y-33676517D01*
X130530000Y-32425000D01*
X129832155Y-32425000D01*
X129772627Y-32431401D01*
X129772620Y-32431403D01*
X129637913Y-32481645D01*
X129637906Y-32481649D01*
X129522812Y-32567809D01*
X129522809Y-32567812D01*
X129436649Y-32682906D01*
X129436645Y-32682913D01*
X129386403Y-32817620D01*
X129386401Y-32817627D01*
X129380000Y-32877155D01*
X129380000Y-33975000D01*
X130231518Y-33975000D01*
X130220889Y-33993409D01*
X130180000Y-34146009D01*
X130180000Y-34303991D01*
X130220889Y-34456591D01*
X130231518Y-34475000D01*
X129380000Y-34475000D01*
X129380000Y-35572844D01*
X129386401Y-35632372D01*
X129386403Y-35632379D01*
X129436645Y-35767086D01*
X129436649Y-35767093D01*
X129522809Y-35882187D01*
X129522812Y-35882190D01*
X129637906Y-35968350D01*
X129637913Y-35968354D01*
X129772620Y-36018596D01*
X129772627Y-36018598D01*
X129832155Y-36024999D01*
X129832172Y-36025000D01*
X130530000Y-36025000D01*
X130530000Y-34773482D01*
X130548409Y-34784111D01*
X130701009Y-34825000D01*
X130858991Y-34825000D01*
X131011591Y-34784111D01*
X131030000Y-34773482D01*
X131030000Y-36025000D01*
X131727828Y-36025000D01*
X131727844Y-36024999D01*
X131787372Y-36018598D01*
X131787379Y-36018596D01*
X131922086Y-35968354D01*
X131922093Y-35968350D01*
X132037187Y-35882190D01*
X132037190Y-35882187D01*
X132123350Y-35767093D01*
X132123354Y-35767086D01*
X132153213Y-35687031D01*
X132195084Y-35631097D01*
X132260548Y-35606680D01*
X132328821Y-35621531D01*
X132357076Y-35642683D01*
X132407636Y-35693243D01*
X132407641Y-35693247D01*
X132585973Y-35822812D01*
X132585975Y-35822813D01*
X132585978Y-35822815D01*
X132601795Y-35830874D01*
X132652591Y-35878848D01*
X132669500Y-35941359D01*
X132669500Y-84147060D01*
X132649815Y-84214099D01*
X132633181Y-84234741D01*
X132620184Y-84247737D01*
X132524211Y-84400476D01*
X132464631Y-84570745D01*
X132464630Y-84570750D01*
X132444435Y-84749996D01*
X132444435Y-84750003D01*
X132464630Y-84929249D01*
X132464631Y-84929254D01*
X132524211Y-85099523D01*
X132566759Y-85167237D01*
X132620184Y-85252262D01*
X132747738Y-85379816D01*
X132900478Y-85475789D01*
X132969672Y-85500001D01*
X133070745Y-85535368D01*
X133070750Y-85535369D01*
X133249996Y-85555565D01*
X133250000Y-85555565D01*
X133250004Y-85555565D01*
X133429249Y-85535369D01*
X133429252Y-85535368D01*
X133429255Y-85535368D01*
X133599522Y-85475789D01*
X133752262Y-85379816D01*
X133879816Y-85252262D01*
X133975789Y-85099522D01*
X134035368Y-84929255D01*
X134035369Y-84929249D01*
X134055565Y-84750003D01*
X134055565Y-84749996D01*
X134035369Y-84570750D01*
X134035368Y-84570745D01*
X133977458Y-84405248D01*
X133970500Y-84364293D01*
X133970500Y-80821328D01*
X140892200Y-80821328D01*
X140892200Y-81058671D01*
X140929326Y-81293077D01*
X141002668Y-81518798D01*
X141110414Y-81730259D01*
X141249915Y-81922265D01*
X141417735Y-82090085D01*
X141609741Y-82229586D01*
X141709648Y-82280491D01*
X141821201Y-82337331D01*
X141821203Y-82337331D01*
X141821206Y-82337333D01*
X141942196Y-82376645D01*
X142046922Y-82410673D01*
X142281329Y-82447800D01*
X142281334Y-82447800D01*
X142518671Y-82447800D01*
X142753077Y-82410673D01*
X142978794Y-82337333D01*
X143190259Y-82229586D01*
X143382265Y-82090085D01*
X143550085Y-81922265D01*
X143689586Y-81730259D01*
X143797333Y-81518794D01*
X143870673Y-81293077D01*
X143907800Y-81058671D01*
X143907800Y-80821328D01*
X143870673Y-80586922D01*
X143797331Y-80361201D01*
X143689585Y-80149740D01*
X143550085Y-79957735D01*
X143382265Y-79789915D01*
X143190259Y-79650414D01*
X142978798Y-79542668D01*
X142753077Y-79469326D01*
X142518671Y-79432200D01*
X142518666Y-79432200D01*
X142281334Y-79432200D01*
X142281329Y-79432200D01*
X142046922Y-79469326D01*
X141821201Y-79542668D01*
X141609740Y-79650414D01*
X141500194Y-79730004D01*
X141417735Y-79789915D01*
X141417733Y-79789917D01*
X141417732Y-79789917D01*
X141249917Y-79957732D01*
X141249917Y-79957733D01*
X141249915Y-79957735D01*
X141190004Y-80040194D01*
X141110414Y-80149740D01*
X141002668Y-80361201D01*
X140929326Y-80586922D01*
X140892200Y-80821328D01*
X133970500Y-80821328D01*
X133970500Y-35941359D01*
X133990185Y-35874320D01*
X134038205Y-35830874D01*
X134054022Y-35822815D01*
X134232365Y-35693242D01*
X134388242Y-35537365D01*
X134489991Y-35397317D01*
X134545320Y-35354653D01*
X134614933Y-35348674D01*
X134676729Y-35381279D01*
X134690627Y-35397318D01*
X134792142Y-35537041D01*
X134947958Y-35692857D01*
X135126239Y-35822386D01*
X135322589Y-35922432D01*
X135532163Y-35990526D01*
X135609999Y-36002854D01*
X135610000Y-36002854D01*
X135610000Y-34773482D01*
X135628409Y-34784111D01*
X135781009Y-34825000D01*
X135938991Y-34825000D01*
X136091591Y-34784111D01*
X136110000Y-34773482D01*
X136110000Y-36002854D01*
X136187834Y-35990526D01*
X136187837Y-35990526D01*
X136397410Y-35922432D01*
X136593760Y-35822386D01*
X136772041Y-35692857D01*
X136927857Y-35537041D01*
X136927862Y-35537035D01*
X137029372Y-35397319D01*
X137084702Y-35354653D01*
X137154315Y-35348674D01*
X137216110Y-35381279D01*
X137230008Y-35397319D01*
X137331752Y-35537358D01*
X137331756Y-35537363D01*
X137487636Y-35693243D01*
X137487641Y-35693247D01*
X137643192Y-35806260D01*
X137665978Y-35822815D01*
X137775948Y-35878848D01*
X137862393Y-35922895D01*
X137862396Y-35922896D01*
X137919221Y-35941359D01*
X138072049Y-35991015D01*
X138289778Y-36025500D01*
X138289779Y-36025500D01*
X138510221Y-36025500D01*
X138510222Y-36025500D01*
X138727951Y-35991015D01*
X138937606Y-35922895D01*
X139134022Y-35822815D01*
X139312365Y-35693242D01*
X139468242Y-35537365D01*
X139478804Y-35522826D01*
X139569682Y-35397745D01*
X139625011Y-35355079D01*
X139694625Y-35349100D01*
X139756420Y-35381705D01*
X139770318Y-35397745D01*
X139871752Y-35537358D01*
X139871756Y-35537363D01*
X140027636Y-35693243D01*
X140027641Y-35693247D01*
X140183192Y-35806260D01*
X140205978Y-35822815D01*
X140315948Y-35878848D01*
X140402393Y-35922895D01*
X140402396Y-35922896D01*
X140459221Y-35941359D01*
X140612049Y-35991015D01*
X140829778Y-36025500D01*
X140829779Y-36025500D01*
X141050221Y-36025500D01*
X141050222Y-36025500D01*
X141267951Y-35991015D01*
X141477606Y-35922895D01*
X141674022Y-35822815D01*
X141852365Y-35693242D01*
X142008242Y-35537365D01*
X142018804Y-35522826D01*
X142109682Y-35397745D01*
X142165011Y-35355079D01*
X142234625Y-35349100D01*
X142296420Y-35381705D01*
X142310318Y-35397745D01*
X142411752Y-35537358D01*
X142411756Y-35537363D01*
X142567636Y-35693243D01*
X142567641Y-35693247D01*
X142745973Y-35822812D01*
X142745975Y-35822813D01*
X142745978Y-35822815D01*
X142761795Y-35830874D01*
X142812591Y-35878848D01*
X142829500Y-35941359D01*
X142829500Y-69544069D01*
X142829500Y-69544071D01*
X142829499Y-69544071D01*
X142854497Y-69669738D01*
X142854499Y-69669744D01*
X142903535Y-69788127D01*
X142974723Y-69894669D01*
X142974726Y-69894673D01*
X142974727Y-69894674D01*
X145313181Y-72233126D01*
X145346666Y-72294449D01*
X145349500Y-72320807D01*
X145349500Y-92814069D01*
X145349500Y-92814071D01*
X145349499Y-92814071D01*
X145371274Y-92923532D01*
X145374498Y-92939739D01*
X145374499Y-92939744D01*
X145423535Y-93058127D01*
X145494723Y-93164669D01*
X145494726Y-93164673D01*
X145494727Y-93164674D01*
X146967873Y-94637819D01*
X147001358Y-94699142D01*
X146996374Y-94768834D01*
X146954502Y-94824767D01*
X146889038Y-94849184D01*
X146880192Y-94849500D01*
X65935929Y-94849500D01*
X65810261Y-94874497D01*
X65810255Y-94874499D01*
X65691874Y-94923534D01*
X65585326Y-94994726D01*
X63794726Y-96785326D01*
X63742114Y-96864068D01*
X63742112Y-96864070D01*
X63723539Y-96891864D01*
X63723533Y-96891875D01*
X63674499Y-97010255D01*
X63674497Y-97010261D01*
X63649500Y-97135928D01*
X63649500Y-105600435D01*
X63629815Y-105667474D01*
X63584519Y-105709489D01*
X63490217Y-105760523D01*
X63490208Y-105760529D01*
X63297252Y-105910713D01*
X63297242Y-105910722D01*
X63131632Y-106090621D01*
X62997888Y-106295333D01*
X62899663Y-106519265D01*
X62839636Y-106756304D01*
X62839634Y-106756316D01*
X62819443Y-106999994D01*
X55250500Y-106999994D01*
X55250500Y-87749996D01*
X61944435Y-87749996D01*
X61944435Y-87750003D01*
X61964630Y-87929249D01*
X61964631Y-87929254D01*
X62024211Y-88099523D01*
X62120184Y-88252262D01*
X62247738Y-88379816D01*
X62400478Y-88475789D01*
X62570745Y-88535368D01*
X62570750Y-88535369D01*
X62749996Y-88555565D01*
X62750000Y-88555565D01*
X62750004Y-88555565D01*
X62929249Y-88535369D01*
X62929252Y-88535368D01*
X62929255Y-88535368D01*
X63099522Y-88475789D01*
X63252262Y-88379816D01*
X63379816Y-88252262D01*
X63475789Y-88099522D01*
X63535368Y-87929255D01*
X63555565Y-87750000D01*
X63535368Y-87570745D01*
X63475789Y-87400478D01*
X63379816Y-87247738D01*
X63252262Y-87120184D01*
X63099523Y-87024211D01*
X62929254Y-86964631D01*
X62929249Y-86964630D01*
X62750004Y-86944435D01*
X62749996Y-86944435D01*
X62570750Y-86964630D01*
X62570745Y-86964631D01*
X62400476Y-87024211D01*
X62247737Y-87120184D01*
X62120184Y-87247737D01*
X62024211Y-87400476D01*
X61964631Y-87570745D01*
X61964630Y-87570750D01*
X61944435Y-87749996D01*
X55250500Y-87749996D01*
X55250500Y-80821328D01*
X90092200Y-80821328D01*
X90092200Y-81058671D01*
X90129326Y-81293077D01*
X90202668Y-81518798D01*
X90310414Y-81730259D01*
X90449915Y-81922265D01*
X90617735Y-82090085D01*
X90809741Y-82229586D01*
X90909648Y-82280491D01*
X91021201Y-82337331D01*
X91021203Y-82337331D01*
X91021206Y-82337333D01*
X91142196Y-82376645D01*
X91246922Y-82410673D01*
X91481329Y-82447800D01*
X91481334Y-82447800D01*
X91718671Y-82447800D01*
X91953077Y-82410673D01*
X92178794Y-82337333D01*
X92390259Y-82229586D01*
X92582265Y-82090085D01*
X92750085Y-81922265D01*
X92889586Y-81730259D01*
X92997333Y-81518794D01*
X93070673Y-81293077D01*
X93107800Y-81058671D01*
X93107800Y-80821328D01*
X93070673Y-80586922D01*
X92997331Y-80361201D01*
X92889585Y-80149740D01*
X92750085Y-79957735D01*
X92582265Y-79789915D01*
X92390259Y-79650414D01*
X92178798Y-79542668D01*
X91953077Y-79469326D01*
X91718671Y-79432200D01*
X91718666Y-79432200D01*
X91481334Y-79432200D01*
X91481329Y-79432200D01*
X91246922Y-79469326D01*
X91021201Y-79542668D01*
X90809740Y-79650414D01*
X90700194Y-79730004D01*
X90617735Y-79789915D01*
X90617733Y-79789917D01*
X90617732Y-79789917D01*
X90449917Y-79957732D01*
X90449917Y-79957733D01*
X90449915Y-79957735D01*
X90390004Y-80040194D01*
X90310414Y-80149740D01*
X90202668Y-80361201D01*
X90129326Y-80586922D01*
X90092200Y-80821328D01*
X55250500Y-80821328D01*
X55250500Y-72225934D01*
X58874136Y-72225934D01*
X58874136Y-72225945D01*
X58893890Y-72539944D01*
X58893891Y-72539951D01*
X58952850Y-72849023D01*
X59050077Y-73148256D01*
X59050079Y-73148261D01*
X59184041Y-73432943D01*
X59184044Y-73432949D01*
X59352631Y-73698601D01*
X59352634Y-73698605D01*
X59553186Y-73941030D01*
X59553188Y-73941032D01*
X59782548Y-74156416D01*
X59782558Y-74156424D01*
X60037084Y-74341348D01*
X60037089Y-74341350D01*
X60037096Y-74341356D01*
X60312814Y-74492934D01*
X60312819Y-74492936D01*
X60312821Y-74492937D01*
X60312822Y-74492938D01*
X60605351Y-74608758D01*
X60605354Y-74608759D01*
X60910103Y-74687005D01*
X60910107Y-74687006D01*
X60975590Y-74695278D01*
X61222250Y-74726439D01*
X61222259Y-74726439D01*
X61222262Y-74726440D01*
X61222264Y-74726440D01*
X61536896Y-74726440D01*
X61536898Y-74726440D01*
X61536901Y-74726439D01*
X61536909Y-74726439D01*
X61723173Y-74702908D01*
X61849053Y-74687006D01*
X62153805Y-74608759D01*
X62153808Y-74608758D01*
X62446337Y-74492938D01*
X62446338Y-74492937D01*
X62446336Y-74492937D01*
X62446346Y-74492934D01*
X62722064Y-74341356D01*
X62976610Y-74156418D01*
X63205970Y-73941034D01*
X63406527Y-73698603D01*
X63575117Y-73432947D01*
X63709083Y-73148255D01*
X63806311Y-72849019D01*
X63865268Y-72539955D01*
X63885024Y-72225940D01*
X63866778Y-71935931D01*
X63865269Y-71911935D01*
X63865268Y-71911928D01*
X63865268Y-71911925D01*
X63806311Y-71602861D01*
X63709083Y-71303625D01*
X63575117Y-71018933D01*
X63406527Y-70753277D01*
X63406525Y-70753274D01*
X63205973Y-70510849D01*
X63205971Y-70510847D01*
X62976611Y-70295463D01*
X62976601Y-70295455D01*
X62722075Y-70110531D01*
X62722068Y-70110526D01*
X62722064Y-70110524D01*
X62446346Y-69958946D01*
X62446343Y-69958944D01*
X62446338Y-69958942D01*
X62446337Y-69958941D01*
X62153808Y-69843121D01*
X62153805Y-69843120D01*
X61849056Y-69764874D01*
X61849043Y-69764872D01*
X61536909Y-69725440D01*
X61536898Y-69725440D01*
X61222262Y-69725440D01*
X61222250Y-69725440D01*
X60910116Y-69764872D01*
X60910103Y-69764874D01*
X60605354Y-69843120D01*
X60605351Y-69843121D01*
X60312822Y-69958941D01*
X60312821Y-69958942D01*
X60037096Y-70110524D01*
X60037084Y-70110531D01*
X59782558Y-70295455D01*
X59782548Y-70295463D01*
X59553188Y-70510847D01*
X59553186Y-70510849D01*
X59352634Y-70753274D01*
X59352631Y-70753278D01*
X59184044Y-71018930D01*
X59184041Y-71018936D01*
X59050079Y-71303618D01*
X59050077Y-71303623D01*
X58952850Y-71602856D01*
X58893891Y-71911928D01*
X58893890Y-71911935D01*
X58874136Y-72225934D01*
X55250500Y-72225934D01*
X55250500Y-35225754D01*
X58874136Y-35225754D01*
X58874136Y-35225765D01*
X58893890Y-35539764D01*
X58893891Y-35539771D01*
X58952850Y-35848843D01*
X59050077Y-36148076D01*
X59050079Y-36148081D01*
X59184041Y-36432763D01*
X59184044Y-36432769D01*
X59352631Y-36698421D01*
X59352634Y-36698425D01*
X59553186Y-36940850D01*
X59553188Y-36940852D01*
X59782548Y-37156236D01*
X59782558Y-37156244D01*
X60037084Y-37341168D01*
X60037089Y-37341170D01*
X60037096Y-37341176D01*
X60312814Y-37492754D01*
X60312819Y-37492756D01*
X60312821Y-37492757D01*
X60312822Y-37492758D01*
X60605351Y-37608578D01*
X60605354Y-37608579D01*
X60910103Y-37686825D01*
X60910107Y-37686826D01*
X60975590Y-37695098D01*
X61222250Y-37726259D01*
X61222259Y-37726259D01*
X61222262Y-37726260D01*
X61222264Y-37726260D01*
X61536896Y-37726260D01*
X61536898Y-37726260D01*
X61536901Y-37726259D01*
X61536909Y-37726259D01*
X61723173Y-37702728D01*
X61849053Y-37686826D01*
X62153805Y-37608579D01*
X62153808Y-37608578D01*
X62446337Y-37492758D01*
X62446338Y-37492757D01*
X62446336Y-37492757D01*
X62446346Y-37492754D01*
X62722064Y-37341176D01*
X62976610Y-37156238D01*
X63205970Y-36940854D01*
X63406527Y-36698423D01*
X63575117Y-36432767D01*
X63709083Y-36148075D01*
X63806311Y-35848839D01*
X63865268Y-35539775D01*
X63865440Y-35537041D01*
X63885024Y-35225765D01*
X63885024Y-35225754D01*
X63865269Y-34911755D01*
X63865268Y-34911748D01*
X63865268Y-34911745D01*
X63806311Y-34602681D01*
X63709083Y-34303445D01*
X63575117Y-34018753D01*
X63406527Y-33753097D01*
X63406525Y-33753094D01*
X63205973Y-33510669D01*
X63205971Y-33510667D01*
X62976611Y-33295283D01*
X62976601Y-33295275D01*
X62722075Y-33110351D01*
X62722068Y-33110346D01*
X62722064Y-33110344D01*
X62446346Y-32958766D01*
X62446343Y-32958764D01*
X62446338Y-32958762D01*
X62446337Y-32958761D01*
X62153808Y-32842941D01*
X62153805Y-32842940D01*
X61849056Y-32764694D01*
X61849043Y-32764692D01*
X61536909Y-32725260D01*
X61536898Y-32725260D01*
X61222262Y-32725260D01*
X61222250Y-32725260D01*
X60910116Y-32764692D01*
X60910103Y-32764694D01*
X60605354Y-32842940D01*
X60605351Y-32842941D01*
X60312822Y-32958761D01*
X60312821Y-32958762D01*
X60037096Y-33110344D01*
X60037084Y-33110351D01*
X59782558Y-33295275D01*
X59782548Y-33295283D01*
X59553188Y-33510667D01*
X59553186Y-33510669D01*
X59352634Y-33753094D01*
X59352631Y-33753098D01*
X59184044Y-34018750D01*
X59184041Y-34018756D01*
X59050079Y-34303438D01*
X59050077Y-34303443D01*
X58952850Y-34602676D01*
X58893891Y-34911748D01*
X58893890Y-34911755D01*
X58874136Y-35225754D01*
X55250500Y-35225754D01*
X55250500Y-28374500D01*
X55270185Y-28307461D01*
X55322989Y-28261706D01*
X55374500Y-28250500D01*
X182625500Y-28250500D01*
X182692539Y-28270185D01*
G37*
%TD.AperFunction*%
%TD*%
M02*
