%TF.GenerationSoftware,KiCad,Pcbnew,8.0.2*%
%TF.CreationDate,2024-07-17T11:39:07+05:30*%
%TF.ProjectId,smart lock,736d6172-7420-46c6-9f63-6b2e6b696361,v1*%
%TF.SameCoordinates,Original*%
%TF.FileFunction,Legend,Bot*%
%TF.FilePolarity,Positive*%
%FSLAX46Y46*%
G04 Gerber Fmt 4.6, Leading zero omitted, Abs format (unit mm)*
G04 Created by KiCad (PCBNEW 8.0.2) date 2024-07-17 11:39:07*
%MOMM*%
%LPD*%
G01*
G04 APERTURE LIST*
%ADD10C,0.100000*%
%ADD11C,0.150000*%
%ADD12C,0.010000*%
%ADD13C,0.120000*%
G04 APERTURE END LIST*
D10*
X60672306Y-83420038D02*
X60767544Y-83372419D01*
X60767544Y-83372419D02*
X60910401Y-83372419D01*
X60910401Y-83372419D02*
X61053258Y-83420038D01*
X61053258Y-83420038D02*
X61148496Y-83515276D01*
X61148496Y-83515276D02*
X61196115Y-83610514D01*
X61196115Y-83610514D02*
X61243734Y-83800990D01*
X61243734Y-83800990D02*
X61243734Y-83943847D01*
X61243734Y-83943847D02*
X61196115Y-84134323D01*
X61196115Y-84134323D02*
X61148496Y-84229561D01*
X61148496Y-84229561D02*
X61053258Y-84324800D01*
X61053258Y-84324800D02*
X60910401Y-84372419D01*
X60910401Y-84372419D02*
X60815163Y-84372419D01*
X60815163Y-84372419D02*
X60672306Y-84324800D01*
X60672306Y-84324800D02*
X60624687Y-84277180D01*
X60624687Y-84277180D02*
X60624687Y-83943847D01*
X60624687Y-83943847D02*
X60815163Y-83943847D01*
X60196115Y-84372419D02*
X60196115Y-83372419D01*
X60196115Y-83372419D02*
X59624687Y-84372419D01*
X59624687Y-84372419D02*
X59624687Y-83372419D01*
X59148496Y-84372419D02*
X59148496Y-83372419D01*
X59148496Y-83372419D02*
X58910401Y-83372419D01*
X58910401Y-83372419D02*
X58767544Y-83420038D01*
X58767544Y-83420038D02*
X58672306Y-83515276D01*
X58672306Y-83515276D02*
X58624687Y-83610514D01*
X58624687Y-83610514D02*
X58577068Y-83800990D01*
X58577068Y-83800990D02*
X58577068Y-83943847D01*
X58577068Y-83943847D02*
X58624687Y-84134323D01*
X58624687Y-84134323D02*
X58672306Y-84229561D01*
X58672306Y-84229561D02*
X58767544Y-84324800D01*
X58767544Y-84324800D02*
X58910401Y-84372419D01*
X58910401Y-84372419D02*
X59148496Y-84372419D01*
X61446115Y-87741466D02*
X60684211Y-87741466D01*
X61065163Y-88122419D02*
X61065163Y-87360514D01*
X60303258Y-87122419D02*
X59684211Y-87122419D01*
X59684211Y-87122419D02*
X60017544Y-87503371D01*
X60017544Y-87503371D02*
X59874687Y-87503371D01*
X59874687Y-87503371D02*
X59779449Y-87550990D01*
X59779449Y-87550990D02*
X59731830Y-87598609D01*
X59731830Y-87598609D02*
X59684211Y-87693847D01*
X59684211Y-87693847D02*
X59684211Y-87931942D01*
X59684211Y-87931942D02*
X59731830Y-88027180D01*
X59731830Y-88027180D02*
X59779449Y-88074800D01*
X59779449Y-88074800D02*
X59874687Y-88122419D01*
X59874687Y-88122419D02*
X60160401Y-88122419D01*
X60160401Y-88122419D02*
X60255639Y-88074800D01*
X60255639Y-88074800D02*
X60303258Y-88027180D01*
X59255639Y-88027180D02*
X59208020Y-88074800D01*
X59208020Y-88074800D02*
X59255639Y-88122419D01*
X59255639Y-88122419D02*
X59303258Y-88074800D01*
X59303258Y-88074800D02*
X59255639Y-88027180D01*
X59255639Y-88027180D02*
X59255639Y-88122419D01*
X58874687Y-87122419D02*
X58255640Y-87122419D01*
X58255640Y-87122419D02*
X58588973Y-87503371D01*
X58588973Y-87503371D02*
X58446116Y-87503371D01*
X58446116Y-87503371D02*
X58350878Y-87550990D01*
X58350878Y-87550990D02*
X58303259Y-87598609D01*
X58303259Y-87598609D02*
X58255640Y-87693847D01*
X58255640Y-87693847D02*
X58255640Y-87931942D01*
X58255640Y-87931942D02*
X58303259Y-88027180D01*
X58303259Y-88027180D02*
X58350878Y-88074800D01*
X58350878Y-88074800D02*
X58446116Y-88122419D01*
X58446116Y-88122419D02*
X58731830Y-88122419D01*
X58731830Y-88122419D02*
X58827068Y-88074800D01*
X58827068Y-88074800D02*
X58874687Y-88027180D01*
X57922306Y-87455752D02*
X57684211Y-88122419D01*
X57684211Y-88122419D02*
X57446116Y-87455752D01*
X70243734Y-134824800D02*
X70148496Y-134872419D01*
X70148496Y-134872419D02*
X69958020Y-134872419D01*
X69958020Y-134872419D02*
X69862782Y-134824800D01*
X69862782Y-134824800D02*
X69815163Y-134729561D01*
X69815163Y-134729561D02*
X69815163Y-134681942D01*
X69815163Y-134681942D02*
X69862782Y-134586704D01*
X69862782Y-134586704D02*
X69958020Y-134539085D01*
X69958020Y-134539085D02*
X70100877Y-134539085D01*
X70100877Y-134539085D02*
X70196115Y-134491466D01*
X70196115Y-134491466D02*
X70243734Y-134396228D01*
X70243734Y-134396228D02*
X70243734Y-134348609D01*
X70243734Y-134348609D02*
X70196115Y-134253371D01*
X70196115Y-134253371D02*
X70100877Y-134205752D01*
X70100877Y-134205752D02*
X69958020Y-134205752D01*
X69958020Y-134205752D02*
X69862782Y-134253371D01*
X69005639Y-134824800D02*
X69100877Y-134872419D01*
X69100877Y-134872419D02*
X69291353Y-134872419D01*
X69291353Y-134872419D02*
X69386591Y-134824800D01*
X69386591Y-134824800D02*
X69434210Y-134729561D01*
X69434210Y-134729561D02*
X69434210Y-134348609D01*
X69434210Y-134348609D02*
X69386591Y-134253371D01*
X69386591Y-134253371D02*
X69291353Y-134205752D01*
X69291353Y-134205752D02*
X69100877Y-134205752D01*
X69100877Y-134205752D02*
X69005639Y-134253371D01*
X69005639Y-134253371D02*
X68958020Y-134348609D01*
X68958020Y-134348609D02*
X68958020Y-134443847D01*
X68958020Y-134443847D02*
X69434210Y-134539085D01*
X68529448Y-134872419D02*
X68529448Y-134205752D01*
X68529448Y-134396228D02*
X68481829Y-134300990D01*
X68481829Y-134300990D02*
X68434210Y-134253371D01*
X68434210Y-134253371D02*
X68338972Y-134205752D01*
X68338972Y-134205752D02*
X68243734Y-134205752D01*
X68005638Y-134205752D02*
X67767543Y-134872419D01*
X67767543Y-134872419D02*
X67529448Y-134205752D01*
X67005638Y-134872419D02*
X67100876Y-134824800D01*
X67100876Y-134824800D02*
X67148495Y-134777180D01*
X67148495Y-134777180D02*
X67196114Y-134681942D01*
X67196114Y-134681942D02*
X67196114Y-134396228D01*
X67196114Y-134396228D02*
X67148495Y-134300990D01*
X67148495Y-134300990D02*
X67100876Y-134253371D01*
X67100876Y-134253371D02*
X67005638Y-134205752D01*
X67005638Y-134205752D02*
X66862781Y-134205752D01*
X66862781Y-134205752D02*
X66767543Y-134253371D01*
X66767543Y-134253371D02*
X66719924Y-134300990D01*
X66719924Y-134300990D02*
X66672305Y-134396228D01*
X66672305Y-134396228D02*
X66672305Y-134681942D01*
X66672305Y-134681942D02*
X66719924Y-134777180D01*
X66719924Y-134777180D02*
X66767543Y-134824800D01*
X66767543Y-134824800D02*
X66862781Y-134872419D01*
X66862781Y-134872419D02*
X67005638Y-134872419D01*
D11*
X73749819Y-141680476D02*
X72749819Y-141680476D01*
X72749819Y-141680476D02*
X73464104Y-142013809D01*
X73464104Y-142013809D02*
X72749819Y-142347142D01*
X72749819Y-142347142D02*
X73749819Y-142347142D01*
X73749819Y-143347142D02*
X73749819Y-142775714D01*
X73749819Y-143061428D02*
X72749819Y-143061428D01*
X72749819Y-143061428D02*
X72892676Y-142966190D01*
X72892676Y-142966190D02*
X72987914Y-142870952D01*
X72987914Y-142870952D02*
X73035533Y-142775714D01*
D12*
%TO.C,REF\u002A\u002A*%
X104356184Y-61760526D02*
X99677237Y-61760526D01*
X99677237Y-60607500D01*
X104356184Y-60607500D01*
X104356184Y-61760526D01*
G36*
X104356184Y-61760526D02*
G01*
X99677237Y-61760526D01*
X99677237Y-60607500D01*
X104356184Y-60607500D01*
X104356184Y-61760526D01*
G37*
X102985938Y-54395362D02*
X102986595Y-54412572D01*
X102995141Y-54441467D01*
X103019466Y-54465972D01*
X103066918Y-54495143D01*
X103108573Y-54521793D01*
X103171989Y-54572960D01*
X103229460Y-54630400D01*
X103273422Y-54686279D01*
X103296311Y-54732762D01*
X103301919Y-54750674D01*
X103312309Y-54762970D01*
X103315812Y-54767116D01*
X103344445Y-54774083D01*
X103397141Y-54775526D01*
X103487237Y-54775526D01*
X103487237Y-54925921D01*
X103275228Y-54925921D01*
X103255433Y-55162183D01*
X103252775Y-55194483D01*
X103246583Y-55275340D01*
X103242208Y-55341135D01*
X103240030Y-55385791D01*
X103240426Y-55403233D01*
X103246185Y-55398219D01*
X103272462Y-55372083D01*
X103317888Y-55325758D01*
X103380166Y-55261647D01*
X103456997Y-55182150D01*
X103546080Y-55089669D01*
X103645119Y-54986606D01*
X103751814Y-54875362D01*
X103863865Y-54758338D01*
X103978975Y-54637936D01*
X104094844Y-54516558D01*
X104209174Y-54396604D01*
X104319666Y-54280476D01*
X104424021Y-54170575D01*
X104519940Y-54069304D01*
X104605124Y-53979063D01*
X104677275Y-53902253D01*
X104806194Y-53764539D01*
X104806781Y-53881852D01*
X104807368Y-53999164D01*
X104009286Y-54838485D01*
X103211204Y-55677807D01*
X103195250Y-55869106D01*
X103131419Y-56634528D01*
X103120138Y-56770287D01*
X103106140Y-56940154D01*
X103093220Y-57098505D01*
X103081627Y-57242228D01*
X103071607Y-57368210D01*
X103063407Y-57473338D01*
X103057274Y-57554501D01*
X103053456Y-57608586D01*
X103052199Y-57632480D01*
X103055517Y-57643429D01*
X103070429Y-57667071D01*
X103098709Y-57702703D01*
X103112358Y-57718277D01*
X103141864Y-57751948D01*
X103201399Y-57816428D01*
X103278820Y-57897768D01*
X103375632Y-57997591D01*
X103493342Y-58117520D01*
X103633454Y-58259179D01*
X103725628Y-58352136D01*
X103854119Y-58481795D01*
X103982159Y-58611079D01*
X104105900Y-58736097D01*
X104221492Y-58852959D01*
X104325085Y-58957774D01*
X104412831Y-59046652D01*
X104480881Y-59115702D01*
X104747617Y-59386757D01*
X104699169Y-59437326D01*
X104687743Y-59448719D01*
X104654035Y-59476697D01*
X104630910Y-59487895D01*
X104612805Y-59478335D01*
X104579145Y-59449649D01*
X104538792Y-59408520D01*
X104514230Y-59382542D01*
X104468423Y-59335104D01*
X104403683Y-59268566D01*
X104322295Y-59185263D01*
X104226545Y-59087528D01*
X104118721Y-58977695D01*
X104001108Y-58858096D01*
X103875992Y-58731066D01*
X103745659Y-58598938D01*
X103024831Y-57868732D01*
X102995469Y-58248017D01*
X102989068Y-58328972D01*
X102979721Y-58437793D01*
X102971290Y-58520217D01*
X102963151Y-58580575D01*
X102954679Y-58623200D01*
X102945250Y-58652424D01*
X102934237Y-58672580D01*
X102918825Y-58700750D01*
X102906143Y-58752539D01*
X102902368Y-58827152D01*
X102902368Y-58936447D01*
X102601579Y-58936447D01*
X102601579Y-58702500D01*
X101477832Y-58702500D01*
X101412875Y-58776295D01*
X101395110Y-58795511D01*
X101298831Y-58872712D01*
X101190049Y-58920239D01*
X101072262Y-58936447D01*
X100968327Y-58927854D01*
X100850770Y-58891628D01*
X100750134Y-58826882D01*
X100730520Y-58808378D01*
X100681503Y-58748475D01*
X100638497Y-58678693D01*
X100607658Y-58609909D01*
X100595141Y-58553002D01*
X100594899Y-58544741D01*
X100593099Y-58514471D01*
X100588392Y-58493563D01*
X100578544Y-58483669D01*
X100561323Y-58486444D01*
X100534494Y-58503540D01*
X100495824Y-58536610D01*
X100443080Y-58587307D01*
X100374028Y-58657285D01*
X100286434Y-58748197D01*
X100178065Y-58861695D01*
X100120342Y-58922280D01*
X100023855Y-59023718D01*
X99932568Y-59119889D01*
X99850059Y-59207013D01*
X99779906Y-59281311D01*
X99725685Y-59339003D01*
X99690974Y-59376310D01*
X99596092Y-59479539D01*
X99537449Y-59421052D01*
X99478805Y-59362566D01*
X100204179Y-58602237D01*
X100249916Y-58554263D01*
X100412633Y-58382940D01*
X100552313Y-58234738D01*
X100669373Y-58109198D01*
X100764233Y-58005861D01*
X100831309Y-57930967D01*
X101105947Y-57930967D01*
X101108106Y-57948589D01*
X101108483Y-57950430D01*
X101126480Y-57992171D01*
X101162428Y-58011620D01*
X101273237Y-58053083D01*
X101371963Y-58122156D01*
X101449611Y-58213524D01*
X101502828Y-58323195D01*
X101528258Y-58447173D01*
X101536681Y-58552105D01*
X102798482Y-58552105D01*
X102807280Y-58514506D01*
X102808836Y-58505279D01*
X102813672Y-58464018D01*
X102820271Y-58397304D01*
X102828142Y-58310453D01*
X102836797Y-58208777D01*
X102845743Y-58097592D01*
X102875409Y-57718277D01*
X102475532Y-57312198D01*
X102402187Y-57237961D01*
X102312447Y-57147837D01*
X102231940Y-57067775D01*
X102163488Y-57000542D01*
X102109917Y-56948910D01*
X102074052Y-56915646D01*
X102058715Y-56903521D01*
X102048431Y-56909314D01*
X102017801Y-56935675D01*
X101971705Y-56979709D01*
X101914265Y-57037444D01*
X101849605Y-57104911D01*
X101832738Y-57122804D01*
X101757107Y-57202839D01*
X101666984Y-57297977D01*
X101569155Y-57401067D01*
X101470405Y-57504956D01*
X101377520Y-57602493D01*
X101371940Y-57608346D01*
X101285584Y-57699214D01*
X101219690Y-57769577D01*
X101171651Y-57822783D01*
X101138863Y-57862177D01*
X101118720Y-57891108D01*
X101108616Y-57912922D01*
X101105947Y-57930967D01*
X100831309Y-57930967D01*
X100837311Y-57924266D01*
X100889026Y-57863955D01*
X100919796Y-57824466D01*
X100930040Y-57805342D01*
X100930041Y-57805229D01*
X100928636Y-57781394D01*
X100924531Y-57727967D01*
X100918048Y-57648584D01*
X100909508Y-57546880D01*
X100899233Y-57426493D01*
X100887544Y-57291057D01*
X100874763Y-57144211D01*
X100861212Y-56989590D01*
X100847212Y-56830830D01*
X100833085Y-56671568D01*
X100819153Y-56515441D01*
X100805736Y-56366083D01*
X100793157Y-56227133D01*
X100781738Y-56102226D01*
X100771799Y-55994998D01*
X100763662Y-55909087D01*
X100757650Y-55848127D01*
X100754083Y-55815756D01*
X100746891Y-55761538D01*
X100918573Y-55761538D01*
X100920772Y-55802630D01*
X100925611Y-55871735D01*
X100932848Y-55965870D01*
X100942241Y-56082053D01*
X100953547Y-56217299D01*
X100966523Y-56368627D01*
X100980929Y-56533054D01*
X100996521Y-56707597D01*
X101008710Y-56842206D01*
X101023976Y-57009145D01*
X101038269Y-57163618D01*
X101051305Y-57302649D01*
X101062800Y-57423264D01*
X101072470Y-57522489D01*
X101080030Y-57597348D01*
X101085197Y-57644867D01*
X101087686Y-57662072D01*
X101095236Y-57656742D01*
X101122922Y-57630578D01*
X101167909Y-57585637D01*
X101227100Y-57525191D01*
X101297399Y-57452509D01*
X101375708Y-57370864D01*
X101458930Y-57283526D01*
X101543969Y-57193767D01*
X101627727Y-57104858D01*
X101707107Y-57020070D01*
X101779013Y-56942673D01*
X101840347Y-56875941D01*
X101888013Y-56823142D01*
X101918913Y-56787550D01*
X101927941Y-56775186D01*
X102169574Y-56775186D01*
X102535971Y-57141299D01*
X102625569Y-57230679D01*
X102710013Y-57314320D01*
X102775427Y-57378027D01*
X102824208Y-57423868D01*
X102858753Y-57453909D01*
X102881459Y-57470218D01*
X102894722Y-57474862D01*
X102900940Y-57469908D01*
X102902509Y-57457423D01*
X102903515Y-57437363D01*
X102907140Y-57385712D01*
X102913130Y-57307320D01*
X102921198Y-57205759D01*
X102931055Y-57084602D01*
X102942413Y-56947421D01*
X102954984Y-56797787D01*
X102968480Y-56639271D01*
X102980395Y-56499563D01*
X102992811Y-56352414D01*
X103003943Y-56218805D01*
X103013526Y-56102028D01*
X103021290Y-56005378D01*
X103026969Y-55932145D01*
X103030297Y-55885624D01*
X103031004Y-55869106D01*
X103030444Y-55869416D01*
X103014663Y-55884623D01*
X102979606Y-55920303D01*
X102928363Y-55973220D01*
X102864019Y-56040139D01*
X102789664Y-56117823D01*
X102708385Y-56203036D01*
X102623270Y-56292541D01*
X102537406Y-56383102D01*
X102453881Y-56471483D01*
X102375784Y-56554448D01*
X102306202Y-56628760D01*
X102172141Y-56772434D01*
X102169574Y-56775186D01*
X101927941Y-56775186D01*
X101929951Y-56772434D01*
X101919131Y-56757785D01*
X101887674Y-56722722D01*
X101838503Y-56670265D01*
X101774544Y-56603372D01*
X101698723Y-56524999D01*
X101613967Y-56438103D01*
X101523202Y-56345641D01*
X101429356Y-56250569D01*
X101335354Y-56155845D01*
X101244124Y-56064424D01*
X101158591Y-55979265D01*
X101081683Y-55903323D01*
X101016326Y-55839556D01*
X100965446Y-55790920D01*
X100931970Y-55760372D01*
X100918824Y-55750868D01*
X100918573Y-55761538D01*
X100746891Y-55761538D01*
X100744663Y-55744737D01*
X100379079Y-55744737D01*
X100378641Y-55464835D01*
X100378414Y-55319584D01*
X100512763Y-55319584D01*
X100512763Y-55611052D01*
X100621382Y-55611052D01*
X100631045Y-55611044D01*
X100685604Y-55609880D01*
X100715276Y-55604902D01*
X100727571Y-55593477D01*
X100730000Y-55572971D01*
X100719301Y-55542829D01*
X100682654Y-55492687D01*
X100621382Y-55427237D01*
X100512763Y-55319584D01*
X100378414Y-55319584D01*
X100378204Y-55184934D01*
X99777885Y-54575000D01*
X99177567Y-53965066D01*
X99176744Y-53849337D01*
X99175921Y-53733610D01*
X99895969Y-54463449D01*
X99965564Y-54533944D01*
X100109975Y-54679828D01*
X100233442Y-54803875D01*
X100337560Y-54907611D01*
X100423925Y-54992562D01*
X100494132Y-55060256D01*
X100549776Y-55112219D01*
X100592452Y-55149977D01*
X100623756Y-55175057D01*
X100645282Y-55188986D01*
X100658625Y-55193289D01*
X100681125Y-55191986D01*
X100693756Y-55182468D01*
X100695934Y-55156427D01*
X100690697Y-55105559D01*
X100687086Y-55073533D01*
X100682061Y-55020002D01*
X100680037Y-54984408D01*
X100679045Y-54972138D01*
X100669386Y-54958996D01*
X100642703Y-54954641D01*
X100590902Y-54956542D01*
X100577676Y-54957287D01*
X100524733Y-54956447D01*
X100487073Y-54944813D01*
X100460529Y-54925921D01*
X100836974Y-54925921D01*
X100842504Y-54988585D01*
X100845058Y-55017017D01*
X100853018Y-55094642D01*
X100860861Y-55145769D01*
X100870031Y-55175711D01*
X100881973Y-55189780D01*
X100898129Y-55193289D01*
X100912656Y-55195679D01*
X100922289Y-55207098D01*
X100927672Y-55233645D01*
X100930015Y-55281414D01*
X100930526Y-55356502D01*
X100930526Y-55519715D01*
X100983948Y-55572971D01*
X101114342Y-55702960D01*
X101298158Y-55886206D01*
X101298158Y-55744737D01*
X102300790Y-55744737D01*
X102300790Y-56062237D01*
X101478827Y-56062237D01*
X101757589Y-56350493D01*
X101810984Y-56405548D01*
X101884817Y-56481120D01*
X101948929Y-56546082D01*
X101999961Y-56597060D01*
X102034557Y-56630681D01*
X102049357Y-56643574D01*
X102054983Y-56640018D01*
X102081363Y-56616118D01*
X102126849Y-56571862D01*
X102189012Y-56509708D01*
X102265422Y-56432115D01*
X102353649Y-56341540D01*
X102451262Y-56240441D01*
X102555833Y-56131275D01*
X102660940Y-56020964D01*
X102763974Y-55912246D01*
X102847530Y-55823136D01*
X102913654Y-55751271D01*
X102964387Y-55694289D01*
X103001775Y-55649828D01*
X103027860Y-55615525D01*
X103044687Y-55589017D01*
X103054298Y-55567942D01*
X103058739Y-55549939D01*
X103059916Y-55541169D01*
X103065136Y-55492847D01*
X103071742Y-55421707D01*
X103079008Y-55335861D01*
X103086207Y-55243421D01*
X103088648Y-55211225D01*
X103095701Y-55124236D01*
X103102425Y-55049203D01*
X103108160Y-54993255D01*
X103112240Y-54963520D01*
X103120242Y-54925921D01*
X100836974Y-54925921D01*
X100460529Y-54925921D01*
X100449956Y-54918396D01*
X100443563Y-54912835D01*
X100391285Y-54845487D01*
X100370581Y-54775526D01*
X100823481Y-54775526D01*
X102703306Y-54775526D01*
X102700583Y-54708684D01*
X102985921Y-54708684D01*
X102985921Y-54775526D01*
X103061706Y-54775526D01*
X103084412Y-54775366D01*
X103118054Y-54772442D01*
X103127766Y-54762970D01*
X103120227Y-54743267D01*
X103117999Y-54739511D01*
X103092990Y-54710623D01*
X103056757Y-54678563D01*
X103020613Y-54652560D01*
X102995874Y-54641842D01*
X102993650Y-54643536D01*
X102988131Y-54666810D01*
X102985921Y-54708684D01*
X102700583Y-54708684D01*
X102698397Y-54655007D01*
X102693487Y-54534488D01*
X102593224Y-54514348D01*
X102542943Y-54505214D01*
X102458975Y-54492425D01*
X102380165Y-54482776D01*
X102267368Y-54471345D01*
X102267368Y-54608421D01*
X101498684Y-54608421D01*
X101498684Y-54487596D01*
X101402599Y-54499065D01*
X101255787Y-54523646D01*
X101108032Y-54568089D01*
X100985814Y-54630062D01*
X100887062Y-54710413D01*
X100823481Y-54775526D01*
X100370581Y-54775526D01*
X100368281Y-54767754D01*
X100375328Y-54686211D01*
X100413203Y-54607434D01*
X100416868Y-54602529D01*
X100467486Y-54560327D01*
X100533474Y-54535365D01*
X100604607Y-54528725D01*
X100670664Y-54541492D01*
X100721419Y-54574750D01*
X100738604Y-54591729D01*
X100755345Y-54595844D01*
X100779318Y-54583115D01*
X100819799Y-54551332D01*
X100832219Y-54541564D01*
X100928111Y-54479911D01*
X101041715Y-54425084D01*
X101134630Y-54391184D01*
X101632368Y-54391184D01*
X101632368Y-54474737D01*
X102133684Y-54474737D01*
X102133684Y-54391184D01*
X101632368Y-54391184D01*
X101134630Y-54391184D01*
X101162453Y-54381033D01*
X101279746Y-54351706D01*
X101383017Y-54341052D01*
X101393988Y-54340968D01*
X101454970Y-54335031D01*
X101488460Y-54318385D01*
X101498684Y-54289133D01*
X101499885Y-54279917D01*
X101506449Y-54271991D01*
X101522391Y-54266189D01*
X101551719Y-54262181D01*
X101598440Y-54259639D01*
X101666559Y-54258230D01*
X101760086Y-54257628D01*
X101883026Y-54257500D01*
X101998219Y-54257725D01*
X102096126Y-54258635D01*
X102167800Y-54260469D01*
X102217001Y-54263466D01*
X102247490Y-54267863D01*
X102263025Y-54273898D01*
X102267368Y-54281808D01*
X102281653Y-54301232D01*
X102321678Y-54313627D01*
X102336997Y-54315796D01*
X102389230Y-54323430D01*
X102458737Y-54333778D01*
X102534737Y-54345240D01*
X102576651Y-54351075D01*
X102637992Y-54357394D01*
X102681273Y-54358918D01*
X102699057Y-54355197D01*
X102702094Y-54352773D01*
X102730130Y-54346785D01*
X102780564Y-54342617D01*
X102845274Y-54341052D01*
X102985921Y-54341052D01*
X102985937Y-54391184D01*
X102985938Y-54395362D01*
G36*
X102985938Y-54395362D02*
G01*
X102986595Y-54412572D01*
X102995141Y-54441467D01*
X103019466Y-54465972D01*
X103066918Y-54495143D01*
X103108573Y-54521793D01*
X103171989Y-54572960D01*
X103229460Y-54630400D01*
X103273422Y-54686279D01*
X103296311Y-54732762D01*
X103301919Y-54750674D01*
X103312309Y-54762970D01*
X103315812Y-54767116D01*
X103344445Y-54774083D01*
X103397141Y-54775526D01*
X103487237Y-54775526D01*
X103487237Y-54925921D01*
X103275228Y-54925921D01*
X103255433Y-55162183D01*
X103252775Y-55194483D01*
X103246583Y-55275340D01*
X103242208Y-55341135D01*
X103240030Y-55385791D01*
X103240426Y-55403233D01*
X103246185Y-55398219D01*
X103272462Y-55372083D01*
X103317888Y-55325758D01*
X103380166Y-55261647D01*
X103456997Y-55182150D01*
X103546080Y-55089669D01*
X103645119Y-54986606D01*
X103751814Y-54875362D01*
X103863865Y-54758338D01*
X103978975Y-54637936D01*
X104094844Y-54516558D01*
X104209174Y-54396604D01*
X104319666Y-54280476D01*
X104424021Y-54170575D01*
X104519940Y-54069304D01*
X104605124Y-53979063D01*
X104677275Y-53902253D01*
X104806194Y-53764539D01*
X104806781Y-53881852D01*
X104807368Y-53999164D01*
X104009286Y-54838485D01*
X103211204Y-55677807D01*
X103195250Y-55869106D01*
X103131419Y-56634528D01*
X103120138Y-56770287D01*
X103106140Y-56940154D01*
X103093220Y-57098505D01*
X103081627Y-57242228D01*
X103071607Y-57368210D01*
X103063407Y-57473338D01*
X103057274Y-57554501D01*
X103053456Y-57608586D01*
X103052199Y-57632480D01*
X103055517Y-57643429D01*
X103070429Y-57667071D01*
X103098709Y-57702703D01*
X103112358Y-57718277D01*
X103141864Y-57751948D01*
X103201399Y-57816428D01*
X103278820Y-57897768D01*
X103375632Y-57997591D01*
X103493342Y-58117520D01*
X103633454Y-58259179D01*
X103725628Y-58352136D01*
X103854119Y-58481795D01*
X103982159Y-58611079D01*
X104105900Y-58736097D01*
X104221492Y-58852959D01*
X104325085Y-58957774D01*
X104412831Y-59046652D01*
X104480881Y-59115702D01*
X104747617Y-59386757D01*
X104699169Y-59437326D01*
X104687743Y-59448719D01*
X104654035Y-59476697D01*
X104630910Y-59487895D01*
X104612805Y-59478335D01*
X104579145Y-59449649D01*
X104538792Y-59408520D01*
X104514230Y-59382542D01*
X104468423Y-59335104D01*
X104403683Y-59268566D01*
X104322295Y-59185263D01*
X104226545Y-59087528D01*
X104118721Y-58977695D01*
X104001108Y-58858096D01*
X103875992Y-58731066D01*
X103745659Y-58598938D01*
X103024831Y-57868732D01*
X102995469Y-58248017D01*
X102989068Y-58328972D01*
X102979721Y-58437793D01*
X102971290Y-58520217D01*
X102963151Y-58580575D01*
X102954679Y-58623200D01*
X102945250Y-58652424D01*
X102934237Y-58672580D01*
X102918825Y-58700750D01*
X102906143Y-58752539D01*
X102902368Y-58827152D01*
X102902368Y-58936447D01*
X102601579Y-58936447D01*
X102601579Y-58702500D01*
X101477832Y-58702500D01*
X101412875Y-58776295D01*
X101395110Y-58795511D01*
X101298831Y-58872712D01*
X101190049Y-58920239D01*
X101072262Y-58936447D01*
X100968327Y-58927854D01*
X100850770Y-58891628D01*
X100750134Y-58826882D01*
X100730520Y-58808378D01*
X100681503Y-58748475D01*
X100638497Y-58678693D01*
X100607658Y-58609909D01*
X100595141Y-58553002D01*
X100594899Y-58544741D01*
X100593099Y-58514471D01*
X100588392Y-58493563D01*
X100578544Y-58483669D01*
X100561323Y-58486444D01*
X100534494Y-58503540D01*
X100495824Y-58536610D01*
X100443080Y-58587307D01*
X100374028Y-58657285D01*
X100286434Y-58748197D01*
X100178065Y-58861695D01*
X100120342Y-58922280D01*
X100023855Y-59023718D01*
X99932568Y-59119889D01*
X99850059Y-59207013D01*
X99779906Y-59281311D01*
X99725685Y-59339003D01*
X99690974Y-59376310D01*
X99596092Y-59479539D01*
X99537449Y-59421052D01*
X99478805Y-59362566D01*
X100204179Y-58602237D01*
X100249916Y-58554263D01*
X100412633Y-58382940D01*
X100552313Y-58234738D01*
X100669373Y-58109198D01*
X100764233Y-58005861D01*
X100831309Y-57930967D01*
X101105947Y-57930967D01*
X101108106Y-57948589D01*
X101108483Y-57950430D01*
X101126480Y-57992171D01*
X101162428Y-58011620D01*
X101273237Y-58053083D01*
X101371963Y-58122156D01*
X101449611Y-58213524D01*
X101502828Y-58323195D01*
X101528258Y-58447173D01*
X101536681Y-58552105D01*
X102798482Y-58552105D01*
X102807280Y-58514506D01*
X102808836Y-58505279D01*
X102813672Y-58464018D01*
X102820271Y-58397304D01*
X102828142Y-58310453D01*
X102836797Y-58208777D01*
X102845743Y-58097592D01*
X102875409Y-57718277D01*
X102475532Y-57312198D01*
X102402187Y-57237961D01*
X102312447Y-57147837D01*
X102231940Y-57067775D01*
X102163488Y-57000542D01*
X102109917Y-56948910D01*
X102074052Y-56915646D01*
X102058715Y-56903521D01*
X102048431Y-56909314D01*
X102017801Y-56935675D01*
X101971705Y-56979709D01*
X101914265Y-57037444D01*
X101849605Y-57104911D01*
X101832738Y-57122804D01*
X101757107Y-57202839D01*
X101666984Y-57297977D01*
X101569155Y-57401067D01*
X101470405Y-57504956D01*
X101377520Y-57602493D01*
X101371940Y-57608346D01*
X101285584Y-57699214D01*
X101219690Y-57769577D01*
X101171651Y-57822783D01*
X101138863Y-57862177D01*
X101118720Y-57891108D01*
X101108616Y-57912922D01*
X101105947Y-57930967D01*
X100831309Y-57930967D01*
X100837311Y-57924266D01*
X100889026Y-57863955D01*
X100919796Y-57824466D01*
X100930040Y-57805342D01*
X100930041Y-57805229D01*
X100928636Y-57781394D01*
X100924531Y-57727967D01*
X100918048Y-57648584D01*
X100909508Y-57546880D01*
X100899233Y-57426493D01*
X100887544Y-57291057D01*
X100874763Y-57144211D01*
X100861212Y-56989590D01*
X100847212Y-56830830D01*
X100833085Y-56671568D01*
X100819153Y-56515441D01*
X100805736Y-56366083D01*
X100793157Y-56227133D01*
X100781738Y-56102226D01*
X100771799Y-55994998D01*
X100763662Y-55909087D01*
X100757650Y-55848127D01*
X100754083Y-55815756D01*
X100746891Y-55761538D01*
X100918573Y-55761538D01*
X100920772Y-55802630D01*
X100925611Y-55871735D01*
X100932848Y-55965870D01*
X100942241Y-56082053D01*
X100953547Y-56217299D01*
X100966523Y-56368627D01*
X100980929Y-56533054D01*
X100996521Y-56707597D01*
X101008710Y-56842206D01*
X101023976Y-57009145D01*
X101038269Y-57163618D01*
X101051305Y-57302649D01*
X101062800Y-57423264D01*
X101072470Y-57522489D01*
X101080030Y-57597348D01*
X101085197Y-57644867D01*
X101087686Y-57662072D01*
X101095236Y-57656742D01*
X101122922Y-57630578D01*
X101167909Y-57585637D01*
X101227100Y-57525191D01*
X101297399Y-57452509D01*
X101375708Y-57370864D01*
X101458930Y-57283526D01*
X101543969Y-57193767D01*
X101627727Y-57104858D01*
X101707107Y-57020070D01*
X101779013Y-56942673D01*
X101840347Y-56875941D01*
X101888013Y-56823142D01*
X101918913Y-56787550D01*
X101927941Y-56775186D01*
X102169574Y-56775186D01*
X102535971Y-57141299D01*
X102625569Y-57230679D01*
X102710013Y-57314320D01*
X102775427Y-57378027D01*
X102824208Y-57423868D01*
X102858753Y-57453909D01*
X102881459Y-57470218D01*
X102894722Y-57474862D01*
X102900940Y-57469908D01*
X102902509Y-57457423D01*
X102903515Y-57437363D01*
X102907140Y-57385712D01*
X102913130Y-57307320D01*
X102921198Y-57205759D01*
X102931055Y-57084602D01*
X102942413Y-56947421D01*
X102954984Y-56797787D01*
X102968480Y-56639271D01*
X102980395Y-56499563D01*
X102992811Y-56352414D01*
X103003943Y-56218805D01*
X103013526Y-56102028D01*
X103021290Y-56005378D01*
X103026969Y-55932145D01*
X103030297Y-55885624D01*
X103031004Y-55869106D01*
X103030444Y-55869416D01*
X103014663Y-55884623D01*
X102979606Y-55920303D01*
X102928363Y-55973220D01*
X102864019Y-56040139D01*
X102789664Y-56117823D01*
X102708385Y-56203036D01*
X102623270Y-56292541D01*
X102537406Y-56383102D01*
X102453881Y-56471483D01*
X102375784Y-56554448D01*
X102306202Y-56628760D01*
X102172141Y-56772434D01*
X102169574Y-56775186D01*
X101927941Y-56775186D01*
X101929951Y-56772434D01*
X101919131Y-56757785D01*
X101887674Y-56722722D01*
X101838503Y-56670265D01*
X101774544Y-56603372D01*
X101698723Y-56524999D01*
X101613967Y-56438103D01*
X101523202Y-56345641D01*
X101429356Y-56250569D01*
X101335354Y-56155845D01*
X101244124Y-56064424D01*
X101158591Y-55979265D01*
X101081683Y-55903323D01*
X101016326Y-55839556D01*
X100965446Y-55790920D01*
X100931970Y-55760372D01*
X100918824Y-55750868D01*
X100918573Y-55761538D01*
X100746891Y-55761538D01*
X100744663Y-55744737D01*
X100379079Y-55744737D01*
X100378641Y-55464835D01*
X100378414Y-55319584D01*
X100512763Y-55319584D01*
X100512763Y-55611052D01*
X100621382Y-55611052D01*
X100631045Y-55611044D01*
X100685604Y-55609880D01*
X100715276Y-55604902D01*
X100727571Y-55593477D01*
X100730000Y-55572971D01*
X100719301Y-55542829D01*
X100682654Y-55492687D01*
X100621382Y-55427237D01*
X100512763Y-55319584D01*
X100378414Y-55319584D01*
X100378204Y-55184934D01*
X99777885Y-54575000D01*
X99177567Y-53965066D01*
X99176744Y-53849337D01*
X99175921Y-53733610D01*
X99895969Y-54463449D01*
X99965564Y-54533944D01*
X100109975Y-54679828D01*
X100233442Y-54803875D01*
X100337560Y-54907611D01*
X100423925Y-54992562D01*
X100494132Y-55060256D01*
X100549776Y-55112219D01*
X100592452Y-55149977D01*
X100623756Y-55175057D01*
X100645282Y-55188986D01*
X100658625Y-55193289D01*
X100681125Y-55191986D01*
X100693756Y-55182468D01*
X100695934Y-55156427D01*
X100690697Y-55105559D01*
X100687086Y-55073533D01*
X100682061Y-55020002D01*
X100680037Y-54984408D01*
X100679045Y-54972138D01*
X100669386Y-54958996D01*
X100642703Y-54954641D01*
X100590902Y-54956542D01*
X100577676Y-54957287D01*
X100524733Y-54956447D01*
X100487073Y-54944813D01*
X100460529Y-54925921D01*
X100836974Y-54925921D01*
X100842504Y-54988585D01*
X100845058Y-55017017D01*
X100853018Y-55094642D01*
X100860861Y-55145769D01*
X100870031Y-55175711D01*
X100881973Y-55189780D01*
X100898129Y-55193289D01*
X100912656Y-55195679D01*
X100922289Y-55207098D01*
X100927672Y-55233645D01*
X100930015Y-55281414D01*
X100930526Y-55356502D01*
X100930526Y-55519715D01*
X100983948Y-55572971D01*
X101114342Y-55702960D01*
X101298158Y-55886206D01*
X101298158Y-55744737D01*
X102300790Y-55744737D01*
X102300790Y-56062237D01*
X101478827Y-56062237D01*
X101757589Y-56350493D01*
X101810984Y-56405548D01*
X101884817Y-56481120D01*
X101948929Y-56546082D01*
X101999961Y-56597060D01*
X102034557Y-56630681D01*
X102049357Y-56643574D01*
X102054983Y-56640018D01*
X102081363Y-56616118D01*
X102126849Y-56571862D01*
X102189012Y-56509708D01*
X102265422Y-56432115D01*
X102353649Y-56341540D01*
X102451262Y-56240441D01*
X102555833Y-56131275D01*
X102660940Y-56020964D01*
X102763974Y-55912246D01*
X102847530Y-55823136D01*
X102913654Y-55751271D01*
X102964387Y-55694289D01*
X103001775Y-55649828D01*
X103027860Y-55615525D01*
X103044687Y-55589017D01*
X103054298Y-55567942D01*
X103058739Y-55549939D01*
X103059916Y-55541169D01*
X103065136Y-55492847D01*
X103071742Y-55421707D01*
X103079008Y-55335861D01*
X103086207Y-55243421D01*
X103088648Y-55211225D01*
X103095701Y-55124236D01*
X103102425Y-55049203D01*
X103108160Y-54993255D01*
X103112240Y-54963520D01*
X103120242Y-54925921D01*
X100836974Y-54925921D01*
X100460529Y-54925921D01*
X100449956Y-54918396D01*
X100443563Y-54912835D01*
X100391285Y-54845487D01*
X100370581Y-54775526D01*
X100823481Y-54775526D01*
X102703306Y-54775526D01*
X102700583Y-54708684D01*
X102985921Y-54708684D01*
X102985921Y-54775526D01*
X103061706Y-54775526D01*
X103084412Y-54775366D01*
X103118054Y-54772442D01*
X103127766Y-54762970D01*
X103120227Y-54743267D01*
X103117999Y-54739511D01*
X103092990Y-54710623D01*
X103056757Y-54678563D01*
X103020613Y-54652560D01*
X102995874Y-54641842D01*
X102993650Y-54643536D01*
X102988131Y-54666810D01*
X102985921Y-54708684D01*
X102700583Y-54708684D01*
X102698397Y-54655007D01*
X102693487Y-54534488D01*
X102593224Y-54514348D01*
X102542943Y-54505214D01*
X102458975Y-54492425D01*
X102380165Y-54482776D01*
X102267368Y-54471345D01*
X102267368Y-54608421D01*
X101498684Y-54608421D01*
X101498684Y-54487596D01*
X101402599Y-54499065D01*
X101255787Y-54523646D01*
X101108032Y-54568089D01*
X100985814Y-54630062D01*
X100887062Y-54710413D01*
X100823481Y-54775526D01*
X100370581Y-54775526D01*
X100368281Y-54767754D01*
X100375328Y-54686211D01*
X100413203Y-54607434D01*
X100416868Y-54602529D01*
X100467486Y-54560327D01*
X100533474Y-54535365D01*
X100604607Y-54528725D01*
X100670664Y-54541492D01*
X100721419Y-54574750D01*
X100738604Y-54591729D01*
X100755345Y-54595844D01*
X100779318Y-54583115D01*
X100819799Y-54551332D01*
X100832219Y-54541564D01*
X100928111Y-54479911D01*
X101041715Y-54425084D01*
X101134630Y-54391184D01*
X101632368Y-54391184D01*
X101632368Y-54474737D01*
X102133684Y-54474737D01*
X102133684Y-54391184D01*
X101632368Y-54391184D01*
X101134630Y-54391184D01*
X101162453Y-54381033D01*
X101279746Y-54351706D01*
X101383017Y-54341052D01*
X101393988Y-54340968D01*
X101454970Y-54335031D01*
X101488460Y-54318385D01*
X101498684Y-54289133D01*
X101499885Y-54279917D01*
X101506449Y-54271991D01*
X101522391Y-54266189D01*
X101551719Y-54262181D01*
X101598440Y-54259639D01*
X101666559Y-54258230D01*
X101760086Y-54257628D01*
X101883026Y-54257500D01*
X101998219Y-54257725D01*
X102096126Y-54258635D01*
X102167800Y-54260469D01*
X102217001Y-54263466D01*
X102247490Y-54267863D01*
X102263025Y-54273898D01*
X102267368Y-54281808D01*
X102281653Y-54301232D01*
X102321678Y-54313627D01*
X102336997Y-54315796D01*
X102389230Y-54323430D01*
X102458737Y-54333778D01*
X102534737Y-54345240D01*
X102576651Y-54351075D01*
X102637992Y-54357394D01*
X102681273Y-54358918D01*
X102699057Y-54355197D01*
X102702094Y-54352773D01*
X102730130Y-54346785D01*
X102780564Y-54342617D01*
X102845274Y-54341052D01*
X102985921Y-54341052D01*
X102985937Y-54391184D01*
X102985938Y-54395362D01*
G37*
X84304083Y-44251066D02*
X84585539Y-45744045D01*
X85624073Y-46172163D01*
X86662606Y-46600280D01*
X87908500Y-45753081D01*
X88155090Y-45586063D01*
X88481992Y-45366834D01*
X88765019Y-45179588D01*
X88989471Y-45033938D01*
X89140651Y-44939498D01*
X89203858Y-44905882D01*
X89242678Y-44929789D01*
X89358717Y-45029961D01*
X89534324Y-45194354D01*
X89754619Y-45407873D01*
X90004722Y-45655423D01*
X90269754Y-45921909D01*
X90534835Y-46192236D01*
X90785086Y-46451308D01*
X91005628Y-46684031D01*
X91181579Y-46875310D01*
X91298062Y-47010049D01*
X91340196Y-47073154D01*
X91330394Y-47100266D01*
X91262528Y-47221206D01*
X91138597Y-47420243D01*
X90968647Y-47681772D01*
X90762727Y-47990192D01*
X90530882Y-48329902D01*
X90403648Y-48515174D01*
X90184779Y-48837724D01*
X89997132Y-49119221D01*
X89850711Y-49344399D01*
X89755522Y-49497992D01*
X89721569Y-49564736D01*
X89722126Y-49568434D01*
X89752077Y-49653042D01*
X89820788Y-49825813D01*
X89918684Y-50064177D01*
X90036184Y-50345567D01*
X90163711Y-50647411D01*
X90291688Y-50947142D01*
X90410536Y-51222191D01*
X90510676Y-51449988D01*
X90582532Y-51607964D01*
X90616524Y-51673550D01*
X90636636Y-51679367D01*
X90758837Y-51705607D01*
X90976629Y-51749076D01*
X91272581Y-51806375D01*
X91629259Y-51874108D01*
X92029230Y-51948877D01*
X92240036Y-51988519D01*
X92626957Y-52064154D01*
X92965260Y-52134005D01*
X93236454Y-52194059D01*
X93422049Y-52240306D01*
X93503554Y-52268732D01*
X93518194Y-52296913D01*
X93542479Y-52434603D01*
X93561559Y-52663930D01*
X93575449Y-52963318D01*
X93584163Y-53311189D01*
X93587716Y-53685964D01*
X93586124Y-54066066D01*
X93579400Y-54429917D01*
X93567559Y-54755938D01*
X93550617Y-55022553D01*
X93528588Y-55208183D01*
X93501487Y-55291249D01*
X93485040Y-55300619D01*
X93362386Y-55340808D01*
X93149616Y-55393982D01*
X92871323Y-55454318D01*
X92552100Y-55515994D01*
X92444392Y-55535636D01*
X91946930Y-55626991D01*
X91555969Y-55700411D01*
X91257957Y-55758940D01*
X91039341Y-55805622D01*
X90886568Y-55843502D01*
X90786087Y-55875623D01*
X90724344Y-55905031D01*
X90687788Y-55934769D01*
X90683539Y-55939760D01*
X90623758Y-56043814D01*
X90535297Y-56234212D01*
X90426728Y-56488619D01*
X90306625Y-56784697D01*
X90183562Y-57100110D01*
X90066112Y-57412522D01*
X89962849Y-57699597D01*
X89882345Y-57938997D01*
X89833175Y-58108386D01*
X89823912Y-58185429D01*
X89830106Y-58195425D01*
X89894222Y-58292097D01*
X90014798Y-58470404D01*
X90180655Y-58713921D01*
X90380613Y-59006222D01*
X90603493Y-59330881D01*
X90664661Y-59420207D01*
X90879756Y-59740611D01*
X91065645Y-60027158D01*
X91211719Y-60262855D01*
X91307367Y-60430708D01*
X91341980Y-60513724D01*
X91334521Y-60535548D01*
X91256775Y-60643093D01*
X91103387Y-60818712D01*
X90885341Y-61050584D01*
X90613621Y-61326891D01*
X90299210Y-61635813D01*
X90119498Y-61808725D01*
X89835348Y-62078030D01*
X89586642Y-62308699D01*
X89386737Y-62488590D01*
X89248986Y-62605556D01*
X89186744Y-62647455D01*
X89143980Y-62631923D01*
X89012321Y-62558451D01*
X88821121Y-62438294D01*
X88595322Y-62286667D01*
X88434778Y-62176020D01*
X88114262Y-61956288D01*
X87772233Y-61722923D01*
X87459828Y-61510865D01*
X86847842Y-61096925D01*
X86334123Y-61374688D01*
X86213158Y-61438799D01*
X85993174Y-61548461D01*
X85823056Y-61624172D01*
X85732138Y-61652402D01*
X85702384Y-61616150D01*
X85628499Y-61478117D01*
X85519368Y-61250543D01*
X85381063Y-60947868D01*
X85219656Y-60584535D01*
X85041221Y-60174988D01*
X84851829Y-59733669D01*
X84657553Y-59275019D01*
X84464465Y-58813483D01*
X84278638Y-58363501D01*
X84106144Y-57939517D01*
X83953056Y-57555973D01*
X83825446Y-57227313D01*
X83729386Y-56967977D01*
X83670949Y-56792409D01*
X83656207Y-56715052D01*
X83657206Y-56712791D01*
X83725871Y-56641280D01*
X83869496Y-56529279D01*
X84058431Y-56400013D01*
X84118067Y-56360541D01*
X84571835Y-55986072D01*
X84947382Y-55540053D01*
X85235817Y-55041050D01*
X85428248Y-54507628D01*
X85515783Y-53958353D01*
X85489532Y-53411792D01*
X85383191Y-52925664D01*
X85192256Y-52434780D01*
X84913912Y-51996847D01*
X84531933Y-51580843D01*
X84381846Y-51447946D01*
X83896644Y-51120514D01*
X83372496Y-50899996D01*
X82824590Y-50784418D01*
X82268117Y-50771805D01*
X81718266Y-50860186D01*
X81190224Y-51047585D01*
X80699182Y-51332029D01*
X80260329Y-51711545D01*
X79888854Y-52184158D01*
X79817434Y-52301198D01*
X79574681Y-52836146D01*
X79445756Y-53393202D01*
X79427283Y-53957941D01*
X79515886Y-54515934D01*
X79708188Y-55052755D01*
X80000814Y-55553976D01*
X80390387Y-56005171D01*
X80873532Y-56391911D01*
X80889221Y-56402334D01*
X81076153Y-56534063D01*
X81216258Y-56646059D01*
X81280249Y-56715052D01*
X81272175Y-56769141D01*
X81221973Y-56926633D01*
X81132958Y-57170732D01*
X81011200Y-57486992D01*
X80862768Y-57860967D01*
X80693733Y-58278211D01*
X80510165Y-58724280D01*
X80318133Y-59184726D01*
X80123708Y-59645104D01*
X79932960Y-60090968D01*
X79751959Y-60507873D01*
X79586775Y-60881373D01*
X79443478Y-61197021D01*
X79328137Y-61440373D01*
X79246824Y-61596981D01*
X79205607Y-61652402D01*
X79171331Y-61644895D01*
X79036674Y-61590951D01*
X78837660Y-61496370D01*
X78603623Y-61374688D01*
X78089903Y-61096925D01*
X77477917Y-61510865D01*
X77297112Y-61633438D01*
X76960813Y-61862460D01*
X76625537Y-62091850D01*
X76342423Y-62286667D01*
X76186175Y-62392839D01*
X75983096Y-62524748D01*
X75832521Y-62615048D01*
X75758976Y-62648529D01*
X75727380Y-62634314D01*
X75613166Y-62547250D01*
X75437094Y-62393960D01*
X75214490Y-62189522D01*
X74960678Y-61949014D01*
X74690985Y-61687515D01*
X74420736Y-61420101D01*
X74165257Y-61161850D01*
X73939873Y-60927841D01*
X73759910Y-60733151D01*
X73640694Y-60592859D01*
X73597549Y-60522041D01*
X73600036Y-60508567D01*
X73651387Y-60398896D01*
X73761085Y-60209153D01*
X73918528Y-59956477D01*
X74113118Y-59658006D01*
X74334253Y-59330881D01*
X74396272Y-59240650D01*
X74614045Y-58923137D01*
X74805867Y-58642432D01*
X74960558Y-58414962D01*
X75066940Y-58257152D01*
X75113833Y-58185429D01*
X75114987Y-58182355D01*
X75101147Y-58094606D01*
X75048298Y-57916846D01*
X74965012Y-57671412D01*
X74859862Y-57380641D01*
X74741424Y-57066869D01*
X74618269Y-56752432D01*
X74498971Y-56459667D01*
X74392105Y-56210911D01*
X74306242Y-56028499D01*
X74249957Y-55934769D01*
X74244319Y-55928950D01*
X74204019Y-55899509D01*
X74135957Y-55869820D01*
X74026581Y-55836839D01*
X73862337Y-55797521D01*
X73629675Y-55748821D01*
X73315040Y-55687697D01*
X72904881Y-55611102D01*
X72385645Y-55515994D01*
X72277951Y-55495976D01*
X71969442Y-55434098D01*
X71709928Y-55375470D01*
X71524002Y-55325913D01*
X71436258Y-55291249D01*
X71421579Y-55262329D01*
X71397105Y-55123411D01*
X71377711Y-54893113D01*
X71363411Y-54593014D01*
X71354221Y-54244692D01*
X71350155Y-53869725D01*
X71351227Y-53489690D01*
X71357454Y-53126166D01*
X71368849Y-52800730D01*
X71385427Y-52534961D01*
X71407203Y-52350435D01*
X71434191Y-52268732D01*
X71461747Y-52256661D01*
X71598826Y-52218615D01*
X71830532Y-52164802D01*
X72138376Y-52099233D01*
X72503868Y-52025921D01*
X72908515Y-51948877D01*
X73129459Y-51907714D01*
X73508147Y-51836334D01*
X73834100Y-51773830D01*
X74089885Y-51723600D01*
X74258070Y-51689041D01*
X74321221Y-51673550D01*
X74323595Y-51670357D01*
X74363814Y-51589228D01*
X74440485Y-51419266D01*
X74544025Y-51183022D01*
X74664852Y-50903046D01*
X74793383Y-50601887D01*
X74920034Y-50302096D01*
X75035221Y-50026223D01*
X75129363Y-49796819D01*
X75192876Y-49636433D01*
X75216177Y-49567616D01*
X75205898Y-49543402D01*
X75137498Y-49428181D01*
X75013425Y-49234237D01*
X74843648Y-48976789D01*
X74638137Y-48671054D01*
X74406863Y-48332252D01*
X74279978Y-48146709D01*
X74061007Y-47821408D01*
X73873265Y-47535916D01*
X73726766Y-47305801D01*
X73631522Y-47146632D01*
X73597549Y-47073979D01*
X73621155Y-47034570D01*
X73719899Y-46916814D01*
X73881895Y-46738603D01*
X74092271Y-46515037D01*
X74336158Y-46261217D01*
X74598685Y-45992245D01*
X74864981Y-45723222D01*
X75120175Y-45469250D01*
X75349399Y-45245428D01*
X75537779Y-45066859D01*
X75670448Y-44948643D01*
X75732533Y-44905882D01*
X75766996Y-44922508D01*
X75893544Y-44999617D01*
X76097761Y-45130845D01*
X76364929Y-45306575D01*
X76680330Y-45517193D01*
X77029245Y-45753081D01*
X78275139Y-46600280D01*
X79313673Y-46172163D01*
X80352206Y-45744045D01*
X80633662Y-44251066D01*
X80915118Y-42758088D01*
X84022627Y-42758088D01*
X84304083Y-44251066D01*
G36*
X84304083Y-44251066D02*
G01*
X84585539Y-45744045D01*
X85624073Y-46172163D01*
X86662606Y-46600280D01*
X87908500Y-45753081D01*
X88155090Y-45586063D01*
X88481992Y-45366834D01*
X88765019Y-45179588D01*
X88989471Y-45033938D01*
X89140651Y-44939498D01*
X89203858Y-44905882D01*
X89242678Y-44929789D01*
X89358717Y-45029961D01*
X89534324Y-45194354D01*
X89754619Y-45407873D01*
X90004722Y-45655423D01*
X90269754Y-45921909D01*
X90534835Y-46192236D01*
X90785086Y-46451308D01*
X91005628Y-46684031D01*
X91181579Y-46875310D01*
X91298062Y-47010049D01*
X91340196Y-47073154D01*
X91330394Y-47100266D01*
X91262528Y-47221206D01*
X91138597Y-47420243D01*
X90968647Y-47681772D01*
X90762727Y-47990192D01*
X90530882Y-48329902D01*
X90403648Y-48515174D01*
X90184779Y-48837724D01*
X89997132Y-49119221D01*
X89850711Y-49344399D01*
X89755522Y-49497992D01*
X89721569Y-49564736D01*
X89722126Y-49568434D01*
X89752077Y-49653042D01*
X89820788Y-49825813D01*
X89918684Y-50064177D01*
X90036184Y-50345567D01*
X90163711Y-50647411D01*
X90291688Y-50947142D01*
X90410536Y-51222191D01*
X90510676Y-51449988D01*
X90582532Y-51607964D01*
X90616524Y-51673550D01*
X90636636Y-51679367D01*
X90758837Y-51705607D01*
X90976629Y-51749076D01*
X91272581Y-51806375D01*
X91629259Y-51874108D01*
X92029230Y-51948877D01*
X92240036Y-51988519D01*
X92626957Y-52064154D01*
X92965260Y-52134005D01*
X93236454Y-52194059D01*
X93422049Y-52240306D01*
X93503554Y-52268732D01*
X93518194Y-52296913D01*
X93542479Y-52434603D01*
X93561559Y-52663930D01*
X93575449Y-52963318D01*
X93584163Y-53311189D01*
X93587716Y-53685964D01*
X93586124Y-54066066D01*
X93579400Y-54429917D01*
X93567559Y-54755938D01*
X93550617Y-55022553D01*
X93528588Y-55208183D01*
X93501487Y-55291249D01*
X93485040Y-55300619D01*
X93362386Y-55340808D01*
X93149616Y-55393982D01*
X92871323Y-55454318D01*
X92552100Y-55515994D01*
X92444392Y-55535636D01*
X91946930Y-55626991D01*
X91555969Y-55700411D01*
X91257957Y-55758940D01*
X91039341Y-55805622D01*
X90886568Y-55843502D01*
X90786087Y-55875623D01*
X90724344Y-55905031D01*
X90687788Y-55934769D01*
X90683539Y-55939760D01*
X90623758Y-56043814D01*
X90535297Y-56234212D01*
X90426728Y-56488619D01*
X90306625Y-56784697D01*
X90183562Y-57100110D01*
X90066112Y-57412522D01*
X89962849Y-57699597D01*
X89882345Y-57938997D01*
X89833175Y-58108386D01*
X89823912Y-58185429D01*
X89830106Y-58195425D01*
X89894222Y-58292097D01*
X90014798Y-58470404D01*
X90180655Y-58713921D01*
X90380613Y-59006222D01*
X90603493Y-59330881D01*
X90664661Y-59420207D01*
X90879756Y-59740611D01*
X91065645Y-60027158D01*
X91211719Y-60262855D01*
X91307367Y-60430708D01*
X91341980Y-60513724D01*
X91334521Y-60535548D01*
X91256775Y-60643093D01*
X91103387Y-60818712D01*
X90885341Y-61050584D01*
X90613621Y-61326891D01*
X90299210Y-61635813D01*
X90119498Y-61808725D01*
X89835348Y-62078030D01*
X89586642Y-62308699D01*
X89386737Y-62488590D01*
X89248986Y-62605556D01*
X89186744Y-62647455D01*
X89143980Y-62631923D01*
X89012321Y-62558451D01*
X88821121Y-62438294D01*
X88595322Y-62286667D01*
X88434778Y-62176020D01*
X88114262Y-61956288D01*
X87772233Y-61722923D01*
X87459828Y-61510865D01*
X86847842Y-61096925D01*
X86334123Y-61374688D01*
X86213158Y-61438799D01*
X85993174Y-61548461D01*
X85823056Y-61624172D01*
X85732138Y-61652402D01*
X85702384Y-61616150D01*
X85628499Y-61478117D01*
X85519368Y-61250543D01*
X85381063Y-60947868D01*
X85219656Y-60584535D01*
X85041221Y-60174988D01*
X84851829Y-59733669D01*
X84657553Y-59275019D01*
X84464465Y-58813483D01*
X84278638Y-58363501D01*
X84106144Y-57939517D01*
X83953056Y-57555973D01*
X83825446Y-57227313D01*
X83729386Y-56967977D01*
X83670949Y-56792409D01*
X83656207Y-56715052D01*
X83657206Y-56712791D01*
X83725871Y-56641280D01*
X83869496Y-56529279D01*
X84058431Y-56400013D01*
X84118067Y-56360541D01*
X84571835Y-55986072D01*
X84947382Y-55540053D01*
X85235817Y-55041050D01*
X85428248Y-54507628D01*
X85515783Y-53958353D01*
X85489532Y-53411792D01*
X85383191Y-52925664D01*
X85192256Y-52434780D01*
X84913912Y-51996847D01*
X84531933Y-51580843D01*
X84381846Y-51447946D01*
X83896644Y-51120514D01*
X83372496Y-50899996D01*
X82824590Y-50784418D01*
X82268117Y-50771805D01*
X81718266Y-50860186D01*
X81190224Y-51047585D01*
X80699182Y-51332029D01*
X80260329Y-51711545D01*
X79888854Y-52184158D01*
X79817434Y-52301198D01*
X79574681Y-52836146D01*
X79445756Y-53393202D01*
X79427283Y-53957941D01*
X79515886Y-54515934D01*
X79708188Y-55052755D01*
X80000814Y-55553976D01*
X80390387Y-56005171D01*
X80873532Y-56391911D01*
X80889221Y-56402334D01*
X81076153Y-56534063D01*
X81216258Y-56646059D01*
X81280249Y-56715052D01*
X81272175Y-56769141D01*
X81221973Y-56926633D01*
X81132958Y-57170732D01*
X81011200Y-57486992D01*
X80862768Y-57860967D01*
X80693733Y-58278211D01*
X80510165Y-58724280D01*
X80318133Y-59184726D01*
X80123708Y-59645104D01*
X79932960Y-60090968D01*
X79751959Y-60507873D01*
X79586775Y-60881373D01*
X79443478Y-61197021D01*
X79328137Y-61440373D01*
X79246824Y-61596981D01*
X79205607Y-61652402D01*
X79171331Y-61644895D01*
X79036674Y-61590951D01*
X78837660Y-61496370D01*
X78603623Y-61374688D01*
X78089903Y-61096925D01*
X77477917Y-61510865D01*
X77297112Y-61633438D01*
X76960813Y-61862460D01*
X76625537Y-62091850D01*
X76342423Y-62286667D01*
X76186175Y-62392839D01*
X75983096Y-62524748D01*
X75832521Y-62615048D01*
X75758976Y-62648529D01*
X75727380Y-62634314D01*
X75613166Y-62547250D01*
X75437094Y-62393960D01*
X75214490Y-62189522D01*
X74960678Y-61949014D01*
X74690985Y-61687515D01*
X74420736Y-61420101D01*
X74165257Y-61161850D01*
X73939873Y-60927841D01*
X73759910Y-60733151D01*
X73640694Y-60592859D01*
X73597549Y-60522041D01*
X73600036Y-60508567D01*
X73651387Y-60398896D01*
X73761085Y-60209153D01*
X73918528Y-59956477D01*
X74113118Y-59658006D01*
X74334253Y-59330881D01*
X74396272Y-59240650D01*
X74614045Y-58923137D01*
X74805867Y-58642432D01*
X74960558Y-58414962D01*
X75066940Y-58257152D01*
X75113833Y-58185429D01*
X75114987Y-58182355D01*
X75101147Y-58094606D01*
X75048298Y-57916846D01*
X74965012Y-57671412D01*
X74859862Y-57380641D01*
X74741424Y-57066869D01*
X74618269Y-56752432D01*
X74498971Y-56459667D01*
X74392105Y-56210911D01*
X74306242Y-56028499D01*
X74249957Y-55934769D01*
X74244319Y-55928950D01*
X74204019Y-55899509D01*
X74135957Y-55869820D01*
X74026581Y-55836839D01*
X73862337Y-55797521D01*
X73629675Y-55748821D01*
X73315040Y-55687697D01*
X72904881Y-55611102D01*
X72385645Y-55515994D01*
X72277951Y-55495976D01*
X71969442Y-55434098D01*
X71709928Y-55375470D01*
X71524002Y-55325913D01*
X71436258Y-55291249D01*
X71421579Y-55262329D01*
X71397105Y-55123411D01*
X71377711Y-54893113D01*
X71363411Y-54593014D01*
X71354221Y-54244692D01*
X71350155Y-53869725D01*
X71351227Y-53489690D01*
X71357454Y-53126166D01*
X71368849Y-52800730D01*
X71385427Y-52534961D01*
X71407203Y-52350435D01*
X71434191Y-52268732D01*
X71461747Y-52256661D01*
X71598826Y-52218615D01*
X71830532Y-52164802D01*
X72138376Y-52099233D01*
X72503868Y-52025921D01*
X72908515Y-51948877D01*
X73129459Y-51907714D01*
X73508147Y-51836334D01*
X73834100Y-51773830D01*
X74089885Y-51723600D01*
X74258070Y-51689041D01*
X74321221Y-51673550D01*
X74323595Y-51670357D01*
X74363814Y-51589228D01*
X74440485Y-51419266D01*
X74544025Y-51183022D01*
X74664852Y-50903046D01*
X74793383Y-50601887D01*
X74920034Y-50302096D01*
X75035221Y-50026223D01*
X75129363Y-49796819D01*
X75192876Y-49636433D01*
X75216177Y-49567616D01*
X75205898Y-49543402D01*
X75137498Y-49428181D01*
X75013425Y-49234237D01*
X74843648Y-48976789D01*
X74638137Y-48671054D01*
X74406863Y-48332252D01*
X74279978Y-48146709D01*
X74061007Y-47821408D01*
X73873265Y-47535916D01*
X73726766Y-47305801D01*
X73631522Y-47146632D01*
X73597549Y-47073979D01*
X73621155Y-47034570D01*
X73719899Y-46916814D01*
X73881895Y-46738603D01*
X74092271Y-46515037D01*
X74336158Y-46261217D01*
X74598685Y-45992245D01*
X74864981Y-45723222D01*
X75120175Y-45469250D01*
X75349399Y-45245428D01*
X75537779Y-45066859D01*
X75670448Y-44948643D01*
X75732533Y-44905882D01*
X75766996Y-44922508D01*
X75893544Y-44999617D01*
X76097761Y-45130845D01*
X76364929Y-45306575D01*
X76680330Y-45517193D01*
X77029245Y-45753081D01*
X78275139Y-46600280D01*
X79313673Y-46172163D01*
X80352206Y-45744045D01*
X80633662Y-44251066D01*
X80915118Y-42758088D01*
X84022627Y-42758088D01*
X84304083Y-44251066D01*
G37*
X169855406Y-155024949D02*
X169881127Y-155040647D01*
X169907778Y-155062227D01*
X169907778Y-155709684D01*
X169881127Y-155731264D01*
X169849767Y-155748739D01*
X169813966Y-155749575D01*
X169782528Y-155729082D01*
X169778652Y-155724416D01*
X169773186Y-155714949D01*
X169768979Y-155701267D01*
X169765867Y-155680748D01*
X169763687Y-155650768D01*
X169762276Y-155608704D01*
X169761471Y-155551932D01*
X169761107Y-155477830D01*
X169761022Y-155383773D01*
X169761022Y-155062227D01*
X169787673Y-155040647D01*
X169811386Y-155025877D01*
X169834400Y-155019067D01*
X169855406Y-155024949D01*
G36*
X169855406Y-155024949D02*
G01*
X169881127Y-155040647D01*
X169907778Y-155062227D01*
X169907778Y-155709684D01*
X169881127Y-155731264D01*
X169849767Y-155748739D01*
X169813966Y-155749575D01*
X169782528Y-155729082D01*
X169778652Y-155724416D01*
X169773186Y-155714949D01*
X169768979Y-155701267D01*
X169765867Y-155680748D01*
X169763687Y-155650768D01*
X169762276Y-155608704D01*
X169761471Y-155551932D01*
X169761107Y-155477830D01*
X169761022Y-155383773D01*
X169761022Y-155062227D01*
X169787673Y-155040647D01*
X169811386Y-155025877D01*
X169834400Y-155019067D01*
X169855406Y-155024949D01*
G37*
X176986137Y-155023463D02*
X177020291Y-155046776D01*
X177048000Y-155074485D01*
X177048000Y-155387537D01*
X177047959Y-155471567D01*
X177047701Y-155545789D01*
X177047030Y-155602541D01*
X177045752Y-155644512D01*
X177043673Y-155674389D01*
X177040599Y-155694861D01*
X177036334Y-155708614D01*
X177030684Y-155718337D01*
X177023455Y-155726717D01*
X176991991Y-155748181D01*
X176956826Y-155749947D01*
X176923822Y-155730267D01*
X176918516Y-155724398D01*
X176913066Y-155715314D01*
X176908900Y-155701973D01*
X176905846Y-155681757D01*
X176903732Y-155652049D01*
X176902386Y-155610232D01*
X176901638Y-155553689D01*
X176901314Y-155479802D01*
X176901245Y-155385956D01*
X176901284Y-155310294D01*
X176901539Y-155232385D01*
X176902183Y-155172375D01*
X176903387Y-155127648D01*
X176905324Y-155095585D01*
X176908164Y-155073571D01*
X176912079Y-155058987D01*
X176917242Y-155049218D01*
X176923822Y-155041645D01*
X176953006Y-155022623D01*
X176986137Y-155023463D01*
G36*
X176986137Y-155023463D02*
G01*
X177020291Y-155046776D01*
X177048000Y-155074485D01*
X177048000Y-155387537D01*
X177047959Y-155471567D01*
X177047701Y-155545789D01*
X177047030Y-155602541D01*
X177045752Y-155644512D01*
X177043673Y-155674389D01*
X177040599Y-155694861D01*
X177036334Y-155708614D01*
X177030684Y-155718337D01*
X177023455Y-155726717D01*
X176991991Y-155748181D01*
X176956826Y-155749947D01*
X176923822Y-155730267D01*
X176918516Y-155724398D01*
X176913066Y-155715314D01*
X176908900Y-155701973D01*
X176905846Y-155681757D01*
X176903732Y-155652049D01*
X176902386Y-155610232D01*
X176901638Y-155553689D01*
X176901314Y-155479802D01*
X176901245Y-155385956D01*
X176901284Y-155310294D01*
X176901539Y-155232385D01*
X176902183Y-155172375D01*
X176903387Y-155127648D01*
X176905324Y-155095585D01*
X176908164Y-155073571D01*
X176912079Y-155058987D01*
X176917242Y-155049218D01*
X176923822Y-155041645D01*
X176953006Y-155022623D01*
X176986137Y-155023463D01*
G37*
X176454562Y-149782850D02*
X176537313Y-149810053D01*
X176612406Y-149855484D01*
X176684298Y-149921302D01*
X176722846Y-149965567D01*
X176762256Y-150023961D01*
X176787446Y-150084586D01*
X176800861Y-150153865D01*
X176804948Y-150238222D01*
X176804669Y-150284307D01*
X176802460Y-150325450D01*
X176796894Y-150357582D01*
X176786586Y-150388122D01*
X176770148Y-150424489D01*
X176756200Y-150451728D01*
X176697665Y-150537429D01*
X176625619Y-150606617D01*
X176541947Y-150657741D01*
X176448531Y-150689250D01*
X176415434Y-150696225D01*
X176374960Y-150703094D01*
X176341999Y-150704919D01*
X176307698Y-150701947D01*
X176263200Y-150694426D01*
X176211934Y-150682002D01*
X176121434Y-150644112D01*
X176042345Y-150589836D01*
X175976528Y-150521770D01*
X175925840Y-150442511D01*
X175892140Y-150354654D01*
X175877286Y-150260795D01*
X175883136Y-150163530D01*
X175909399Y-150067220D01*
X175954418Y-149978494D01*
X176015373Y-149903419D01*
X176090184Y-149843641D01*
X176176768Y-149800809D01*
X176273043Y-149776571D01*
X176376928Y-149772576D01*
X176454562Y-149782850D01*
G36*
X176454562Y-149782850D02*
G01*
X176537313Y-149810053D01*
X176612406Y-149855484D01*
X176684298Y-149921302D01*
X176722846Y-149965567D01*
X176762256Y-150023961D01*
X176787446Y-150084586D01*
X176800861Y-150153865D01*
X176804948Y-150238222D01*
X176804669Y-150284307D01*
X176802460Y-150325450D01*
X176796894Y-150357582D01*
X176786586Y-150388122D01*
X176770148Y-150424489D01*
X176756200Y-150451728D01*
X176697665Y-150537429D01*
X176625619Y-150606617D01*
X176541947Y-150657741D01*
X176448531Y-150689250D01*
X176415434Y-150696225D01*
X176374960Y-150703094D01*
X176341999Y-150704919D01*
X176307698Y-150701947D01*
X176263200Y-150694426D01*
X176211934Y-150682002D01*
X176121434Y-150644112D01*
X176042345Y-150589836D01*
X175976528Y-150521770D01*
X175925840Y-150442511D01*
X175892140Y-150354654D01*
X175877286Y-150260795D01*
X175883136Y-150163530D01*
X175909399Y-150067220D01*
X175954418Y-149978494D01*
X176015373Y-149903419D01*
X176090184Y-149843641D01*
X176176768Y-149800809D01*
X176273043Y-149776571D01*
X176376928Y-149772576D01*
X176454562Y-149782850D01*
G37*
X169155767Y-155019068D02*
X169249890Y-155019158D01*
X169324405Y-155019498D01*
X169381811Y-155020239D01*
X169424611Y-155021535D01*
X169455304Y-155023537D01*
X169476391Y-155026396D01*
X169490373Y-155030266D01*
X169499750Y-155035298D01*
X169507022Y-155041645D01*
X169525828Y-155074362D01*
X169527275Y-155111939D01*
X169510917Y-155145178D01*
X169509557Y-155146631D01*
X169498354Y-155154992D01*
X169481252Y-155160547D01*
X169454082Y-155163840D01*
X169412678Y-155165418D01*
X169352873Y-155165822D01*
X169213511Y-155165822D01*
X169213511Y-155429589D01*
X169213436Y-155505417D01*
X169213028Y-155572083D01*
X169212046Y-155621867D01*
X169210250Y-155657784D01*
X169207399Y-155682850D01*
X169203253Y-155700081D01*
X169197571Y-155712492D01*
X169190114Y-155723100D01*
X169187824Y-155725906D01*
X169156646Y-155748548D01*
X169122266Y-155750112D01*
X169089334Y-155730267D01*
X169082355Y-155722191D01*
X169076883Y-155711593D01*
X169072863Y-155695749D01*
X169070072Y-155671773D01*
X169068288Y-155636774D01*
X169067289Y-155587864D01*
X169066852Y-155522154D01*
X169066756Y-155436756D01*
X169066756Y-155165822D01*
X168920820Y-155165822D01*
X168909720Y-155165821D01*
X168853202Y-155165596D01*
X168814358Y-155164457D01*
X168788965Y-155161657D01*
X168772804Y-155156450D01*
X168761652Y-155148089D01*
X168751289Y-155135826D01*
X168735441Y-155105138D01*
X168738543Y-155071358D01*
X168764187Y-155038822D01*
X168769129Y-155035105D01*
X168779338Y-155030269D01*
X168794764Y-155026506D01*
X168817886Y-155023683D01*
X168851183Y-155021670D01*
X168897137Y-155020333D01*
X168958228Y-155019542D01*
X169036935Y-155019163D01*
X169135740Y-155019067D01*
X169155767Y-155019068D01*
G36*
X169155767Y-155019068D02*
G01*
X169249890Y-155019158D01*
X169324405Y-155019498D01*
X169381811Y-155020239D01*
X169424611Y-155021535D01*
X169455304Y-155023537D01*
X169476391Y-155026396D01*
X169490373Y-155030266D01*
X169499750Y-155035298D01*
X169507022Y-155041645D01*
X169525828Y-155074362D01*
X169527275Y-155111939D01*
X169510917Y-155145178D01*
X169509557Y-155146631D01*
X169498354Y-155154992D01*
X169481252Y-155160547D01*
X169454082Y-155163840D01*
X169412678Y-155165418D01*
X169352873Y-155165822D01*
X169213511Y-155165822D01*
X169213511Y-155429589D01*
X169213436Y-155505417D01*
X169213028Y-155572083D01*
X169212046Y-155621867D01*
X169210250Y-155657784D01*
X169207399Y-155682850D01*
X169203253Y-155700081D01*
X169197571Y-155712492D01*
X169190114Y-155723100D01*
X169187824Y-155725906D01*
X169156646Y-155748548D01*
X169122266Y-155750112D01*
X169089334Y-155730267D01*
X169082355Y-155722191D01*
X169076883Y-155711593D01*
X169072863Y-155695749D01*
X169070072Y-155671773D01*
X169068288Y-155636774D01*
X169067289Y-155587864D01*
X169066852Y-155522154D01*
X169066756Y-155436756D01*
X169066756Y-155165822D01*
X168920820Y-155165822D01*
X168909720Y-155165821D01*
X168853202Y-155165596D01*
X168814358Y-155164457D01*
X168788965Y-155161657D01*
X168772804Y-155156450D01*
X168761652Y-155148089D01*
X168751289Y-155135826D01*
X168735441Y-155105138D01*
X168738543Y-155071358D01*
X168764187Y-155038822D01*
X168769129Y-155035105D01*
X168779338Y-155030269D01*
X168794764Y-155026506D01*
X168817886Y-155023683D01*
X168851183Y-155021670D01*
X168897137Y-155020333D01*
X168958228Y-155019542D01*
X169036935Y-155019163D01*
X169135740Y-155019067D01*
X169155767Y-155019068D01*
G37*
X168479734Y-155041645D02*
X168485366Y-155047835D01*
X168490456Y-155056041D01*
X168494543Y-155067817D01*
X168497721Y-155085276D01*
X168500087Y-155110530D01*
X168501738Y-155145690D01*
X168502769Y-155192869D01*
X168503277Y-155254177D01*
X168503359Y-155331727D01*
X168503109Y-155427631D01*
X168502625Y-155544000D01*
X168502557Y-155558175D01*
X168501971Y-155619937D01*
X168500648Y-155663620D01*
X168498103Y-155693001D01*
X168493848Y-155711855D01*
X168487396Y-155723959D01*
X168478262Y-155733089D01*
X168444804Y-155750506D01*
X168409856Y-155747604D01*
X168378953Y-155723100D01*
X168369944Y-155709897D01*
X168362492Y-155691361D01*
X168358124Y-155665333D01*
X168356069Y-155626787D01*
X168355556Y-155570700D01*
X168355556Y-155448045D01*
X167858845Y-155448045D01*
X167858845Y-155582871D01*
X167858772Y-155618662D01*
X167858009Y-155664992D01*
X167855833Y-155695526D01*
X167851536Y-155714557D01*
X167844412Y-155726374D01*
X167833755Y-155735271D01*
X167801504Y-155750341D01*
X167766217Y-155747673D01*
X167735486Y-155723100D01*
X167730831Y-155716845D01*
X167724895Y-155706321D01*
X167720364Y-155692391D01*
X167717048Y-155672317D01*
X167714759Y-155643360D01*
X167713308Y-155602780D01*
X167712505Y-155547840D01*
X167712162Y-155475799D01*
X167712089Y-155383920D01*
X167712089Y-155074485D01*
X167739798Y-155046776D01*
X167771177Y-155024533D01*
X167804406Y-155021844D01*
X167836267Y-155041645D01*
X167844553Y-155051415D01*
X167851965Y-155067307D01*
X167856302Y-155091275D01*
X167858338Y-155128148D01*
X167858845Y-155182756D01*
X167858845Y-155301289D01*
X168355556Y-155301289D01*
X168355556Y-155185776D01*
X168355994Y-155134078D01*
X168357958Y-155099554D01*
X168362474Y-155076978D01*
X168370567Y-155061126D01*
X168383265Y-155046776D01*
X168414643Y-155024533D01*
X168447872Y-155021844D01*
X168479734Y-155041645D01*
G36*
X168479734Y-155041645D02*
G01*
X168485366Y-155047835D01*
X168490456Y-155056041D01*
X168494543Y-155067817D01*
X168497721Y-155085276D01*
X168500087Y-155110530D01*
X168501738Y-155145690D01*
X168502769Y-155192869D01*
X168503277Y-155254177D01*
X168503359Y-155331727D01*
X168503109Y-155427631D01*
X168502625Y-155544000D01*
X168502557Y-155558175D01*
X168501971Y-155619937D01*
X168500648Y-155663620D01*
X168498103Y-155693001D01*
X168493848Y-155711855D01*
X168487396Y-155723959D01*
X168478262Y-155733089D01*
X168444804Y-155750506D01*
X168409856Y-155747604D01*
X168378953Y-155723100D01*
X168369944Y-155709897D01*
X168362492Y-155691361D01*
X168358124Y-155665333D01*
X168356069Y-155626787D01*
X168355556Y-155570700D01*
X168355556Y-155448045D01*
X167858845Y-155448045D01*
X167858845Y-155582871D01*
X167858772Y-155618662D01*
X167858009Y-155664992D01*
X167855833Y-155695526D01*
X167851536Y-155714557D01*
X167844412Y-155726374D01*
X167833755Y-155735271D01*
X167801504Y-155750341D01*
X167766217Y-155747673D01*
X167735486Y-155723100D01*
X167730831Y-155716845D01*
X167724895Y-155706321D01*
X167720364Y-155692391D01*
X167717048Y-155672317D01*
X167714759Y-155643360D01*
X167713308Y-155602780D01*
X167712505Y-155547840D01*
X167712162Y-155475799D01*
X167712089Y-155383920D01*
X167712089Y-155074485D01*
X167739798Y-155046776D01*
X167771177Y-155024533D01*
X167804406Y-155021844D01*
X167836267Y-155041645D01*
X167844553Y-155051415D01*
X167851965Y-155067307D01*
X167856302Y-155091275D01*
X167858338Y-155128148D01*
X167858845Y-155182756D01*
X167858845Y-155301289D01*
X168355556Y-155301289D01*
X168355556Y-155185776D01*
X168355994Y-155134078D01*
X168357958Y-155099554D01*
X168362474Y-155076978D01*
X168370567Y-155061126D01*
X168383265Y-155046776D01*
X168414643Y-155024533D01*
X168447872Y-155021844D01*
X168479734Y-155041645D01*
G37*
X173185133Y-155630396D02*
X173183163Y-155663175D01*
X173180235Y-155686095D01*
X173176158Y-155701897D01*
X173170743Y-155713319D01*
X173163803Y-155723100D01*
X173140406Y-155752845D01*
X172974714Y-155752251D01*
X172939918Y-155751953D01*
X172841435Y-155748522D01*
X172760473Y-155740839D01*
X172693379Y-155728282D01*
X172636496Y-155710227D01*
X172586169Y-155686052D01*
X172582810Y-155684135D01*
X172524998Y-155647417D01*
X172482644Y-155610451D01*
X172449828Y-155566966D01*
X172420628Y-155510689D01*
X172416346Y-155501073D01*
X172393769Y-155437887D01*
X172388034Y-155392333D01*
X172537279Y-155392333D01*
X172542892Y-155417061D01*
X172548618Y-155432939D01*
X172581548Y-155492847D01*
X172628886Y-155538600D01*
X172692652Y-155571736D01*
X172774861Y-155593790D01*
X172777655Y-155594292D01*
X172823940Y-155600255D01*
X172880336Y-155604483D01*
X172935274Y-155606089D01*
X173029156Y-155606089D01*
X173029156Y-155165822D01*
X172941667Y-155166270D01*
X172874747Y-155168746D01*
X172782349Y-155179998D01*
X172703034Y-155199537D01*
X172641060Y-155226511D01*
X172610120Y-155247240D01*
X172582000Y-155277006D01*
X172558660Y-155319434D01*
X172551533Y-155335400D01*
X172539709Y-155367902D01*
X172537279Y-155392333D01*
X172388034Y-155392333D01*
X172386797Y-155382509D01*
X172395399Y-155327483D01*
X172419541Y-155265351D01*
X172420337Y-155263658D01*
X172460788Y-155194236D01*
X172511473Y-155137638D01*
X172574198Y-155093070D01*
X172650774Y-155059741D01*
X172743009Y-155036861D01*
X172852712Y-155023636D01*
X172981691Y-155019275D01*
X172985263Y-155019270D01*
X173045283Y-155019410D01*
X173087214Y-155020446D01*
X173115328Y-155023040D01*
X173133897Y-155027853D01*
X173147194Y-155035544D01*
X173159491Y-155046776D01*
X173187200Y-155074485D01*
X173187200Y-155383920D01*
X173187175Y-155445526D01*
X173186950Y-155524311D01*
X173186332Y-155585021D01*
X173185775Y-155606089D01*
X173185133Y-155630396D01*
G36*
X173185133Y-155630396D02*
G01*
X173183163Y-155663175D01*
X173180235Y-155686095D01*
X173176158Y-155701897D01*
X173170743Y-155713319D01*
X173163803Y-155723100D01*
X173140406Y-155752845D01*
X172974714Y-155752251D01*
X172939918Y-155751953D01*
X172841435Y-155748522D01*
X172760473Y-155740839D01*
X172693379Y-155728282D01*
X172636496Y-155710227D01*
X172586169Y-155686052D01*
X172582810Y-155684135D01*
X172524998Y-155647417D01*
X172482644Y-155610451D01*
X172449828Y-155566966D01*
X172420628Y-155510689D01*
X172416346Y-155501073D01*
X172393769Y-155437887D01*
X172388034Y-155392333D01*
X172537279Y-155392333D01*
X172542892Y-155417061D01*
X172548618Y-155432939D01*
X172581548Y-155492847D01*
X172628886Y-155538600D01*
X172692652Y-155571736D01*
X172774861Y-155593790D01*
X172777655Y-155594292D01*
X172823940Y-155600255D01*
X172880336Y-155604483D01*
X172935274Y-155606089D01*
X173029156Y-155606089D01*
X173029156Y-155165822D01*
X172941667Y-155166270D01*
X172874747Y-155168746D01*
X172782349Y-155179998D01*
X172703034Y-155199537D01*
X172641060Y-155226511D01*
X172610120Y-155247240D01*
X172582000Y-155277006D01*
X172558660Y-155319434D01*
X172551533Y-155335400D01*
X172539709Y-155367902D01*
X172537279Y-155392333D01*
X172388034Y-155392333D01*
X172386797Y-155382509D01*
X172395399Y-155327483D01*
X172419541Y-155265351D01*
X172420337Y-155263658D01*
X172460788Y-155194236D01*
X172511473Y-155137638D01*
X172574198Y-155093070D01*
X172650774Y-155059741D01*
X172743009Y-155036861D01*
X172852712Y-155023636D01*
X172981691Y-155019275D01*
X172985263Y-155019270D01*
X173045283Y-155019410D01*
X173087214Y-155020446D01*
X173115328Y-155023040D01*
X173133897Y-155027853D01*
X173147194Y-155035544D01*
X173159491Y-155046776D01*
X173187200Y-155074485D01*
X173187200Y-155383920D01*
X173187175Y-155445526D01*
X173186950Y-155524311D01*
X173186332Y-155585021D01*
X173185775Y-155606089D01*
X173185133Y-155630396D01*
G37*
X180276817Y-155204427D02*
X180276870Y-155285041D01*
X180276622Y-155385956D01*
X180276583Y-155461617D01*
X180276328Y-155539526D01*
X180275684Y-155599536D01*
X180274480Y-155644264D01*
X180272543Y-155676326D01*
X180269703Y-155698340D01*
X180265788Y-155712924D01*
X180260626Y-155722694D01*
X180254045Y-155730267D01*
X180247077Y-155736501D01*
X180234079Y-155743801D01*
X180214931Y-155748554D01*
X180185528Y-155751292D01*
X180141762Y-155752545D01*
X180079528Y-155752845D01*
X180030582Y-155752469D01*
X179923722Y-155748041D01*
X179834494Y-155737953D01*
X179759696Y-155721365D01*
X179696125Y-155697435D01*
X179640579Y-155665321D01*
X179589854Y-155624182D01*
X179583866Y-155618330D01*
X179546999Y-155569821D01*
X179515899Y-155509013D01*
X179494417Y-155444769D01*
X179489136Y-155406026D01*
X179636353Y-155406026D01*
X179654635Y-155456961D01*
X179684305Y-155502878D01*
X179731002Y-155545287D01*
X179792392Y-155575090D01*
X179871538Y-155594226D01*
X179873028Y-155594464D01*
X179921999Y-155600256D01*
X179980693Y-155604396D01*
X180036734Y-155606004D01*
X180129867Y-155606089D01*
X180129867Y-155165822D01*
X180053667Y-155165808D01*
X180050639Y-155165817D01*
X179999519Y-155167782D01*
X179939416Y-155172507D01*
X179882708Y-155179035D01*
X179832750Y-155188331D01*
X179757998Y-155214600D01*
X179700489Y-155253899D01*
X179658988Y-155306933D01*
X179637771Y-155358200D01*
X179636353Y-155406026D01*
X179489136Y-155406026D01*
X179486400Y-155385956D01*
X179487679Y-155364739D01*
X179499991Y-155307323D01*
X179522520Y-155247413D01*
X179551750Y-155193363D01*
X179584167Y-155153532D01*
X179603708Y-155136510D01*
X179658420Y-155097322D01*
X179718723Y-155067193D01*
X179787919Y-155045232D01*
X179869311Y-155030550D01*
X179966200Y-155022259D01*
X180081889Y-155019467D01*
X180121371Y-155019066D01*
X180167082Y-155018653D01*
X180202883Y-155020457D01*
X180229974Y-155026739D01*
X180249556Y-155039759D01*
X180262830Y-155061778D01*
X180270998Y-155095055D01*
X180275260Y-155141851D01*
X180275857Y-155165822D01*
X180276817Y-155204427D01*
G36*
X180276817Y-155204427D02*
G01*
X180276870Y-155285041D01*
X180276622Y-155385956D01*
X180276583Y-155461617D01*
X180276328Y-155539526D01*
X180275684Y-155599536D01*
X180274480Y-155644264D01*
X180272543Y-155676326D01*
X180269703Y-155698340D01*
X180265788Y-155712924D01*
X180260626Y-155722694D01*
X180254045Y-155730267D01*
X180247077Y-155736501D01*
X180234079Y-155743801D01*
X180214931Y-155748554D01*
X180185528Y-155751292D01*
X180141762Y-155752545D01*
X180079528Y-155752845D01*
X180030582Y-155752469D01*
X179923722Y-155748041D01*
X179834494Y-155737953D01*
X179759696Y-155721365D01*
X179696125Y-155697435D01*
X179640579Y-155665321D01*
X179589854Y-155624182D01*
X179583866Y-155618330D01*
X179546999Y-155569821D01*
X179515899Y-155509013D01*
X179494417Y-155444769D01*
X179489136Y-155406026D01*
X179636353Y-155406026D01*
X179654635Y-155456961D01*
X179684305Y-155502878D01*
X179731002Y-155545287D01*
X179792392Y-155575090D01*
X179871538Y-155594226D01*
X179873028Y-155594464D01*
X179921999Y-155600256D01*
X179980693Y-155604396D01*
X180036734Y-155606004D01*
X180129867Y-155606089D01*
X180129867Y-155165822D01*
X180053667Y-155165808D01*
X180050639Y-155165817D01*
X179999519Y-155167782D01*
X179939416Y-155172507D01*
X179882708Y-155179035D01*
X179832750Y-155188331D01*
X179757998Y-155214600D01*
X179700489Y-155253899D01*
X179658988Y-155306933D01*
X179637771Y-155358200D01*
X179636353Y-155406026D01*
X179489136Y-155406026D01*
X179486400Y-155385956D01*
X179487679Y-155364739D01*
X179499991Y-155307323D01*
X179522520Y-155247413D01*
X179551750Y-155193363D01*
X179584167Y-155153532D01*
X179603708Y-155136510D01*
X179658420Y-155097322D01*
X179718723Y-155067193D01*
X179787919Y-155045232D01*
X179869311Y-155030550D01*
X179966200Y-155022259D01*
X180081889Y-155019467D01*
X180121371Y-155019066D01*
X180167082Y-155018653D01*
X180202883Y-155020457D01*
X180229974Y-155026739D01*
X180249556Y-155039759D01*
X180262830Y-155061778D01*
X180270998Y-155095055D01*
X180275260Y-155141851D01*
X180275857Y-155165822D01*
X180276817Y-155204427D01*
G37*
X175331893Y-155017892D02*
X175343301Y-155024029D01*
X175353850Y-155034691D01*
X175365136Y-155048811D01*
X175369589Y-155054772D01*
X175375588Y-155065268D01*
X175380167Y-155079093D01*
X175383519Y-155098998D01*
X175385833Y-155127732D01*
X175387301Y-155168045D01*
X175388113Y-155222687D01*
X175388460Y-155294407D01*
X175388534Y-155385956D01*
X175388511Y-155444486D01*
X175388292Y-155523573D01*
X175387683Y-155584516D01*
X175386492Y-155630062D01*
X175384529Y-155662963D01*
X175381603Y-155685968D01*
X175377523Y-155701826D01*
X175372097Y-155713286D01*
X175365136Y-155723100D01*
X175334708Y-155747493D01*
X175299765Y-155750372D01*
X175262784Y-155731282D01*
X175258600Y-155727807D01*
X175250424Y-155719279D01*
X175244364Y-155707728D01*
X175239981Y-155689896D01*
X175236839Y-155662524D01*
X175234502Y-155622354D01*
X175232531Y-155566128D01*
X175230489Y-155490589D01*
X175224845Y-155271458D01*
X174959556Y-155512099D01*
X174885722Y-155578875D01*
X174820542Y-155636991D01*
X174768348Y-155681949D01*
X174727273Y-155714871D01*
X174695455Y-155736879D01*
X174671026Y-155749094D01*
X174652124Y-155752639D01*
X174636883Y-155748636D01*
X174623439Y-155738207D01*
X174609927Y-155722474D01*
X174603682Y-155713991D01*
X174598050Y-155703413D01*
X174593839Y-155689255D01*
X174590887Y-155668803D01*
X174589032Y-155639342D01*
X174588113Y-155598161D01*
X174587968Y-155542544D01*
X174588435Y-155469779D01*
X174589352Y-155377151D01*
X174592667Y-155062199D01*
X174619318Y-155040633D01*
X174645383Y-155024441D01*
X174678241Y-155021670D01*
X174712772Y-155040623D01*
X174717084Y-155044208D01*
X174725216Y-155052737D01*
X174731245Y-155064329D01*
X174735606Y-155082235D01*
X174738734Y-155109706D01*
X174741063Y-155149994D01*
X174743029Y-155206351D01*
X174745067Y-155282029D01*
X174750711Y-155501878D01*
X174931334Y-155338084D01*
X175018072Y-155259451D01*
X175093843Y-155191058D01*
X175155980Y-155135708D01*
X175206078Y-155092338D01*
X175245735Y-155059881D01*
X175276548Y-155037273D01*
X175300114Y-155023448D01*
X175318030Y-155017343D01*
X175331893Y-155017892D01*
G36*
X175331893Y-155017892D02*
G01*
X175343301Y-155024029D01*
X175353850Y-155034691D01*
X175365136Y-155048811D01*
X175369589Y-155054772D01*
X175375588Y-155065268D01*
X175380167Y-155079093D01*
X175383519Y-155098998D01*
X175385833Y-155127732D01*
X175387301Y-155168045D01*
X175388113Y-155222687D01*
X175388460Y-155294407D01*
X175388534Y-155385956D01*
X175388511Y-155444486D01*
X175388292Y-155523573D01*
X175387683Y-155584516D01*
X175386492Y-155630062D01*
X175384529Y-155662963D01*
X175381603Y-155685968D01*
X175377523Y-155701826D01*
X175372097Y-155713286D01*
X175365136Y-155723100D01*
X175334708Y-155747493D01*
X175299765Y-155750372D01*
X175262784Y-155731282D01*
X175258600Y-155727807D01*
X175250424Y-155719279D01*
X175244364Y-155707728D01*
X175239981Y-155689896D01*
X175236839Y-155662524D01*
X175234502Y-155622354D01*
X175232531Y-155566128D01*
X175230489Y-155490589D01*
X175224845Y-155271458D01*
X174959556Y-155512099D01*
X174885722Y-155578875D01*
X174820542Y-155636991D01*
X174768348Y-155681949D01*
X174727273Y-155714871D01*
X174695455Y-155736879D01*
X174671026Y-155749094D01*
X174652124Y-155752639D01*
X174636883Y-155748636D01*
X174623439Y-155738207D01*
X174609927Y-155722474D01*
X174603682Y-155713991D01*
X174598050Y-155703413D01*
X174593839Y-155689255D01*
X174590887Y-155668803D01*
X174589032Y-155639342D01*
X174588113Y-155598161D01*
X174587968Y-155542544D01*
X174588435Y-155469779D01*
X174589352Y-155377151D01*
X174592667Y-155062199D01*
X174619318Y-155040633D01*
X174645383Y-155024441D01*
X174678241Y-155021670D01*
X174712772Y-155040623D01*
X174717084Y-155044208D01*
X174725216Y-155052737D01*
X174731245Y-155064329D01*
X174735606Y-155082235D01*
X174738734Y-155109706D01*
X174741063Y-155149994D01*
X174743029Y-155206351D01*
X174745067Y-155282029D01*
X174750711Y-155501878D01*
X174931334Y-155338084D01*
X175018072Y-155259451D01*
X175093843Y-155191058D01*
X175155980Y-155135708D01*
X175206078Y-155092338D01*
X175245735Y-155059881D01*
X175276548Y-155037273D01*
X175300114Y-155023448D01*
X175318030Y-155017343D01*
X175331893Y-155017892D01*
G37*
X176129150Y-155024179D02*
X176235157Y-155040494D01*
X176328969Y-155068545D01*
X176407765Y-155107452D01*
X176468719Y-155156334D01*
X176494789Y-155189195D01*
X176524297Y-155238394D01*
X176549568Y-155292252D01*
X176567218Y-155343419D01*
X176573858Y-155384544D01*
X176572298Y-155404259D01*
X176559357Y-155455592D01*
X176536194Y-155512118D01*
X176506302Y-155566035D01*
X176473173Y-155609539D01*
X176462977Y-155619887D01*
X176395892Y-155671662D01*
X176315766Y-155711554D01*
X176229556Y-155735956D01*
X176174592Y-155744068D01*
X176081139Y-155750673D01*
X175991358Y-155748586D01*
X175908869Y-155738340D01*
X175837286Y-155720470D01*
X175780228Y-155695508D01*
X175741311Y-155663988D01*
X175739936Y-155662012D01*
X175732848Y-155636786D01*
X175728609Y-155589535D01*
X175727200Y-155520071D01*
X175728060Y-155457838D01*
X175732780Y-155410456D01*
X175744470Y-155378353D01*
X175766239Y-155358800D01*
X175801198Y-155349070D01*
X175852456Y-155346433D01*
X175923123Y-155348161D01*
X175971743Y-155351173D01*
X176021939Y-155359366D01*
X176054433Y-155373419D01*
X176071892Y-155394654D01*
X176076983Y-155424394D01*
X176076877Y-155428936D01*
X176068175Y-155463730D01*
X176044165Y-155487147D01*
X176002900Y-155500347D01*
X175942431Y-155504489D01*
X175873956Y-155504489D01*
X175873956Y-155542841D01*
X175874006Y-155551976D01*
X175876227Y-155569227D01*
X175885494Y-155579521D01*
X175906875Y-155586459D01*
X175945436Y-155593641D01*
X175950910Y-155594575D01*
X176047860Y-155604478D01*
X176137852Y-155601559D01*
X176218760Y-155586829D01*
X176288459Y-155561299D01*
X176344824Y-155525978D01*
X176385729Y-155481879D01*
X176409051Y-155430012D01*
X176412663Y-155371388D01*
X176407145Y-155342494D01*
X176380461Y-155286604D01*
X176334273Y-155240945D01*
X176269291Y-155206108D01*
X176186229Y-155182690D01*
X176161555Y-155178241D01*
X176072226Y-155167742D01*
X175992419Y-155168971D01*
X175914326Y-155181906D01*
X175879183Y-155188696D01*
X175833745Y-155189713D01*
X175802430Y-155177182D01*
X175782277Y-155150395D01*
X175775893Y-155122148D01*
X175785379Y-155090924D01*
X175794708Y-155077499D01*
X175828943Y-155053967D01*
X175881565Y-155036095D01*
X175950081Y-155024599D01*
X176032000Y-155020192D01*
X176129150Y-155024179D01*
G36*
X176129150Y-155024179D02*
G01*
X176235157Y-155040494D01*
X176328969Y-155068545D01*
X176407765Y-155107452D01*
X176468719Y-155156334D01*
X176494789Y-155189195D01*
X176524297Y-155238394D01*
X176549568Y-155292252D01*
X176567218Y-155343419D01*
X176573858Y-155384544D01*
X176572298Y-155404259D01*
X176559357Y-155455592D01*
X176536194Y-155512118D01*
X176506302Y-155566035D01*
X176473173Y-155609539D01*
X176462977Y-155619887D01*
X176395892Y-155671662D01*
X176315766Y-155711554D01*
X176229556Y-155735956D01*
X176174592Y-155744068D01*
X176081139Y-155750673D01*
X175991358Y-155748586D01*
X175908869Y-155738340D01*
X175837286Y-155720470D01*
X175780228Y-155695508D01*
X175741311Y-155663988D01*
X175739936Y-155662012D01*
X175732848Y-155636786D01*
X175728609Y-155589535D01*
X175727200Y-155520071D01*
X175728060Y-155457838D01*
X175732780Y-155410456D01*
X175744470Y-155378353D01*
X175766239Y-155358800D01*
X175801198Y-155349070D01*
X175852456Y-155346433D01*
X175923123Y-155348161D01*
X175971743Y-155351173D01*
X176021939Y-155359366D01*
X176054433Y-155373419D01*
X176071892Y-155394654D01*
X176076983Y-155424394D01*
X176076877Y-155428936D01*
X176068175Y-155463730D01*
X176044165Y-155487147D01*
X176002900Y-155500347D01*
X175942431Y-155504489D01*
X175873956Y-155504489D01*
X175873956Y-155542841D01*
X175874006Y-155551976D01*
X175876227Y-155569227D01*
X175885494Y-155579521D01*
X175906875Y-155586459D01*
X175945436Y-155593641D01*
X175950910Y-155594575D01*
X176047860Y-155604478D01*
X176137852Y-155601559D01*
X176218760Y-155586829D01*
X176288459Y-155561299D01*
X176344824Y-155525978D01*
X176385729Y-155481879D01*
X176409051Y-155430012D01*
X176412663Y-155371388D01*
X176407145Y-155342494D01*
X176380461Y-155286604D01*
X176334273Y-155240945D01*
X176269291Y-155206108D01*
X176186229Y-155182690D01*
X176161555Y-155178241D01*
X176072226Y-155167742D01*
X175992419Y-155168971D01*
X175914326Y-155181906D01*
X175879183Y-155188696D01*
X175833745Y-155189713D01*
X175802430Y-155177182D01*
X175782277Y-155150395D01*
X175775893Y-155122148D01*
X175785379Y-155090924D01*
X175794708Y-155077499D01*
X175828943Y-155053967D01*
X175881565Y-155036095D01*
X175950081Y-155024599D01*
X176032000Y-155020192D01*
X176129150Y-155024179D01*
G37*
X174179803Y-155048811D02*
X174184752Y-155055495D01*
X174190596Y-155066066D01*
X174195057Y-155080153D01*
X174198321Y-155100478D01*
X174200574Y-155129765D01*
X174202002Y-155170737D01*
X174202792Y-155226117D01*
X174203129Y-155298628D01*
X174203200Y-155390994D01*
X174203171Y-155456911D01*
X174202939Y-155535228D01*
X174202319Y-155595496D01*
X174201126Y-155640393D01*
X174199179Y-155672602D01*
X174196294Y-155694800D01*
X174192288Y-155709669D01*
X174186979Y-155719889D01*
X174180183Y-155728138D01*
X174175668Y-155732795D01*
X174167438Y-155739282D01*
X174156078Y-155744194D01*
X174138810Y-155747749D01*
X174112855Y-155750167D01*
X174075436Y-155751667D01*
X174023773Y-155752467D01*
X173955089Y-155752787D01*
X173866606Y-155752845D01*
X173846931Y-155752838D01*
X173759906Y-155752572D01*
X173692254Y-155751806D01*
X173641299Y-155750392D01*
X173604367Y-155748180D01*
X173578783Y-155745022D01*
X173561871Y-155740769D01*
X173550957Y-155735271D01*
X173540464Y-155725285D01*
X173527203Y-155694168D01*
X173528386Y-155658280D01*
X173544550Y-155626733D01*
X173546739Y-155624457D01*
X173555427Y-155618189D01*
X173568769Y-155613523D01*
X173589752Y-155610227D01*
X173621363Y-155608068D01*
X173666590Y-155606814D01*
X173728420Y-155606231D01*
X173809839Y-155606089D01*
X174056445Y-155606089D01*
X174056445Y-155448045D01*
X173894006Y-155448045D01*
X173858338Y-155447964D01*
X173802568Y-155447167D01*
X173763430Y-155445162D01*
X173736976Y-155441521D01*
X173719259Y-155435812D01*
X173706329Y-155427607D01*
X173702686Y-155424423D01*
X173684278Y-155393448D01*
X173683644Y-155357112D01*
X173701183Y-155323493D01*
X173701245Y-155323424D01*
X173710916Y-155314798D01*
X173724209Y-155308742D01*
X173744917Y-155304811D01*
X173776828Y-155302556D01*
X173823734Y-155301531D01*
X173889424Y-155301289D01*
X174057571Y-155301289D01*
X174054186Y-155236378D01*
X174050800Y-155171467D01*
X173808723Y-155168414D01*
X173783707Y-155168086D01*
X173702087Y-155166606D01*
X173639768Y-155164222D01*
X173594154Y-155160227D01*
X173562652Y-155153913D01*
X173542667Y-155144574D01*
X173531604Y-155131503D01*
X173526869Y-155113992D01*
X173525867Y-155091335D01*
X173525873Y-155088970D01*
X173527027Y-155068939D01*
X173531824Y-155053146D01*
X173542632Y-155041090D01*
X173561817Y-155032267D01*
X173591745Y-155026175D01*
X173634783Y-155022311D01*
X173693299Y-155020174D01*
X173769657Y-155019260D01*
X173866226Y-155019067D01*
X174156406Y-155019067D01*
X174179803Y-155048811D01*
G36*
X174179803Y-155048811D02*
G01*
X174184752Y-155055495D01*
X174190596Y-155066066D01*
X174195057Y-155080153D01*
X174198321Y-155100478D01*
X174200574Y-155129765D01*
X174202002Y-155170737D01*
X174202792Y-155226117D01*
X174203129Y-155298628D01*
X174203200Y-155390994D01*
X174203171Y-155456911D01*
X174202939Y-155535228D01*
X174202319Y-155595496D01*
X174201126Y-155640393D01*
X174199179Y-155672602D01*
X174196294Y-155694800D01*
X174192288Y-155709669D01*
X174186979Y-155719889D01*
X174180183Y-155728138D01*
X174175668Y-155732795D01*
X174167438Y-155739282D01*
X174156078Y-155744194D01*
X174138810Y-155747749D01*
X174112855Y-155750167D01*
X174075436Y-155751667D01*
X174023773Y-155752467D01*
X173955089Y-155752787D01*
X173866606Y-155752845D01*
X173846931Y-155752838D01*
X173759906Y-155752572D01*
X173692254Y-155751806D01*
X173641299Y-155750392D01*
X173604367Y-155748180D01*
X173578783Y-155745022D01*
X173561871Y-155740769D01*
X173550957Y-155735271D01*
X173540464Y-155725285D01*
X173527203Y-155694168D01*
X173528386Y-155658280D01*
X173544550Y-155626733D01*
X173546739Y-155624457D01*
X173555427Y-155618189D01*
X173568769Y-155613523D01*
X173589752Y-155610227D01*
X173621363Y-155608068D01*
X173666590Y-155606814D01*
X173728420Y-155606231D01*
X173809839Y-155606089D01*
X174056445Y-155606089D01*
X174056445Y-155448045D01*
X173894006Y-155448045D01*
X173858338Y-155447964D01*
X173802568Y-155447167D01*
X173763430Y-155445162D01*
X173736976Y-155441521D01*
X173719259Y-155435812D01*
X173706329Y-155427607D01*
X173702686Y-155424423D01*
X173684278Y-155393448D01*
X173683644Y-155357112D01*
X173701183Y-155323493D01*
X173701245Y-155323424D01*
X173710916Y-155314798D01*
X173724209Y-155308742D01*
X173744917Y-155304811D01*
X173776828Y-155302556D01*
X173823734Y-155301531D01*
X173889424Y-155301289D01*
X174057571Y-155301289D01*
X174054186Y-155236378D01*
X174050800Y-155171467D01*
X173808723Y-155168414D01*
X173783707Y-155168086D01*
X173702087Y-155166606D01*
X173639768Y-155164222D01*
X173594154Y-155160227D01*
X173562652Y-155153913D01*
X173542667Y-155144574D01*
X173531604Y-155131503D01*
X173526869Y-155113992D01*
X173525867Y-155091335D01*
X173525873Y-155088970D01*
X173527027Y-155068939D01*
X173531824Y-155053146D01*
X173542632Y-155041090D01*
X173561817Y-155032267D01*
X173591745Y-155026175D01*
X173634783Y-155022311D01*
X173693299Y-155020174D01*
X173769657Y-155019260D01*
X173866226Y-155019067D01*
X174156406Y-155019067D01*
X174179803Y-155048811D01*
G37*
X178856734Y-155019083D02*
X178933831Y-155019275D01*
X178992777Y-155019860D01*
X179036364Y-155021051D01*
X179067383Y-155023064D01*
X179088625Y-155026112D01*
X179102882Y-155030409D01*
X179112945Y-155036172D01*
X179121606Y-155043612D01*
X179123391Y-155045293D01*
X179130635Y-155052832D01*
X179136277Y-155061850D01*
X179140517Y-155074984D01*
X179143556Y-155094872D01*
X179145594Y-155124151D01*
X179146830Y-155165458D01*
X179147465Y-155221431D01*
X179147700Y-155294707D01*
X179147734Y-155387923D01*
X179147697Y-155460713D01*
X179147448Y-155538889D01*
X179146812Y-155599103D01*
X179145615Y-155643982D01*
X179143684Y-155676152D01*
X179140846Y-155698239D01*
X179136927Y-155712870D01*
X179131755Y-155722670D01*
X179125156Y-155730267D01*
X179121822Y-155733444D01*
X179113300Y-155739554D01*
X179101298Y-155744229D01*
X179083087Y-155747659D01*
X179055940Y-155750036D01*
X179017129Y-155751552D01*
X178963924Y-155752398D01*
X178893598Y-155752765D01*
X178803422Y-155752845D01*
X178761314Y-155752833D01*
X178680167Y-155752651D01*
X178617675Y-155752098D01*
X178571109Y-155750982D01*
X178537741Y-155749113D01*
X178514844Y-155746298D01*
X178499688Y-155742346D01*
X178489546Y-155737066D01*
X178481689Y-155730267D01*
X178466963Y-155708667D01*
X178459111Y-155679467D01*
X178464610Y-155655560D01*
X178481689Y-155628667D01*
X178486668Y-155624059D01*
X178496443Y-155617772D01*
X178510559Y-155613146D01*
X178532054Y-155609930D01*
X178563968Y-155607870D01*
X178609342Y-155606712D01*
X178671213Y-155606202D01*
X178752622Y-155606089D01*
X179000978Y-155606089D01*
X179000978Y-155448045D01*
X178839801Y-155448045D01*
X178803983Y-155447899D01*
X178738359Y-155446176D01*
X178691118Y-155441741D01*
X178659383Y-155433637D01*
X178640277Y-155420906D01*
X178630923Y-155402592D01*
X178628445Y-155377738D01*
X178629242Y-155357482D01*
X178634494Y-155335656D01*
X178647288Y-155320304D01*
X178670628Y-155310309D01*
X178707517Y-155304553D01*
X178760959Y-155301919D01*
X178833958Y-155301289D01*
X179002105Y-155301289D01*
X178998719Y-155236378D01*
X178995334Y-155171467D01*
X178747617Y-155168418D01*
X178685026Y-155167539D01*
X178616565Y-155166095D01*
X178565661Y-155164164D01*
X178529408Y-155161514D01*
X178504901Y-155157910D01*
X178489235Y-155153121D01*
X178479506Y-155146913D01*
X178473491Y-155140510D01*
X178460482Y-155108828D01*
X178464043Y-155073142D01*
X178483818Y-155042084D01*
X178487069Y-155039161D01*
X178496049Y-155032810D01*
X178508153Y-155027957D01*
X178526159Y-155024403D01*
X178552847Y-155021946D01*
X178590997Y-155020385D01*
X178643386Y-155019518D01*
X178712794Y-155019146D01*
X178802001Y-155019067D01*
X178856734Y-155019083D01*
G36*
X178856734Y-155019083D02*
G01*
X178933831Y-155019275D01*
X178992777Y-155019860D01*
X179036364Y-155021051D01*
X179067383Y-155023064D01*
X179088625Y-155026112D01*
X179102882Y-155030409D01*
X179112945Y-155036172D01*
X179121606Y-155043612D01*
X179123391Y-155045293D01*
X179130635Y-155052832D01*
X179136277Y-155061850D01*
X179140517Y-155074984D01*
X179143556Y-155094872D01*
X179145594Y-155124151D01*
X179146830Y-155165458D01*
X179147465Y-155221431D01*
X179147700Y-155294707D01*
X179147734Y-155387923D01*
X179147697Y-155460713D01*
X179147448Y-155538889D01*
X179146812Y-155599103D01*
X179145615Y-155643982D01*
X179143684Y-155676152D01*
X179140846Y-155698239D01*
X179136927Y-155712870D01*
X179131755Y-155722670D01*
X179125156Y-155730267D01*
X179121822Y-155733444D01*
X179113300Y-155739554D01*
X179101298Y-155744229D01*
X179083087Y-155747659D01*
X179055940Y-155750036D01*
X179017129Y-155751552D01*
X178963924Y-155752398D01*
X178893598Y-155752765D01*
X178803422Y-155752845D01*
X178761314Y-155752833D01*
X178680167Y-155752651D01*
X178617675Y-155752098D01*
X178571109Y-155750982D01*
X178537741Y-155749113D01*
X178514844Y-155746298D01*
X178499688Y-155742346D01*
X178489546Y-155737066D01*
X178481689Y-155730267D01*
X178466963Y-155708667D01*
X178459111Y-155679467D01*
X178464610Y-155655560D01*
X178481689Y-155628667D01*
X178486668Y-155624059D01*
X178496443Y-155617772D01*
X178510559Y-155613146D01*
X178532054Y-155609930D01*
X178563968Y-155607870D01*
X178609342Y-155606712D01*
X178671213Y-155606202D01*
X178752622Y-155606089D01*
X179000978Y-155606089D01*
X179000978Y-155448045D01*
X178839801Y-155448045D01*
X178803983Y-155447899D01*
X178738359Y-155446176D01*
X178691118Y-155441741D01*
X178659383Y-155433637D01*
X178640277Y-155420906D01*
X178630923Y-155402592D01*
X178628445Y-155377738D01*
X178629242Y-155357482D01*
X178634494Y-155335656D01*
X178647288Y-155320304D01*
X178670628Y-155310309D01*
X178707517Y-155304553D01*
X178760959Y-155301919D01*
X178833958Y-155301289D01*
X179002105Y-155301289D01*
X178998719Y-155236378D01*
X178995334Y-155171467D01*
X178747617Y-155168418D01*
X178685026Y-155167539D01*
X178616565Y-155166095D01*
X178565661Y-155164164D01*
X178529408Y-155161514D01*
X178504901Y-155157910D01*
X178489235Y-155153121D01*
X178479506Y-155146913D01*
X178473491Y-155140510D01*
X178460482Y-155108828D01*
X178464043Y-155073142D01*
X178483818Y-155042084D01*
X178487069Y-155039161D01*
X178496049Y-155032810D01*
X178508153Y-155027957D01*
X178526159Y-155024403D01*
X178552847Y-155021946D01*
X178590997Y-155020385D01*
X178643386Y-155019518D01*
X178712794Y-155019146D01*
X178802001Y-155019067D01*
X178856734Y-155019083D01*
G37*
X170289702Y-155028478D02*
X170307663Y-155046989D01*
X170328263Y-155078071D01*
X170353095Y-155123756D01*
X170383750Y-155186078D01*
X170421820Y-155267071D01*
X170436454Y-155298454D01*
X170466203Y-155361638D01*
X170492297Y-155416244D01*
X170513292Y-155459290D01*
X170527739Y-155487793D01*
X170534191Y-155498770D01*
X170535550Y-155498189D01*
X170545542Y-155484242D01*
X170562833Y-155454704D01*
X170585430Y-155413087D01*
X170611338Y-155362903D01*
X170627311Y-155331414D01*
X170656261Y-155276061D01*
X170678749Y-155237044D01*
X170696965Y-155211566D01*
X170713096Y-155196831D01*
X170729330Y-155190042D01*
X170747857Y-155188400D01*
X170758360Y-155188875D01*
X170774476Y-155193082D01*
X170789790Y-155203946D01*
X170806388Y-155224219D01*
X170826357Y-155256654D01*
X170851783Y-155304004D01*
X170884752Y-155369022D01*
X170894485Y-155388277D01*
X170918943Y-155434946D01*
X170939178Y-155471109D01*
X170953311Y-155493497D01*
X170959460Y-155498845D01*
X170960827Y-155495573D01*
X170970202Y-155474664D01*
X170987062Y-155437725D01*
X171009979Y-155387874D01*
X171037520Y-155328226D01*
X171068255Y-155261898D01*
X171094970Y-155204677D01*
X171124593Y-155142688D01*
X171147664Y-155096949D01*
X171165643Y-155064908D01*
X171179990Y-155044014D01*
X171192166Y-155031718D01*
X171203632Y-155025466D01*
X171213042Y-155022574D01*
X171238147Y-155022425D01*
X171265290Y-155037768D01*
X171266590Y-155038753D01*
X171288674Y-155061388D01*
X171299723Y-155083613D01*
X171299769Y-155084253D01*
X171295228Y-155101915D01*
X171282364Y-155136481D01*
X171262605Y-155184826D01*
X171237381Y-155243825D01*
X171208119Y-155310355D01*
X171176250Y-155381291D01*
X171143201Y-155453507D01*
X171110401Y-155523880D01*
X171079280Y-155589285D01*
X171051265Y-155646597D01*
X171027786Y-155692692D01*
X171010272Y-155724446D01*
X171000151Y-155738733D01*
X170965743Y-155752102D01*
X170924046Y-155745741D01*
X170918681Y-155741044D01*
X170902852Y-155718893D01*
X170880650Y-155682132D01*
X170854233Y-155634415D01*
X170825760Y-155579393D01*
X170745986Y-155420150D01*
X170672799Y-155566742D01*
X170663103Y-155586032D01*
X170636125Y-155638380D01*
X170612096Y-155683170D01*
X170593332Y-155716154D01*
X170582146Y-155733089D01*
X170581000Y-155734332D01*
X170552879Y-155749619D01*
X170517817Y-155751302D01*
X170486776Y-155738733D01*
X170484350Y-155735884D01*
X170472090Y-155715259D01*
X170452352Y-155677708D01*
X170426448Y-155625880D01*
X170395685Y-155562423D01*
X170361375Y-155489985D01*
X170324825Y-155411216D01*
X170304585Y-155367093D01*
X170267812Y-155286365D01*
X170239355Y-155222687D01*
X170218331Y-155173752D01*
X170203854Y-155137257D01*
X170195039Y-155110895D01*
X170191004Y-155092361D01*
X170190862Y-155079352D01*
X170193730Y-155069561D01*
X170208387Y-155048678D01*
X170234990Y-155028377D01*
X170235745Y-155028035D01*
X170255335Y-155021034D01*
X170272790Y-155020504D01*
X170289702Y-155028478D01*
G36*
X170289702Y-155028478D02*
G01*
X170307663Y-155046989D01*
X170328263Y-155078071D01*
X170353095Y-155123756D01*
X170383750Y-155186078D01*
X170421820Y-155267071D01*
X170436454Y-155298454D01*
X170466203Y-155361638D01*
X170492297Y-155416244D01*
X170513292Y-155459290D01*
X170527739Y-155487793D01*
X170534191Y-155498770D01*
X170535550Y-155498189D01*
X170545542Y-155484242D01*
X170562833Y-155454704D01*
X170585430Y-155413087D01*
X170611338Y-155362903D01*
X170627311Y-155331414D01*
X170656261Y-155276061D01*
X170678749Y-155237044D01*
X170696965Y-155211566D01*
X170713096Y-155196831D01*
X170729330Y-155190042D01*
X170747857Y-155188400D01*
X170758360Y-155188875D01*
X170774476Y-155193082D01*
X170789790Y-155203946D01*
X170806388Y-155224219D01*
X170826357Y-155256654D01*
X170851783Y-155304004D01*
X170884752Y-155369022D01*
X170894485Y-155388277D01*
X170918943Y-155434946D01*
X170939178Y-155471109D01*
X170953311Y-155493497D01*
X170959460Y-155498845D01*
X170960827Y-155495573D01*
X170970202Y-155474664D01*
X170987062Y-155437725D01*
X171009979Y-155387874D01*
X171037520Y-155328226D01*
X171068255Y-155261898D01*
X171094970Y-155204677D01*
X171124593Y-155142688D01*
X171147664Y-155096949D01*
X171165643Y-155064908D01*
X171179990Y-155044014D01*
X171192166Y-155031718D01*
X171203632Y-155025466D01*
X171213042Y-155022574D01*
X171238147Y-155022425D01*
X171265290Y-155037768D01*
X171266590Y-155038753D01*
X171288674Y-155061388D01*
X171299723Y-155083613D01*
X171299769Y-155084253D01*
X171295228Y-155101915D01*
X171282364Y-155136481D01*
X171262605Y-155184826D01*
X171237381Y-155243825D01*
X171208119Y-155310355D01*
X171176250Y-155381291D01*
X171143201Y-155453507D01*
X171110401Y-155523880D01*
X171079280Y-155589285D01*
X171051265Y-155646597D01*
X171027786Y-155692692D01*
X171010272Y-155724446D01*
X171000151Y-155738733D01*
X170965743Y-155752102D01*
X170924046Y-155745741D01*
X170918681Y-155741044D01*
X170902852Y-155718893D01*
X170880650Y-155682132D01*
X170854233Y-155634415D01*
X170825760Y-155579393D01*
X170745986Y-155420150D01*
X170672799Y-155566742D01*
X170663103Y-155586032D01*
X170636125Y-155638380D01*
X170612096Y-155683170D01*
X170593332Y-155716154D01*
X170582146Y-155733089D01*
X170581000Y-155734332D01*
X170552879Y-155749619D01*
X170517817Y-155751302D01*
X170486776Y-155738733D01*
X170484350Y-155735884D01*
X170472090Y-155715259D01*
X170452352Y-155677708D01*
X170426448Y-155625880D01*
X170395685Y-155562423D01*
X170361375Y-155489985D01*
X170324825Y-155411216D01*
X170304585Y-155367093D01*
X170267812Y-155286365D01*
X170239355Y-155222687D01*
X170218331Y-155173752D01*
X170203854Y-155137257D01*
X170195039Y-155110895D01*
X170191004Y-155092361D01*
X170190862Y-155079352D01*
X170193730Y-155069561D01*
X170208387Y-155048678D01*
X170234990Y-155028377D01*
X170235745Y-155028035D01*
X170255335Y-155021034D01*
X170272790Y-155020504D01*
X170289702Y-155028478D01*
G37*
X177840853Y-155019936D02*
X177907100Y-155025366D01*
X177962400Y-155034964D01*
X178013283Y-155049825D01*
X178084595Y-155082958D01*
X178135752Y-155125640D01*
X178166575Y-155177705D01*
X178176889Y-155238983D01*
X178175952Y-155270232D01*
X178170160Y-155295029D01*
X178155353Y-155316699D01*
X178127380Y-155344049D01*
X178119402Y-155351378D01*
X178095692Y-155372281D01*
X178073298Y-155389251D01*
X178049265Y-155403205D01*
X178020637Y-155415056D01*
X177984460Y-155425720D01*
X177937780Y-155436111D01*
X177877641Y-155447146D01*
X177801090Y-155459738D01*
X177705171Y-155474804D01*
X177686808Y-155477838D01*
X177624478Y-155491458D01*
X177579260Y-155507192D01*
X177552976Y-155524263D01*
X177547447Y-155541897D01*
X177550068Y-155546168D01*
X177568000Y-155561233D01*
X177596126Y-155577867D01*
X177608926Y-155583857D01*
X177630224Y-155591050D01*
X177656610Y-155595827D01*
X177692454Y-155598646D01*
X177742128Y-155599964D01*
X177810000Y-155600237D01*
X177827785Y-155600164D01*
X177895406Y-155599053D01*
X177960345Y-155596828D01*
X178015970Y-155593762D01*
X178055651Y-155590127D01*
X178091162Y-155586059D01*
X178120415Y-155585276D01*
X178139315Y-155589876D01*
X178154429Y-155600551D01*
X178158085Y-155604144D01*
X178174427Y-155635918D01*
X178173107Y-155671572D01*
X178154150Y-155702190D01*
X178133780Y-155713796D01*
X178097796Y-155726491D01*
X178055372Y-155736541D01*
X178051922Y-155737140D01*
X178009252Y-155742356D01*
X177951866Y-155746730D01*
X177886849Y-155749818D01*
X177821289Y-155751177D01*
X177805057Y-155751218D01*
X177706744Y-155748741D01*
X177626692Y-155740735D01*
X177561513Y-155726203D01*
X177507817Y-155704149D01*
X177462216Y-155673576D01*
X177421323Y-155633486D01*
X177401202Y-155607259D01*
X177389576Y-155577712D01*
X177386667Y-155537995D01*
X177386808Y-155526026D01*
X177390681Y-155493345D01*
X177403065Y-155466819D01*
X177428230Y-155435971D01*
X177449442Y-155413831D01*
X177475838Y-155391285D01*
X177505555Y-155372917D01*
X177541785Y-155357661D01*
X177587717Y-155344449D01*
X177646544Y-155332214D01*
X177721456Y-155319889D01*
X177815645Y-155306406D01*
X177860957Y-155299396D01*
X177928911Y-155284837D01*
X177978047Y-155268337D01*
X178007614Y-155250439D01*
X178016864Y-155231685D01*
X178005048Y-155212615D01*
X177971416Y-155193771D01*
X177968370Y-155192557D01*
X177922011Y-155180479D01*
X177859361Y-155172279D01*
X177785927Y-155168119D01*
X177707217Y-155168161D01*
X177628739Y-155172569D01*
X177556000Y-155181505D01*
X177552073Y-155182154D01*
X177503257Y-155189861D01*
X177471005Y-155193473D01*
X177450008Y-155192876D01*
X177434954Y-155187954D01*
X177420534Y-155178596D01*
X177419364Y-155177725D01*
X177394847Y-155147351D01*
X177390054Y-155111850D01*
X177405860Y-155077269D01*
X177410406Y-155072813D01*
X177440020Y-155057673D01*
X177487002Y-155044550D01*
X177547306Y-155033750D01*
X177616888Y-155025581D01*
X177691703Y-155020351D01*
X177767706Y-155018367D01*
X177840853Y-155019936D01*
G36*
X177840853Y-155019936D02*
G01*
X177907100Y-155025366D01*
X177962400Y-155034964D01*
X178013283Y-155049825D01*
X178084595Y-155082958D01*
X178135752Y-155125640D01*
X178166575Y-155177705D01*
X178176889Y-155238983D01*
X178175952Y-155270232D01*
X178170160Y-155295029D01*
X178155353Y-155316699D01*
X178127380Y-155344049D01*
X178119402Y-155351378D01*
X178095692Y-155372281D01*
X178073298Y-155389251D01*
X178049265Y-155403205D01*
X178020637Y-155415056D01*
X177984460Y-155425720D01*
X177937780Y-155436111D01*
X177877641Y-155447146D01*
X177801090Y-155459738D01*
X177705171Y-155474804D01*
X177686808Y-155477838D01*
X177624478Y-155491458D01*
X177579260Y-155507192D01*
X177552976Y-155524263D01*
X177547447Y-155541897D01*
X177550068Y-155546168D01*
X177568000Y-155561233D01*
X177596126Y-155577867D01*
X177608926Y-155583857D01*
X177630224Y-155591050D01*
X177656610Y-155595827D01*
X177692454Y-155598646D01*
X177742128Y-155599964D01*
X177810000Y-155600237D01*
X177827785Y-155600164D01*
X177895406Y-155599053D01*
X177960345Y-155596828D01*
X178015970Y-155593762D01*
X178055651Y-155590127D01*
X178091162Y-155586059D01*
X178120415Y-155585276D01*
X178139315Y-155589876D01*
X178154429Y-155600551D01*
X178158085Y-155604144D01*
X178174427Y-155635918D01*
X178173107Y-155671572D01*
X178154150Y-155702190D01*
X178133780Y-155713796D01*
X178097796Y-155726491D01*
X178055372Y-155736541D01*
X178051922Y-155737140D01*
X178009252Y-155742356D01*
X177951866Y-155746730D01*
X177886849Y-155749818D01*
X177821289Y-155751177D01*
X177805057Y-155751218D01*
X177706744Y-155748741D01*
X177626692Y-155740735D01*
X177561513Y-155726203D01*
X177507817Y-155704149D01*
X177462216Y-155673576D01*
X177421323Y-155633486D01*
X177401202Y-155607259D01*
X177389576Y-155577712D01*
X177386667Y-155537995D01*
X177386808Y-155526026D01*
X177390681Y-155493345D01*
X177403065Y-155466819D01*
X177428230Y-155435971D01*
X177449442Y-155413831D01*
X177475838Y-155391285D01*
X177505555Y-155372917D01*
X177541785Y-155357661D01*
X177587717Y-155344449D01*
X177646544Y-155332214D01*
X177721456Y-155319889D01*
X177815645Y-155306406D01*
X177860957Y-155299396D01*
X177928911Y-155284837D01*
X177978047Y-155268337D01*
X178007614Y-155250439D01*
X178016864Y-155231685D01*
X178005048Y-155212615D01*
X177971416Y-155193771D01*
X177968370Y-155192557D01*
X177922011Y-155180479D01*
X177859361Y-155172279D01*
X177785927Y-155168119D01*
X177707217Y-155168161D01*
X177628739Y-155172569D01*
X177556000Y-155181505D01*
X177552073Y-155182154D01*
X177503257Y-155189861D01*
X177471005Y-155193473D01*
X177450008Y-155192876D01*
X177434954Y-155187954D01*
X177420534Y-155178596D01*
X177419364Y-155177725D01*
X177394847Y-155147351D01*
X177390054Y-155111850D01*
X177405860Y-155077269D01*
X177410406Y-155072813D01*
X177440020Y-155057673D01*
X177487002Y-155044550D01*
X177547306Y-155033750D01*
X177616888Y-155025581D01*
X177691703Y-155020351D01*
X177767706Y-155018367D01*
X177840853Y-155019936D01*
G37*
X173988711Y-150712033D02*
X174084268Y-150729523D01*
X174248558Y-150774564D01*
X174402589Y-150837656D01*
X174548509Y-150919915D01*
X174688466Y-151022457D01*
X174824608Y-151146399D01*
X174868473Y-151191661D01*
X174980758Y-151323865D01*
X175073972Y-151461832D01*
X175150719Y-151609750D01*
X175213603Y-151771803D01*
X175217420Y-151783391D01*
X175267507Y-151969392D01*
X175300899Y-152165521D01*
X175317584Y-152367568D01*
X175317551Y-152571325D01*
X175300791Y-152772581D01*
X175267292Y-152967128D01*
X175217044Y-153150756D01*
X175173190Y-153268053D01*
X175095348Y-153430951D01*
X175001828Y-153584866D01*
X174894822Y-153726671D01*
X174776519Y-153853239D01*
X174649111Y-153961441D01*
X174571606Y-154014120D01*
X174444725Y-154083750D01*
X174307243Y-154142468D01*
X174165716Y-154187587D01*
X174026702Y-154216422D01*
X174012597Y-154218106D01*
X173969153Y-154221434D01*
X173911723Y-154224275D01*
X173846122Y-154226373D01*
X173778167Y-154227468D01*
X173651378Y-154225140D01*
X173503673Y-154212136D01*
X173365779Y-154187133D01*
X173232014Y-154149318D01*
X173208562Y-154140889D01*
X173160612Y-154121408D01*
X173104140Y-154096473D01*
X173042379Y-154067722D01*
X172978563Y-154036790D01*
X172915926Y-154005315D01*
X172857703Y-153974934D01*
X172807127Y-153947283D01*
X172767433Y-153923999D01*
X172741854Y-153906718D01*
X172733625Y-153897079D01*
X172735076Y-153893984D01*
X172746250Y-153874079D01*
X172767134Y-153838420D01*
X172796265Y-153789459D01*
X172832181Y-153729646D01*
X172873420Y-153661433D01*
X172918517Y-153587271D01*
X173099785Y-153290008D01*
X173146315Y-153334539D01*
X173237723Y-153412865D01*
X173351334Y-153487439D01*
X173469122Y-153541474D01*
X173589559Y-153574290D01*
X173711117Y-153585211D01*
X173752585Y-153583868D01*
X173870080Y-153565612D01*
X173980089Y-153526617D01*
X174081430Y-153467670D01*
X174172921Y-153389557D01*
X174253380Y-153293064D01*
X174321627Y-153178978D01*
X174337908Y-153144724D01*
X174383982Y-153021240D01*
X174419106Y-152882918D01*
X174443197Y-152733561D01*
X174456173Y-152576973D01*
X174457949Y-152416956D01*
X174448443Y-152257314D01*
X174427572Y-152101850D01*
X174395252Y-151954366D01*
X174351399Y-151818667D01*
X174313982Y-151732076D01*
X174249185Y-151618688D01*
X174173772Y-151525070D01*
X174087418Y-151450959D01*
X173989795Y-151396094D01*
X173880577Y-151360212D01*
X173759439Y-151343051D01*
X173690038Y-151341880D01*
X173567168Y-151356141D01*
X173451664Y-151391241D01*
X173344953Y-151446682D01*
X173248464Y-151521964D01*
X173232720Y-151536440D01*
X173202150Y-151562962D01*
X173179809Y-151580138D01*
X173169691Y-151584787D01*
X173167706Y-151582597D01*
X173153241Y-151563721D01*
X173129400Y-151530397D01*
X173098029Y-151485380D01*
X173060974Y-151431425D01*
X173020083Y-151371285D01*
X172977202Y-151307718D01*
X172934178Y-151243476D01*
X172892857Y-151181315D01*
X172855086Y-151123991D01*
X172822712Y-151074257D01*
X172797582Y-151034868D01*
X172781542Y-151008580D01*
X172776439Y-150998147D01*
X172781050Y-150993941D01*
X172800267Y-150988933D01*
X172809838Y-150986386D01*
X172837809Y-150975249D01*
X172879448Y-150956802D01*
X172930995Y-150932725D01*
X172988690Y-150904699D01*
X172999957Y-150899154D01*
X173177687Y-150819889D01*
X173347490Y-150760385D01*
X173511430Y-150720245D01*
X173671571Y-150699071D01*
X173829977Y-150696466D01*
X173988711Y-150712033D01*
G36*
X173988711Y-150712033D02*
G01*
X174084268Y-150729523D01*
X174248558Y-150774564D01*
X174402589Y-150837656D01*
X174548509Y-150919915D01*
X174688466Y-151022457D01*
X174824608Y-151146399D01*
X174868473Y-151191661D01*
X174980758Y-151323865D01*
X175073972Y-151461832D01*
X175150719Y-151609750D01*
X175213603Y-151771803D01*
X175217420Y-151783391D01*
X175267507Y-151969392D01*
X175300899Y-152165521D01*
X175317584Y-152367568D01*
X175317551Y-152571325D01*
X175300791Y-152772581D01*
X175267292Y-152967128D01*
X175217044Y-153150756D01*
X175173190Y-153268053D01*
X175095348Y-153430951D01*
X175001828Y-153584866D01*
X174894822Y-153726671D01*
X174776519Y-153853239D01*
X174649111Y-153961441D01*
X174571606Y-154014120D01*
X174444725Y-154083750D01*
X174307243Y-154142468D01*
X174165716Y-154187587D01*
X174026702Y-154216422D01*
X174012597Y-154218106D01*
X173969153Y-154221434D01*
X173911723Y-154224275D01*
X173846122Y-154226373D01*
X173778167Y-154227468D01*
X173651378Y-154225140D01*
X173503673Y-154212136D01*
X173365779Y-154187133D01*
X173232014Y-154149318D01*
X173208562Y-154140889D01*
X173160612Y-154121408D01*
X173104140Y-154096473D01*
X173042379Y-154067722D01*
X172978563Y-154036790D01*
X172915926Y-154005315D01*
X172857703Y-153974934D01*
X172807127Y-153947283D01*
X172767433Y-153923999D01*
X172741854Y-153906718D01*
X172733625Y-153897079D01*
X172735076Y-153893984D01*
X172746250Y-153874079D01*
X172767134Y-153838420D01*
X172796265Y-153789459D01*
X172832181Y-153729646D01*
X172873420Y-153661433D01*
X172918517Y-153587271D01*
X173099785Y-153290008D01*
X173146315Y-153334539D01*
X173237723Y-153412865D01*
X173351334Y-153487439D01*
X173469122Y-153541474D01*
X173589559Y-153574290D01*
X173711117Y-153585211D01*
X173752585Y-153583868D01*
X173870080Y-153565612D01*
X173980089Y-153526617D01*
X174081430Y-153467670D01*
X174172921Y-153389557D01*
X174253380Y-153293064D01*
X174321627Y-153178978D01*
X174337908Y-153144724D01*
X174383982Y-153021240D01*
X174419106Y-152882918D01*
X174443197Y-152733561D01*
X174456173Y-152576973D01*
X174457949Y-152416956D01*
X174448443Y-152257314D01*
X174427572Y-152101850D01*
X174395252Y-151954366D01*
X174351399Y-151818667D01*
X174313982Y-151732076D01*
X174249185Y-151618688D01*
X174173772Y-151525070D01*
X174087418Y-151450959D01*
X173989795Y-151396094D01*
X173880577Y-151360212D01*
X173759439Y-151343051D01*
X173690038Y-151341880D01*
X173567168Y-151356141D01*
X173451664Y-151391241D01*
X173344953Y-151446682D01*
X173248464Y-151521964D01*
X173232720Y-151536440D01*
X173202150Y-151562962D01*
X173179809Y-151580138D01*
X173169691Y-151584787D01*
X173167706Y-151582597D01*
X173153241Y-151563721D01*
X173129400Y-151530397D01*
X173098029Y-151485380D01*
X173060974Y-151431425D01*
X173020083Y-151371285D01*
X172977202Y-151307718D01*
X172934178Y-151243476D01*
X172892857Y-151181315D01*
X172855086Y-151123991D01*
X172822712Y-151074257D01*
X172797582Y-151034868D01*
X172781542Y-151008580D01*
X172776439Y-150998147D01*
X172781050Y-150993941D01*
X172800267Y-150988933D01*
X172809838Y-150986386D01*
X172837809Y-150975249D01*
X172879448Y-150956802D01*
X172930995Y-150932725D01*
X172988690Y-150904699D01*
X172999957Y-150899154D01*
X173177687Y-150819889D01*
X173347490Y-150760385D01*
X173511430Y-150720245D01*
X173671571Y-150699071D01*
X173829977Y-150696466D01*
X173988711Y-150712033D01*
G37*
X170185994Y-152992711D02*
X170185268Y-153070158D01*
X170176689Y-153221594D01*
X170157833Y-153358283D01*
X170127837Y-153484276D01*
X170085836Y-153603625D01*
X170030969Y-153720381D01*
X169964167Y-153831179D01*
X169873363Y-153944739D01*
X169769708Y-154040211D01*
X169653887Y-154117073D01*
X169526586Y-154174797D01*
X169388489Y-154212858D01*
X169350793Y-154218666D01*
X169271752Y-154224396D01*
X169183629Y-154224583D01*
X169094236Y-154219539D01*
X169011384Y-154209578D01*
X168942887Y-154195012D01*
X168912035Y-154185364D01*
X168834730Y-154155123D01*
X168757679Y-154117617D01*
X168688200Y-154076614D01*
X168633615Y-154035879D01*
X168610916Y-154016505D01*
X168588201Y-153998662D01*
X168576779Y-153991778D01*
X168575537Y-153993424D01*
X168572728Y-154011205D01*
X168570776Y-154044370D01*
X168570045Y-154087733D01*
X168570045Y-154183689D01*
X167711896Y-154183689D01*
X167746161Y-154122974D01*
X167751355Y-154113868D01*
X167759715Y-154099249D01*
X167767288Y-154085173D01*
X167774112Y-154070540D01*
X167780227Y-154054249D01*
X167785673Y-154035198D01*
X167790487Y-154012286D01*
X167794708Y-153984413D01*
X167798377Y-153950478D01*
X167801531Y-153909379D01*
X167804211Y-153860015D01*
X167806454Y-153801286D01*
X167808299Y-153732090D01*
X167809787Y-153651326D01*
X167810955Y-153557894D01*
X167811844Y-153450692D01*
X167812491Y-153328620D01*
X167812936Y-153190576D01*
X167813218Y-153035459D01*
X167813375Y-152862168D01*
X167813448Y-152669603D01*
X167813474Y-152456662D01*
X167813485Y-152320530D01*
X168615200Y-152320530D01*
X168615200Y-153470721D01*
X168685756Y-153517089D01*
X168726417Y-153540791D01*
X168780546Y-153566639D01*
X168829689Y-153584829D01*
X168893165Y-153600551D01*
X168989331Y-153611541D01*
X169073900Y-153603365D01*
X169147219Y-153575805D01*
X169209637Y-153528642D01*
X169261502Y-153461658D01*
X169303160Y-153374633D01*
X169334962Y-153267350D01*
X169337545Y-153255009D01*
X169346000Y-153193772D01*
X169351663Y-153116692D01*
X169354576Y-153029002D01*
X169354783Y-152935934D01*
X169352330Y-152842720D01*
X169347261Y-152754594D01*
X169339619Y-152676788D01*
X169329448Y-152614533D01*
X169328167Y-152608666D01*
X169299126Y-152498121D01*
X169264610Y-152407575D01*
X169223456Y-152334953D01*
X169174499Y-152278181D01*
X169116574Y-152235184D01*
X169084620Y-152219615D01*
X169011784Y-152200722D01*
X168930443Y-152197465D01*
X168845319Y-152209389D01*
X168761133Y-152236040D01*
X168682608Y-152276962D01*
X168615200Y-152320530D01*
X167813485Y-152320530D01*
X167813493Y-152222245D01*
X167813689Y-150537378D01*
X168719017Y-150537378D01*
X168694585Y-150574067D01*
X168688318Y-150583647D01*
X168662208Y-150629981D01*
X168644469Y-150677102D01*
X168632908Y-150732251D01*
X168625331Y-150802667D01*
X168624839Y-150809650D01*
X168623062Y-150847641D01*
X168621444Y-150901576D01*
X168619999Y-150968703D01*
X168618740Y-151046271D01*
X168617680Y-151131528D01*
X168616829Y-151221724D01*
X168616203Y-151314107D01*
X168615812Y-151405925D01*
X168615670Y-151494427D01*
X168615790Y-151576862D01*
X168616183Y-151650479D01*
X168616862Y-151712526D01*
X168617841Y-151760251D01*
X168619132Y-151790904D01*
X168620747Y-151801733D01*
X168628957Y-151797333D01*
X168650647Y-151782362D01*
X168680014Y-151760448D01*
X168728879Y-151726236D01*
X168817125Y-151679714D01*
X168915916Y-151646046D01*
X169028510Y-151624231D01*
X169158164Y-151613265D01*
X169250670Y-151612219D01*
X169372011Y-151622014D01*
X169482099Y-151646174D01*
X169585389Y-151685785D01*
X169686338Y-151741932D01*
X169731503Y-151772883D01*
X169836911Y-151864115D01*
X169928538Y-151973106D01*
X170006332Y-152099726D01*
X170070241Y-152243845D01*
X170120214Y-152405332D01*
X170156198Y-152584059D01*
X170178143Y-152779895D01*
X170183900Y-152935934D01*
X170185994Y-152992711D01*
G36*
X170185994Y-152992711D02*
G01*
X170185268Y-153070158D01*
X170176689Y-153221594D01*
X170157833Y-153358283D01*
X170127837Y-153484276D01*
X170085836Y-153603625D01*
X170030969Y-153720381D01*
X169964167Y-153831179D01*
X169873363Y-153944739D01*
X169769708Y-154040211D01*
X169653887Y-154117073D01*
X169526586Y-154174797D01*
X169388489Y-154212858D01*
X169350793Y-154218666D01*
X169271752Y-154224396D01*
X169183629Y-154224583D01*
X169094236Y-154219539D01*
X169011384Y-154209578D01*
X168942887Y-154195012D01*
X168912035Y-154185364D01*
X168834730Y-154155123D01*
X168757679Y-154117617D01*
X168688200Y-154076614D01*
X168633615Y-154035879D01*
X168610916Y-154016505D01*
X168588201Y-153998662D01*
X168576779Y-153991778D01*
X168575537Y-153993424D01*
X168572728Y-154011205D01*
X168570776Y-154044370D01*
X168570045Y-154087733D01*
X168570045Y-154183689D01*
X167711896Y-154183689D01*
X167746161Y-154122974D01*
X167751355Y-154113868D01*
X167759715Y-154099249D01*
X167767288Y-154085173D01*
X167774112Y-154070540D01*
X167780227Y-154054249D01*
X167785673Y-154035198D01*
X167790487Y-154012286D01*
X167794708Y-153984413D01*
X167798377Y-153950478D01*
X167801531Y-153909379D01*
X167804211Y-153860015D01*
X167806454Y-153801286D01*
X167808299Y-153732090D01*
X167809787Y-153651326D01*
X167810955Y-153557894D01*
X167811844Y-153450692D01*
X167812491Y-153328620D01*
X167812936Y-153190576D01*
X167813218Y-153035459D01*
X167813375Y-152862168D01*
X167813448Y-152669603D01*
X167813474Y-152456662D01*
X167813485Y-152320530D01*
X168615200Y-152320530D01*
X168615200Y-153470721D01*
X168685756Y-153517089D01*
X168726417Y-153540791D01*
X168780546Y-153566639D01*
X168829689Y-153584829D01*
X168893165Y-153600551D01*
X168989331Y-153611541D01*
X169073900Y-153603365D01*
X169147219Y-153575805D01*
X169209637Y-153528642D01*
X169261502Y-153461658D01*
X169303160Y-153374633D01*
X169334962Y-153267350D01*
X169337545Y-153255009D01*
X169346000Y-153193772D01*
X169351663Y-153116692D01*
X169354576Y-153029002D01*
X169354783Y-152935934D01*
X169352330Y-152842720D01*
X169347261Y-152754594D01*
X169339619Y-152676788D01*
X169329448Y-152614533D01*
X169328167Y-152608666D01*
X169299126Y-152498121D01*
X169264610Y-152407575D01*
X169223456Y-152334953D01*
X169174499Y-152278181D01*
X169116574Y-152235184D01*
X169084620Y-152219615D01*
X169011784Y-152200722D01*
X168930443Y-152197465D01*
X168845319Y-152209389D01*
X168761133Y-152236040D01*
X168682608Y-152276962D01*
X168615200Y-152320530D01*
X167813485Y-152320530D01*
X167813493Y-152222245D01*
X167813689Y-150537378D01*
X168719017Y-150537378D01*
X168694585Y-150574067D01*
X168688318Y-150583647D01*
X168662208Y-150629981D01*
X168644469Y-150677102D01*
X168632908Y-150732251D01*
X168625331Y-150802667D01*
X168624839Y-150809650D01*
X168623062Y-150847641D01*
X168621444Y-150901576D01*
X168619999Y-150968703D01*
X168618740Y-151046271D01*
X168617680Y-151131528D01*
X168616829Y-151221724D01*
X168616203Y-151314107D01*
X168615812Y-151405925D01*
X168615670Y-151494427D01*
X168615790Y-151576862D01*
X168616183Y-151650479D01*
X168616862Y-151712526D01*
X168617841Y-151760251D01*
X168619132Y-151790904D01*
X168620747Y-151801733D01*
X168628957Y-151797333D01*
X168650647Y-151782362D01*
X168680014Y-151760448D01*
X168728879Y-151726236D01*
X168817125Y-151679714D01*
X168915916Y-151646046D01*
X169028510Y-151624231D01*
X169158164Y-151613265D01*
X169250670Y-151612219D01*
X169372011Y-151622014D01*
X169482099Y-151646174D01*
X169585389Y-151685785D01*
X169686338Y-151741932D01*
X169731503Y-151772883D01*
X169836911Y-151864115D01*
X169928538Y-151973106D01*
X170006332Y-152099726D01*
X170070241Y-152243845D01*
X170120214Y-152405332D01*
X170156198Y-152584059D01*
X170178143Y-152779895D01*
X170183900Y-152935934D01*
X170185994Y-152992711D01*
G37*
X172727755Y-153393467D02*
X172727261Y-153427363D01*
X172723632Y-153502202D01*
X172716022Y-153564401D01*
X172703688Y-153620984D01*
X172659313Y-153747076D01*
X172596400Y-153861679D01*
X172516238Y-153962568D01*
X172419740Y-154048924D01*
X172307822Y-154119932D01*
X172181397Y-154174776D01*
X172041378Y-154212638D01*
X172005149Y-154218351D01*
X171926155Y-154224313D01*
X171837841Y-154224646D01*
X171748075Y-154219659D01*
X171664722Y-154209666D01*
X171595651Y-154194978D01*
X171509187Y-154164749D01*
X171399286Y-154110057D01*
X171301956Y-154042543D01*
X171239867Y-153991556D01*
X171236605Y-154087622D01*
X171233343Y-154183689D01*
X170810450Y-154183689D01*
X170799543Y-154183686D01*
X170705056Y-154183380D01*
X170618331Y-154182616D01*
X170541837Y-154181451D01*
X170478043Y-154179942D01*
X170429418Y-154178147D01*
X170398433Y-154176121D01*
X170387556Y-154173922D01*
X170387578Y-154173463D01*
X170394614Y-154157910D01*
X170410434Y-154135071D01*
X170414734Y-154129638D01*
X170425777Y-154115606D01*
X170435311Y-154102186D01*
X170443461Y-154087722D01*
X170450352Y-154070556D01*
X170456111Y-154049034D01*
X170460862Y-154021498D01*
X170464731Y-153986292D01*
X170467844Y-153941760D01*
X170470325Y-153886246D01*
X170472300Y-153818093D01*
X170473894Y-153735645D01*
X170475234Y-153637246D01*
X170476444Y-153521239D01*
X170477649Y-153385968D01*
X170478595Y-153274586D01*
X171279378Y-153274586D01*
X171279378Y-153470462D01*
X171324048Y-153526973D01*
X171336785Y-153542212D01*
X171383604Y-153584844D01*
X171444255Y-153620672D01*
X171454897Y-153625850D01*
X171493676Y-153642745D01*
X171528692Y-153652909D01*
X171568722Y-153658325D01*
X171622541Y-153660978D01*
X171640648Y-153661383D01*
X171716011Y-153658540D01*
X171776743Y-153646620D01*
X171828452Y-153624037D01*
X171876746Y-153589211D01*
X171881803Y-153584798D01*
X171930272Y-153529160D01*
X171958459Y-153465333D01*
X171967752Y-153390282D01*
X171960520Y-153318693D01*
X171935796Y-153255645D01*
X171891249Y-153197758D01*
X171836319Y-153150808D01*
X171763894Y-153110961D01*
X171677340Y-153083263D01*
X171574670Y-153067096D01*
X171453894Y-153061842D01*
X171445007Y-153061857D01*
X171389660Y-153062655D01*
X171342736Y-153064488D01*
X171308953Y-153067111D01*
X171293028Y-153070274D01*
X171288943Y-153076741D01*
X171284572Y-153098875D01*
X171281604Y-153137988D01*
X171279914Y-153195939D01*
X171279378Y-153274586D01*
X170478595Y-153274586D01*
X170478975Y-153229778D01*
X170480228Y-153087012D01*
X170481651Y-152941942D01*
X170483176Y-152816027D01*
X170484933Y-152707436D01*
X170487051Y-152614334D01*
X170489660Y-152534891D01*
X170492890Y-152467273D01*
X170496869Y-152409649D01*
X170501728Y-152360185D01*
X170507597Y-152317050D01*
X170514604Y-152278410D01*
X170522880Y-152242434D01*
X170532554Y-152207289D01*
X170543756Y-152171142D01*
X170556616Y-152132161D01*
X170572090Y-152089091D01*
X170614994Y-151996871D01*
X170668735Y-151917099D01*
X170737576Y-151842965D01*
X170815185Y-151779405D01*
X170919761Y-151717725D01*
X171039244Y-151670202D01*
X171174508Y-151636567D01*
X171326426Y-151616552D01*
X171495872Y-151609889D01*
X171553890Y-151610287D01*
X171619398Y-151612335D01*
X171680693Y-151616704D01*
X171742097Y-151624035D01*
X171807932Y-151634969D01*
X171882520Y-151650147D01*
X171970184Y-151670209D01*
X172075245Y-151695797D01*
X172103806Y-151702820D01*
X172179054Y-151720776D01*
X172249388Y-151736820D01*
X172310567Y-151750028D01*
X172358354Y-151759474D01*
X172388511Y-151764231D01*
X172416783Y-151767910D01*
X172443060Y-151773187D01*
X172453059Y-151777942D01*
X172449952Y-151786781D01*
X172439194Y-151814072D01*
X172421864Y-151856906D01*
X172399126Y-151912425D01*
X172372147Y-151977772D01*
X172342090Y-152050089D01*
X172335493Y-152065879D01*
X172296907Y-152156484D01*
X172265768Y-152226217D01*
X172241917Y-152275405D01*
X172225198Y-152304374D01*
X172215454Y-152313452D01*
X172207766Y-152311405D01*
X172181415Y-152301760D01*
X172142982Y-152286190D01*
X172097822Y-152266815D01*
X172003293Y-152228814D01*
X171866480Y-152187780D01*
X171725289Y-152162612D01*
X171687314Y-152158611D01*
X171584059Y-152156447D01*
X171496952Y-152169622D01*
X171425129Y-152198756D01*
X171367731Y-152244466D01*
X171323896Y-152307372D01*
X171292762Y-152388092D01*
X171273470Y-152487245D01*
X171266050Y-152546224D01*
X171427936Y-152539445D01*
X171554495Y-152537813D01*
X171705951Y-152544194D01*
X171854396Y-152558777D01*
X171990578Y-152580882D01*
X172055245Y-152595821D01*
X172187490Y-152638741D01*
X172309762Y-152695340D01*
X172419685Y-152764017D01*
X172514883Y-152843170D01*
X172592980Y-152931196D01*
X172651599Y-153026493D01*
X172675595Y-153078864D01*
X172701232Y-153149590D01*
X172717478Y-153220812D01*
X172725822Y-153299712D01*
X172727690Y-153390282D01*
X172727755Y-153393467D01*
G36*
X172727755Y-153393467D02*
G01*
X172727261Y-153427363D01*
X172723632Y-153502202D01*
X172716022Y-153564401D01*
X172703688Y-153620984D01*
X172659313Y-153747076D01*
X172596400Y-153861679D01*
X172516238Y-153962568D01*
X172419740Y-154048924D01*
X172307822Y-154119932D01*
X172181397Y-154174776D01*
X172041378Y-154212638D01*
X172005149Y-154218351D01*
X171926155Y-154224313D01*
X171837841Y-154224646D01*
X171748075Y-154219659D01*
X171664722Y-154209666D01*
X171595651Y-154194978D01*
X171509187Y-154164749D01*
X171399286Y-154110057D01*
X171301956Y-154042543D01*
X171239867Y-153991556D01*
X171236605Y-154087622D01*
X171233343Y-154183689D01*
X170810450Y-154183689D01*
X170799543Y-154183686D01*
X170705056Y-154183380D01*
X170618331Y-154182616D01*
X170541837Y-154181451D01*
X170478043Y-154179942D01*
X170429418Y-154178147D01*
X170398433Y-154176121D01*
X170387556Y-154173922D01*
X170387578Y-154173463D01*
X170394614Y-154157910D01*
X170410434Y-154135071D01*
X170414734Y-154129638D01*
X170425777Y-154115606D01*
X170435311Y-154102186D01*
X170443461Y-154087722D01*
X170450352Y-154070556D01*
X170456111Y-154049034D01*
X170460862Y-154021498D01*
X170464731Y-153986292D01*
X170467844Y-153941760D01*
X170470325Y-153886246D01*
X170472300Y-153818093D01*
X170473894Y-153735645D01*
X170475234Y-153637246D01*
X170476444Y-153521239D01*
X170477649Y-153385968D01*
X170478595Y-153274586D01*
X171279378Y-153274586D01*
X171279378Y-153470462D01*
X171324048Y-153526973D01*
X171336785Y-153542212D01*
X171383604Y-153584844D01*
X171444255Y-153620672D01*
X171454897Y-153625850D01*
X171493676Y-153642745D01*
X171528692Y-153652909D01*
X171568722Y-153658325D01*
X171622541Y-153660978D01*
X171640648Y-153661383D01*
X171716011Y-153658540D01*
X171776743Y-153646620D01*
X171828452Y-153624037D01*
X171876746Y-153589211D01*
X171881803Y-153584798D01*
X171930272Y-153529160D01*
X171958459Y-153465333D01*
X171967752Y-153390282D01*
X171960520Y-153318693D01*
X171935796Y-153255645D01*
X171891249Y-153197758D01*
X171836319Y-153150808D01*
X171763894Y-153110961D01*
X171677340Y-153083263D01*
X171574670Y-153067096D01*
X171453894Y-153061842D01*
X171445007Y-153061857D01*
X171389660Y-153062655D01*
X171342736Y-153064488D01*
X171308953Y-153067111D01*
X171293028Y-153070274D01*
X171288943Y-153076741D01*
X171284572Y-153098875D01*
X171281604Y-153137988D01*
X171279914Y-153195939D01*
X171279378Y-153274586D01*
X170478595Y-153274586D01*
X170478975Y-153229778D01*
X170480228Y-153087012D01*
X170481651Y-152941942D01*
X170483176Y-152816027D01*
X170484933Y-152707436D01*
X170487051Y-152614334D01*
X170489660Y-152534891D01*
X170492890Y-152467273D01*
X170496869Y-152409649D01*
X170501728Y-152360185D01*
X170507597Y-152317050D01*
X170514604Y-152278410D01*
X170522880Y-152242434D01*
X170532554Y-152207289D01*
X170543756Y-152171142D01*
X170556616Y-152132161D01*
X170572090Y-152089091D01*
X170614994Y-151996871D01*
X170668735Y-151917099D01*
X170737576Y-151842965D01*
X170815185Y-151779405D01*
X170919761Y-151717725D01*
X171039244Y-151670202D01*
X171174508Y-151636567D01*
X171326426Y-151616552D01*
X171495872Y-151609889D01*
X171553890Y-151610287D01*
X171619398Y-151612335D01*
X171680693Y-151616704D01*
X171742097Y-151624035D01*
X171807932Y-151634969D01*
X171882520Y-151650147D01*
X171970184Y-151670209D01*
X172075245Y-151695797D01*
X172103806Y-151702820D01*
X172179054Y-151720776D01*
X172249388Y-151736820D01*
X172310567Y-151750028D01*
X172358354Y-151759474D01*
X172388511Y-151764231D01*
X172416783Y-151767910D01*
X172443060Y-151773187D01*
X172453059Y-151777942D01*
X172449952Y-151786781D01*
X172439194Y-151814072D01*
X172421864Y-151856906D01*
X172399126Y-151912425D01*
X172372147Y-151977772D01*
X172342090Y-152050089D01*
X172335493Y-152065879D01*
X172296907Y-152156484D01*
X172265768Y-152226217D01*
X172241917Y-152275405D01*
X172225198Y-152304374D01*
X172215454Y-152313452D01*
X172207766Y-152311405D01*
X172181415Y-152301760D01*
X172142982Y-152286190D01*
X172097822Y-152266815D01*
X172003293Y-152228814D01*
X171866480Y-152187780D01*
X171725289Y-152162612D01*
X171687314Y-152158611D01*
X171584059Y-152156447D01*
X171496952Y-152169622D01*
X171425129Y-152198756D01*
X171367731Y-152244466D01*
X171323896Y-152307372D01*
X171292762Y-152388092D01*
X171273470Y-152487245D01*
X171266050Y-152546224D01*
X171427936Y-152539445D01*
X171554495Y-152537813D01*
X171705951Y-152544194D01*
X171854396Y-152558777D01*
X171990578Y-152580882D01*
X172055245Y-152595821D01*
X172187490Y-152638741D01*
X172309762Y-152695340D01*
X172419685Y-152764017D01*
X172514883Y-152843170D01*
X172592980Y-152931196D01*
X172651599Y-153026493D01*
X172675595Y-153078864D01*
X172701232Y-153149590D01*
X172717478Y-153220812D01*
X172725822Y-153299712D01*
X172727690Y-153390282D01*
X172727755Y-153393467D01*
G37*
X180275614Y-150861792D02*
X180276059Y-150993011D01*
X180276362Y-151140216D01*
X180276548Y-151304349D01*
X180276642Y-151486352D01*
X180276671Y-151687165D01*
X180276661Y-151907732D01*
X180276636Y-152148992D01*
X180276622Y-152411889D01*
X180276622Y-152454040D01*
X180276646Y-152714668D01*
X180276685Y-152953796D01*
X180276708Y-153172360D01*
X180276687Y-153371295D01*
X180276593Y-153551535D01*
X180276395Y-153714015D01*
X180276063Y-153859670D01*
X180275569Y-153989434D01*
X180274883Y-154104243D01*
X180273976Y-154205030D01*
X180272817Y-154292730D01*
X180271378Y-154368279D01*
X180269629Y-154432611D01*
X180267540Y-154486661D01*
X180265083Y-154531363D01*
X180262227Y-154567652D01*
X180258943Y-154596463D01*
X180255202Y-154618731D01*
X180250974Y-154635390D01*
X180246229Y-154647375D01*
X180240939Y-154655621D01*
X180235073Y-154661062D01*
X180228602Y-154664634D01*
X180221497Y-154667270D01*
X180213728Y-154669906D01*
X180205266Y-154673477D01*
X180200908Y-154675145D01*
X180192395Y-154677111D01*
X180179694Y-154678911D01*
X180161885Y-154680555D01*
X180138049Y-154682047D01*
X180107266Y-154683397D01*
X180068617Y-154684611D01*
X180021182Y-154685697D01*
X179964043Y-154686661D01*
X179896279Y-154687511D01*
X179816971Y-154688253D01*
X179725199Y-154688897D01*
X179620044Y-154689447D01*
X179500587Y-154689913D01*
X179365908Y-154690300D01*
X179215088Y-154690616D01*
X179047206Y-154690869D01*
X178861345Y-154691066D01*
X178656583Y-154691213D01*
X178432002Y-154691318D01*
X178186682Y-154691389D01*
X177919704Y-154691432D01*
X177881321Y-154691437D01*
X177615922Y-154691480D01*
X177372050Y-154691525D01*
X177148783Y-154691548D01*
X176945196Y-154691524D01*
X176760367Y-154691430D01*
X176593373Y-154691243D01*
X176443290Y-154690939D01*
X176309196Y-154690494D01*
X176190166Y-154689885D01*
X176085279Y-154689089D01*
X175993610Y-154688080D01*
X175914237Y-154686837D01*
X175846237Y-154685335D01*
X175788686Y-154683551D01*
X175740662Y-154681461D01*
X175701240Y-154679042D01*
X175669499Y-154676270D01*
X175644514Y-154673121D01*
X175625364Y-154669572D01*
X175611123Y-154665598D01*
X175600871Y-154661178D01*
X175593682Y-154656286D01*
X175588635Y-154650900D01*
X175584805Y-154644996D01*
X175581271Y-154638549D01*
X175577108Y-154631537D01*
X175576025Y-154629687D01*
X175573813Y-154624180D01*
X175571786Y-154615868D01*
X175569938Y-154603809D01*
X175568261Y-154587063D01*
X175566745Y-154564687D01*
X175565383Y-154535740D01*
X175564167Y-154499280D01*
X175563089Y-154454367D01*
X175562140Y-154400057D01*
X175561312Y-154335410D01*
X175560597Y-154259484D01*
X175559987Y-154171338D01*
X175559942Y-154162493D01*
X175851378Y-154162493D01*
X175855260Y-154163765D01*
X175878520Y-154165791D01*
X175920874Y-154167626D01*
X175980132Y-154169227D01*
X176054107Y-154170549D01*
X176140610Y-154171548D01*
X176237452Y-154172180D01*
X176342445Y-154172400D01*
X177040651Y-154172400D01*
X178195090Y-154172400D01*
X178194456Y-154096200D01*
X178195574Y-154054160D01*
X178201304Y-154018334D01*
X178213890Y-153980772D01*
X178235568Y-153932577D01*
X178238789Y-153925897D01*
X178264188Y-153876359D01*
X178290996Y-153828369D01*
X178313917Y-153791466D01*
X178318485Y-153784834D01*
X178340516Y-153753593D01*
X178372693Y-153708654D01*
X178413457Y-153652147D01*
X178461245Y-153586204D01*
X178514498Y-153512957D01*
X178571655Y-153434536D01*
X178631155Y-153353072D01*
X178691437Y-153270698D01*
X178750940Y-153189544D01*
X178808105Y-153111742D01*
X178861370Y-153039423D01*
X178909174Y-152974718D01*
X178949957Y-152919759D01*
X178982158Y-152876676D01*
X179004216Y-152847602D01*
X179014571Y-152834667D01*
X179019044Y-152830351D01*
X179023236Y-152828312D01*
X179026643Y-152830926D01*
X179029325Y-152839986D01*
X179031341Y-152857285D01*
X179032748Y-152884614D01*
X179033605Y-152923765D01*
X179033970Y-152976533D01*
X179033903Y-153044707D01*
X179033460Y-153130082D01*
X179032702Y-153234449D01*
X179031685Y-153359600D01*
X179031308Y-153404300D01*
X179030169Y-153525395D01*
X179028972Y-153626688D01*
X179027636Y-153710262D01*
X179026077Y-153778204D01*
X179024215Y-153832599D01*
X179021966Y-153875532D01*
X179019248Y-153909089D01*
X179015979Y-153935355D01*
X179012078Y-153956416D01*
X179007461Y-153974357D01*
X178999192Y-154000770D01*
X178975583Y-154062772D01*
X178949685Y-154115573D01*
X178924535Y-154152645D01*
X178923339Y-154154075D01*
X178921168Y-154158424D01*
X178923328Y-154162026D01*
X178931644Y-154164951D01*
X178947940Y-154167269D01*
X178974041Y-154169051D01*
X179011771Y-154170367D01*
X179062956Y-154171286D01*
X179129420Y-154171878D01*
X179212987Y-154172215D01*
X179315483Y-154172365D01*
X179438732Y-154172400D01*
X179970296Y-154172400D01*
X179931523Y-154114783D01*
X179925432Y-154105893D01*
X179914976Y-154091069D01*
X179905579Y-154077422D01*
X179897183Y-154063765D01*
X179889733Y-154048911D01*
X179883173Y-154031670D01*
X179877446Y-154010855D01*
X179872495Y-153985280D01*
X179868266Y-153953755D01*
X179864701Y-153915093D01*
X179861744Y-153868107D01*
X179859340Y-153811608D01*
X179857431Y-153744409D01*
X179855962Y-153665322D01*
X179854876Y-153573160D01*
X179854118Y-153466734D01*
X179853630Y-153344857D01*
X179853358Y-153206341D01*
X179853243Y-153049999D01*
X179853231Y-152874642D01*
X179853265Y-152679082D01*
X179853289Y-152462133D01*
X179853280Y-152339513D01*
X179853243Y-152134447D01*
X179853227Y-151950116D01*
X179853288Y-151785334D01*
X179853484Y-151638916D01*
X179853870Y-151509674D01*
X179854505Y-151396422D01*
X179855444Y-151297975D01*
X179856745Y-151213144D01*
X179858464Y-151140744D01*
X179860659Y-151079589D01*
X179863385Y-151028492D01*
X179866701Y-150986267D01*
X179870662Y-150951727D01*
X179875325Y-150923686D01*
X179880747Y-150900958D01*
X179886986Y-150882356D01*
X179894097Y-150866693D01*
X179902138Y-150852784D01*
X179911166Y-150839441D01*
X179921236Y-150825479D01*
X179932407Y-150809711D01*
X179972197Y-150751867D01*
X178912314Y-150751867D01*
X178950311Y-150814966D01*
X178964993Y-150840005D01*
X178979531Y-150867586D01*
X178991627Y-150895700D01*
X179001532Y-150926551D01*
X179009494Y-150962344D01*
X179015761Y-151005283D01*
X179020582Y-151057574D01*
X179024206Y-151121419D01*
X179026881Y-151199025D01*
X179028857Y-151292594D01*
X179030382Y-151404333D01*
X179031704Y-151536445D01*
X179032613Y-151656434D01*
X179033020Y-151773063D01*
X179032767Y-151868531D01*
X179031857Y-151942556D01*
X179030293Y-151994855D01*
X179028079Y-152025149D01*
X179025220Y-152033156D01*
X179022161Y-152029858D01*
X179004006Y-152008408D01*
X178974275Y-151971889D01*
X178934639Y-151922442D01*
X178886771Y-151862207D01*
X178832343Y-151793327D01*
X178773027Y-151717943D01*
X178710495Y-151638196D01*
X178646421Y-151556228D01*
X178582475Y-151474180D01*
X178520331Y-151394194D01*
X178461661Y-151318411D01*
X178408137Y-151248973D01*
X178361430Y-151188021D01*
X178323214Y-151137696D01*
X178295161Y-151100140D01*
X178278943Y-151077495D01*
X178233635Y-151005212D01*
X178193661Y-150925463D01*
X178172130Y-150857188D01*
X178168827Y-150799844D01*
X178174116Y-150751867D01*
X177042356Y-150752117D01*
X177081867Y-150782722D01*
X177091248Y-150790089D01*
X177154183Y-150844438D01*
X177222997Y-150912259D01*
X177299596Y-150995516D01*
X177385888Y-151096178D01*
X177403052Y-151116847D01*
X177443833Y-151166409D01*
X177493588Y-151227326D01*
X177550955Y-151297898D01*
X177614569Y-151376424D01*
X177683069Y-151461204D01*
X177755090Y-151550537D01*
X177829270Y-151642722D01*
X177844517Y-151661702D01*
X177904246Y-151736060D01*
X177978653Y-151828848D01*
X178051131Y-151919388D01*
X178120314Y-152005978D01*
X178184841Y-152086918D01*
X178243347Y-152160506D01*
X178294470Y-152225044D01*
X178336847Y-152278829D01*
X178369115Y-152320162D01*
X178389910Y-152347342D01*
X178397869Y-152358668D01*
X178396111Y-152362771D01*
X178383230Y-152383334D01*
X178358885Y-152419561D01*
X178324247Y-152469824D01*
X178280486Y-152532492D01*
X178228775Y-152605936D01*
X178170284Y-152688527D01*
X178106184Y-152778636D01*
X178037646Y-152874631D01*
X177965843Y-152974885D01*
X177891944Y-153077768D01*
X177817121Y-153181650D01*
X177742545Y-153284901D01*
X177669387Y-153385892D01*
X177598819Y-153482994D01*
X177532011Y-153574577D01*
X177470135Y-153659011D01*
X177414361Y-153734667D01*
X177365862Y-153799916D01*
X177325807Y-153853128D01*
X177295369Y-153892673D01*
X177274944Y-153918026D01*
X177228899Y-153972295D01*
X177178612Y-154028775D01*
X177131815Y-154078669D01*
X177040651Y-154172400D01*
X176342445Y-154172400D01*
X176411356Y-154172349D01*
X176509607Y-154172091D01*
X176599030Y-154171637D01*
X176677333Y-154171010D01*
X176742223Y-154170235D01*
X176791411Y-154169335D01*
X176822604Y-154168334D01*
X176833511Y-154167257D01*
X176832322Y-154164037D01*
X176822176Y-154146452D01*
X176805040Y-154120158D01*
X176796540Y-154107691D01*
X176787329Y-154093622D01*
X176779233Y-154079351D01*
X176772185Y-154063479D01*
X176766117Y-154044609D01*
X176760961Y-154021341D01*
X176756651Y-153992278D01*
X176753119Y-153956021D01*
X176750297Y-153911170D01*
X176748118Y-153856328D01*
X176746514Y-153790097D01*
X176745419Y-153711077D01*
X176744765Y-153617871D01*
X176744484Y-153509079D01*
X176744509Y-153383303D01*
X176744772Y-153239145D01*
X176745206Y-153075207D01*
X176745745Y-152890089D01*
X176746279Y-152711232D01*
X176746805Y-152552374D01*
X176747350Y-152413316D01*
X176747945Y-152292665D01*
X176748619Y-152189028D01*
X176749403Y-152101011D01*
X176750326Y-152027223D01*
X176751419Y-151966269D01*
X176752712Y-151916757D01*
X176754235Y-151877293D01*
X176756019Y-151846484D01*
X176758092Y-151822938D01*
X176760486Y-151805260D01*
X176763230Y-151792059D01*
X176766356Y-151781940D01*
X176769892Y-151773511D01*
X176773791Y-151765375D01*
X176793438Y-151728544D01*
X176812225Y-151698391D01*
X176813272Y-151696908D01*
X176827602Y-151674659D01*
X176833511Y-151661702D01*
X176832504Y-151661249D01*
X176815305Y-151659803D01*
X176778656Y-151658480D01*
X176724962Y-151657316D01*
X176656630Y-151656347D01*
X176576064Y-151655611D01*
X176485670Y-151655142D01*
X176387853Y-151654978D01*
X175942195Y-151654978D01*
X175939120Y-152831845D01*
X175936045Y-154008711D01*
X175909407Y-154067622D01*
X175897485Y-154092183D01*
X175880246Y-154122434D01*
X175867074Y-154139560D01*
X175859076Y-154147591D01*
X175851378Y-154162493D01*
X175559942Y-154162493D01*
X175559474Y-154070029D01*
X175559050Y-153954617D01*
X175558706Y-153824160D01*
X175558434Y-153677716D01*
X175558227Y-153514344D01*
X175558076Y-153333101D01*
X175557972Y-153133048D01*
X175557908Y-152913241D01*
X175557876Y-152672739D01*
X175557867Y-152410602D01*
X175557867Y-150219031D01*
X175596249Y-150180649D01*
X175623355Y-150156911D01*
X175650253Y-150145111D01*
X175686560Y-150142267D01*
X175738489Y-150142267D01*
X175738489Y-150230206D01*
X175740427Y-150280102D01*
X175759199Y-150390523D01*
X175796217Y-150491987D01*
X175849369Y-150583152D01*
X175916546Y-150662673D01*
X175995638Y-150729205D01*
X176084534Y-150781406D01*
X176181125Y-150817930D01*
X176283300Y-150837434D01*
X176388950Y-150838573D01*
X176495964Y-150820005D01*
X176602232Y-150780384D01*
X176699219Y-150722516D01*
X176784293Y-150647684D01*
X176853015Y-150559615D01*
X176903918Y-150460616D01*
X176935535Y-150352993D01*
X176946400Y-150239054D01*
X176946400Y-150142267D01*
X178566753Y-150142267D01*
X178777897Y-150142280D01*
X178982020Y-150142330D01*
X179165686Y-150142430D01*
X179329991Y-150142592D01*
X179476029Y-150142829D01*
X179604894Y-150143153D01*
X179717683Y-150143575D01*
X179815488Y-150144109D01*
X179899404Y-150144767D01*
X179970527Y-150145561D01*
X180029950Y-150146504D01*
X180078768Y-150147608D01*
X180118077Y-150148884D01*
X180148969Y-150150347D01*
X180172541Y-150152007D01*
X180189886Y-150153878D01*
X180202099Y-150155972D01*
X180210275Y-150158300D01*
X180215508Y-150160876D01*
X180221504Y-150164445D01*
X180228279Y-150167978D01*
X180234478Y-150171488D01*
X180240126Y-150175918D01*
X180245247Y-150182208D01*
X180249869Y-150191301D01*
X180254015Y-150204139D01*
X180257713Y-150221662D01*
X180260987Y-150244813D01*
X180263863Y-150274534D01*
X180266367Y-150311765D01*
X180268524Y-150357449D01*
X180270360Y-150412527D01*
X180271900Y-150477941D01*
X180273170Y-150554633D01*
X180274195Y-150643544D01*
X180275001Y-150745617D01*
X180275034Y-150751867D01*
X180275614Y-150861792D01*
G36*
X180275614Y-150861792D02*
G01*
X180276059Y-150993011D01*
X180276362Y-151140216D01*
X180276548Y-151304349D01*
X180276642Y-151486352D01*
X180276671Y-151687165D01*
X180276661Y-151907732D01*
X180276636Y-152148992D01*
X180276622Y-152411889D01*
X180276622Y-152454040D01*
X180276646Y-152714668D01*
X180276685Y-152953796D01*
X180276708Y-153172360D01*
X180276687Y-153371295D01*
X180276593Y-153551535D01*
X180276395Y-153714015D01*
X180276063Y-153859670D01*
X180275569Y-153989434D01*
X180274883Y-154104243D01*
X180273976Y-154205030D01*
X180272817Y-154292730D01*
X180271378Y-154368279D01*
X180269629Y-154432611D01*
X180267540Y-154486661D01*
X180265083Y-154531363D01*
X180262227Y-154567652D01*
X180258943Y-154596463D01*
X180255202Y-154618731D01*
X180250974Y-154635390D01*
X180246229Y-154647375D01*
X180240939Y-154655621D01*
X180235073Y-154661062D01*
X180228602Y-154664634D01*
X180221497Y-154667270D01*
X180213728Y-154669906D01*
X180205266Y-154673477D01*
X180200908Y-154675145D01*
X180192395Y-154677111D01*
X180179694Y-154678911D01*
X180161885Y-154680555D01*
X180138049Y-154682047D01*
X180107266Y-154683397D01*
X180068617Y-154684611D01*
X180021182Y-154685697D01*
X179964043Y-154686661D01*
X179896279Y-154687511D01*
X179816971Y-154688253D01*
X179725199Y-154688897D01*
X179620044Y-154689447D01*
X179500587Y-154689913D01*
X179365908Y-154690300D01*
X179215088Y-154690616D01*
X179047206Y-154690869D01*
X178861345Y-154691066D01*
X178656583Y-154691213D01*
X178432002Y-154691318D01*
X178186682Y-154691389D01*
X177919704Y-154691432D01*
X177881321Y-154691437D01*
X177615922Y-154691480D01*
X177372050Y-154691525D01*
X177148783Y-154691548D01*
X176945196Y-154691524D01*
X176760367Y-154691430D01*
X176593373Y-154691243D01*
X176443290Y-154690939D01*
X176309196Y-154690494D01*
X176190166Y-154689885D01*
X176085279Y-154689089D01*
X175993610Y-154688080D01*
X175914237Y-154686837D01*
X175846237Y-154685335D01*
X175788686Y-154683551D01*
X175740662Y-154681461D01*
X175701240Y-154679042D01*
X175669499Y-154676270D01*
X175644514Y-154673121D01*
X175625364Y-154669572D01*
X175611123Y-154665598D01*
X175600871Y-154661178D01*
X175593682Y-154656286D01*
X175588635Y-154650900D01*
X175584805Y-154644996D01*
X175581271Y-154638549D01*
X175577108Y-154631537D01*
X175576025Y-154629687D01*
X175573813Y-154624180D01*
X175571786Y-154615868D01*
X175569938Y-154603809D01*
X175568261Y-154587063D01*
X175566745Y-154564687D01*
X175565383Y-154535740D01*
X175564167Y-154499280D01*
X175563089Y-154454367D01*
X175562140Y-154400057D01*
X175561312Y-154335410D01*
X175560597Y-154259484D01*
X175559987Y-154171338D01*
X175559942Y-154162493D01*
X175851378Y-154162493D01*
X175855260Y-154163765D01*
X175878520Y-154165791D01*
X175920874Y-154167626D01*
X175980132Y-154169227D01*
X176054107Y-154170549D01*
X176140610Y-154171548D01*
X176237452Y-154172180D01*
X176342445Y-154172400D01*
X177040651Y-154172400D01*
X178195090Y-154172400D01*
X178194456Y-154096200D01*
X178195574Y-154054160D01*
X178201304Y-154018334D01*
X178213890Y-153980772D01*
X178235568Y-153932577D01*
X178238789Y-153925897D01*
X178264188Y-153876359D01*
X178290996Y-153828369D01*
X178313917Y-153791466D01*
X178318485Y-153784834D01*
X178340516Y-153753593D01*
X178372693Y-153708654D01*
X178413457Y-153652147D01*
X178461245Y-153586204D01*
X178514498Y-153512957D01*
X178571655Y-153434536D01*
X178631155Y-153353072D01*
X178691437Y-153270698D01*
X178750940Y-153189544D01*
X178808105Y-153111742D01*
X178861370Y-153039423D01*
X178909174Y-152974718D01*
X178949957Y-152919759D01*
X178982158Y-152876676D01*
X179004216Y-152847602D01*
X179014571Y-152834667D01*
X179019044Y-152830351D01*
X179023236Y-152828312D01*
X179026643Y-152830926D01*
X179029325Y-152839986D01*
X179031341Y-152857285D01*
X179032748Y-152884614D01*
X179033605Y-152923765D01*
X179033970Y-152976533D01*
X179033903Y-153044707D01*
X179033460Y-153130082D01*
X179032702Y-153234449D01*
X179031685Y-153359600D01*
X179031308Y-153404300D01*
X179030169Y-153525395D01*
X179028972Y-153626688D01*
X179027636Y-153710262D01*
X179026077Y-153778204D01*
X179024215Y-153832599D01*
X179021966Y-153875532D01*
X179019248Y-153909089D01*
X179015979Y-153935355D01*
X179012078Y-153956416D01*
X179007461Y-153974357D01*
X178999192Y-154000770D01*
X178975583Y-154062772D01*
X178949685Y-154115573D01*
X178924535Y-154152645D01*
X178923339Y-154154075D01*
X178921168Y-154158424D01*
X178923328Y-154162026D01*
X178931644Y-154164951D01*
X178947940Y-154167269D01*
X178974041Y-154169051D01*
X179011771Y-154170367D01*
X179062956Y-154171286D01*
X179129420Y-154171878D01*
X179212987Y-154172215D01*
X179315483Y-154172365D01*
X179438732Y-154172400D01*
X179970296Y-154172400D01*
X179931523Y-154114783D01*
X179925432Y-154105893D01*
X179914976Y-154091069D01*
X179905579Y-154077422D01*
X179897183Y-154063765D01*
X179889733Y-154048911D01*
X179883173Y-154031670D01*
X179877446Y-154010855D01*
X179872495Y-153985280D01*
X179868266Y-153953755D01*
X179864701Y-153915093D01*
X179861744Y-153868107D01*
X179859340Y-153811608D01*
X179857431Y-153744409D01*
X179855962Y-153665322D01*
X179854876Y-153573160D01*
X179854118Y-153466734D01*
X179853630Y-153344857D01*
X179853358Y-153206341D01*
X179853243Y-153049999D01*
X179853231Y-152874642D01*
X179853265Y-152679082D01*
X179853289Y-152462133D01*
X179853280Y-152339513D01*
X179853243Y-152134447D01*
X179853227Y-151950116D01*
X179853288Y-151785334D01*
X179853484Y-151638916D01*
X179853870Y-151509674D01*
X179854505Y-151396422D01*
X179855444Y-151297975D01*
X179856745Y-151213144D01*
X179858464Y-151140744D01*
X179860659Y-151079589D01*
X179863385Y-151028492D01*
X179866701Y-150986267D01*
X179870662Y-150951727D01*
X179875325Y-150923686D01*
X179880747Y-150900958D01*
X179886986Y-150882356D01*
X179894097Y-150866693D01*
X179902138Y-150852784D01*
X179911166Y-150839441D01*
X179921236Y-150825479D01*
X179932407Y-150809711D01*
X179972197Y-150751867D01*
X178912314Y-150751867D01*
X178950311Y-150814966D01*
X178964993Y-150840005D01*
X178979531Y-150867586D01*
X178991627Y-150895700D01*
X179001532Y-150926551D01*
X179009494Y-150962344D01*
X179015761Y-151005283D01*
X179020582Y-151057574D01*
X179024206Y-151121419D01*
X179026881Y-151199025D01*
X179028857Y-151292594D01*
X179030382Y-151404333D01*
X179031704Y-151536445D01*
X179032613Y-151656434D01*
X179033020Y-151773063D01*
X179032767Y-151868531D01*
X179031857Y-151942556D01*
X179030293Y-151994855D01*
X179028079Y-152025149D01*
X179025220Y-152033156D01*
X179022161Y-152029858D01*
X179004006Y-152008408D01*
X178974275Y-151971889D01*
X178934639Y-151922442D01*
X178886771Y-151862207D01*
X178832343Y-151793327D01*
X178773027Y-151717943D01*
X178710495Y-151638196D01*
X178646421Y-151556228D01*
X178582475Y-151474180D01*
X178520331Y-151394194D01*
X178461661Y-151318411D01*
X178408137Y-151248973D01*
X178361430Y-151188021D01*
X178323214Y-151137696D01*
X178295161Y-151100140D01*
X178278943Y-151077495D01*
X178233635Y-151005212D01*
X178193661Y-150925463D01*
X178172130Y-150857188D01*
X178168827Y-150799844D01*
X178174116Y-150751867D01*
X177042356Y-150752117D01*
X177081867Y-150782722D01*
X177091248Y-150790089D01*
X177154183Y-150844438D01*
X177222997Y-150912259D01*
X177299596Y-150995516D01*
X177385888Y-151096178D01*
X177403052Y-151116847D01*
X177443833Y-151166409D01*
X177493588Y-151227326D01*
X177550955Y-151297898D01*
X177614569Y-151376424D01*
X177683069Y-151461204D01*
X177755090Y-151550537D01*
X177829270Y-151642722D01*
X177844517Y-151661702D01*
X177904246Y-151736060D01*
X177978653Y-151828848D01*
X178051131Y-151919388D01*
X178120314Y-152005978D01*
X178184841Y-152086918D01*
X178243347Y-152160506D01*
X178294470Y-152225044D01*
X178336847Y-152278829D01*
X178369115Y-152320162D01*
X178389910Y-152347342D01*
X178397869Y-152358668D01*
X178396111Y-152362771D01*
X178383230Y-152383334D01*
X178358885Y-152419561D01*
X178324247Y-152469824D01*
X178280486Y-152532492D01*
X178228775Y-152605936D01*
X178170284Y-152688527D01*
X178106184Y-152778636D01*
X178037646Y-152874631D01*
X177965843Y-152974885D01*
X177891944Y-153077768D01*
X177817121Y-153181650D01*
X177742545Y-153284901D01*
X177669387Y-153385892D01*
X177598819Y-153482994D01*
X177532011Y-153574577D01*
X177470135Y-153659011D01*
X177414361Y-153734667D01*
X177365862Y-153799916D01*
X177325807Y-153853128D01*
X177295369Y-153892673D01*
X177274944Y-153918026D01*
X177228899Y-153972295D01*
X177178612Y-154028775D01*
X177131815Y-154078669D01*
X177040651Y-154172400D01*
X176342445Y-154172400D01*
X176411356Y-154172349D01*
X176509607Y-154172091D01*
X176599030Y-154171637D01*
X176677333Y-154171010D01*
X176742223Y-154170235D01*
X176791411Y-154169335D01*
X176822604Y-154168334D01*
X176833511Y-154167257D01*
X176832322Y-154164037D01*
X176822176Y-154146452D01*
X176805040Y-154120158D01*
X176796540Y-154107691D01*
X176787329Y-154093622D01*
X176779233Y-154079351D01*
X176772185Y-154063479D01*
X176766117Y-154044609D01*
X176760961Y-154021341D01*
X176756651Y-153992278D01*
X176753119Y-153956021D01*
X176750297Y-153911170D01*
X176748118Y-153856328D01*
X176746514Y-153790097D01*
X176745419Y-153711077D01*
X176744765Y-153617871D01*
X176744484Y-153509079D01*
X176744509Y-153383303D01*
X176744772Y-153239145D01*
X176745206Y-153075207D01*
X176745745Y-152890089D01*
X176746279Y-152711232D01*
X176746805Y-152552374D01*
X176747350Y-152413316D01*
X176747945Y-152292665D01*
X176748619Y-152189028D01*
X176749403Y-152101011D01*
X176750326Y-152027223D01*
X176751419Y-151966269D01*
X176752712Y-151916757D01*
X176754235Y-151877293D01*
X176756019Y-151846484D01*
X176758092Y-151822938D01*
X176760486Y-151805260D01*
X176763230Y-151792059D01*
X176766356Y-151781940D01*
X176769892Y-151773511D01*
X176773791Y-151765375D01*
X176793438Y-151728544D01*
X176812225Y-151698391D01*
X176813272Y-151696908D01*
X176827602Y-151674659D01*
X176833511Y-151661702D01*
X176832504Y-151661249D01*
X176815305Y-151659803D01*
X176778656Y-151658480D01*
X176724962Y-151657316D01*
X176656630Y-151656347D01*
X176576064Y-151655611D01*
X176485670Y-151655142D01*
X176387853Y-151654978D01*
X175942195Y-151654978D01*
X175939120Y-152831845D01*
X175936045Y-154008711D01*
X175909407Y-154067622D01*
X175897485Y-154092183D01*
X175880246Y-154122434D01*
X175867074Y-154139560D01*
X175859076Y-154147591D01*
X175851378Y-154162493D01*
X175559942Y-154162493D01*
X175559474Y-154070029D01*
X175559050Y-153954617D01*
X175558706Y-153824160D01*
X175558434Y-153677716D01*
X175558227Y-153514344D01*
X175558076Y-153333101D01*
X175557972Y-153133048D01*
X175557908Y-152913241D01*
X175557876Y-152672739D01*
X175557867Y-152410602D01*
X175557867Y-150219031D01*
X175596249Y-150180649D01*
X175623355Y-150156911D01*
X175650253Y-150145111D01*
X175686560Y-150142267D01*
X175738489Y-150142267D01*
X175738489Y-150230206D01*
X175740427Y-150280102D01*
X175759199Y-150390523D01*
X175796217Y-150491987D01*
X175849369Y-150583152D01*
X175916546Y-150662673D01*
X175995638Y-150729205D01*
X176084534Y-150781406D01*
X176181125Y-150817930D01*
X176283300Y-150837434D01*
X176388950Y-150838573D01*
X176495964Y-150820005D01*
X176602232Y-150780384D01*
X176699219Y-150722516D01*
X176784293Y-150647684D01*
X176853015Y-150559615D01*
X176903918Y-150460616D01*
X176935535Y-150352993D01*
X176946400Y-150239054D01*
X176946400Y-150142267D01*
X178566753Y-150142267D01*
X178777897Y-150142280D01*
X178982020Y-150142330D01*
X179165686Y-150142430D01*
X179329991Y-150142592D01*
X179476029Y-150142829D01*
X179604894Y-150143153D01*
X179717683Y-150143575D01*
X179815488Y-150144109D01*
X179899404Y-150144767D01*
X179970527Y-150145561D01*
X180029950Y-150146504D01*
X180078768Y-150147608D01*
X180118077Y-150148884D01*
X180148969Y-150150347D01*
X180172541Y-150152007D01*
X180189886Y-150153878D01*
X180202099Y-150155972D01*
X180210275Y-150158300D01*
X180215508Y-150160876D01*
X180221504Y-150164445D01*
X180228279Y-150167978D01*
X180234478Y-150171488D01*
X180240126Y-150175918D01*
X180245247Y-150182208D01*
X180249869Y-150191301D01*
X180254015Y-150204139D01*
X180257713Y-150221662D01*
X180260987Y-150244813D01*
X180263863Y-150274534D01*
X180266367Y-150311765D01*
X180268524Y-150357449D01*
X180270360Y-150412527D01*
X180271900Y-150477941D01*
X180273170Y-150554633D01*
X180274195Y-150643544D01*
X180275001Y-150745617D01*
X180275034Y-150751867D01*
X180275614Y-150861792D01*
G37*
D13*
%TO.C,M1*%
X64615000Y-142775000D02*
X64615000Y-145435000D01*
X64615000Y-145435000D02*
X72355000Y-145435000D01*
X65565000Y-136775000D02*
X66325000Y-136775000D01*
X65565000Y-142775000D02*
X65565000Y-136775000D01*
X65565000Y-145435000D02*
X65565000Y-145832071D01*
X66325000Y-136775000D02*
X66325000Y-142775000D01*
X66325000Y-145435000D02*
X66325000Y-145832071D01*
X67215000Y-142775000D02*
X67215000Y-145435000D01*
X68105000Y-136775000D02*
X68865000Y-136775000D01*
X68105000Y-142775000D02*
X68105000Y-136775000D01*
X68105000Y-145435000D02*
X68105000Y-145832071D01*
X68865000Y-136775000D02*
X68865000Y-142775000D01*
X68865000Y-145435000D02*
X68865000Y-145832071D01*
X69755000Y-142775000D02*
X69755000Y-145435000D01*
X70645000Y-136775000D02*
X71405000Y-136775000D01*
X70645000Y-142775000D02*
X70645000Y-136775000D01*
X70645000Y-145435000D02*
X70645000Y-145765000D01*
X70745000Y-136775000D02*
X70745000Y-142775000D01*
X70865000Y-136775000D02*
X70865000Y-142775000D01*
X70985000Y-136775000D02*
X70985000Y-142775000D01*
X71105000Y-136775000D02*
X71105000Y-142775000D01*
X71225000Y-136775000D02*
X71225000Y-142775000D01*
X71345000Y-136775000D02*
X71345000Y-142775000D01*
X71405000Y-136775000D02*
X71405000Y-142775000D01*
X71405000Y-145435000D02*
X71405000Y-145765000D01*
X72295000Y-146875000D02*
X72295000Y-148145000D01*
X72295000Y-148145000D02*
X71025000Y-148145000D01*
X72355000Y-142775000D02*
X64615000Y-142775000D01*
X72355000Y-145435000D02*
X72355000Y-142775000D01*
%TD*%
M02*
