%TF.GenerationSoftware,KiCad,Pcbnew,8.0.2*%
%TF.CreationDate,2024-07-17T11:39:07+05:30*%
%TF.ProjectId,smart lock,736d6172-7420-46c6-9f63-6b2e6b696361,v1*%
%TF.SameCoordinates,Original*%
%TF.FileFunction,Legend,Top*%
%TF.FilePolarity,Positive*%
%FSLAX46Y46*%
G04 Gerber Fmt 4.6, Leading zero omitted, Abs format (unit mm)*
G04 Created by KiCad (PCBNEW 8.0.2) date 2024-07-17 11:39:07*
%MOMM*%
%LPD*%
G01*
G04 APERTURE LIST*
%ADD10C,0.100000*%
%ADD11C,0.300000*%
%ADD12C,0.150000*%
%ADD13C,0.120000*%
%ADD14C,0.254000*%
%ADD15C,0.127000*%
G04 APERTURE END LIST*
D10*
X162000000Y-145500000D02*
X180750000Y-145500000D01*
X180750000Y-156750000D01*
X162000000Y-156750000D01*
X162000000Y-145500000D01*
D11*
X163107142Y-148799862D02*
X163107142Y-146799862D01*
X164249999Y-148799862D02*
X163392856Y-147657004D01*
X164249999Y-146799862D02*
X163107142Y-147942719D01*
X165011904Y-148228433D02*
X165964285Y-148228433D01*
X164821428Y-148799862D02*
X165488094Y-146799862D01*
X165488094Y-146799862D02*
X166154761Y-148799862D01*
X166535714Y-146799862D02*
X167202380Y-148799862D01*
X167202380Y-148799862D02*
X167869047Y-146799862D01*
X168535714Y-148799862D02*
X168535714Y-146799862D01*
X169392857Y-148704624D02*
X169678571Y-148799862D01*
X169678571Y-148799862D02*
X170154762Y-148799862D01*
X170154762Y-148799862D02*
X170345238Y-148704624D01*
X170345238Y-148704624D02*
X170440476Y-148609385D01*
X170440476Y-148609385D02*
X170535714Y-148418909D01*
X170535714Y-148418909D02*
X170535714Y-148228433D01*
X170535714Y-148228433D02*
X170440476Y-148037957D01*
X170440476Y-148037957D02*
X170345238Y-147942719D01*
X170345238Y-147942719D02*
X170154762Y-147847481D01*
X170154762Y-147847481D02*
X169773809Y-147752243D01*
X169773809Y-147752243D02*
X169583333Y-147657004D01*
X169583333Y-147657004D02*
X169488095Y-147561766D01*
X169488095Y-147561766D02*
X169392857Y-147371290D01*
X169392857Y-147371290D02*
X169392857Y-147180814D01*
X169392857Y-147180814D02*
X169488095Y-146990338D01*
X169488095Y-146990338D02*
X169583333Y-146895100D01*
X169583333Y-146895100D02*
X169773809Y-146799862D01*
X169773809Y-146799862D02*
X170250000Y-146799862D01*
X170250000Y-146799862D02*
X170535714Y-146895100D01*
X171392857Y-147752243D02*
X172059524Y-147752243D01*
X172345238Y-148799862D02*
X171392857Y-148799862D01*
X171392857Y-148799862D02*
X171392857Y-146799862D01*
X171392857Y-146799862D02*
X172345238Y-146799862D01*
X174154762Y-148799862D02*
X173202381Y-148799862D01*
X173202381Y-148799862D02*
X173202381Y-146799862D01*
X174535715Y-146799862D02*
X175202381Y-148799862D01*
X175202381Y-148799862D02*
X175869048Y-146799862D01*
X176440477Y-148228433D02*
X177392858Y-148228433D01*
X176250001Y-148799862D02*
X176916667Y-146799862D01*
X176916667Y-146799862D02*
X177583334Y-148799862D01*
X178250001Y-148799862D02*
X178250001Y-146799862D01*
X178250001Y-146799862D02*
X179392858Y-148799862D01*
X179392858Y-148799862D02*
X179392858Y-146799862D01*
X163869047Y-151924512D02*
X164154761Y-152019750D01*
X164154761Y-152019750D02*
X164630952Y-152019750D01*
X164630952Y-152019750D02*
X164821428Y-151924512D01*
X164821428Y-151924512D02*
X164916666Y-151829273D01*
X164916666Y-151829273D02*
X165011904Y-151638797D01*
X165011904Y-151638797D02*
X165011904Y-151448321D01*
X165011904Y-151448321D02*
X164916666Y-151257845D01*
X164916666Y-151257845D02*
X164821428Y-151162607D01*
X164821428Y-151162607D02*
X164630952Y-151067369D01*
X164630952Y-151067369D02*
X164249999Y-150972131D01*
X164249999Y-150972131D02*
X164059523Y-150876892D01*
X164059523Y-150876892D02*
X163964285Y-150781654D01*
X163964285Y-150781654D02*
X163869047Y-150591178D01*
X163869047Y-150591178D02*
X163869047Y-150400702D01*
X163869047Y-150400702D02*
X163964285Y-150210226D01*
X163964285Y-150210226D02*
X164059523Y-150114988D01*
X164059523Y-150114988D02*
X164249999Y-150019750D01*
X164249999Y-150019750D02*
X164726190Y-150019750D01*
X164726190Y-150019750D02*
X165011904Y-150114988D01*
X165869047Y-152019750D02*
X165869047Y-150686416D01*
X165869047Y-150876892D02*
X165964285Y-150781654D01*
X165964285Y-150781654D02*
X166154761Y-150686416D01*
X166154761Y-150686416D02*
X166440476Y-150686416D01*
X166440476Y-150686416D02*
X166630952Y-150781654D01*
X166630952Y-150781654D02*
X166726190Y-150972131D01*
X166726190Y-150972131D02*
X166726190Y-152019750D01*
X166726190Y-150972131D02*
X166821428Y-150781654D01*
X166821428Y-150781654D02*
X167011904Y-150686416D01*
X167011904Y-150686416D02*
X167297618Y-150686416D01*
X167297618Y-150686416D02*
X167488095Y-150781654D01*
X167488095Y-150781654D02*
X167583333Y-150972131D01*
X167583333Y-150972131D02*
X167583333Y-152019750D01*
X169392857Y-152019750D02*
X169392857Y-150972131D01*
X169392857Y-150972131D02*
X169297619Y-150781654D01*
X169297619Y-150781654D02*
X169107143Y-150686416D01*
X169107143Y-150686416D02*
X168726190Y-150686416D01*
X168726190Y-150686416D02*
X168535714Y-150781654D01*
X169392857Y-151924512D02*
X169202381Y-152019750D01*
X169202381Y-152019750D02*
X168726190Y-152019750D01*
X168726190Y-152019750D02*
X168535714Y-151924512D01*
X168535714Y-151924512D02*
X168440476Y-151734035D01*
X168440476Y-151734035D02*
X168440476Y-151543559D01*
X168440476Y-151543559D02*
X168535714Y-151353083D01*
X168535714Y-151353083D02*
X168726190Y-151257845D01*
X168726190Y-151257845D02*
X169202381Y-151257845D01*
X169202381Y-151257845D02*
X169392857Y-151162607D01*
X170345238Y-152019750D02*
X170345238Y-150686416D01*
X170345238Y-151067369D02*
X170440476Y-150876892D01*
X170440476Y-150876892D02*
X170535714Y-150781654D01*
X170535714Y-150781654D02*
X170726190Y-150686416D01*
X170726190Y-150686416D02*
X170916667Y-150686416D01*
X171297619Y-150686416D02*
X172059523Y-150686416D01*
X171583333Y-150019750D02*
X171583333Y-151734035D01*
X171583333Y-151734035D02*
X171678571Y-151924512D01*
X171678571Y-151924512D02*
X171869047Y-152019750D01*
X171869047Y-152019750D02*
X172059523Y-152019750D01*
X173678571Y-152019750D02*
X172726190Y-152019750D01*
X172726190Y-152019750D02*
X172726190Y-150019750D01*
X174630952Y-152019750D02*
X174440476Y-151924512D01*
X174440476Y-151924512D02*
X174345238Y-151829273D01*
X174345238Y-151829273D02*
X174250000Y-151638797D01*
X174250000Y-151638797D02*
X174250000Y-151067369D01*
X174250000Y-151067369D02*
X174345238Y-150876892D01*
X174345238Y-150876892D02*
X174440476Y-150781654D01*
X174440476Y-150781654D02*
X174630952Y-150686416D01*
X174630952Y-150686416D02*
X174916667Y-150686416D01*
X174916667Y-150686416D02*
X175107143Y-150781654D01*
X175107143Y-150781654D02*
X175202381Y-150876892D01*
X175202381Y-150876892D02*
X175297619Y-151067369D01*
X175297619Y-151067369D02*
X175297619Y-151638797D01*
X175297619Y-151638797D02*
X175202381Y-151829273D01*
X175202381Y-151829273D02*
X175107143Y-151924512D01*
X175107143Y-151924512D02*
X174916667Y-152019750D01*
X174916667Y-152019750D02*
X174630952Y-152019750D01*
X177011905Y-151924512D02*
X176821429Y-152019750D01*
X176821429Y-152019750D02*
X176440476Y-152019750D01*
X176440476Y-152019750D02*
X176250000Y-151924512D01*
X176250000Y-151924512D02*
X176154762Y-151829273D01*
X176154762Y-151829273D02*
X176059524Y-151638797D01*
X176059524Y-151638797D02*
X176059524Y-151067369D01*
X176059524Y-151067369D02*
X176154762Y-150876892D01*
X176154762Y-150876892D02*
X176250000Y-150781654D01*
X176250000Y-150781654D02*
X176440476Y-150686416D01*
X176440476Y-150686416D02*
X176821429Y-150686416D01*
X176821429Y-150686416D02*
X177011905Y-150781654D01*
X177869048Y-152019750D02*
X177869048Y-150019750D01*
X178059524Y-151257845D02*
X178630953Y-152019750D01*
X178630953Y-150686416D02*
X177869048Y-151448321D01*
X163345237Y-155239638D02*
X163345237Y-153906304D01*
X163345237Y-154096780D02*
X163440475Y-154001542D01*
X163440475Y-154001542D02*
X163630951Y-153906304D01*
X163630951Y-153906304D02*
X163916666Y-153906304D01*
X163916666Y-153906304D02*
X164107142Y-154001542D01*
X164107142Y-154001542D02*
X164202380Y-154192019D01*
X164202380Y-154192019D02*
X164202380Y-155239638D01*
X164202380Y-154192019D02*
X164297618Y-154001542D01*
X164297618Y-154001542D02*
X164488094Y-153906304D01*
X164488094Y-153906304D02*
X164773808Y-153906304D01*
X164773808Y-153906304D02*
X164964285Y-154001542D01*
X164964285Y-154001542D02*
X165059523Y-154192019D01*
X165059523Y-154192019D02*
X165059523Y-155239638D01*
X166011904Y-155239638D02*
X166011904Y-153906304D01*
X166011904Y-153239638D02*
X165916666Y-153334876D01*
X165916666Y-153334876D02*
X166011904Y-153430114D01*
X166011904Y-153430114D02*
X166107142Y-153334876D01*
X166107142Y-153334876D02*
X166011904Y-153239638D01*
X166011904Y-153239638D02*
X166011904Y-153430114D01*
X166964285Y-153906304D02*
X166964285Y-155239638D01*
X166964285Y-154096780D02*
X167059523Y-154001542D01*
X167059523Y-154001542D02*
X167249999Y-153906304D01*
X167249999Y-153906304D02*
X167535714Y-153906304D01*
X167535714Y-153906304D02*
X167726190Y-154001542D01*
X167726190Y-154001542D02*
X167821428Y-154192019D01*
X167821428Y-154192019D02*
X167821428Y-155239638D01*
X168773809Y-155239638D02*
X168773809Y-153906304D01*
X168773809Y-153239638D02*
X168678571Y-153334876D01*
X168678571Y-153334876D02*
X168773809Y-153430114D01*
X168773809Y-153430114D02*
X168869047Y-153334876D01*
X168869047Y-153334876D02*
X168773809Y-153239638D01*
X168773809Y-153239638D02*
X168773809Y-153430114D01*
X169726190Y-153906304D02*
X169726190Y-155906304D01*
X169726190Y-154001542D02*
X169916666Y-153906304D01*
X169916666Y-153906304D02*
X170297619Y-153906304D01*
X170297619Y-153906304D02*
X170488095Y-154001542D01*
X170488095Y-154001542D02*
X170583333Y-154096780D01*
X170583333Y-154096780D02*
X170678571Y-154287257D01*
X170678571Y-154287257D02*
X170678571Y-154858685D01*
X170678571Y-154858685D02*
X170583333Y-155049161D01*
X170583333Y-155049161D02*
X170488095Y-155144400D01*
X170488095Y-155144400D02*
X170297619Y-155239638D01*
X170297619Y-155239638D02*
X169916666Y-155239638D01*
X169916666Y-155239638D02*
X169726190Y-155144400D01*
X171535714Y-155239638D02*
X171535714Y-153906304D01*
X171535714Y-154287257D02*
X171630952Y-154096780D01*
X171630952Y-154096780D02*
X171726190Y-154001542D01*
X171726190Y-154001542D02*
X171916666Y-153906304D01*
X171916666Y-153906304D02*
X172107143Y-153906304D01*
X173059523Y-155239638D02*
X172869047Y-155144400D01*
X172869047Y-155144400D02*
X172773809Y-155049161D01*
X172773809Y-155049161D02*
X172678571Y-154858685D01*
X172678571Y-154858685D02*
X172678571Y-154287257D01*
X172678571Y-154287257D02*
X172773809Y-154096780D01*
X172773809Y-154096780D02*
X172869047Y-154001542D01*
X172869047Y-154001542D02*
X173059523Y-153906304D01*
X173059523Y-153906304D02*
X173345238Y-153906304D01*
X173345238Y-153906304D02*
X173535714Y-154001542D01*
X173535714Y-154001542D02*
X173630952Y-154096780D01*
X173630952Y-154096780D02*
X173726190Y-154287257D01*
X173726190Y-154287257D02*
X173726190Y-154858685D01*
X173726190Y-154858685D02*
X173630952Y-155049161D01*
X173630952Y-155049161D02*
X173535714Y-155144400D01*
X173535714Y-155144400D02*
X173345238Y-155239638D01*
X173345238Y-155239638D02*
X173059523Y-155239638D01*
X174583333Y-153906304D02*
X174583333Y-155620590D01*
X174583333Y-155620590D02*
X174488095Y-155811066D01*
X174488095Y-155811066D02*
X174297619Y-155906304D01*
X174297619Y-155906304D02*
X174202381Y-155906304D01*
X174583333Y-153239638D02*
X174488095Y-153334876D01*
X174488095Y-153334876D02*
X174583333Y-153430114D01*
X174583333Y-153430114D02*
X174678571Y-153334876D01*
X174678571Y-153334876D02*
X174583333Y-153239638D01*
X174583333Y-153239638D02*
X174583333Y-153430114D01*
X176297619Y-155144400D02*
X176107143Y-155239638D01*
X176107143Y-155239638D02*
X175726190Y-155239638D01*
X175726190Y-155239638D02*
X175535714Y-155144400D01*
X175535714Y-155144400D02*
X175440476Y-154953923D01*
X175440476Y-154953923D02*
X175440476Y-154192019D01*
X175440476Y-154192019D02*
X175535714Y-154001542D01*
X175535714Y-154001542D02*
X175726190Y-153906304D01*
X175726190Y-153906304D02*
X176107143Y-153906304D01*
X176107143Y-153906304D02*
X176297619Y-154001542D01*
X176297619Y-154001542D02*
X176392857Y-154192019D01*
X176392857Y-154192019D02*
X176392857Y-154382495D01*
X176392857Y-154382495D02*
X175440476Y-154572971D01*
X178107143Y-155144400D02*
X177916667Y-155239638D01*
X177916667Y-155239638D02*
X177535714Y-155239638D01*
X177535714Y-155239638D02*
X177345238Y-155144400D01*
X177345238Y-155144400D02*
X177250000Y-155049161D01*
X177250000Y-155049161D02*
X177154762Y-154858685D01*
X177154762Y-154858685D02*
X177154762Y-154287257D01*
X177154762Y-154287257D02*
X177250000Y-154096780D01*
X177250000Y-154096780D02*
X177345238Y-154001542D01*
X177345238Y-154001542D02*
X177535714Y-153906304D01*
X177535714Y-153906304D02*
X177916667Y-153906304D01*
X177916667Y-153906304D02*
X178107143Y-154001542D01*
X178678572Y-153906304D02*
X179440476Y-153906304D01*
X178964286Y-153239638D02*
X178964286Y-154953923D01*
X178964286Y-154953923D02*
X179059524Y-155144400D01*
X179059524Y-155144400D02*
X179250000Y-155239638D01*
X179250000Y-155239638D02*
X179440476Y-155239638D01*
D12*
X159756905Y-134244819D02*
X159756905Y-133244819D01*
X159756905Y-133244819D02*
X159995000Y-133244819D01*
X159995000Y-133244819D02*
X160137857Y-133292438D01*
X160137857Y-133292438D02*
X160233095Y-133387676D01*
X160233095Y-133387676D02*
X160280714Y-133482914D01*
X160280714Y-133482914D02*
X160328333Y-133673390D01*
X160328333Y-133673390D02*
X160328333Y-133816247D01*
X160328333Y-133816247D02*
X160280714Y-134006723D01*
X160280714Y-134006723D02*
X160233095Y-134101961D01*
X160233095Y-134101961D02*
X160137857Y-134197200D01*
X160137857Y-134197200D02*
X159995000Y-134244819D01*
X159995000Y-134244819D02*
X159756905Y-134244819D01*
X161280714Y-134244819D02*
X160709286Y-134244819D01*
X160995000Y-134244819D02*
X160995000Y-133244819D01*
X160995000Y-133244819D02*
X160899762Y-133387676D01*
X160899762Y-133387676D02*
X160804524Y-133482914D01*
X160804524Y-133482914D02*
X160709286Y-133530533D01*
X147551667Y-78219819D02*
X147551667Y-77219819D01*
X147551667Y-77219819D02*
X147885000Y-77934104D01*
X147885000Y-77934104D02*
X148218333Y-77219819D01*
X148218333Y-77219819D02*
X148218333Y-78219819D01*
X148885000Y-77219819D02*
X149075476Y-77219819D01*
X149075476Y-77219819D02*
X149170714Y-77267438D01*
X149170714Y-77267438D02*
X149265952Y-77362676D01*
X149265952Y-77362676D02*
X149313571Y-77553152D01*
X149313571Y-77553152D02*
X149313571Y-77886485D01*
X149313571Y-77886485D02*
X149265952Y-78076961D01*
X149265952Y-78076961D02*
X149170714Y-78172200D01*
X149170714Y-78172200D02*
X149075476Y-78219819D01*
X149075476Y-78219819D02*
X148885000Y-78219819D01*
X148885000Y-78219819D02*
X148789762Y-78172200D01*
X148789762Y-78172200D02*
X148694524Y-78076961D01*
X148694524Y-78076961D02*
X148646905Y-77886485D01*
X148646905Y-77886485D02*
X148646905Y-77553152D01*
X148646905Y-77553152D02*
X148694524Y-77362676D01*
X148694524Y-77362676D02*
X148789762Y-77267438D01*
X148789762Y-77267438D02*
X148885000Y-77219819D01*
X149742143Y-78219819D02*
X149742143Y-77219819D01*
X149742143Y-77219819D02*
X149980238Y-77219819D01*
X149980238Y-77219819D02*
X150123095Y-77267438D01*
X150123095Y-77267438D02*
X150218333Y-77362676D01*
X150218333Y-77362676D02*
X150265952Y-77457914D01*
X150265952Y-77457914D02*
X150313571Y-77648390D01*
X150313571Y-77648390D02*
X150313571Y-77791247D01*
X150313571Y-77791247D02*
X150265952Y-77981723D01*
X150265952Y-77981723D02*
X150218333Y-78076961D01*
X150218333Y-78076961D02*
X150123095Y-78172200D01*
X150123095Y-78172200D02*
X149980238Y-78219819D01*
X149980238Y-78219819D02*
X149742143Y-78219819D01*
X151265952Y-78219819D02*
X150694524Y-78219819D01*
X150980238Y-78219819D02*
X150980238Y-77219819D01*
X150980238Y-77219819D02*
X150885000Y-77362676D01*
X150885000Y-77362676D02*
X150789762Y-77457914D01*
X150789762Y-77457914D02*
X150694524Y-77505533D01*
X122650714Y-119733009D02*
X122984047Y-119733009D01*
X123126904Y-120256819D02*
X122650714Y-120256819D01*
X122650714Y-120256819D02*
X122650714Y-119256819D01*
X122650714Y-119256819D02*
X123126904Y-119256819D01*
X109903095Y-120256819D02*
X109903095Y-119256819D01*
X110474523Y-120256819D02*
X110045952Y-119685390D01*
X110474523Y-119256819D02*
X109903095Y-119828247D01*
X120467857Y-119733009D02*
X120134524Y-119733009D01*
X120134524Y-120256819D02*
X120134524Y-119256819D01*
X120134524Y-119256819D02*
X120610714Y-119256819D01*
X125143095Y-120256819D02*
X125143095Y-119256819D01*
X125143095Y-119256819D02*
X125381190Y-119256819D01*
X125381190Y-119256819D02*
X125524047Y-119304438D01*
X125524047Y-119304438D02*
X125619285Y-119399676D01*
X125619285Y-119399676D02*
X125666904Y-119494914D01*
X125666904Y-119494914D02*
X125714523Y-119685390D01*
X125714523Y-119685390D02*
X125714523Y-119828247D01*
X125714523Y-119828247D02*
X125666904Y-120018723D01*
X125666904Y-120018723D02*
X125619285Y-120113961D01*
X125619285Y-120113961D02*
X125524047Y-120209200D01*
X125524047Y-120209200D02*
X125381190Y-120256819D01*
X125381190Y-120256819D02*
X125143095Y-120256819D01*
X112847857Y-119256819D02*
X112847857Y-119971104D01*
X112847857Y-119971104D02*
X112800238Y-120113961D01*
X112800238Y-120113961D02*
X112705000Y-120209200D01*
X112705000Y-120209200D02*
X112562143Y-120256819D01*
X112562143Y-120256819D02*
X112466905Y-120256819D01*
X114959286Y-120256819D02*
X114959286Y-119256819D01*
X114959286Y-119733009D02*
X115530714Y-119733009D01*
X115530714Y-120256819D02*
X115530714Y-119256819D01*
X118046904Y-119304438D02*
X117951666Y-119256819D01*
X117951666Y-119256819D02*
X117808809Y-119256819D01*
X117808809Y-119256819D02*
X117665952Y-119304438D01*
X117665952Y-119304438D02*
X117570714Y-119399676D01*
X117570714Y-119399676D02*
X117523095Y-119494914D01*
X117523095Y-119494914D02*
X117475476Y-119685390D01*
X117475476Y-119685390D02*
X117475476Y-119828247D01*
X117475476Y-119828247D02*
X117523095Y-120018723D01*
X117523095Y-120018723D02*
X117570714Y-120113961D01*
X117570714Y-120113961D02*
X117665952Y-120209200D01*
X117665952Y-120209200D02*
X117808809Y-120256819D01*
X117808809Y-120256819D02*
X117904047Y-120256819D01*
X117904047Y-120256819D02*
X118046904Y-120209200D01*
X118046904Y-120209200D02*
X118094523Y-120161580D01*
X118094523Y-120161580D02*
X118094523Y-119828247D01*
X118094523Y-119828247D02*
X117904047Y-119828247D01*
X172150476Y-81294819D02*
X172483809Y-82294819D01*
X172483809Y-82294819D02*
X172817142Y-81294819D01*
X173721904Y-82294819D02*
X173388571Y-81818628D01*
X173150476Y-82294819D02*
X173150476Y-81294819D01*
X173150476Y-81294819D02*
X173531428Y-81294819D01*
X173531428Y-81294819D02*
X173626666Y-81342438D01*
X173626666Y-81342438D02*
X173674285Y-81390057D01*
X173674285Y-81390057D02*
X173721904Y-81485295D01*
X173721904Y-81485295D02*
X173721904Y-81628152D01*
X173721904Y-81628152D02*
X173674285Y-81723390D01*
X173674285Y-81723390D02*
X173626666Y-81771009D01*
X173626666Y-81771009D02*
X173531428Y-81818628D01*
X173531428Y-81818628D02*
X173150476Y-81818628D01*
X174674285Y-82294819D02*
X174102857Y-82294819D01*
X174388571Y-82294819D02*
X174388571Y-81294819D01*
X174388571Y-81294819D02*
X174293333Y-81437676D01*
X174293333Y-81437676D02*
X174198095Y-81532914D01*
X174198095Y-81532914D02*
X174102857Y-81580533D01*
X166256905Y-134244819D02*
X166256905Y-133244819D01*
X166256905Y-133244819D02*
X166495000Y-133244819D01*
X166495000Y-133244819D02*
X166637857Y-133292438D01*
X166637857Y-133292438D02*
X166733095Y-133387676D01*
X166733095Y-133387676D02*
X166780714Y-133482914D01*
X166780714Y-133482914D02*
X166828333Y-133673390D01*
X166828333Y-133673390D02*
X166828333Y-133816247D01*
X166828333Y-133816247D02*
X166780714Y-134006723D01*
X166780714Y-134006723D02*
X166733095Y-134101961D01*
X166733095Y-134101961D02*
X166637857Y-134197200D01*
X166637857Y-134197200D02*
X166495000Y-134244819D01*
X166495000Y-134244819D02*
X166256905Y-134244819D01*
X167209286Y-133340057D02*
X167256905Y-133292438D01*
X167256905Y-133292438D02*
X167352143Y-133244819D01*
X167352143Y-133244819D02*
X167590238Y-133244819D01*
X167590238Y-133244819D02*
X167685476Y-133292438D01*
X167685476Y-133292438D02*
X167733095Y-133340057D01*
X167733095Y-133340057D02*
X167780714Y-133435295D01*
X167780714Y-133435295D02*
X167780714Y-133530533D01*
X167780714Y-133530533D02*
X167733095Y-133673390D01*
X167733095Y-133673390D02*
X167161667Y-134244819D01*
X167161667Y-134244819D02*
X167780714Y-134244819D01*
X164213333Y-127334819D02*
X163880000Y-126858628D01*
X163641905Y-127334819D02*
X163641905Y-126334819D01*
X163641905Y-126334819D02*
X164022857Y-126334819D01*
X164022857Y-126334819D02*
X164118095Y-126382438D01*
X164118095Y-126382438D02*
X164165714Y-126430057D01*
X164165714Y-126430057D02*
X164213333Y-126525295D01*
X164213333Y-126525295D02*
X164213333Y-126668152D01*
X164213333Y-126668152D02*
X164165714Y-126763390D01*
X164165714Y-126763390D02*
X164118095Y-126811009D01*
X164118095Y-126811009D02*
X164022857Y-126858628D01*
X164022857Y-126858628D02*
X163641905Y-126858628D01*
X164546667Y-126334819D02*
X165165714Y-126334819D01*
X165165714Y-126334819D02*
X164832381Y-126715771D01*
X164832381Y-126715771D02*
X164975238Y-126715771D01*
X164975238Y-126715771D02*
X165070476Y-126763390D01*
X165070476Y-126763390D02*
X165118095Y-126811009D01*
X165118095Y-126811009D02*
X165165714Y-126906247D01*
X165165714Y-126906247D02*
X165165714Y-127144342D01*
X165165714Y-127144342D02*
X165118095Y-127239580D01*
X165118095Y-127239580D02*
X165070476Y-127287200D01*
X165070476Y-127287200D02*
X164975238Y-127334819D01*
X164975238Y-127334819D02*
X164689524Y-127334819D01*
X164689524Y-127334819D02*
X164594286Y-127287200D01*
X164594286Y-127287200D02*
X164546667Y-127239580D01*
X163833333Y-119834819D02*
X163500000Y-119358628D01*
X163261905Y-119834819D02*
X163261905Y-118834819D01*
X163261905Y-118834819D02*
X163642857Y-118834819D01*
X163642857Y-118834819D02*
X163738095Y-118882438D01*
X163738095Y-118882438D02*
X163785714Y-118930057D01*
X163785714Y-118930057D02*
X163833333Y-119025295D01*
X163833333Y-119025295D02*
X163833333Y-119168152D01*
X163833333Y-119168152D02*
X163785714Y-119263390D01*
X163785714Y-119263390D02*
X163738095Y-119311009D01*
X163738095Y-119311009D02*
X163642857Y-119358628D01*
X163642857Y-119358628D02*
X163261905Y-119358628D01*
X164214286Y-118930057D02*
X164261905Y-118882438D01*
X164261905Y-118882438D02*
X164357143Y-118834819D01*
X164357143Y-118834819D02*
X164595238Y-118834819D01*
X164595238Y-118834819D02*
X164690476Y-118882438D01*
X164690476Y-118882438D02*
X164738095Y-118930057D01*
X164738095Y-118930057D02*
X164785714Y-119025295D01*
X164785714Y-119025295D02*
X164785714Y-119120533D01*
X164785714Y-119120533D02*
X164738095Y-119263390D01*
X164738095Y-119263390D02*
X164166667Y-119834819D01*
X164166667Y-119834819D02*
X164785714Y-119834819D01*
X158333333Y-83584819D02*
X158000000Y-83108628D01*
X157761905Y-83584819D02*
X157761905Y-82584819D01*
X157761905Y-82584819D02*
X158142857Y-82584819D01*
X158142857Y-82584819D02*
X158238095Y-82632438D01*
X158238095Y-82632438D02*
X158285714Y-82680057D01*
X158285714Y-82680057D02*
X158333333Y-82775295D01*
X158333333Y-82775295D02*
X158333333Y-82918152D01*
X158333333Y-82918152D02*
X158285714Y-83013390D01*
X158285714Y-83013390D02*
X158238095Y-83061009D01*
X158238095Y-83061009D02*
X158142857Y-83108628D01*
X158142857Y-83108628D02*
X157761905Y-83108628D01*
X159285714Y-83584819D02*
X158714286Y-83584819D01*
X159000000Y-83584819D02*
X159000000Y-82584819D01*
X159000000Y-82584819D02*
X158904762Y-82727676D01*
X158904762Y-82727676D02*
X158809524Y-82822914D01*
X158809524Y-82822914D02*
X158714286Y-82870533D01*
X70930307Y-90077792D02*
X70453213Y-90077792D01*
X70453213Y-90077792D02*
X70453213Y-89075894D01*
X71216563Y-90030083D02*
X71359692Y-90077792D01*
X71359692Y-90077792D02*
X71598239Y-90077792D01*
X71598239Y-90077792D02*
X71693658Y-90030083D01*
X71693658Y-90030083D02*
X71741367Y-89982373D01*
X71741367Y-89982373D02*
X71789076Y-89886954D01*
X71789076Y-89886954D02*
X71789076Y-89791535D01*
X71789076Y-89791535D02*
X71741367Y-89696117D01*
X71741367Y-89696117D02*
X71693658Y-89648407D01*
X71693658Y-89648407D02*
X71598239Y-89600698D01*
X71598239Y-89600698D02*
X71407401Y-89552988D01*
X71407401Y-89552988D02*
X71311982Y-89505279D01*
X71311982Y-89505279D02*
X71264273Y-89457569D01*
X71264273Y-89457569D02*
X71216563Y-89362151D01*
X71216563Y-89362151D02*
X71216563Y-89266732D01*
X71216563Y-89266732D02*
X71264273Y-89171313D01*
X71264273Y-89171313D02*
X71311982Y-89123603D01*
X71311982Y-89123603D02*
X71407401Y-89075894D01*
X71407401Y-89075894D02*
X71645948Y-89075894D01*
X71645948Y-89075894D02*
X71789076Y-89123603D01*
X72743265Y-90077792D02*
X72170752Y-90077792D01*
X72457009Y-90077792D02*
X72457009Y-89075894D01*
X72457009Y-89075894D02*
X72361590Y-89219022D01*
X72361590Y-89219022D02*
X72266171Y-89314441D01*
X72266171Y-89314441D02*
X72170752Y-89362151D01*
X82324819Y-135166666D02*
X81848628Y-135499999D01*
X82324819Y-135738094D02*
X81324819Y-135738094D01*
X81324819Y-135738094D02*
X81324819Y-135357142D01*
X81324819Y-135357142D02*
X81372438Y-135261904D01*
X81372438Y-135261904D02*
X81420057Y-135214285D01*
X81420057Y-135214285D02*
X81515295Y-135166666D01*
X81515295Y-135166666D02*
X81658152Y-135166666D01*
X81658152Y-135166666D02*
X81753390Y-135214285D01*
X81753390Y-135214285D02*
X81801009Y-135261904D01*
X81801009Y-135261904D02*
X81848628Y-135357142D01*
X81848628Y-135357142D02*
X81848628Y-135738094D01*
X81658152Y-134309523D02*
X82324819Y-134309523D01*
X81277200Y-134547618D02*
X81991485Y-134785713D01*
X81991485Y-134785713D02*
X81991485Y-134166666D01*
X163238095Y-96904819D02*
X163238095Y-97714342D01*
X163238095Y-97714342D02*
X163285714Y-97809580D01*
X163285714Y-97809580D02*
X163333333Y-97857200D01*
X163333333Y-97857200D02*
X163428571Y-97904819D01*
X163428571Y-97904819D02*
X163619047Y-97904819D01*
X163619047Y-97904819D02*
X163714285Y-97857200D01*
X163714285Y-97857200D02*
X163761904Y-97809580D01*
X163761904Y-97809580D02*
X163809523Y-97714342D01*
X163809523Y-97714342D02*
X163809523Y-96904819D01*
X164809523Y-97904819D02*
X164238095Y-97904819D01*
X164523809Y-97904819D02*
X164523809Y-96904819D01*
X164523809Y-96904819D02*
X164428571Y-97047676D01*
X164428571Y-97047676D02*
X164333333Y-97142914D01*
X164333333Y-97142914D02*
X164238095Y-97190533D01*
X58445714Y-31199819D02*
X58445714Y-30199819D01*
X58445714Y-30199819D02*
X58683809Y-30199819D01*
X58683809Y-30199819D02*
X58826666Y-30247438D01*
X58826666Y-30247438D02*
X58921904Y-30342676D01*
X58921904Y-30342676D02*
X58969523Y-30437914D01*
X58969523Y-30437914D02*
X59017142Y-30628390D01*
X59017142Y-30628390D02*
X59017142Y-30771247D01*
X59017142Y-30771247D02*
X58969523Y-30961723D01*
X58969523Y-30961723D02*
X58921904Y-31056961D01*
X58921904Y-31056961D02*
X58826666Y-31152200D01*
X58826666Y-31152200D02*
X58683809Y-31199819D01*
X58683809Y-31199819D02*
X58445714Y-31199819D01*
X59398095Y-31152200D02*
X59540952Y-31199819D01*
X59540952Y-31199819D02*
X59779047Y-31199819D01*
X59779047Y-31199819D02*
X59874285Y-31152200D01*
X59874285Y-31152200D02*
X59921904Y-31104580D01*
X59921904Y-31104580D02*
X59969523Y-31009342D01*
X59969523Y-31009342D02*
X59969523Y-30914104D01*
X59969523Y-30914104D02*
X59921904Y-30818866D01*
X59921904Y-30818866D02*
X59874285Y-30771247D01*
X59874285Y-30771247D02*
X59779047Y-30723628D01*
X59779047Y-30723628D02*
X59588571Y-30676009D01*
X59588571Y-30676009D02*
X59493333Y-30628390D01*
X59493333Y-30628390D02*
X59445714Y-30580771D01*
X59445714Y-30580771D02*
X59398095Y-30485533D01*
X59398095Y-30485533D02*
X59398095Y-30390295D01*
X59398095Y-30390295D02*
X59445714Y-30295057D01*
X59445714Y-30295057D02*
X59493333Y-30247438D01*
X59493333Y-30247438D02*
X59588571Y-30199819D01*
X59588571Y-30199819D02*
X59826666Y-30199819D01*
X59826666Y-30199819D02*
X59969523Y-30247438D01*
X60921904Y-31199819D02*
X60350476Y-31199819D01*
X60636190Y-31199819D02*
X60636190Y-30199819D01*
X60636190Y-30199819D02*
X60540952Y-30342676D01*
X60540952Y-30342676D02*
X60445714Y-30437914D01*
X60445714Y-30437914D02*
X60350476Y-30485533D01*
D13*
%TO.C,D1*%
X158435000Y-135851000D02*
X158435000Y-136170000D01*
X158435000Y-138330000D02*
X158435000Y-138649000D01*
X158435000Y-135851251D02*
G75*
G02*
X162738242Y-136169276I2060000J-1398749D01*
G01*
X158811670Y-136170000D02*
G75*
G02*
X162177713Y-136169039I1683330J-1080000D01*
G01*
X162177713Y-138330961D02*
G75*
G02*
X158811670Y-138330000I-1682713J1080961D01*
G01*
X162738242Y-138330724D02*
G75*
G02*
X158435000Y-138648749I-2243242J1080724D01*
G01*
D14*
%TO.C,MOD1*%
X89060000Y-150790000D02*
X89060000Y-82210000D01*
X91600000Y-146980000D02*
X91600000Y-86020000D01*
X92870000Y-78400000D02*
X141130000Y-78400000D01*
X95410000Y-82210000D02*
X138590000Y-82210000D01*
X138590000Y-150790000D02*
X95410000Y-150790000D01*
X141130000Y-154600000D02*
X92870000Y-154600000D01*
X142400000Y-86020000D02*
X142400000Y-146980000D01*
X144940000Y-82210000D02*
X144940000Y-150790000D01*
X89060000Y-82210000D02*
G75*
G02*
X92870000Y-78400000I3809999J1D01*
G01*
X91600000Y-86020000D02*
G75*
G02*
X95410000Y-82210000I3809999J1D01*
G01*
X92870000Y-154600000D02*
G75*
G02*
X89060000Y-150790000I-1J3809999D01*
G01*
X95410000Y-150790000D02*
G75*
G02*
X91600000Y-146980000I-1J3809999D01*
G01*
X138590000Y-82210000D02*
G75*
G02*
X142400000Y-86020000I0J-3810000D01*
G01*
X141130000Y-78400000D02*
G75*
G02*
X144940000Y-82210000I0J-3810000D01*
G01*
X142400000Y-146980000D02*
G75*
G02*
X138590000Y-150790000I-3810000J0D01*
G01*
X144940000Y-150790000D02*
G75*
G02*
X141130000Y-154600000I-3810000J0D01*
G01*
D13*
%TO.C,VR1*%
X168575000Y-82970000D02*
X168575000Y-88040000D01*
X168575000Y-82970000D02*
X178345000Y-82970000D01*
X168575000Y-88040000D02*
X178345000Y-88040000D01*
X178345000Y-82970000D02*
X178345000Y-88040000D01*
%TO.C,D2*%
X164935000Y-135851000D02*
X164935000Y-136170000D01*
X164935000Y-138330000D02*
X164935000Y-138649000D01*
X164935000Y-135851251D02*
G75*
G02*
X169238242Y-136169276I2060000J-1398749D01*
G01*
X165311670Y-136170000D02*
G75*
G02*
X168677713Y-136169039I1683330J-1080000D01*
G01*
X168677713Y-138330961D02*
G75*
G02*
X165311670Y-138330000I-1682713J1080961D01*
G01*
X169238242Y-138330724D02*
G75*
G02*
X164935000Y-138648749I-2243242J1080724D01*
G01*
%TO.C,R3*%
X157420000Y-129250000D02*
X160730000Y-129250000D01*
X160730000Y-127880000D02*
X160730000Y-130620000D01*
X160730000Y-130620000D02*
X167270000Y-130620000D01*
X167270000Y-127880000D02*
X160730000Y-127880000D01*
X167270000Y-130620000D02*
X167270000Y-127880000D01*
X170580000Y-129250000D02*
X167270000Y-129250000D01*
%TO.C,R2*%
X157420000Y-121750000D02*
X160730000Y-121750000D01*
X160730000Y-120380000D02*
X160730000Y-123120000D01*
X160730000Y-123120000D02*
X167270000Y-123120000D01*
X167270000Y-120380000D02*
X160730000Y-120380000D01*
X167270000Y-123120000D02*
X167270000Y-120380000D01*
X170580000Y-121750000D02*
X167270000Y-121750000D01*
%TO.C,R1*%
X151920000Y-85500000D02*
X155230000Y-85500000D01*
X155230000Y-84130000D02*
X155230000Y-86870000D01*
X155230000Y-86870000D02*
X161770000Y-86870000D01*
X161770000Y-84130000D02*
X155230000Y-84130000D01*
X161770000Y-86870000D02*
X161770000Y-84130000D01*
X165080000Y-85500000D02*
X161770000Y-85500000D01*
D15*
%TO.C,LS1*%
X86900000Y-107000000D02*
G75*
G02*
X56900000Y-107000000I-15000000J0D01*
G01*
X56900000Y-107000000D02*
G75*
G02*
X86900000Y-107000000I15000000J0D01*
G01*
D13*
%TO.C,R4*%
X78130000Y-131730000D02*
X78130000Y-138270000D01*
X78130000Y-138270000D02*
X80870000Y-138270000D01*
X79500000Y-128420000D02*
X79500000Y-131730000D01*
X79500000Y-141580000D02*
X79500000Y-138270000D01*
X80870000Y-131730000D02*
X78130000Y-131730000D01*
X80870000Y-138270000D02*
X80870000Y-131730000D01*
D12*
%TO.C,U1*%
X160375000Y-99875000D02*
X160375000Y-100100000D01*
X160375000Y-99875000D02*
X160700000Y-99875000D01*
X160375000Y-107125000D02*
X160375000Y-106800000D01*
X160375000Y-107125000D02*
X160700000Y-107125000D01*
X167625000Y-99875000D02*
X167300000Y-99875000D01*
X167625000Y-99875000D02*
X167625000Y-100200000D01*
X167625000Y-107125000D02*
X167300000Y-107125000D01*
X167625000Y-107125000D02*
X167625000Y-106800000D01*
D13*
X159610000Y-100160000D02*
X159270000Y-99690000D01*
X159950000Y-99690000D01*
X159610000Y-100160000D01*
G36*
X159610000Y-100160000D02*
G01*
X159270000Y-99690000D01*
X159950000Y-99690000D01*
X159610000Y-100160000D01*
G37*
%TO.C,DS1*%
X57740000Y-31585000D02*
X57740000Y-75865000D01*
X57740000Y-31585000D02*
X180020000Y-31585000D01*
X59380000Y-48725000D02*
X66480000Y-48725000D01*
X59380000Y-58725000D02*
X59380000Y-48725000D01*
X60380000Y-46525000D02*
X60380000Y-48725000D01*
X60380000Y-60925000D02*
X60380000Y-58725000D01*
X62380000Y-46525000D02*
X60380000Y-46525000D01*
X62380000Y-48725000D02*
X62380000Y-46525000D01*
X62380000Y-58725000D02*
X62380000Y-60925000D01*
X62380000Y-60925000D02*
X60380000Y-60925000D01*
X66480000Y-38025000D02*
X170880000Y-38025000D01*
X66480000Y-58725000D02*
X59380000Y-58725000D01*
X66480000Y-73425000D02*
X66480000Y-38025000D01*
X68880000Y-67225000D02*
X68880000Y-44225000D01*
X69880000Y-43225000D02*
X167380000Y-43225000D01*
X128780000Y-31225000D02*
X132780000Y-31225000D01*
X167380000Y-68225000D02*
X69880000Y-68225000D01*
X168380000Y-44225000D02*
X168380000Y-67225000D01*
X170880000Y-38025000D02*
X170880000Y-73425000D01*
X170880000Y-73425000D02*
X66480000Y-73425000D01*
X180020000Y-31585000D02*
X180020000Y-75865000D01*
X180020000Y-75865000D02*
X57740000Y-75865000D01*
X68880000Y-44225000D02*
G75*
G02*
X69880000Y-43225000I999999J1D01*
G01*
X69880000Y-68225000D02*
G75*
G02*
X68880000Y-67225000I-1J999999D01*
G01*
X167380000Y-43225000D02*
G75*
G02*
X168380000Y-44225000I0J-1000000D01*
G01*
X168380000Y-67225000D02*
G75*
G02*
X167380000Y-68225000I-1000000J0D01*
G01*
%TD*%
M02*
