%TF.GenerationSoftware,KiCad,Pcbnew,8.0.2*%
%TF.CreationDate,2024-07-17T11:39:47+05:30*%
%TF.ProjectId,smart lock,736d6172-7420-46c6-9f63-6b2e6b696361,v1*%
%TF.SameCoordinates,Original*%
%TF.FileFunction,Plated,1,2,PTH,Drill*%
%TF.FilePolarity,Positive*%
%FSLAX46Y46*%
G04 Gerber Fmt 4.6, Leading zero omitted, Abs format (unit mm)*
G04 Created by KiCad (PCBNEW 8.0.2) date 2024-07-17 11:39:47*
%MOMM*%
%LPD*%
G01*
G04 APERTURE LIST*
%TA.AperFunction,ViaDrill*%
%ADD10C,0.300000*%
%TD*%
%TA.AperFunction,ComponentDrill*%
%ADD11C,0.800000*%
%TD*%
%TA.AperFunction,ComponentDrill*%
%ADD12C,0.900000*%
%TD*%
%TA.AperFunction,ComponentDrill*%
%ADD13C,1.000000*%
%TD*%
%TA.AperFunction,ComponentDrill*%
%ADD14C,1.200000*%
%TD*%
%TA.AperFunction,ComponentDrill*%
%ADD15C,1.300000*%
%TD*%
%TA.AperFunction,ComponentDrill*%
%ADD16C,3.500000*%
%TD*%
G04 APERTURE END LIST*
D10*
X62750000Y-84000000D03*
X62750000Y-87750000D03*
X126000000Y-100750000D03*
X126000000Y-102500000D03*
X133250000Y-84750000D03*
X148500000Y-101500000D03*
X148560000Y-92000000D03*
X148560000Y-97940000D03*
X152500000Y-100750000D03*
X153000000Y-140750000D03*
X154000000Y-101500000D03*
X156750000Y-100750000D03*
X157750000Y-101500000D03*
X161250000Y-114000000D03*
X162000000Y-102750000D03*
X162000000Y-104750000D03*
X162000000Y-112500000D03*
X162500000Y-94500000D03*
X162750000Y-111500000D03*
X163000000Y-97500000D03*
X163600000Y-109400000D03*
X164400000Y-92750000D03*
X164400000Y-111100000D03*
X164750000Y-133750000D03*
X165200000Y-94550000D03*
X166000000Y-97500000D03*
X166000000Y-105500000D03*
X166800000Y-96800000D03*
X170500000Y-100750000D03*
X172000000Y-101500000D03*
X174750000Y-103000000D03*
X177750000Y-110250000D03*
D11*
%TO.C,R4*%
X79500000Y-127380000D03*
X79500000Y-142620000D03*
%TO.C,R1*%
X150880000Y-85500000D03*
%TO.C,R2*%
X156380000Y-121750000D03*
%TO.C,R3*%
X156380000Y-129250000D03*
%TO.C,R1*%
X166120000Y-85500000D03*
%TO.C,VR1*%
X170920000Y-85500000D03*
%TO.C,R2*%
X171620000Y-121750000D03*
%TO.C,R3*%
X171620000Y-129250000D03*
%TO.C,VR1*%
X173460000Y-85500000D03*
X176000000Y-85500000D03*
D12*
%TO.C,D1*%
X159225000Y-137250000D03*
X161765000Y-137250000D03*
%TO.C,D2*%
X165725000Y-137250000D03*
X168265000Y-137250000D03*
D13*
%TO.C,M1*%
X65945000Y-146875000D03*
X68485000Y-146875000D03*
X71025000Y-146875000D03*
%TO.C,MOD1*%
X110800000Y-116500000D03*
X113340000Y-116500000D03*
X115880000Y-116500000D03*
X118420000Y-116500000D03*
X120960000Y-116500000D03*
X123500000Y-116500000D03*
X126040000Y-116500000D03*
D14*
%TO.C,DS1*%
X130780000Y-34225000D03*
X133320000Y-34225000D03*
X135860000Y-34225000D03*
X138400000Y-34225000D03*
X140940000Y-34225000D03*
X143480000Y-34225000D03*
X146020000Y-34225000D03*
X148560000Y-34225000D03*
X151100000Y-34225000D03*
X153640000Y-34225000D03*
X156180000Y-34225000D03*
X158720000Y-34225000D03*
X161260000Y-34225000D03*
X163800000Y-34225000D03*
X166340000Y-34225000D03*
X168880000Y-34225000D03*
D15*
%TO.C,LS1*%
X64300000Y-107000000D03*
X79500000Y-107000000D03*
D16*
%TO.C,DS1*%
X61379580Y-35225760D03*
X61379580Y-72225940D03*
X176380620Y-35225760D03*
X176380620Y-72225940D03*
M02*
