%TF.GenerationSoftware,KiCad,Pcbnew,8.0.2*%
%TF.CreationDate,2024-07-17T11:39:07+05:30*%
%TF.ProjectId,smart lock,736d6172-7420-46c6-9f63-6b2e6b696361,v1*%
%TF.SameCoordinates,Original*%
%TF.FileFunction,Copper,L1,Top*%
%TF.FilePolarity,Positive*%
%FSLAX46Y46*%
G04 Gerber Fmt 4.6, Leading zero omitted, Abs format (unit mm)*
G04 Created by KiCad (PCBNEW 8.0.2) date 2024-07-17 11:39:07*
%MOMM*%
%LPD*%
G01*
G04 APERTURE LIST*
%TA.AperFunction,ComponentPad*%
%ADD10R,1.800000X1.800000*%
%TD*%
%TA.AperFunction,ComponentPad*%
%ADD11C,1.800000*%
%TD*%
%TA.AperFunction,ComponentPad*%
%ADD12C,1.508000*%
%TD*%
%TA.AperFunction,ComponentPad*%
%ADD13C,1.440000*%
%TD*%
%TA.AperFunction,ComponentPad*%
%ADD14C,1.600000*%
%TD*%
%TA.AperFunction,ComponentPad*%
%ADD15O,1.600000X1.600000*%
%TD*%
%TA.AperFunction,ComponentPad*%
%ADD16C,1.950000*%
%TD*%
%TA.AperFunction,SMDPad,CuDef*%
%ADD17R,1.600000X0.550000*%
%TD*%
%TA.AperFunction,SMDPad,CuDef*%
%ADD18R,0.550000X1.600000*%
%TD*%
%TA.AperFunction,ComponentPad*%
%ADD19C,4.000000*%
%TD*%
%TA.AperFunction,ComponentPad*%
%ADD20R,1.800000X2.600000*%
%TD*%
%TA.AperFunction,ComponentPad*%
%ADD21O,1.800000X2.600000*%
%TD*%
%TA.AperFunction,ComponentPad*%
%ADD22R,1.700000X1.700000*%
%TD*%
%TA.AperFunction,ComponentPad*%
%ADD23O,1.700000X1.700000*%
%TD*%
%TA.AperFunction,ViaPad*%
%ADD24C,0.600000*%
%TD*%
%TA.AperFunction,Conductor*%
%ADD25C,0.300000*%
%TD*%
%TA.AperFunction,Conductor*%
%ADD26C,0.500000*%
%TD*%
%TA.AperFunction,Conductor*%
%ADD27C,0.200000*%
%TD*%
%TA.AperFunction,Conductor*%
%ADD28C,0.250000*%
%TD*%
G04 APERTURE END LIST*
D10*
%TO.P,D1,1,K*%
%TO.N,GND*%
X159225000Y-137250000D03*
D11*
%TO.P,D1,2,A*%
%TO.N,Net-(D1-A)*%
X161765000Y-137250000D03*
%TD*%
D12*
%TO.P,MOD1,D*%
%TO.N,/D*%
X126040000Y-116500000D03*
%TO.P,MOD1,E*%
%TO.N,/E*%
X123500000Y-116500000D03*
%TO.P,MOD1,F*%
%TO.N,/F*%
X120960000Y-116500000D03*
%TO.P,MOD1,G*%
%TO.N,/G*%
X118420000Y-116500000D03*
%TO.P,MOD1,H*%
%TO.N,/H*%
X115880000Y-116500000D03*
%TO.P,MOD1,J*%
%TO.N,/J*%
X113340000Y-116500000D03*
%TO.P,MOD1,K*%
%TO.N,/K*%
X110800000Y-116500000D03*
%TD*%
D13*
%TO.P,VR1,1*%
%TO.N,GND*%
X176000000Y-85500000D03*
%TO.P,VR1,2*%
%TO.N,/POTM*%
X173460000Y-85500000D03*
%TO.P,VR1,3*%
%TO.N,+3.3V*%
X170920000Y-85500000D03*
%TD*%
D10*
%TO.P,D2,1,K*%
%TO.N,GND*%
X165725000Y-137250000D03*
D11*
%TO.P,D2,2,A*%
%TO.N,Net-(D2-A)*%
X168265000Y-137250000D03*
%TD*%
D14*
%TO.P,R3,1*%
%TO.N,/G LED*%
X156380000Y-129250000D03*
D15*
%TO.P,R3,2*%
%TO.N,Net-(D2-A)*%
X171620000Y-129250000D03*
%TD*%
D14*
%TO.P,R2,1*%
%TO.N,/R LED*%
X156380000Y-121750000D03*
D15*
%TO.P,R2,2*%
%TO.N,Net-(D1-A)*%
X171620000Y-121750000D03*
%TD*%
D14*
%TO.P,R1,1*%
%TO.N,Net-(DS1-LEDA)*%
X150880000Y-85500000D03*
D15*
%TO.P,R1,2*%
%TO.N,+3.3V*%
X166120000Y-85500000D03*
%TD*%
D16*
%TO.P,LS1,1*%
%TO.N,/piezo*%
X64300000Y-107000000D03*
%TO.P,LS1,2*%
%TO.N,Net-(LS1-Pad2)*%
X79500000Y-107000000D03*
%TD*%
D14*
%TO.P,R4,1*%
%TO.N,Net-(LS1-Pad2)*%
X79500000Y-127380000D03*
D15*
%TO.P,R4,2*%
%TO.N,GND*%
X79500000Y-142620000D03*
%TD*%
D17*
%TO.P,U1,1,PD3*%
%TO.N,/D*%
X159750000Y-100700000D03*
%TO.P,U1,2,PD4*%
%TO.N,/E*%
X159750000Y-101500000D03*
%TO.P,U1,3,GND*%
%TO.N,GND*%
X159750000Y-102300000D03*
%TO.P,U1,4,VCC*%
%TO.N,+3.3V*%
X159750000Y-103100000D03*
%TO.P,U1,5,GND*%
%TO.N,GND*%
X159750000Y-103900000D03*
%TO.P,U1,6,VCC*%
%TO.N,+3.3V*%
X159750000Y-104700000D03*
%TO.P,U1,7,XTAL1/PB6*%
%TO.N,unconnected-(U1-XTAL1{slash}PB6-Pad7)*%
X159750000Y-105500000D03*
%TO.P,U1,8,XTAL2/PB7*%
%TO.N,unconnected-(U1-XTAL2{slash}PB7-Pad8)*%
X159750000Y-106300000D03*
D18*
%TO.P,U1,9,PD5*%
%TO.N,/F*%
X161200000Y-107750000D03*
%TO.P,U1,10,PD6*%
%TO.N,/G*%
X162000000Y-107750000D03*
%TO.P,U1,11,PD7*%
%TO.N,/H*%
X162800000Y-107750000D03*
%TO.P,U1,12,PB0*%
%TO.N,/J*%
X163600000Y-107750000D03*
%TO.P,U1,13,PB1*%
%TO.N,/servo*%
X164400000Y-107750000D03*
%TO.P,U1,14,PB2*%
%TO.N,/E*%
X165200000Y-107750000D03*
%TO.P,U1,15,PB3*%
%TO.N,/RS*%
X166000000Y-107750000D03*
%TO.P,U1,16,PB4*%
%TO.N,/DB6*%
X166800000Y-107750000D03*
D17*
%TO.P,U1,17,PB5*%
%TO.N,/DB7*%
X168250000Y-106300000D03*
%TO.P,U1,18,AVCC*%
%TO.N,unconnected-(U1-AVCC-Pad18)*%
X168250000Y-105500000D03*
%TO.P,U1,19,ADC6*%
%TO.N,unconnected-(U1-ADC6-Pad19)*%
X168250000Y-104700000D03*
%TO.P,U1,20,AREF*%
%TO.N,unconnected-(U1-AREF-Pad20)*%
X168250000Y-103900000D03*
%TO.P,U1,21,GND*%
%TO.N,GND*%
X168250000Y-103100000D03*
%TO.P,U1,22,ADC7*%
%TO.N,unconnected-(U1-ADC7-Pad22)*%
X168250000Y-102300000D03*
%TO.P,U1,23,PC0*%
%TO.N,/R LED*%
X168250000Y-101500000D03*
%TO.P,U1,24,PC1*%
%TO.N,/G LED*%
X168250000Y-100700000D03*
D18*
%TO.P,U1,25,PC2*%
%TO.N,/piezo*%
X166800000Y-99250000D03*
%TO.P,U1,26,PC3*%
%TO.N,/K*%
X166000000Y-99250000D03*
%TO.P,U1,27,PC4*%
%TO.N,/DB4*%
X165200000Y-99250000D03*
%TO.P,U1,28,PC5*%
%TO.N,/DB5*%
X164400000Y-99250000D03*
%TO.P,U1,29,~{RESET}/PC6*%
%TO.N,unconnected-(U1-~{RESET}{slash}PC6-Pad29)*%
X163600000Y-99250000D03*
%TO.P,U1,30,PD0*%
%TO.N,unconnected-(U1-PD0-Pad30)*%
X162800000Y-99250000D03*
%TO.P,U1,31,PD1*%
%TO.N,unconnected-(U1-PD1-Pad31)*%
X162000000Y-99250000D03*
%TO.P,U1,32,PD2*%
%TO.N,unconnected-(U1-PD2-Pad32)*%
X161200000Y-99250000D03*
%TD*%
D19*
%TO.P,DS1,*%
%TO.N,*%
X61379580Y-35225760D03*
X61379580Y-72225940D03*
X176380620Y-35225760D03*
X176380620Y-72225940D03*
D20*
%TO.P,DS1,1,LEDK*%
%TO.N,GND*%
X130780000Y-34225000D03*
D21*
%TO.P,DS1,2,LEDA*%
%TO.N,Net-(DS1-LEDA)*%
X133320000Y-34225000D03*
%TO.P,DS1,3,VSS*%
%TO.N,GND*%
X135860000Y-34225000D03*
%TO.P,DS1,4,VDD*%
%TO.N,+3.3V*%
X138400000Y-34225000D03*
%TO.P,DS1,5,Vo*%
%TO.N,/POTM*%
X140940000Y-34225000D03*
%TO.P,DS1,6,RS*%
%TO.N,/RS*%
X143480000Y-34225000D03*
%TO.P,DS1,7,R/~{W}*%
%TO.N,GND*%
X146020000Y-34225000D03*
%TO.P,DS1,8,E*%
%TO.N,/E*%
X148560000Y-34225000D03*
%TO.P,DS1,9,DB0*%
%TO.N,unconnected-(DS1-DB0-Pad9)*%
X151100000Y-34225000D03*
%TO.P,DS1,10,DB1*%
%TO.N,unconnected-(DS1-DB1-Pad10)*%
X153640000Y-34225000D03*
%TO.P,DS1,11,DB2*%
%TO.N,unconnected-(DS1-DB2-Pad11)*%
X156180000Y-34225000D03*
%TO.P,DS1,12,DB3*%
%TO.N,unconnected-(DS1-DB3-Pad12)*%
X158720000Y-34225000D03*
%TO.P,DS1,13,DB4*%
%TO.N,/DB4*%
X161260000Y-34225000D03*
%TO.P,DS1,14,DB5*%
%TO.N,/DB5*%
X163800000Y-34225000D03*
%TO.P,DS1,15,DB6*%
%TO.N,/DB6*%
X166340000Y-34225000D03*
%TO.P,DS1,16,DB7*%
%TO.N,/DB7*%
X168880000Y-34225000D03*
%TD*%
D22*
%TO.P,M1,1,PWM*%
%TO.N,/servo*%
X71025000Y-146875000D03*
D23*
%TO.P,M1,2,+*%
%TO.N,+3.3V*%
X68485000Y-146875000D03*
%TO.P,M1,3,-*%
%TO.N,GND*%
X65945000Y-146875000D03*
%TD*%
D24*
%TO.N,GND*%
X62750000Y-84000000D03*
X174750000Y-103000000D03*
X164750000Y-133750000D03*
%TO.N,/DB4*%
X165200000Y-94550000D03*
%TO.N,Net-(DS1-LEDA)*%
X133250000Y-84750000D03*
%TO.N,/RS*%
X166000000Y-105500000D03*
X162500000Y-94500000D03*
X163000000Y-97500000D03*
%TO.N,+3.3V*%
X62750000Y-87750000D03*
X153000000Y-140750000D03*
%TO.N,/E*%
X148560000Y-97940000D03*
X148560000Y-92000000D03*
X154000000Y-101500000D03*
X162000000Y-102750000D03*
X157750000Y-101500000D03*
X162000000Y-104750000D03*
X148500000Y-101500000D03*
%TO.N,/DB6*%
X177750000Y-110250000D03*
%TO.N,/DB5*%
X164400000Y-92750000D03*
%TO.N,/piezo*%
X166800000Y-96800000D03*
%TO.N,/servo*%
X164400000Y-111100000D03*
%TO.N,/G*%
X162000000Y-112500000D03*
%TO.N,/F*%
X161250000Y-114000000D03*
%TO.N,/D*%
X152500000Y-100750000D03*
X126000000Y-102500000D03*
X126000000Y-100750000D03*
X156750000Y-100750000D03*
%TO.N,/H*%
X162750000Y-111500000D03*
%TO.N,/K*%
X166000000Y-97500000D03*
%TO.N,/J*%
X163600000Y-109400000D03*
%TO.N,/R LED*%
X172000000Y-101500000D03*
%TO.N,/G LED*%
X170500000Y-100750000D03*
%TD*%
D25*
%TO.N,GND*%
X130780000Y-44970000D02*
X128750000Y-47000000D01*
D26*
X157000000Y-133000000D02*
X156000000Y-134000000D01*
X161250000Y-103060661D02*
X162000000Y-103810661D01*
D25*
X136720000Y-30000000D02*
X135860000Y-30860000D01*
X130780000Y-34225000D02*
X130780000Y-30720000D01*
D26*
X67500000Y-152750000D02*
X65945000Y-151195000D01*
X155500000Y-141500000D02*
X155500000Y-139000000D01*
D25*
X169500000Y-62500000D02*
X173500000Y-66500000D01*
D27*
X174850000Y-103100000D02*
X174750000Y-103000000D01*
D26*
X165900000Y-103100000D02*
X168250000Y-103100000D01*
D25*
X176000000Y-85500000D02*
X176000000Y-102000000D01*
D26*
X159750000Y-103900000D02*
X162000000Y-103900000D01*
D25*
X176000000Y-102000000D02*
X174900000Y-103100000D01*
D26*
X156000000Y-136000000D02*
X157250000Y-137250000D01*
X154380000Y-142620000D02*
X155500000Y-141500000D01*
D25*
X146020000Y-31020000D02*
X145000000Y-30000000D01*
D26*
X65945000Y-151195000D02*
X65945000Y-146875000D01*
D25*
X82000000Y-50250000D02*
X82000000Y-82250000D01*
D26*
X165725000Y-134725000D02*
X164750000Y-133750000D01*
X79500000Y-142620000D02*
X79500000Y-150250000D01*
D25*
X82000000Y-82250000D02*
X80250000Y-84000000D01*
X130780000Y-34225000D02*
X130780000Y-44970000D01*
X146020000Y-34225000D02*
X146020000Y-31020000D01*
X146020000Y-61020000D02*
X147500000Y-62500000D01*
D26*
X156000000Y-134000000D02*
X156000000Y-136000000D01*
X160800000Y-102300000D02*
X161250000Y-102750000D01*
D25*
X135860000Y-30860000D02*
X135860000Y-34225000D01*
D26*
X77000000Y-152750000D02*
X67500000Y-152750000D01*
D25*
X85250000Y-47000000D02*
X82000000Y-50250000D01*
D26*
X165100000Y-103900000D02*
X165900000Y-103100000D01*
X164750000Y-133750000D02*
X164000000Y-133000000D01*
X162000000Y-103810661D02*
X162000000Y-103900000D01*
X79500000Y-150250000D02*
X77000000Y-152750000D01*
D27*
X174750000Y-103000000D02*
X174650000Y-103100000D01*
D26*
X159225000Y-137250000D02*
X157250000Y-137250000D01*
D25*
X80250000Y-84000000D02*
X62750000Y-84000000D01*
X147500000Y-62500000D02*
X169500000Y-62500000D01*
X145000000Y-30000000D02*
X136720000Y-30000000D01*
X173500000Y-77750000D02*
X176000000Y-80250000D01*
D26*
X161250000Y-102750000D02*
X161250000Y-103060661D01*
D25*
X130780000Y-30720000D02*
X131500000Y-30000000D01*
X135000000Y-30000000D02*
X135860000Y-30860000D01*
D26*
X162000000Y-103900000D02*
X165100000Y-103900000D01*
D25*
X131500000Y-30000000D02*
X135000000Y-30000000D01*
D26*
X155500000Y-139000000D02*
X157250000Y-137250000D01*
D27*
X174900000Y-103100000D02*
X174850000Y-103100000D01*
D26*
X79500000Y-142620000D02*
X154380000Y-142620000D01*
X165725000Y-137250000D02*
X165725000Y-134725000D01*
X174650000Y-103100000D02*
X168250000Y-103100000D01*
D25*
X176000000Y-80250000D02*
X176000000Y-85500000D01*
D26*
X164000000Y-133000000D02*
X157000000Y-133000000D01*
D25*
X173500000Y-66500000D02*
X173500000Y-77750000D01*
X128750000Y-47000000D02*
X85250000Y-47000000D01*
D26*
X159750000Y-102300000D02*
X160800000Y-102300000D01*
D25*
X146020000Y-34225000D02*
X146020000Y-61020000D01*
%TO.N,Net-(D1-A)*%
X174000000Y-124130000D02*
X174000000Y-141000000D01*
X163000000Y-142500000D02*
X161765000Y-141265000D01*
X172500000Y-142500000D02*
X163000000Y-142500000D01*
X174000000Y-141000000D02*
X172500000Y-142500000D01*
X161765000Y-141265000D02*
X161765000Y-137250000D01*
X171620000Y-121750000D02*
X174000000Y-124130000D01*
%TO.N,Net-(D2-A)*%
X170250000Y-137250000D02*
X168265000Y-137250000D01*
X171620000Y-135880000D02*
X170250000Y-137250000D01*
X171620000Y-129250000D02*
X171620000Y-135880000D01*
%TO.N,/DB4*%
X165200000Y-99250000D02*
X165200000Y-94550000D01*
%TO.N,Net-(DS1-LEDA)*%
X134000000Y-85500000D02*
X150880000Y-85500000D01*
X133320000Y-84820000D02*
X134000000Y-85500000D01*
D28*
%TO.N,/RS*%
X163000000Y-97500000D02*
X163000000Y-95000000D01*
D25*
X166000000Y-107750000D02*
X166000000Y-105500000D01*
D28*
X163000000Y-95000000D02*
X162500000Y-94500000D01*
D26*
%TO.N,+3.3V*%
X85750000Y-49250000D02*
X83750000Y-51250000D01*
X169500000Y-90500000D02*
X167750000Y-90500000D01*
X170920000Y-85500000D02*
X170920000Y-89080000D01*
X140000000Y-66500000D02*
X170000000Y-66500000D01*
X155500000Y-101500000D02*
X157100000Y-103100000D01*
X167750000Y-90500000D02*
X156500000Y-90500000D01*
X154550000Y-104700000D02*
X153000000Y-106250000D01*
X83750000Y-51250000D02*
X83750000Y-85750000D01*
X156500000Y-90500000D02*
X155500000Y-91500000D01*
X154900000Y-103100000D02*
X159750000Y-103100000D01*
X138400000Y-50750000D02*
X138400000Y-64900000D01*
X170000000Y-66500000D02*
X170920000Y-67420000D01*
X170920000Y-67420000D02*
X170920000Y-85500000D01*
X138400000Y-50650000D02*
X137000000Y-49250000D01*
X166120000Y-85500000D02*
X166120000Y-88870000D01*
X83750000Y-85750000D02*
X81750000Y-87750000D01*
X153000000Y-106250000D02*
X153000000Y-105000000D01*
X157100000Y-103100000D02*
X159750000Y-103100000D01*
X166120000Y-88870000D02*
X167750000Y-90500000D01*
X81750000Y-87750000D02*
X62750000Y-87750000D01*
X138400000Y-50750000D02*
X138400000Y-50650000D01*
X170920000Y-89080000D02*
X169500000Y-90500000D01*
X155500000Y-91500000D02*
X155500000Y-101500000D01*
X138400000Y-64900000D02*
X140000000Y-66500000D01*
X153000000Y-140750000D02*
X153000000Y-106250000D01*
X138400000Y-34225000D02*
X138400000Y-50750000D01*
X153000000Y-105000000D02*
X154900000Y-103100000D01*
X137000000Y-49250000D02*
X85750000Y-49250000D01*
X159750000Y-104700000D02*
X154550000Y-104700000D01*
D25*
%TO.N,/DB7*%
X168880000Y-60380000D02*
X170000000Y-61500000D01*
X168880000Y-34225000D02*
X168880000Y-60380000D01*
X179450000Y-106300000D02*
X168250000Y-106300000D01*
X180250000Y-105500000D02*
X179450000Y-106300000D01*
X170000000Y-61500000D02*
X178250000Y-61500000D01*
X180250000Y-63500000D02*
X180250000Y-105500000D01*
X178250000Y-61500000D02*
X180250000Y-63500000D01*
%TO.N,/E*%
X123500000Y-116500000D02*
X123500000Y-102000000D01*
X159750000Y-101500000D02*
X161500000Y-101500000D01*
X162000000Y-102000000D02*
X162000000Y-102750000D01*
X151000000Y-101500000D02*
X153500000Y-101500000D01*
X164050000Y-105500000D02*
X162750000Y-105500000D01*
X165200000Y-106650000D02*
X164050000Y-105500000D01*
X153500000Y-101500000D02*
X154000000Y-101500000D01*
X148560000Y-97940000D02*
X148560000Y-92000000D01*
X123500000Y-102000000D02*
X124000000Y-101500000D01*
X159750000Y-101500000D02*
X157750000Y-101500000D01*
X148500000Y-101500000D02*
X151000000Y-101500000D01*
X124000000Y-101500000D02*
X148500000Y-101500000D01*
X161500000Y-101500000D02*
X162000000Y-102000000D01*
X165200000Y-107750000D02*
X165200000Y-106650000D01*
X153500000Y-101500000D02*
X153750000Y-101500000D01*
X162750000Y-105500000D02*
X162000000Y-104750000D01*
%TO.N,/DB6*%
X166800000Y-109800000D02*
X167250000Y-110250000D01*
X166800000Y-107750000D02*
X166800000Y-109800000D01*
X167250000Y-110250000D02*
X177750000Y-110250000D01*
%TO.N,/DB5*%
X164400000Y-92750000D02*
X164400000Y-99250000D01*
D28*
%TO.N,/POTM*%
X140940000Y-63440000D02*
X142500000Y-65000000D01*
X170250000Y-65000000D02*
X172000000Y-66750000D01*
X140940000Y-34225000D02*
X140940000Y-63440000D01*
X142500000Y-65000000D02*
X170250000Y-65000000D01*
X172000000Y-84040000D02*
X173460000Y-85500000D01*
X172000000Y-66750000D02*
X172000000Y-84040000D01*
D25*
%TO.N,Net-(LS1-Pad2)*%
X79500000Y-127380000D02*
X79500000Y-107000000D01*
%TO.N,/piezo*%
X166800000Y-99250000D02*
X166800000Y-96800000D01*
%TO.N,/servo*%
X164400000Y-111100000D02*
X164400000Y-107750000D01*
%TO.N,/G*%
X162000000Y-107750000D02*
X162000000Y-112500000D01*
%TO.N,/F*%
X161200000Y-107750000D02*
X161200000Y-113950000D01*
X161200000Y-113950000D02*
X161250000Y-114000000D01*
%TO.N,/D*%
X126040000Y-116500000D02*
X126000000Y-102500000D01*
X156750000Y-100750000D02*
X156800000Y-100700000D01*
D28*
X152500000Y-100750000D02*
X126000000Y-100750000D01*
D25*
X126000000Y-102500000D02*
X126040000Y-102540000D01*
X159750000Y-100700000D02*
X156750000Y-100750000D01*
%TO.N,/H*%
X162800000Y-111450000D02*
X162750000Y-111500000D01*
X162800000Y-107750000D02*
X162800000Y-111450000D01*
%TO.N,/K*%
X166000000Y-99250000D02*
X166000000Y-97500000D01*
%TO.N,/J*%
X163600000Y-109400000D02*
X163600000Y-107750000D01*
%TO.N,/R LED*%
X168250000Y-101500000D02*
X172000000Y-101500000D01*
%TO.N,/G LED*%
X168250000Y-100700000D02*
X170450000Y-100700000D01*
X170450000Y-100700000D02*
X170500000Y-100750000D01*
%TD*%
%TA.AperFunction,Conductor*%
%TO.N,GND*%
G36*
X146270000Y-36002854D02*
G01*
X146347834Y-35990526D01*
X146347837Y-35990526D01*
X146557410Y-35922432D01*
X146753760Y-35822386D01*
X146932041Y-35692857D01*
X147087857Y-35537041D01*
X147087862Y-35537035D01*
X147189372Y-35397319D01*
X147244702Y-35354653D01*
X147314315Y-35348674D01*
X147376110Y-35381279D01*
X147390008Y-35397319D01*
X147491752Y-35537358D01*
X147491756Y-35537363D01*
X147647636Y-35693243D01*
X147647641Y-35693247D01*
X147758383Y-35773705D01*
X147825978Y-35822815D01*
X147935948Y-35878848D01*
X148022393Y-35922895D01*
X148022396Y-35922896D01*
X148079221Y-35941359D01*
X148232049Y-35991015D01*
X148449778Y-36025500D01*
X148449779Y-36025500D01*
X148670221Y-36025500D01*
X148670222Y-36025500D01*
X148887951Y-35991015D01*
X149097606Y-35922895D01*
X149294022Y-35822815D01*
X149472365Y-35693242D01*
X149628242Y-35537365D01*
X149638804Y-35522826D01*
X149729682Y-35397745D01*
X149785011Y-35355079D01*
X149854625Y-35349100D01*
X149916420Y-35381705D01*
X149930318Y-35397745D01*
X150031752Y-35537358D01*
X150031756Y-35537363D01*
X150187636Y-35693243D01*
X150187641Y-35693247D01*
X150298383Y-35773705D01*
X150365978Y-35822815D01*
X150475948Y-35878848D01*
X150562393Y-35922895D01*
X150562396Y-35922896D01*
X150619221Y-35941359D01*
X150772049Y-35991015D01*
X150989778Y-36025500D01*
X150989779Y-36025500D01*
X151210221Y-36025500D01*
X151210222Y-36025500D01*
X151427951Y-35991015D01*
X151637606Y-35922895D01*
X151834022Y-35822815D01*
X152012365Y-35693242D01*
X152168242Y-35537365D01*
X152178804Y-35522826D01*
X152269682Y-35397745D01*
X152325011Y-35355079D01*
X152394625Y-35349100D01*
X152456420Y-35381705D01*
X152470318Y-35397745D01*
X152571752Y-35537358D01*
X152571756Y-35537363D01*
X152727636Y-35693243D01*
X152727641Y-35693247D01*
X152838383Y-35773705D01*
X152905978Y-35822815D01*
X153015948Y-35878848D01*
X153102393Y-35922895D01*
X153102396Y-35922896D01*
X153159221Y-35941359D01*
X153312049Y-35991015D01*
X153529778Y-36025500D01*
X153529779Y-36025500D01*
X153750221Y-36025500D01*
X153750222Y-36025500D01*
X153967951Y-35991015D01*
X154177606Y-35922895D01*
X154374022Y-35822815D01*
X154552365Y-35693242D01*
X154708242Y-35537365D01*
X154718804Y-35522826D01*
X154809682Y-35397745D01*
X154865011Y-35355079D01*
X154934625Y-35349100D01*
X154996420Y-35381705D01*
X155010318Y-35397745D01*
X155111752Y-35537358D01*
X155111756Y-35537363D01*
X155267636Y-35693243D01*
X155267641Y-35693247D01*
X155378383Y-35773705D01*
X155445978Y-35822815D01*
X155555948Y-35878848D01*
X155642393Y-35922895D01*
X155642396Y-35922896D01*
X155699221Y-35941359D01*
X155852049Y-35991015D01*
X156069778Y-36025500D01*
X156069779Y-36025500D01*
X156290221Y-36025500D01*
X156290222Y-36025500D01*
X156507951Y-35991015D01*
X156717606Y-35922895D01*
X156914022Y-35822815D01*
X157092365Y-35693242D01*
X157248242Y-35537365D01*
X157258804Y-35522826D01*
X157349682Y-35397745D01*
X157405011Y-35355079D01*
X157474625Y-35349100D01*
X157536420Y-35381705D01*
X157550318Y-35397745D01*
X157651752Y-35537358D01*
X157651756Y-35537363D01*
X157807636Y-35693243D01*
X157807641Y-35693247D01*
X157918383Y-35773705D01*
X157985978Y-35822815D01*
X158095948Y-35878848D01*
X158182393Y-35922895D01*
X158182396Y-35922896D01*
X158239221Y-35941359D01*
X158392049Y-35991015D01*
X158609778Y-36025500D01*
X158609779Y-36025500D01*
X158830221Y-36025500D01*
X158830222Y-36025500D01*
X159047951Y-35991015D01*
X159257606Y-35922895D01*
X159454022Y-35822815D01*
X159632365Y-35693242D01*
X159788242Y-35537365D01*
X159798804Y-35522826D01*
X159889682Y-35397745D01*
X159945011Y-35355079D01*
X160014625Y-35349100D01*
X160076420Y-35381705D01*
X160090318Y-35397745D01*
X160191752Y-35537358D01*
X160191756Y-35537363D01*
X160347636Y-35693243D01*
X160347641Y-35693247D01*
X160458383Y-35773705D01*
X160525978Y-35822815D01*
X160635948Y-35878848D01*
X160722393Y-35922895D01*
X160722396Y-35922896D01*
X160779221Y-35941359D01*
X160932049Y-35991015D01*
X161149778Y-36025500D01*
X161149779Y-36025500D01*
X161370221Y-36025500D01*
X161370222Y-36025500D01*
X161587951Y-35991015D01*
X161797606Y-35922895D01*
X161994022Y-35822815D01*
X162172365Y-35693242D01*
X162328242Y-35537365D01*
X162338804Y-35522826D01*
X162429682Y-35397745D01*
X162485011Y-35355079D01*
X162554625Y-35349100D01*
X162616420Y-35381705D01*
X162630318Y-35397745D01*
X162731752Y-35537358D01*
X162731756Y-35537363D01*
X162887636Y-35693243D01*
X162887641Y-35693247D01*
X162998383Y-35773705D01*
X163065978Y-35822815D01*
X163175948Y-35878848D01*
X163262393Y-35922895D01*
X163262396Y-35922896D01*
X163319221Y-35941359D01*
X163472049Y-35991015D01*
X163689778Y-36025500D01*
X163689779Y-36025500D01*
X163910221Y-36025500D01*
X163910222Y-36025500D01*
X164127951Y-35991015D01*
X164337606Y-35922895D01*
X164534022Y-35822815D01*
X164712365Y-35693242D01*
X164868242Y-35537365D01*
X164878804Y-35522826D01*
X164969682Y-35397745D01*
X165025011Y-35355079D01*
X165094625Y-35349100D01*
X165156420Y-35381705D01*
X165170318Y-35397745D01*
X165271752Y-35537358D01*
X165271756Y-35537363D01*
X165427636Y-35693243D01*
X165427641Y-35693247D01*
X165538383Y-35773705D01*
X165605978Y-35822815D01*
X165715948Y-35878848D01*
X165802393Y-35922895D01*
X165802396Y-35922896D01*
X165859221Y-35941359D01*
X166012049Y-35991015D01*
X166229778Y-36025500D01*
X166229779Y-36025500D01*
X166450221Y-36025500D01*
X166450222Y-36025500D01*
X166667951Y-35991015D01*
X166877606Y-35922895D01*
X167074022Y-35822815D01*
X167252365Y-35693242D01*
X167408242Y-35537365D01*
X167418804Y-35522826D01*
X167509682Y-35397745D01*
X167565011Y-35355079D01*
X167634625Y-35349100D01*
X167696420Y-35381705D01*
X167710318Y-35397745D01*
X167811752Y-35537358D01*
X167811756Y-35537363D01*
X167967636Y-35693243D01*
X167967641Y-35693247D01*
X168145973Y-35822812D01*
X168145975Y-35822813D01*
X168145978Y-35822815D01*
X168161795Y-35830874D01*
X168212591Y-35878848D01*
X168229500Y-35941359D01*
X168229500Y-60444069D01*
X168229500Y-60444071D01*
X168229499Y-60444071D01*
X168254497Y-60569738D01*
X168254499Y-60569744D01*
X168303534Y-60688125D01*
X168374726Y-60794673D01*
X168374727Y-60794674D01*
X169494724Y-61914669D01*
X169585331Y-62005276D01*
X169585332Y-62005277D01*
X169691866Y-62076461D01*
X169691872Y-62076464D01*
X169691873Y-62076465D01*
X169810256Y-62125501D01*
X169810260Y-62125501D01*
X169810261Y-62125502D01*
X169935928Y-62150500D01*
X169935931Y-62150500D01*
X177929192Y-62150500D01*
X177996231Y-62170185D01*
X178016873Y-62186819D01*
X179563181Y-63733126D01*
X179596666Y-63794449D01*
X179599500Y-63820807D01*
X179599500Y-105179192D01*
X179579815Y-105246231D01*
X179563181Y-105266873D01*
X179216873Y-105613181D01*
X179155550Y-105646666D01*
X179129192Y-105649500D01*
X169674500Y-105649500D01*
X169607461Y-105629815D01*
X169561706Y-105577011D01*
X169550500Y-105525500D01*
X169550499Y-105177130D01*
X169550499Y-105177128D01*
X169544091Y-105117517D01*
X169544089Y-105117513D01*
X169543632Y-105113255D01*
X169543632Y-105086745D01*
X169544089Y-105082486D01*
X169544091Y-105082483D01*
X169550500Y-105022873D01*
X169550499Y-104377128D01*
X169544091Y-104317517D01*
X169544089Y-104317513D01*
X169543632Y-104313255D01*
X169543632Y-104286745D01*
X169544089Y-104282486D01*
X169544091Y-104282483D01*
X169550500Y-104222873D01*
X169550499Y-103577128D01*
X169544091Y-103517517D01*
X169544090Y-103517516D01*
X169543380Y-103510904D01*
X169543381Y-103484393D01*
X169549999Y-103422842D01*
X169550000Y-103422827D01*
X169550000Y-103350000D01*
X169531409Y-103350000D01*
X169464370Y-103330315D01*
X169432144Y-103300313D01*
X169407546Y-103267454D01*
X169316457Y-103199265D01*
X169274588Y-103143333D01*
X169269604Y-103073641D01*
X169303089Y-103012318D01*
X169316452Y-103000738D01*
X169407546Y-102932546D01*
X169432143Y-102899687D01*
X169488076Y-102857818D01*
X169531409Y-102850000D01*
X169550000Y-102850000D01*
X169550000Y-102777172D01*
X169549999Y-102777160D01*
X169543380Y-102715604D01*
X169543380Y-102689090D01*
X169544090Y-102682485D01*
X169544091Y-102682483D01*
X169550500Y-102622873D01*
X169550499Y-102274499D01*
X169570183Y-102207461D01*
X169622987Y-102161706D01*
X169674499Y-102150500D01*
X171494932Y-102150500D01*
X171560904Y-102169506D01*
X171650477Y-102225789D01*
X171650481Y-102225790D01*
X171820737Y-102285366D01*
X171820743Y-102285367D01*
X171820745Y-102285368D01*
X171820746Y-102285368D01*
X171820750Y-102285369D01*
X171999996Y-102305565D01*
X172000000Y-102305565D01*
X172000004Y-102305565D01*
X172179249Y-102285369D01*
X172179252Y-102285368D01*
X172179255Y-102285368D01*
X172349522Y-102225789D01*
X172502262Y-102129816D01*
X172629816Y-102002262D01*
X172725789Y-101849522D01*
X172785368Y-101679255D01*
X172795951Y-101585326D01*
X172805565Y-101500003D01*
X172805565Y-101499996D01*
X172785369Y-101320750D01*
X172785368Y-101320745D01*
X172725788Y-101150476D01*
X172645613Y-101022879D01*
X172629816Y-100997738D01*
X172502262Y-100870184D01*
X172439096Y-100830494D01*
X172349523Y-100774211D01*
X172179254Y-100714631D01*
X172179249Y-100714630D01*
X172000004Y-100694435D01*
X171999996Y-100694435D01*
X171820750Y-100714630D01*
X171820737Y-100714633D01*
X171650481Y-100774209D01*
X171650477Y-100774210D01*
X171560904Y-100830494D01*
X171494932Y-100849500D01*
X171427589Y-100849500D01*
X171360550Y-100829815D01*
X171314795Y-100777011D01*
X171304369Y-100739383D01*
X171285369Y-100570750D01*
X171285368Y-100570745D01*
X171225788Y-100400476D01*
X171129815Y-100247737D01*
X171002262Y-100120184D01*
X170849523Y-100024211D01*
X170679254Y-99964631D01*
X170679249Y-99964630D01*
X170500004Y-99944435D01*
X170499996Y-99944435D01*
X170320750Y-99964630D01*
X170320745Y-99964631D01*
X170150474Y-100024212D01*
X170140477Y-100030494D01*
X170074506Y-100049500D01*
X169424835Y-100049500D01*
X169357796Y-100029815D01*
X169350524Y-100024767D01*
X169292331Y-99981204D01*
X169292328Y-99981202D01*
X169157482Y-99930908D01*
X169157483Y-99930908D01*
X169097883Y-99924501D01*
X169097881Y-99924500D01*
X169097873Y-99924500D01*
X169097865Y-99924500D01*
X167699499Y-99924500D01*
X167632460Y-99904815D01*
X167586705Y-99852011D01*
X167575499Y-99800500D01*
X167575499Y-98402129D01*
X167575498Y-98402123D01*
X167575497Y-98402116D01*
X167569091Y-98342517D01*
X167518796Y-98207669D01*
X167475233Y-98149476D01*
X167450816Y-98084011D01*
X167450500Y-98075165D01*
X167450500Y-97305067D01*
X167469507Y-97239094D01*
X167525788Y-97149524D01*
X167570720Y-97021117D01*
X167585368Y-96979255D01*
X167605565Y-96800000D01*
X167593750Y-96695139D01*
X167585369Y-96620750D01*
X167585368Y-96620745D01*
X167539044Y-96488360D01*
X167525789Y-96450478D01*
X167429816Y-96297738D01*
X167302262Y-96170184D01*
X167149523Y-96074211D01*
X166979254Y-96014631D01*
X166979249Y-96014630D01*
X166800004Y-95994435D01*
X166799996Y-95994435D01*
X166620750Y-96014630D01*
X166620745Y-96014631D01*
X166450476Y-96074211D01*
X166297737Y-96170184D01*
X166170182Y-96297739D01*
X166079493Y-96442070D01*
X166027159Y-96488360D01*
X165958105Y-96499008D01*
X165894257Y-96470633D01*
X165855885Y-96412243D01*
X165850500Y-96376097D01*
X165850500Y-95055067D01*
X165869507Y-94989094D01*
X165925788Y-94899524D01*
X165943284Y-94849523D01*
X165985368Y-94729255D01*
X165988681Y-94699855D01*
X166005565Y-94550003D01*
X166005565Y-94549996D01*
X165985369Y-94370750D01*
X165985368Y-94370745D01*
X165925788Y-94200476D01*
X165829815Y-94047737D01*
X165702262Y-93920184D01*
X165549523Y-93824211D01*
X165379254Y-93764631D01*
X165379249Y-93764630D01*
X165200004Y-93744435D01*
X165200001Y-93744435D01*
X165200000Y-93744435D01*
X165195975Y-93744888D01*
X165188380Y-93745744D01*
X165119558Y-93733687D01*
X165068180Y-93686336D01*
X165050500Y-93622523D01*
X165050500Y-93255067D01*
X165069507Y-93189094D01*
X165125788Y-93099524D01*
X165185368Y-92929254D01*
X165185369Y-92929249D01*
X165205565Y-92750003D01*
X165205565Y-92749996D01*
X165185369Y-92570750D01*
X165185368Y-92570745D01*
X165125788Y-92400476D01*
X165029815Y-92247737D01*
X164902262Y-92120184D01*
X164749523Y-92024211D01*
X164579254Y-91964631D01*
X164579249Y-91964630D01*
X164400004Y-91944435D01*
X164399996Y-91944435D01*
X164220750Y-91964630D01*
X164220745Y-91964631D01*
X164050476Y-92024211D01*
X163897737Y-92120184D01*
X163770184Y-92247737D01*
X163674211Y-92400476D01*
X163614631Y-92570745D01*
X163614630Y-92570750D01*
X163594435Y-92749996D01*
X163594435Y-92750003D01*
X163614630Y-92929249D01*
X163614631Y-92929254D01*
X163674211Y-93099524D01*
X163730493Y-93189094D01*
X163749500Y-93255067D01*
X163749500Y-94587061D01*
X163729815Y-94654100D01*
X163677011Y-94699855D01*
X163607853Y-94709799D01*
X163544297Y-94680774D01*
X163522398Y-94655952D01*
X163485858Y-94601267D01*
X163485855Y-94601263D01*
X163395637Y-94511045D01*
X163395606Y-94511016D01*
X163326211Y-94441621D01*
X163292726Y-94380298D01*
X163290673Y-94367838D01*
X163285368Y-94320745D01*
X163225789Y-94150478D01*
X163129816Y-93997738D01*
X163002262Y-93870184D01*
X162849523Y-93774211D01*
X162679254Y-93714631D01*
X162679249Y-93714630D01*
X162500004Y-93694435D01*
X162499996Y-93694435D01*
X162320750Y-93714630D01*
X162320745Y-93714631D01*
X162150476Y-93774211D01*
X161997737Y-93870184D01*
X161870184Y-93997737D01*
X161774211Y-94150476D01*
X161714631Y-94320745D01*
X161714630Y-94320750D01*
X161694435Y-94499996D01*
X161694435Y-94500003D01*
X161714630Y-94679249D01*
X161714631Y-94679254D01*
X161774211Y-94849523D01*
X161805628Y-94899522D01*
X161870184Y-95002262D01*
X161997738Y-95129816D01*
X162150478Y-95225789D01*
X162291455Y-95275119D01*
X162348230Y-95315840D01*
X162373978Y-95380792D01*
X162374500Y-95392160D01*
X162374500Y-96955145D01*
X162355494Y-97021117D01*
X162274211Y-97150476D01*
X162214631Y-97320745D01*
X162214630Y-97320750D01*
X162194435Y-97499996D01*
X162194435Y-97500003D01*
X162214630Y-97679249D01*
X162214632Y-97679257D01*
X162251474Y-97784546D01*
X162255035Y-97854325D01*
X162220306Y-97914952D01*
X162158312Y-97947179D01*
X162134432Y-97949500D01*
X161677129Y-97949500D01*
X161677120Y-97949501D01*
X161613248Y-97956367D01*
X161586742Y-97956367D01*
X161582483Y-97955909D01*
X161522873Y-97949500D01*
X161522864Y-97949500D01*
X160877129Y-97949500D01*
X160877123Y-97949501D01*
X160817516Y-97955908D01*
X160682671Y-98006202D01*
X160682664Y-98006206D01*
X160567455Y-98092452D01*
X160567452Y-98092455D01*
X160481206Y-98207664D01*
X160481202Y-98207671D01*
X160430908Y-98342517D01*
X160424501Y-98402116D01*
X160424501Y-98402123D01*
X160424500Y-98402135D01*
X160424500Y-99800500D01*
X160404815Y-99867539D01*
X160352011Y-99913294D01*
X160300500Y-99924500D01*
X158902129Y-99924500D01*
X158902123Y-99924501D01*
X158842516Y-99930908D01*
X158707671Y-99981202D01*
X158707669Y-99981204D01*
X158622872Y-100044683D01*
X158557408Y-100069100D01*
X158550627Y-100069399D01*
X157243915Y-100091177D01*
X157176557Y-100072612D01*
X157175968Y-100072245D01*
X157099522Y-100024211D01*
X157099520Y-100024210D01*
X157099518Y-100024209D01*
X156929262Y-99964633D01*
X156929249Y-99964630D01*
X156750004Y-99944435D01*
X156749996Y-99944435D01*
X156570750Y-99964630D01*
X156570742Y-99964632D01*
X156415454Y-100018970D01*
X156345676Y-100022531D01*
X156285048Y-99987802D01*
X156252821Y-99925809D01*
X156250500Y-99901928D01*
X156250500Y-91862229D01*
X156270185Y-91795190D01*
X156286819Y-91774548D01*
X156774548Y-91286819D01*
X156835871Y-91253334D01*
X156862229Y-91250500D01*
X169573920Y-91250500D01*
X169671462Y-91231096D01*
X169718913Y-91221658D01*
X169855495Y-91165084D01*
X169904729Y-91132186D01*
X169978416Y-91082952D01*
X171502951Y-89558416D01*
X171585084Y-89435495D01*
X171641658Y-89298913D01*
X171670500Y-89153918D01*
X171670500Y-89006083D01*
X171670500Y-86526911D01*
X171690185Y-86459872D01*
X171706819Y-86439230D01*
X171858527Y-86287521D01*
X171858529Y-86287519D01*
X171981021Y-86112581D01*
X172071276Y-85919030D01*
X172071280Y-85919013D01*
X172073130Y-85913936D01*
X172075253Y-85914709D01*
X172106576Y-85863305D01*
X172169419Y-85832766D01*
X172238796Y-85841050D01*
X172292680Y-85885528D01*
X172305827Y-85914315D01*
X172306870Y-85913936D01*
X172308722Y-85919022D01*
X172308724Y-85919030D01*
X172348942Y-86005277D01*
X172398977Y-86112578D01*
X172521472Y-86287521D01*
X172672478Y-86438527D01*
X172672481Y-86438529D01*
X172847419Y-86561021D01*
X172847421Y-86561022D01*
X172847420Y-86561022D01*
X172887394Y-86579662D01*
X173040970Y-86651276D01*
X173247253Y-86706549D01*
X173399215Y-86719844D01*
X173459998Y-86725162D01*
X173460000Y-86725162D01*
X173460002Y-86725162D01*
X173513186Y-86720508D01*
X173672747Y-86706549D01*
X173879030Y-86651276D01*
X174072581Y-86561021D01*
X174247519Y-86438529D01*
X174398529Y-86287519D01*
X174521021Y-86112581D01*
X174611276Y-85919030D01*
X174611280Y-85919013D01*
X174613130Y-85913936D01*
X174614981Y-85914609D01*
X174646847Y-85862328D01*
X174709694Y-85831797D01*
X174779069Y-85840091D01*
X174832948Y-85884575D01*
X174846430Y-85914095D01*
X174847342Y-85913764D01*
X174849197Y-85918859D01*
X174939413Y-86112329D01*
X174978415Y-86168030D01*
X175600000Y-85546445D01*
X175600000Y-85552661D01*
X175627259Y-85654394D01*
X175679920Y-85745606D01*
X175754394Y-85820080D01*
X175845606Y-85872741D01*
X175947339Y-85900000D01*
X175953553Y-85900000D01*
X175331968Y-86521584D01*
X175387663Y-86560582D01*
X175387669Y-86560586D01*
X175581140Y-86650802D01*
X175581146Y-86650805D01*
X175787337Y-86706054D01*
X175787345Y-86706055D01*
X175999998Y-86724660D01*
X176000002Y-86724660D01*
X176212654Y-86706055D01*
X176212662Y-86706054D01*
X176418853Y-86650805D01*
X176418864Y-86650801D01*
X176612325Y-86560589D01*
X176668030Y-86521583D01*
X176046448Y-85900000D01*
X176052661Y-85900000D01*
X176154394Y-85872741D01*
X176245606Y-85820080D01*
X176320080Y-85745606D01*
X176372741Y-85654394D01*
X176400000Y-85552661D01*
X176400000Y-85546446D01*
X177021583Y-86168029D01*
X177060589Y-86112325D01*
X177150801Y-85918864D01*
X177150805Y-85918853D01*
X177206054Y-85712662D01*
X177206055Y-85712654D01*
X177224660Y-85500002D01*
X177224660Y-85499997D01*
X177206055Y-85287345D01*
X177206054Y-85287337D01*
X177150805Y-85081146D01*
X177150802Y-85081140D01*
X177060586Y-84887669D01*
X177060582Y-84887663D01*
X177021584Y-84831968D01*
X176400000Y-85453552D01*
X176400000Y-85447339D01*
X176372741Y-85345606D01*
X176320080Y-85254394D01*
X176245606Y-85179920D01*
X176154394Y-85127259D01*
X176052661Y-85100000D01*
X176046447Y-85100000D01*
X176668030Y-84478415D01*
X176612329Y-84439413D01*
X176418859Y-84349197D01*
X176418853Y-84349194D01*
X176212662Y-84293945D01*
X176212654Y-84293944D01*
X176000002Y-84275340D01*
X175999998Y-84275340D01*
X175787345Y-84293944D01*
X175787337Y-84293945D01*
X175581146Y-84349194D01*
X175581140Y-84349197D01*
X175387671Y-84439412D01*
X175387669Y-84439413D01*
X175331969Y-84478415D01*
X175331968Y-84478415D01*
X175953554Y-85100000D01*
X175947339Y-85100000D01*
X175845606Y-85127259D01*
X175754394Y-85179920D01*
X175679920Y-85254394D01*
X175627259Y-85345606D01*
X175600000Y-85447339D01*
X175600000Y-85453553D01*
X174978415Y-84831968D01*
X174978415Y-84831969D01*
X174939413Y-84887669D01*
X174939412Y-84887671D01*
X174849197Y-85081140D01*
X174847342Y-85086236D01*
X174845445Y-85085545D01*
X174813656Y-85137684D01*
X174750805Y-85168205D01*
X174681431Y-85159901D01*
X174627559Y-85115408D01*
X174614012Y-85085742D01*
X174613130Y-85086064D01*
X174611279Y-85080983D01*
X174611276Y-85080970D01*
X174521021Y-84887419D01*
X174398529Y-84712481D01*
X174398527Y-84712478D01*
X174247521Y-84561472D01*
X174072578Y-84438977D01*
X174072579Y-84438977D01*
X173923436Y-84369431D01*
X173879030Y-84348724D01*
X173879026Y-84348723D01*
X173879022Y-84348721D01*
X173672752Y-84293452D01*
X173672748Y-84293451D01*
X173672747Y-84293451D01*
X173672746Y-84293450D01*
X173672741Y-84293450D01*
X173460002Y-84274838D01*
X173459998Y-84274838D01*
X173247258Y-84293450D01*
X173247241Y-84293453D01*
X173230269Y-84298001D01*
X173160420Y-84296337D01*
X173110497Y-84265907D01*
X172661819Y-83817229D01*
X172628334Y-83755906D01*
X172625500Y-83729548D01*
X172625500Y-72225934D01*
X173875176Y-72225934D01*
X173875176Y-72225945D01*
X173894930Y-72539944D01*
X173894931Y-72539951D01*
X173953890Y-72849023D01*
X174051117Y-73148256D01*
X174051119Y-73148261D01*
X174185081Y-73432943D01*
X174185084Y-73432949D01*
X174353671Y-73698601D01*
X174353674Y-73698605D01*
X174554226Y-73941030D01*
X174554228Y-73941032D01*
X174783588Y-74156416D01*
X174783598Y-74156424D01*
X175038124Y-74341348D01*
X175038129Y-74341350D01*
X175038136Y-74341356D01*
X175313854Y-74492934D01*
X175313859Y-74492936D01*
X175313861Y-74492937D01*
X175313862Y-74492938D01*
X175606391Y-74608758D01*
X175606394Y-74608759D01*
X175911143Y-74687005D01*
X175911147Y-74687006D01*
X175976630Y-74695278D01*
X176223290Y-74726439D01*
X176223299Y-74726439D01*
X176223302Y-74726440D01*
X176223304Y-74726440D01*
X176537936Y-74726440D01*
X176537938Y-74726440D01*
X176537941Y-74726439D01*
X176537949Y-74726439D01*
X176724213Y-74702908D01*
X176850093Y-74687006D01*
X177154845Y-74608759D01*
X177154848Y-74608758D01*
X177447377Y-74492938D01*
X177447378Y-74492937D01*
X177447376Y-74492937D01*
X177447386Y-74492934D01*
X177723104Y-74341356D01*
X177977650Y-74156418D01*
X178207010Y-73941034D01*
X178407567Y-73698603D01*
X178576157Y-73432947D01*
X178710123Y-73148255D01*
X178807351Y-72849019D01*
X178866308Y-72539955D01*
X178886064Y-72225940D01*
X178866308Y-71911925D01*
X178807351Y-71602861D01*
X178710123Y-71303625D01*
X178576157Y-71018933D01*
X178407567Y-70753277D01*
X178407565Y-70753274D01*
X178207013Y-70510849D01*
X178207011Y-70510847D01*
X177977651Y-70295463D01*
X177977641Y-70295455D01*
X177723115Y-70110531D01*
X177723108Y-70110526D01*
X177723104Y-70110524D01*
X177447386Y-69958946D01*
X177447383Y-69958944D01*
X177447378Y-69958942D01*
X177447377Y-69958941D01*
X177154848Y-69843121D01*
X177154845Y-69843120D01*
X176850096Y-69764874D01*
X176850083Y-69764872D01*
X176537949Y-69725440D01*
X176537938Y-69725440D01*
X176223302Y-69725440D01*
X176223290Y-69725440D01*
X175911156Y-69764872D01*
X175911143Y-69764874D01*
X175606394Y-69843120D01*
X175606391Y-69843121D01*
X175313862Y-69958941D01*
X175313861Y-69958942D01*
X175038136Y-70110524D01*
X175038124Y-70110531D01*
X174783598Y-70295455D01*
X174783588Y-70295463D01*
X174554228Y-70510847D01*
X174554226Y-70510849D01*
X174353674Y-70753274D01*
X174353671Y-70753278D01*
X174185084Y-71018930D01*
X174185081Y-71018936D01*
X174051119Y-71303618D01*
X174051117Y-71303623D01*
X173953890Y-71602856D01*
X173894931Y-71911928D01*
X173894930Y-71911935D01*
X173875176Y-72225934D01*
X172625500Y-72225934D01*
X172625500Y-66688396D01*
X172625500Y-66688394D01*
X172601463Y-66567548D01*
X172601461Y-66567543D01*
X172581962Y-66520468D01*
X172581947Y-66520435D01*
X172581932Y-66520397D01*
X172554312Y-66453715D01*
X172548295Y-66444710D01*
X172535848Y-66426081D01*
X172535848Y-66426082D01*
X172485858Y-66351266D01*
X172395637Y-66261045D01*
X172395606Y-66261016D01*
X170740198Y-64605608D01*
X170740178Y-64605586D01*
X170648733Y-64514141D01*
X170597509Y-64479915D01*
X170546287Y-64445689D01*
X170546286Y-64445688D01*
X170546283Y-64445686D01*
X170546280Y-64445685D01*
X170465792Y-64412347D01*
X170432453Y-64398537D01*
X170422427Y-64396543D01*
X170372029Y-64386518D01*
X170311610Y-64374500D01*
X170311607Y-64374500D01*
X170311606Y-64374500D01*
X142810452Y-64374500D01*
X142743413Y-64354815D01*
X142722771Y-64338181D01*
X141601819Y-63217229D01*
X141568334Y-63155906D01*
X141565500Y-63129548D01*
X141565500Y-35954097D01*
X141585185Y-35887058D01*
X141633203Y-35843612D01*
X141674022Y-35822815D01*
X141852365Y-35693242D01*
X142008242Y-35537365D01*
X142018804Y-35522826D01*
X142109682Y-35397745D01*
X142165011Y-35355079D01*
X142234625Y-35349100D01*
X142296420Y-35381705D01*
X142310318Y-35397745D01*
X142411752Y-35537358D01*
X142411756Y-35537363D01*
X142567636Y-35693243D01*
X142567641Y-35693247D01*
X142678383Y-35773705D01*
X142745978Y-35822815D01*
X142855948Y-35878848D01*
X142942393Y-35922895D01*
X142942396Y-35922896D01*
X142999221Y-35941359D01*
X143152049Y-35991015D01*
X143369778Y-36025500D01*
X143369779Y-36025500D01*
X143590221Y-36025500D01*
X143590222Y-36025500D01*
X143807951Y-35991015D01*
X144017606Y-35922895D01*
X144214022Y-35822815D01*
X144392365Y-35693242D01*
X144548242Y-35537365D01*
X144649991Y-35397317D01*
X144705320Y-35354653D01*
X144774933Y-35348674D01*
X144836729Y-35381279D01*
X144850627Y-35397318D01*
X144952142Y-35537041D01*
X145107958Y-35692857D01*
X145286239Y-35822386D01*
X145482589Y-35922432D01*
X145692163Y-35990526D01*
X145769999Y-36002854D01*
X145770000Y-36002854D01*
X145770000Y-34773482D01*
X145788409Y-34784111D01*
X145941009Y-34825000D01*
X146098991Y-34825000D01*
X146251591Y-34784111D01*
X146270000Y-34773482D01*
X146270000Y-36002854D01*
G37*
%TD.AperFunction*%
%TA.AperFunction,Conductor*%
G36*
X161617514Y-100544089D02*
G01*
X161617517Y-100544091D01*
X161677127Y-100550500D01*
X162322872Y-100550499D01*
X162382483Y-100544091D01*
X162382486Y-100544089D01*
X162386744Y-100543632D01*
X162413254Y-100543632D01*
X162417514Y-100544089D01*
X162417517Y-100544091D01*
X162477127Y-100550500D01*
X163122872Y-100550499D01*
X163182483Y-100544091D01*
X163182486Y-100544089D01*
X163186744Y-100543632D01*
X163213254Y-100543632D01*
X163217514Y-100544089D01*
X163217517Y-100544091D01*
X163277127Y-100550500D01*
X163922872Y-100550499D01*
X163982483Y-100544091D01*
X163982486Y-100544089D01*
X163986744Y-100543632D01*
X164013254Y-100543632D01*
X164017514Y-100544089D01*
X164017517Y-100544091D01*
X164077127Y-100550500D01*
X164722872Y-100550499D01*
X164782483Y-100544091D01*
X164782486Y-100544089D01*
X164786744Y-100543632D01*
X164813254Y-100543632D01*
X164817514Y-100544089D01*
X164817517Y-100544091D01*
X164877127Y-100550500D01*
X165522872Y-100550499D01*
X165582483Y-100544091D01*
X165582486Y-100544089D01*
X165586744Y-100543632D01*
X165613254Y-100543632D01*
X165617514Y-100544089D01*
X165617517Y-100544091D01*
X165677127Y-100550500D01*
X166322872Y-100550499D01*
X166382483Y-100544091D01*
X166382486Y-100544089D01*
X166386744Y-100543632D01*
X166413254Y-100543632D01*
X166417514Y-100544089D01*
X166417517Y-100544091D01*
X166477127Y-100550500D01*
X166825500Y-100550499D01*
X166892539Y-100570183D01*
X166938294Y-100622987D01*
X166949500Y-100674499D01*
X166949500Y-101022869D01*
X166949501Y-101022879D01*
X166956367Y-101086751D01*
X166956367Y-101113257D01*
X166955909Y-101117516D01*
X166955909Y-101117517D01*
X166949500Y-101177127D01*
X166949500Y-101177132D01*
X166949500Y-101177133D01*
X166949500Y-101822870D01*
X166949501Y-101822879D01*
X166956367Y-101886751D01*
X166956367Y-101913257D01*
X166955909Y-101917516D01*
X166955909Y-101917517D01*
X166949500Y-101977127D01*
X166949500Y-101977132D01*
X166949500Y-101977133D01*
X166949500Y-102622870D01*
X166949501Y-102622876D01*
X166956619Y-102689092D01*
X166956619Y-102715599D01*
X166950000Y-102777169D01*
X166950000Y-102850000D01*
X166968591Y-102850000D01*
X167035630Y-102869685D01*
X167067855Y-102899686D01*
X167092454Y-102932546D01*
X167092455Y-102932546D01*
X167092456Y-102932548D01*
X167183540Y-103000734D01*
X167225411Y-103056668D01*
X167230395Y-103126359D01*
X167196909Y-103187682D01*
X167183540Y-103199266D01*
X167092456Y-103267451D01*
X167092454Y-103267454D01*
X167067856Y-103300312D01*
X167011924Y-103342182D01*
X166968591Y-103350000D01*
X166950000Y-103350000D01*
X166950000Y-103422844D01*
X166956619Y-103484398D01*
X166956620Y-103510909D01*
X166955909Y-103517514D01*
X166955909Y-103517517D01*
X166949500Y-103577127D01*
X166949500Y-103577134D01*
X166949500Y-103577135D01*
X166949500Y-104222870D01*
X166949501Y-104222879D01*
X166956367Y-104286751D01*
X166956367Y-104313257D01*
X166955909Y-104317516D01*
X166955909Y-104317517D01*
X166949500Y-104377127D01*
X166949500Y-104377129D01*
X166949500Y-104377133D01*
X166949500Y-105022870D01*
X166949501Y-105022876D01*
X166954831Y-105072459D01*
X166942424Y-105141219D01*
X166894812Y-105192355D01*
X166827113Y-105209633D01*
X166760819Y-105187567D01*
X166726547Y-105151684D01*
X166669633Y-105061106D01*
X166629816Y-104997738D01*
X166502262Y-104870184D01*
X166469344Y-104849500D01*
X166349523Y-104774211D01*
X166179254Y-104714631D01*
X166179249Y-104714630D01*
X166000004Y-104694435D01*
X165999996Y-104694435D01*
X165820750Y-104714630D01*
X165820745Y-104714631D01*
X165650476Y-104774211D01*
X165497737Y-104870184D01*
X165370184Y-104997737D01*
X165274211Y-105150476D01*
X165214631Y-105320745D01*
X165214630Y-105320749D01*
X165200531Y-105445887D01*
X165173464Y-105510301D01*
X165115869Y-105549856D01*
X165046032Y-105551993D01*
X164989630Y-105519684D01*
X164464674Y-104994727D01*
X164464673Y-104994726D01*
X164464669Y-104994723D01*
X164358127Y-104923535D01*
X164239744Y-104874499D01*
X164239738Y-104874497D01*
X164114071Y-104849500D01*
X164114069Y-104849500D01*
X163070807Y-104849500D01*
X163003768Y-104829815D01*
X162983130Y-104813185D01*
X162821719Y-104651774D01*
X162788237Y-104590453D01*
X162786182Y-104577973D01*
X162785368Y-104570745D01*
X162725789Y-104400478D01*
X162711120Y-104377133D01*
X162662654Y-104300000D01*
X162629816Y-104247738D01*
X162502262Y-104120184D01*
X162349523Y-104024211D01*
X162179254Y-103964631D01*
X162179249Y-103964630D01*
X162000004Y-103944435D01*
X161999996Y-103944435D01*
X161820750Y-103964630D01*
X161820745Y-103964631D01*
X161650476Y-104024211D01*
X161497737Y-104120184D01*
X161370182Y-104247739D01*
X161275418Y-104398555D01*
X161223084Y-104444845D01*
X161154030Y-104455493D01*
X161090182Y-104427118D01*
X161051810Y-104368728D01*
X161047135Y-104345835D01*
X161043380Y-104310903D01*
X161043381Y-104284393D01*
X161049999Y-104222842D01*
X161050000Y-104222827D01*
X161050000Y-104150000D01*
X161031409Y-104150000D01*
X160964370Y-104130315D01*
X160932144Y-104100313D01*
X160907546Y-104067454D01*
X160816457Y-103999265D01*
X160774588Y-103943333D01*
X160769604Y-103873641D01*
X160803089Y-103812318D01*
X160816452Y-103800738D01*
X160907546Y-103732546D01*
X160932143Y-103699687D01*
X160988076Y-103657818D01*
X161031409Y-103650000D01*
X161050000Y-103650000D01*
X161050000Y-103577172D01*
X161049999Y-103577160D01*
X161043380Y-103515604D01*
X161043380Y-103489090D01*
X161044090Y-103482485D01*
X161044091Y-103482483D01*
X161050500Y-103422873D01*
X161050499Y-103173898D01*
X161070183Y-103106862D01*
X161122987Y-103061107D01*
X161192146Y-103051163D01*
X161255701Y-103080188D01*
X161279493Y-103107929D01*
X161336884Y-103199266D01*
X161370184Y-103252262D01*
X161497738Y-103379816D01*
X161650478Y-103475789D01*
X161764263Y-103515604D01*
X161820745Y-103535368D01*
X161820750Y-103535369D01*
X161999996Y-103555565D01*
X162000000Y-103555565D01*
X162000004Y-103555565D01*
X162179249Y-103535369D01*
X162179252Y-103535368D01*
X162179255Y-103535368D01*
X162349522Y-103475789D01*
X162502262Y-103379816D01*
X162629816Y-103252262D01*
X162725789Y-103099522D01*
X162785368Y-102929255D01*
X162785369Y-102929249D01*
X162805565Y-102750003D01*
X162805565Y-102749996D01*
X162785369Y-102570750D01*
X162785366Y-102570737D01*
X162725790Y-102400481D01*
X162725789Y-102400479D01*
X162725789Y-102400478D01*
X162698783Y-102357498D01*
X162669506Y-102310903D01*
X162650500Y-102244931D01*
X162650500Y-101935928D01*
X162625502Y-101810261D01*
X162625501Y-101810260D01*
X162625501Y-101810256D01*
X162576465Y-101691873D01*
X162576464Y-101691872D01*
X162576460Y-101691864D01*
X162553043Y-101656819D01*
X162553041Y-101656817D01*
X162505277Y-101585331D01*
X162505275Y-101585329D01*
X162505273Y-101585326D01*
X161914673Y-100994726D01*
X161833963Y-100940798D01*
X161808127Y-100923535D01*
X161808122Y-100923533D01*
X161689744Y-100874499D01*
X161689738Y-100874497D01*
X161564071Y-100849500D01*
X161564069Y-100849500D01*
X161174500Y-100849500D01*
X161107461Y-100829815D01*
X161061706Y-100777011D01*
X161050500Y-100725502D01*
X161050499Y-100674501D01*
X161070182Y-100607462D01*
X161122985Y-100561706D01*
X161174499Y-100550499D01*
X161522871Y-100550499D01*
X161522872Y-100550499D01*
X161582483Y-100544091D01*
X161582486Y-100544089D01*
X161586744Y-100543632D01*
X161613254Y-100543632D01*
X161617514Y-100544089D01*
G37*
%TD.AperFunction*%
%TA.AperFunction,Conductor*%
G36*
X161246231Y-102170185D02*
G01*
X161266873Y-102186819D01*
X161283901Y-102203847D01*
X161317386Y-102265170D01*
X161312402Y-102334862D01*
X161301215Y-102357498D01*
X161274212Y-102400474D01*
X161274210Y-102400479D01*
X161242512Y-102491065D01*
X161201790Y-102547840D01*
X161136837Y-102573587D01*
X161068276Y-102560130D01*
X161054452Y-102550000D01*
X161031409Y-102550000D01*
X160964370Y-102530315D01*
X160932144Y-102500313D01*
X160907546Y-102467454D01*
X160816457Y-102399265D01*
X160774588Y-102343333D01*
X160769604Y-102273641D01*
X160803089Y-102212318D01*
X160816461Y-102200732D01*
X160850526Y-102175232D01*
X160915991Y-102150816D01*
X160924835Y-102150500D01*
X161179192Y-102150500D01*
X161246231Y-102170185D01*
G37*
%TD.AperFunction*%
%TA.AperFunction,Conductor*%
G36*
X182692539Y-28270185D02*
G01*
X182738294Y-28322989D01*
X182749500Y-28374500D01*
X182749500Y-157625500D01*
X182729815Y-157692539D01*
X182677011Y-157738294D01*
X182625500Y-157749500D01*
X55374500Y-157749500D01*
X55307461Y-157729815D01*
X55261706Y-157677011D01*
X55250500Y-157625500D01*
X55250500Y-151941328D01*
X90092200Y-151941328D01*
X90092200Y-152178671D01*
X90129326Y-152413077D01*
X90202668Y-152638798D01*
X90310414Y-152850259D01*
X90449915Y-153042265D01*
X90617735Y-153210085D01*
X90809741Y-153349586D01*
X90909648Y-153400491D01*
X91021201Y-153457331D01*
X91021203Y-153457331D01*
X91021206Y-153457333D01*
X91142196Y-153496645D01*
X91246922Y-153530673D01*
X91481329Y-153567800D01*
X91481334Y-153567800D01*
X91718671Y-153567800D01*
X91953077Y-153530673D01*
X92178794Y-153457333D01*
X92390259Y-153349586D01*
X92582265Y-153210085D01*
X92750085Y-153042265D01*
X92889586Y-152850259D01*
X92997333Y-152638794D01*
X93070673Y-152413077D01*
X93107800Y-152178671D01*
X93107800Y-151941328D01*
X140892200Y-151941328D01*
X140892200Y-152178671D01*
X140929326Y-152413077D01*
X141002668Y-152638798D01*
X141110414Y-152850259D01*
X141249915Y-153042265D01*
X141417735Y-153210085D01*
X141609741Y-153349586D01*
X141709648Y-153400491D01*
X141821201Y-153457331D01*
X141821203Y-153457331D01*
X141821206Y-153457333D01*
X141942196Y-153496645D01*
X142046922Y-153530673D01*
X142281329Y-153567800D01*
X142281334Y-153567800D01*
X142518671Y-153567800D01*
X142753077Y-153530673D01*
X142978794Y-153457333D01*
X143190259Y-153349586D01*
X143382265Y-153210085D01*
X143550085Y-153042265D01*
X143689586Y-152850259D01*
X143797333Y-152638794D01*
X143870673Y-152413077D01*
X143907800Y-152178671D01*
X143907800Y-151941328D01*
X143870673Y-151706922D01*
X143797331Y-151481201D01*
X143689585Y-151269740D01*
X143550085Y-151077735D01*
X143382265Y-150909915D01*
X143190259Y-150770414D01*
X142978798Y-150662668D01*
X142753077Y-150589326D01*
X142518671Y-150552200D01*
X142518666Y-150552200D01*
X142281334Y-150552200D01*
X142281329Y-150552200D01*
X142046922Y-150589326D01*
X141821201Y-150662668D01*
X141609740Y-150770414D01*
X141500194Y-150850004D01*
X141417735Y-150909915D01*
X141417733Y-150909917D01*
X141417732Y-150909917D01*
X141249917Y-151077732D01*
X141249917Y-151077733D01*
X141249915Y-151077735D01*
X141190004Y-151160194D01*
X141110414Y-151269740D01*
X141002668Y-151481201D01*
X140929326Y-151706922D01*
X140892200Y-151941328D01*
X93107800Y-151941328D01*
X93070673Y-151706922D01*
X92997331Y-151481201D01*
X92889585Y-151269740D01*
X92750085Y-151077735D01*
X92582265Y-150909915D01*
X92390259Y-150770414D01*
X92178798Y-150662668D01*
X91953077Y-150589326D01*
X91718671Y-150552200D01*
X91718666Y-150552200D01*
X91481334Y-150552200D01*
X91481329Y-150552200D01*
X91246922Y-150589326D01*
X91021201Y-150662668D01*
X90809740Y-150770414D01*
X90700194Y-150850004D01*
X90617735Y-150909915D01*
X90617733Y-150909917D01*
X90617732Y-150909917D01*
X90449917Y-151077732D01*
X90449917Y-151077733D01*
X90449915Y-151077735D01*
X90390004Y-151160194D01*
X90310414Y-151269740D01*
X90202668Y-151481201D01*
X90129326Y-151706922D01*
X90092200Y-151941328D01*
X55250500Y-151941328D01*
X55250500Y-146624999D01*
X64614364Y-146624999D01*
X64614364Y-146625000D01*
X65511988Y-146625000D01*
X65479075Y-146682007D01*
X65445000Y-146809174D01*
X65445000Y-146940826D01*
X65479075Y-147067993D01*
X65511988Y-147125000D01*
X64614364Y-147125000D01*
X64671567Y-147338486D01*
X64671570Y-147338492D01*
X64771399Y-147552578D01*
X64906894Y-147746082D01*
X65073917Y-147913105D01*
X65267421Y-148048600D01*
X65481507Y-148148429D01*
X65481516Y-148148433D01*
X65695000Y-148205634D01*
X65695000Y-147308012D01*
X65752007Y-147340925D01*
X65879174Y-147375000D01*
X66010826Y-147375000D01*
X66137993Y-147340925D01*
X66195000Y-147308012D01*
X66195000Y-148205633D01*
X66408483Y-148148433D01*
X66408492Y-148148429D01*
X66622578Y-148048600D01*
X66816082Y-147913105D01*
X66983105Y-147746082D01*
X67113119Y-147560405D01*
X67167696Y-147516781D01*
X67237195Y-147509588D01*
X67299549Y-147541110D01*
X67316269Y-147560405D01*
X67446505Y-147746401D01*
X67613599Y-147913495D01*
X67710384Y-147981265D01*
X67807165Y-148049032D01*
X67807167Y-148049033D01*
X67807170Y-148049035D01*
X68021337Y-148148903D01*
X68249592Y-148210063D01*
X68426034Y-148225500D01*
X68484999Y-148230659D01*
X68485000Y-148230659D01*
X68485001Y-148230659D01*
X68543966Y-148225500D01*
X68720408Y-148210063D01*
X68948663Y-148148903D01*
X69162830Y-148049035D01*
X69356401Y-147913495D01*
X69478329Y-147791566D01*
X69539648Y-147758084D01*
X69609340Y-147763068D01*
X69665274Y-147804939D01*
X69682189Y-147835917D01*
X69731202Y-147967328D01*
X69731206Y-147967335D01*
X69817452Y-148082544D01*
X69817455Y-148082547D01*
X69932664Y-148168793D01*
X69932671Y-148168797D01*
X70067517Y-148219091D01*
X70067516Y-148219091D01*
X70074444Y-148219835D01*
X70127127Y-148225500D01*
X71922872Y-148225499D01*
X71982483Y-148219091D01*
X72117331Y-148168796D01*
X72232546Y-148082546D01*
X72318796Y-147967331D01*
X72369091Y-147832483D01*
X72375500Y-147772873D01*
X72375499Y-145977128D01*
X72369091Y-145917517D01*
X72367810Y-145914083D01*
X72318797Y-145782671D01*
X72318793Y-145782664D01*
X72232547Y-145667455D01*
X72232544Y-145667452D01*
X72117335Y-145581206D01*
X72117328Y-145581202D01*
X71982482Y-145530908D01*
X71982483Y-145530908D01*
X71922883Y-145524501D01*
X71922881Y-145524500D01*
X71922873Y-145524500D01*
X71922864Y-145524500D01*
X70127129Y-145524500D01*
X70127123Y-145524501D01*
X70067516Y-145530908D01*
X69932671Y-145581202D01*
X69932664Y-145581206D01*
X69817455Y-145667452D01*
X69817452Y-145667455D01*
X69731206Y-145782664D01*
X69731203Y-145782669D01*
X69682189Y-145914083D01*
X69640317Y-145970016D01*
X69574853Y-145994433D01*
X69506580Y-145979581D01*
X69478326Y-145958430D01*
X69356402Y-145836506D01*
X69356395Y-145836501D01*
X69162834Y-145700967D01*
X69162830Y-145700965D01*
X69162828Y-145700964D01*
X68948663Y-145601097D01*
X68948659Y-145601096D01*
X68948655Y-145601094D01*
X68720413Y-145539938D01*
X68720403Y-145539936D01*
X68485001Y-145519341D01*
X68484999Y-145519341D01*
X68249596Y-145539936D01*
X68249586Y-145539938D01*
X68021344Y-145601094D01*
X68021335Y-145601098D01*
X67807171Y-145700964D01*
X67807169Y-145700965D01*
X67613597Y-145836505D01*
X67446508Y-146003594D01*
X67316269Y-146189595D01*
X67261692Y-146233219D01*
X67192193Y-146240412D01*
X67129839Y-146208890D01*
X67113119Y-146189594D01*
X66983113Y-146003926D01*
X66983108Y-146003920D01*
X66816082Y-145836894D01*
X66622578Y-145701399D01*
X66408492Y-145601570D01*
X66408486Y-145601567D01*
X66195000Y-145544364D01*
X66195000Y-146441988D01*
X66137993Y-146409075D01*
X66010826Y-146375000D01*
X65879174Y-146375000D01*
X65752007Y-146409075D01*
X65695000Y-146441988D01*
X65695000Y-145544364D01*
X65694999Y-145544364D01*
X65481513Y-145601567D01*
X65481507Y-145601570D01*
X65267422Y-145701399D01*
X65267420Y-145701400D01*
X65073926Y-145836886D01*
X65073920Y-145836891D01*
X64906891Y-146003920D01*
X64906886Y-146003926D01*
X64771400Y-146197420D01*
X64771399Y-146197422D01*
X64671570Y-146411507D01*
X64671567Y-146411513D01*
X64614364Y-146624999D01*
X55250500Y-146624999D01*
X55250500Y-142369999D01*
X78221127Y-142369999D01*
X78221128Y-142370000D01*
X79184314Y-142370000D01*
X79179920Y-142374394D01*
X79127259Y-142465606D01*
X79100000Y-142567339D01*
X79100000Y-142672661D01*
X79127259Y-142774394D01*
X79179920Y-142865606D01*
X79184314Y-142870000D01*
X78221128Y-142870000D01*
X78273730Y-143066317D01*
X78273734Y-143066326D01*
X78369865Y-143272482D01*
X78500342Y-143458820D01*
X78661179Y-143619657D01*
X78847517Y-143750134D01*
X79053673Y-143846265D01*
X79053682Y-143846269D01*
X79249999Y-143898872D01*
X79250000Y-143898871D01*
X79250000Y-142935686D01*
X79254394Y-142940080D01*
X79345606Y-142992741D01*
X79447339Y-143020000D01*
X79552661Y-143020000D01*
X79654394Y-142992741D01*
X79745606Y-142940080D01*
X79750000Y-142935686D01*
X79750000Y-143898872D01*
X79946317Y-143846269D01*
X79946326Y-143846265D01*
X80152482Y-143750134D01*
X80338820Y-143619657D01*
X80499657Y-143458820D01*
X80630134Y-143272482D01*
X80726265Y-143066326D01*
X80726269Y-143066317D01*
X80778872Y-142870000D01*
X79815686Y-142870000D01*
X79820080Y-142865606D01*
X79872741Y-142774394D01*
X79900000Y-142672661D01*
X79900000Y-142567339D01*
X79872741Y-142465606D01*
X79820080Y-142374394D01*
X79815686Y-142370000D01*
X80778872Y-142370000D01*
X80778872Y-142369999D01*
X80726269Y-142173682D01*
X80726265Y-142173673D01*
X80630134Y-141967517D01*
X80499657Y-141781179D01*
X80338820Y-141620342D01*
X80152482Y-141489865D01*
X79946328Y-141393734D01*
X79750000Y-141341127D01*
X79750000Y-142304314D01*
X79745606Y-142299920D01*
X79654394Y-142247259D01*
X79552661Y-142220000D01*
X79447339Y-142220000D01*
X79345606Y-142247259D01*
X79254394Y-142299920D01*
X79250000Y-142304314D01*
X79250000Y-141341127D01*
X79053671Y-141393734D01*
X78847517Y-141489865D01*
X78661179Y-141620342D01*
X78500342Y-141781179D01*
X78369865Y-141967517D01*
X78273734Y-142173673D01*
X78273730Y-142173682D01*
X78221127Y-142369999D01*
X55250500Y-142369999D01*
X55250500Y-106999994D01*
X62819443Y-106999994D01*
X62819443Y-107000005D01*
X62839634Y-107243683D01*
X62839636Y-107243695D01*
X62899663Y-107480734D01*
X62997888Y-107704666D01*
X63131632Y-107909378D01*
X63297242Y-108089277D01*
X63297246Y-108089281D01*
X63490212Y-108239473D01*
X63705267Y-108355855D01*
X63705270Y-108355856D01*
X63936541Y-108435251D01*
X63936543Y-108435251D01*
X63936545Y-108435252D01*
X64177737Y-108475500D01*
X64177738Y-108475500D01*
X64422262Y-108475500D01*
X64422263Y-108475500D01*
X64663455Y-108435252D01*
X64894733Y-108355855D01*
X65109788Y-108239473D01*
X65302754Y-108089281D01*
X65468368Y-107909377D01*
X65602111Y-107704667D01*
X65700336Y-107480736D01*
X65760364Y-107243692D01*
X65764026Y-107199499D01*
X65780557Y-107000005D01*
X65780557Y-106999994D01*
X78019443Y-106999994D01*
X78019443Y-107000005D01*
X78039634Y-107243683D01*
X78039636Y-107243695D01*
X78099663Y-107480734D01*
X78197888Y-107704666D01*
X78331632Y-107909378D01*
X78497242Y-108089277D01*
X78497246Y-108089281D01*
X78690212Y-108239473D01*
X78690214Y-108239474D01*
X78690217Y-108239476D01*
X78784517Y-108290508D01*
X78834108Y-108339727D01*
X78849500Y-108399563D01*
X78849500Y-126183316D01*
X78829815Y-126250355D01*
X78796623Y-126284891D01*
X78660859Y-126379953D01*
X78499954Y-126540858D01*
X78369432Y-126727265D01*
X78369431Y-126727267D01*
X78273261Y-126933502D01*
X78273258Y-126933511D01*
X78214366Y-127153302D01*
X78214364Y-127153313D01*
X78194532Y-127379998D01*
X78194532Y-127380001D01*
X78214364Y-127606686D01*
X78214366Y-127606697D01*
X78273258Y-127826488D01*
X78273261Y-127826497D01*
X78369431Y-128032732D01*
X78369432Y-128032734D01*
X78499954Y-128219141D01*
X78660858Y-128380045D01*
X78660861Y-128380047D01*
X78847266Y-128510568D01*
X79053504Y-128606739D01*
X79273308Y-128665635D01*
X79435230Y-128679801D01*
X79499998Y-128685468D01*
X79500000Y-128685468D01*
X79500002Y-128685468D01*
X79556673Y-128680509D01*
X79726692Y-128665635D01*
X79946496Y-128606739D01*
X80152734Y-128510568D01*
X80339139Y-128380047D01*
X80500047Y-128219139D01*
X80630568Y-128032734D01*
X80726739Y-127826496D01*
X80785635Y-127606692D01*
X80805468Y-127380000D01*
X80785635Y-127153308D01*
X80726739Y-126933504D01*
X80630568Y-126727266D01*
X80500047Y-126540861D01*
X80500045Y-126540858D01*
X80339140Y-126379953D01*
X80203377Y-126284891D01*
X80159752Y-126230314D01*
X80150500Y-126183316D01*
X80150500Y-108399563D01*
X80170185Y-108332524D01*
X80215483Y-108290508D01*
X80309782Y-108239476D01*
X80309788Y-108239473D01*
X80502754Y-108089281D01*
X80668368Y-107909377D01*
X80802111Y-107704667D01*
X80900336Y-107480736D01*
X80960364Y-107243692D01*
X80964026Y-107199499D01*
X80980557Y-107000005D01*
X80980557Y-106999994D01*
X80960365Y-106756316D01*
X80960363Y-106756304D01*
X80923878Y-106612230D01*
X80900336Y-106519264D01*
X80802111Y-106295333D01*
X80668367Y-106090621D01*
X80502757Y-105910722D01*
X80502747Y-105910713D01*
X80309791Y-105760529D01*
X80309787Y-105760526D01*
X80094734Y-105644145D01*
X80094729Y-105644143D01*
X79863458Y-105564748D01*
X79682561Y-105534562D01*
X79622263Y-105524500D01*
X79377737Y-105524500D01*
X79329498Y-105532549D01*
X79136541Y-105564748D01*
X78905270Y-105644143D01*
X78905265Y-105644145D01*
X78690212Y-105760526D01*
X78690208Y-105760529D01*
X78497252Y-105910713D01*
X78497242Y-105910722D01*
X78331632Y-106090621D01*
X78197888Y-106295333D01*
X78099663Y-106519265D01*
X78039636Y-106756304D01*
X78039634Y-106756316D01*
X78019443Y-106999994D01*
X65780557Y-106999994D01*
X65760365Y-106756316D01*
X65760363Y-106756304D01*
X65723878Y-106612230D01*
X65700336Y-106519264D01*
X65602111Y-106295333D01*
X65468367Y-106090621D01*
X65302757Y-105910722D01*
X65302747Y-105910713D01*
X65109791Y-105760529D01*
X65109787Y-105760526D01*
X64894734Y-105644145D01*
X64894729Y-105644143D01*
X64663458Y-105564748D01*
X64482561Y-105534562D01*
X64422263Y-105524500D01*
X64177737Y-105524500D01*
X64129498Y-105532549D01*
X63936541Y-105564748D01*
X63705270Y-105644143D01*
X63705265Y-105644145D01*
X63490212Y-105760526D01*
X63490208Y-105760529D01*
X63297252Y-105910713D01*
X63297242Y-105910722D01*
X63131632Y-106090621D01*
X62997888Y-106295333D01*
X62899663Y-106519265D01*
X62839636Y-106756304D01*
X62839634Y-106756316D01*
X62819443Y-106999994D01*
X55250500Y-106999994D01*
X55250500Y-91999996D01*
X147754435Y-91999996D01*
X147754435Y-92000003D01*
X147774630Y-92179249D01*
X147774631Y-92179254D01*
X147834211Y-92349524D01*
X147890493Y-92439094D01*
X147909500Y-92505067D01*
X147909500Y-97434931D01*
X147890494Y-97500903D01*
X147834211Y-97590477D01*
X147834209Y-97590481D01*
X147774633Y-97760737D01*
X147774630Y-97760750D01*
X147754435Y-97939996D01*
X147754435Y-97940003D01*
X147774630Y-98119249D01*
X147774631Y-98119254D01*
X147834211Y-98289523D01*
X147930184Y-98442262D01*
X148057738Y-98569816D01*
X148210478Y-98665789D01*
X148380745Y-98725368D01*
X148380750Y-98725369D01*
X148559996Y-98745565D01*
X148560000Y-98745565D01*
X148560004Y-98745565D01*
X148739249Y-98725369D01*
X148739252Y-98725368D01*
X148739255Y-98725368D01*
X148909522Y-98665789D01*
X149062262Y-98569816D01*
X149189816Y-98442262D01*
X149285789Y-98289522D01*
X149345368Y-98119255D01*
X149350336Y-98075165D01*
X149365565Y-97940003D01*
X149365565Y-97939996D01*
X149345369Y-97760750D01*
X149345366Y-97760737D01*
X149285790Y-97590481D01*
X149285789Y-97590478D01*
X149264008Y-97555814D01*
X149229506Y-97500903D01*
X149210500Y-97434931D01*
X149210500Y-92505067D01*
X149229507Y-92439094D01*
X149285788Y-92349524D01*
X149285789Y-92349522D01*
X149345368Y-92179255D01*
X149365565Y-92000000D01*
X149359304Y-91944435D01*
X149345369Y-91820750D01*
X149345368Y-91820745D01*
X149285788Y-91650476D01*
X149189815Y-91497737D01*
X149062262Y-91370184D01*
X148909523Y-91274211D01*
X148739254Y-91214631D01*
X148739249Y-91214630D01*
X148560004Y-91194435D01*
X148559996Y-91194435D01*
X148380750Y-91214630D01*
X148380745Y-91214631D01*
X148210476Y-91274211D01*
X148057737Y-91370184D01*
X147930184Y-91497737D01*
X147834211Y-91650476D01*
X147774631Y-91820745D01*
X147774630Y-91820750D01*
X147754435Y-91999996D01*
X55250500Y-91999996D01*
X55250500Y-87749996D01*
X61944435Y-87749996D01*
X61944435Y-87750003D01*
X61964630Y-87929249D01*
X61964631Y-87929254D01*
X62024211Y-88099523D01*
X62120184Y-88252262D01*
X62247738Y-88379816D01*
X62338080Y-88436582D01*
X62393903Y-88471658D01*
X62400478Y-88475789D01*
X62567201Y-88534128D01*
X62570745Y-88535368D01*
X62570750Y-88535369D01*
X62749996Y-88555565D01*
X62750000Y-88555565D01*
X62750004Y-88555565D01*
X62929249Y-88535369D01*
X62929252Y-88535368D01*
X62929255Y-88535368D01*
X63009017Y-88507457D01*
X63049972Y-88500500D01*
X81823920Y-88500500D01*
X81921462Y-88481096D01*
X81968913Y-88471658D01*
X82105495Y-88415084D01*
X82158277Y-88379816D01*
X82228416Y-88332952D01*
X84332951Y-86228416D01*
X84373300Y-86168030D01*
X84383520Y-86152735D01*
X84383520Y-86152734D01*
X84385013Y-86150500D01*
X84415084Y-86105495D01*
X84471658Y-85968913D01*
X84482460Y-85914609D01*
X84500500Y-85823920D01*
X84500500Y-84749996D01*
X132444435Y-84749996D01*
X132444435Y-84750003D01*
X132464630Y-84929249D01*
X132464631Y-84929254D01*
X132524211Y-85099523D01*
X132567367Y-85168205D01*
X132620184Y-85252262D01*
X132747738Y-85379816D01*
X132760397Y-85387770D01*
X132867088Y-85454809D01*
X132900478Y-85475789D01*
X133070745Y-85535368D01*
X133077974Y-85536182D01*
X133142388Y-85563246D01*
X133151776Y-85571722D01*
X133494724Y-85914669D01*
X133548962Y-85968907D01*
X133585332Y-86005277D01*
X133691866Y-86076461D01*
X133691872Y-86076464D01*
X133691873Y-86076465D01*
X133810256Y-86125501D01*
X133810260Y-86125501D01*
X133810261Y-86125502D01*
X133935928Y-86150500D01*
X133935931Y-86150500D01*
X149683317Y-86150500D01*
X149750356Y-86170185D01*
X149784892Y-86203377D01*
X149879954Y-86339141D01*
X150040858Y-86500045D01*
X150040861Y-86500047D01*
X150227266Y-86630568D01*
X150433504Y-86726739D01*
X150653308Y-86785635D01*
X150815230Y-86799801D01*
X150879998Y-86805468D01*
X150880000Y-86805468D01*
X150880002Y-86805468D01*
X150936673Y-86800509D01*
X151106692Y-86785635D01*
X151326496Y-86726739D01*
X151532734Y-86630568D01*
X151719139Y-86500047D01*
X151880047Y-86339139D01*
X152010568Y-86152734D01*
X152106739Y-85946496D01*
X152165635Y-85726692D01*
X152185468Y-85500000D01*
X152165635Y-85273308D01*
X152119069Y-85099522D01*
X152106741Y-85053511D01*
X152106738Y-85053502D01*
X152048800Y-84929254D01*
X152010568Y-84847266D01*
X151880047Y-84660861D01*
X151880045Y-84660858D01*
X151719141Y-84499954D01*
X151532734Y-84369432D01*
X151532732Y-84369431D01*
X151326497Y-84273261D01*
X151326488Y-84273258D01*
X151106697Y-84214366D01*
X151106693Y-84214365D01*
X151106692Y-84214365D01*
X151106691Y-84214364D01*
X151106686Y-84214364D01*
X150880002Y-84194532D01*
X150879998Y-84194532D01*
X150653313Y-84214364D01*
X150653302Y-84214366D01*
X150433511Y-84273258D01*
X150433502Y-84273261D01*
X150227267Y-84369431D01*
X150227265Y-84369432D01*
X150040858Y-84499954D01*
X149879954Y-84660858D01*
X149784892Y-84796623D01*
X149730315Y-84840248D01*
X149683317Y-84849500D01*
X134320807Y-84849500D01*
X134253768Y-84829815D01*
X134233130Y-84813185D01*
X134071719Y-84651774D01*
X134038237Y-84590453D01*
X134036182Y-84577973D01*
X134035368Y-84570745D01*
X133975789Y-84400478D01*
X133956281Y-84369432D01*
X133908849Y-84293944D01*
X133879816Y-84247738D01*
X133752262Y-84120184D01*
X133599523Y-84024211D01*
X133429254Y-83964631D01*
X133429249Y-83964630D01*
X133250004Y-83944435D01*
X133249996Y-83944435D01*
X133070750Y-83964630D01*
X133070745Y-83964631D01*
X132900476Y-84024211D01*
X132747737Y-84120184D01*
X132620184Y-84247737D01*
X132524211Y-84400476D01*
X132464631Y-84570745D01*
X132464630Y-84570750D01*
X132444435Y-84749996D01*
X84500500Y-84749996D01*
X84500500Y-80821328D01*
X90092200Y-80821328D01*
X90092200Y-81058671D01*
X90129326Y-81293077D01*
X90202668Y-81518798D01*
X90310414Y-81730259D01*
X90449915Y-81922265D01*
X90617735Y-82090085D01*
X90809741Y-82229586D01*
X90909648Y-82280491D01*
X91021201Y-82337331D01*
X91021203Y-82337331D01*
X91021206Y-82337333D01*
X91142196Y-82376645D01*
X91246922Y-82410673D01*
X91481329Y-82447800D01*
X91481334Y-82447800D01*
X91718671Y-82447800D01*
X91953077Y-82410673D01*
X92178794Y-82337333D01*
X92390259Y-82229586D01*
X92582265Y-82090085D01*
X92750085Y-81922265D01*
X92889586Y-81730259D01*
X92997333Y-81518794D01*
X93070673Y-81293077D01*
X93107800Y-81058671D01*
X93107800Y-80821328D01*
X140892200Y-80821328D01*
X140892200Y-81058671D01*
X140929326Y-81293077D01*
X141002668Y-81518798D01*
X141110414Y-81730259D01*
X141249915Y-81922265D01*
X141417735Y-82090085D01*
X141609741Y-82229586D01*
X141709648Y-82280491D01*
X141821201Y-82337331D01*
X141821203Y-82337331D01*
X141821206Y-82337333D01*
X141942196Y-82376645D01*
X142046922Y-82410673D01*
X142281329Y-82447800D01*
X142281334Y-82447800D01*
X142518671Y-82447800D01*
X142753077Y-82410673D01*
X142978794Y-82337333D01*
X143190259Y-82229586D01*
X143382265Y-82090085D01*
X143550085Y-81922265D01*
X143689586Y-81730259D01*
X143797333Y-81518794D01*
X143870673Y-81293077D01*
X143907800Y-81058671D01*
X143907800Y-80821328D01*
X143870673Y-80586922D01*
X143797331Y-80361201D01*
X143689585Y-80149740D01*
X143550085Y-79957735D01*
X143382265Y-79789915D01*
X143190259Y-79650414D01*
X142978798Y-79542668D01*
X142753077Y-79469326D01*
X142518671Y-79432200D01*
X142518666Y-79432200D01*
X142281334Y-79432200D01*
X142281329Y-79432200D01*
X142046922Y-79469326D01*
X141821201Y-79542668D01*
X141609740Y-79650414D01*
X141500194Y-79730004D01*
X141417735Y-79789915D01*
X141417733Y-79789917D01*
X141417732Y-79789917D01*
X141249917Y-79957732D01*
X141249917Y-79957733D01*
X141249915Y-79957735D01*
X141190004Y-80040194D01*
X141110414Y-80149740D01*
X141002668Y-80361201D01*
X140929326Y-80586922D01*
X140892200Y-80821328D01*
X93107800Y-80821328D01*
X93070673Y-80586922D01*
X92997331Y-80361201D01*
X92889585Y-80149740D01*
X92750085Y-79957735D01*
X92582265Y-79789915D01*
X92390259Y-79650414D01*
X92178798Y-79542668D01*
X91953077Y-79469326D01*
X91718671Y-79432200D01*
X91718666Y-79432200D01*
X91481334Y-79432200D01*
X91481329Y-79432200D01*
X91246922Y-79469326D01*
X91021201Y-79542668D01*
X90809740Y-79650414D01*
X90700194Y-79730004D01*
X90617735Y-79789915D01*
X90617733Y-79789917D01*
X90617732Y-79789917D01*
X90449917Y-79957732D01*
X90449917Y-79957733D01*
X90449915Y-79957735D01*
X90390004Y-80040194D01*
X90310414Y-80149740D01*
X90202668Y-80361201D01*
X90129326Y-80586922D01*
X90092200Y-80821328D01*
X84500500Y-80821328D01*
X84500500Y-51612229D01*
X84520185Y-51545190D01*
X84536819Y-51524548D01*
X86024548Y-50036819D01*
X86085871Y-50003334D01*
X86112229Y-50000500D01*
X136637770Y-50000500D01*
X136704809Y-50020185D01*
X136725451Y-50036819D01*
X137613181Y-50924549D01*
X137646666Y-50985872D01*
X137649500Y-51012230D01*
X137649500Y-64973918D01*
X137649500Y-64973920D01*
X137649499Y-64973920D01*
X137678340Y-65118907D01*
X137678343Y-65118917D01*
X137734912Y-65255488D01*
X137734920Y-65255502D01*
X137762169Y-65296282D01*
X137762170Y-65296285D01*
X137762171Y-65296285D01*
X137817051Y-65378420D01*
X137817052Y-65378421D01*
X139521584Y-67082952D01*
X139521586Y-67082954D01*
X139551058Y-67102645D01*
X139595268Y-67132184D01*
X139595270Y-67132187D01*
X139595271Y-67132187D01*
X139644496Y-67165079D01*
X139644511Y-67165087D01*
X139701079Y-67188518D01*
X139701080Y-67188518D01*
X139781088Y-67221659D01*
X139897241Y-67244763D01*
X139916468Y-67248587D01*
X139926081Y-67250500D01*
X139926082Y-67250500D01*
X139926083Y-67250500D01*
X140073918Y-67250500D01*
X169637770Y-67250500D01*
X169704809Y-67270185D01*
X169725451Y-67286819D01*
X170133181Y-67694548D01*
X170166666Y-67755871D01*
X170169500Y-67782229D01*
X170169500Y-84473089D01*
X170149815Y-84540128D01*
X170133181Y-84560770D01*
X169981472Y-84712478D01*
X169858977Y-84887421D01*
X169768725Y-85080968D01*
X169768721Y-85080977D01*
X169713452Y-85287247D01*
X169713450Y-85287258D01*
X169694838Y-85499998D01*
X169694838Y-85500001D01*
X169713450Y-85712741D01*
X169713452Y-85712752D01*
X169768721Y-85919022D01*
X169768723Y-85919026D01*
X169768724Y-85919030D01*
X169808942Y-86005277D01*
X169858977Y-86112578D01*
X169981472Y-86287521D01*
X170133181Y-86439230D01*
X170166666Y-86500553D01*
X170169500Y-86526911D01*
X170169500Y-88717770D01*
X170149815Y-88784809D01*
X170133181Y-88805451D01*
X169225451Y-89713181D01*
X169164128Y-89746666D01*
X169137770Y-89749500D01*
X168112229Y-89749500D01*
X168045190Y-89729815D01*
X168024548Y-89713181D01*
X166906819Y-88595451D01*
X166873334Y-88534128D01*
X166870500Y-88507770D01*
X166870500Y-86626662D01*
X166890185Y-86559623D01*
X166923379Y-86525086D01*
X166959139Y-86500047D01*
X167120047Y-86339139D01*
X167250568Y-86152734D01*
X167346739Y-85946496D01*
X167405635Y-85726692D01*
X167425468Y-85500000D01*
X167405635Y-85273308D01*
X167359069Y-85099522D01*
X167346741Y-85053511D01*
X167346738Y-85053502D01*
X167288800Y-84929254D01*
X167250568Y-84847266D01*
X167120047Y-84660861D01*
X167120045Y-84660858D01*
X166959141Y-84499954D01*
X166772734Y-84369432D01*
X166772732Y-84369431D01*
X166566497Y-84273261D01*
X166566488Y-84273258D01*
X166346697Y-84214366D01*
X166346693Y-84214365D01*
X166346692Y-84214365D01*
X166346691Y-84214364D01*
X166346686Y-84214364D01*
X166120002Y-84194532D01*
X166119998Y-84194532D01*
X165893313Y-84214364D01*
X165893302Y-84214366D01*
X165673511Y-84273258D01*
X165673502Y-84273261D01*
X165467267Y-84369431D01*
X165467265Y-84369432D01*
X165280858Y-84499954D01*
X165119954Y-84660858D01*
X164989432Y-84847265D01*
X164989431Y-84847267D01*
X164893261Y-85053502D01*
X164893258Y-85053511D01*
X164834366Y-85273302D01*
X164834364Y-85273313D01*
X164814532Y-85499998D01*
X164814532Y-85500001D01*
X164834364Y-85726686D01*
X164834366Y-85726697D01*
X164893258Y-85946488D01*
X164893261Y-85946497D01*
X164989431Y-86152732D01*
X164989432Y-86152734D01*
X165119954Y-86339141D01*
X165280859Y-86500046D01*
X165316621Y-86525086D01*
X165360247Y-86579662D01*
X165369500Y-86626662D01*
X165369500Y-88943918D01*
X165369500Y-88943920D01*
X165369499Y-88943920D01*
X165398340Y-89088907D01*
X165398343Y-89088917D01*
X165454914Y-89225492D01*
X165487812Y-89274727D01*
X165487813Y-89274730D01*
X165537046Y-89348414D01*
X165537052Y-89348421D01*
X165726450Y-89537819D01*
X165759935Y-89599142D01*
X165754951Y-89668834D01*
X165713079Y-89724767D01*
X165647615Y-89749184D01*
X165638769Y-89749500D01*
X156426076Y-89749500D01*
X156397242Y-89755234D01*
X156397243Y-89755235D01*
X156281092Y-89778339D01*
X156281086Y-89778341D01*
X156224796Y-89801658D01*
X156144506Y-89834915D01*
X156062372Y-89889795D01*
X156021585Y-89917047D01*
X156021581Y-89917050D01*
X154917048Y-91021583D01*
X154896478Y-91052369D01*
X154876045Y-91082951D01*
X154834919Y-91144499D01*
X154834912Y-91144511D01*
X154778343Y-91281082D01*
X154778340Y-91281092D01*
X154749500Y-91426079D01*
X154749500Y-100818060D01*
X154729815Y-100885099D01*
X154677011Y-100930854D01*
X154607853Y-100940798D01*
X154544297Y-100911773D01*
X154537819Y-100905741D01*
X154502262Y-100870184D01*
X154349523Y-100774211D01*
X154179254Y-100714631D01*
X154179249Y-100714630D01*
X154000004Y-100694435D01*
X153999996Y-100694435D01*
X153820750Y-100714630D01*
X153820737Y-100714633D01*
X153650481Y-100774209D01*
X153650477Y-100774210D01*
X153560904Y-100830494D01*
X153494932Y-100849500D01*
X153427589Y-100849500D01*
X153360550Y-100829815D01*
X153314795Y-100777011D01*
X153304369Y-100739383D01*
X153285369Y-100570750D01*
X153285368Y-100570745D01*
X153225788Y-100400476D01*
X153129815Y-100247737D01*
X153002262Y-100120184D01*
X152849523Y-100024211D01*
X152679254Y-99964631D01*
X152679249Y-99964630D01*
X152500004Y-99944435D01*
X152499996Y-99944435D01*
X152320750Y-99964630D01*
X152320745Y-99964631D01*
X152150476Y-100024211D01*
X152021117Y-100105494D01*
X151955145Y-100124500D01*
X126544855Y-100124500D01*
X126478883Y-100105494D01*
X126349523Y-100024211D01*
X126179254Y-99964631D01*
X126179249Y-99964630D01*
X126000004Y-99944435D01*
X125999996Y-99944435D01*
X125820750Y-99964630D01*
X125820745Y-99964631D01*
X125650476Y-100024211D01*
X125497737Y-100120184D01*
X125370184Y-100247737D01*
X125274211Y-100400476D01*
X125214631Y-100570745D01*
X125214630Y-100570750D01*
X125195631Y-100739383D01*
X125168565Y-100803797D01*
X125110970Y-100843352D01*
X125072411Y-100849500D01*
X123935929Y-100849500D01*
X123810261Y-100874497D01*
X123810255Y-100874499D01*
X123707534Y-100917048D01*
X123707533Y-100917048D01*
X123691876Y-100923533D01*
X123585326Y-100994726D01*
X122994726Y-101585326D01*
X122946959Y-101656817D01*
X122946957Y-101656819D01*
X122923539Y-101691864D01*
X122923533Y-101691875D01*
X122874499Y-101810255D01*
X122874497Y-101810261D01*
X122849500Y-101935928D01*
X122849500Y-115359472D01*
X122829815Y-115426511D01*
X122796624Y-115461047D01*
X122690543Y-115535326D01*
X122690541Y-115535327D01*
X122535327Y-115690541D01*
X122535322Y-115690547D01*
X122409423Y-115870349D01*
X122409419Y-115870357D01*
X122342382Y-116014120D01*
X122296210Y-116066560D01*
X122229017Y-116085712D01*
X122162135Y-116065496D01*
X122117618Y-116014120D01*
X122050580Y-115870357D01*
X122050579Y-115870354D01*
X122050577Y-115870351D01*
X122050576Y-115870349D01*
X121924677Y-115690547D01*
X121924672Y-115690541D01*
X121769458Y-115535327D01*
X121769452Y-115535322D01*
X121589650Y-115409423D01*
X121589642Y-115409419D01*
X121390708Y-115316655D01*
X121390706Y-115316654D01*
X121390703Y-115316653D01*
X121239885Y-115276240D01*
X121178675Y-115259839D01*
X121178668Y-115259838D01*
X120960002Y-115240708D01*
X120959998Y-115240708D01*
X120741331Y-115259838D01*
X120741324Y-115259839D01*
X120618902Y-115292642D01*
X120529297Y-115316653D01*
X120529295Y-115316653D01*
X120529291Y-115316655D01*
X120330357Y-115409419D01*
X120330349Y-115409423D01*
X120150547Y-115535322D01*
X120150541Y-115535327D01*
X119995327Y-115690541D01*
X119995322Y-115690547D01*
X119869423Y-115870349D01*
X119869419Y-115870357D01*
X119802382Y-116014120D01*
X119756210Y-116066560D01*
X119689017Y-116085712D01*
X119622135Y-116065496D01*
X119577618Y-116014120D01*
X119510580Y-115870357D01*
X119510579Y-115870354D01*
X119510577Y-115870351D01*
X119510576Y-115870349D01*
X119384677Y-115690547D01*
X119384672Y-115690541D01*
X119229458Y-115535327D01*
X119229452Y-115535322D01*
X119049650Y-115409423D01*
X119049642Y-115409419D01*
X118850708Y-115316655D01*
X118850706Y-115316654D01*
X118850703Y-115316653D01*
X118699885Y-115276240D01*
X118638675Y-115259839D01*
X118638668Y-115259838D01*
X118420002Y-115240708D01*
X118419998Y-115240708D01*
X118201331Y-115259838D01*
X118201324Y-115259839D01*
X118078902Y-115292642D01*
X117989297Y-115316653D01*
X117989295Y-115316653D01*
X117989291Y-115316655D01*
X117790357Y-115409419D01*
X117790349Y-115409423D01*
X117610547Y-115535322D01*
X117610541Y-115535327D01*
X117455327Y-115690541D01*
X117455322Y-115690547D01*
X117329423Y-115870349D01*
X117329419Y-115870357D01*
X117262382Y-116014120D01*
X117216210Y-116066560D01*
X117149017Y-116085712D01*
X117082135Y-116065496D01*
X117037618Y-116014120D01*
X116970580Y-115870357D01*
X116970579Y-115870354D01*
X116970577Y-115870351D01*
X116970576Y-115870349D01*
X116844677Y-115690547D01*
X116844672Y-115690541D01*
X116689458Y-115535327D01*
X116689452Y-115535322D01*
X116509650Y-115409423D01*
X116509642Y-115409419D01*
X116310708Y-115316655D01*
X116310706Y-115316654D01*
X116310703Y-115316653D01*
X116159885Y-115276240D01*
X116098675Y-115259839D01*
X116098668Y-115259838D01*
X115880002Y-115240708D01*
X115879998Y-115240708D01*
X115661331Y-115259838D01*
X115661324Y-115259839D01*
X115538902Y-115292642D01*
X115449297Y-115316653D01*
X115449295Y-115316653D01*
X115449291Y-115316655D01*
X115250357Y-115409419D01*
X115250349Y-115409423D01*
X115070547Y-115535322D01*
X115070541Y-115535327D01*
X114915327Y-115690541D01*
X114915322Y-115690547D01*
X114789423Y-115870349D01*
X114789419Y-115870357D01*
X114722382Y-116014120D01*
X114676210Y-116066560D01*
X114609017Y-116085712D01*
X114542135Y-116065496D01*
X114497618Y-116014120D01*
X114430580Y-115870357D01*
X114430579Y-115870354D01*
X114430577Y-115870351D01*
X114430576Y-115870349D01*
X114304677Y-115690547D01*
X114304672Y-115690541D01*
X114149458Y-115535327D01*
X114149452Y-115535322D01*
X113969650Y-115409423D01*
X113969642Y-115409419D01*
X113770708Y-115316655D01*
X113770706Y-115316654D01*
X113770703Y-115316653D01*
X113619885Y-115276240D01*
X113558675Y-115259839D01*
X113558668Y-115259838D01*
X113340002Y-115240708D01*
X113339998Y-115240708D01*
X113121331Y-115259838D01*
X113121324Y-115259839D01*
X112998902Y-115292642D01*
X112909297Y-115316653D01*
X112909295Y-115316653D01*
X112909291Y-115316655D01*
X112710357Y-115409419D01*
X112710349Y-115409423D01*
X112530547Y-115535322D01*
X112530541Y-115535327D01*
X112375327Y-115690541D01*
X112375322Y-115690547D01*
X112249423Y-115870349D01*
X112249419Y-115870357D01*
X112182382Y-116014120D01*
X112136210Y-116066560D01*
X112069017Y-116085712D01*
X112002135Y-116065496D01*
X111957618Y-116014120D01*
X111890580Y-115870357D01*
X111890579Y-115870354D01*
X111890577Y-115870351D01*
X111890576Y-115870349D01*
X111764677Y-115690547D01*
X111764672Y-115690541D01*
X111609458Y-115535327D01*
X111609452Y-115535322D01*
X111429650Y-115409423D01*
X111429642Y-115409419D01*
X111230708Y-115316655D01*
X111230706Y-115316654D01*
X111230703Y-115316653D01*
X111079885Y-115276240D01*
X111018675Y-115259839D01*
X111018668Y-115259838D01*
X110800002Y-115240708D01*
X110799998Y-115240708D01*
X110581331Y-115259838D01*
X110581324Y-115259839D01*
X110458902Y-115292642D01*
X110369297Y-115316653D01*
X110369295Y-115316653D01*
X110369291Y-115316655D01*
X110170357Y-115409419D01*
X110170349Y-115409423D01*
X109990547Y-115535322D01*
X109990541Y-115535327D01*
X109835327Y-115690541D01*
X109835322Y-115690547D01*
X109709423Y-115870349D01*
X109709419Y-115870357D01*
X109616655Y-116069291D01*
X109559839Y-116281324D01*
X109559838Y-116281331D01*
X109540708Y-116499997D01*
X109540708Y-116500000D01*
X109559839Y-116718674D01*
X109616653Y-116930703D01*
X109616654Y-116930706D01*
X109616655Y-116930708D01*
X109709419Y-117129642D01*
X109709423Y-117129650D01*
X109835322Y-117309452D01*
X109835327Y-117309458D01*
X109990541Y-117464672D01*
X109990547Y-117464677D01*
X110170349Y-117590576D01*
X110170351Y-117590577D01*
X110170354Y-117590579D01*
X110369297Y-117683347D01*
X110581326Y-117740161D01*
X110737521Y-117753826D01*
X110799998Y-117759292D01*
X110800000Y-117759292D01*
X110800002Y-117759292D01*
X110854668Y-117754509D01*
X111018674Y-117740161D01*
X111230703Y-117683347D01*
X111429646Y-117590579D01*
X111609457Y-117464674D01*
X111764674Y-117309457D01*
X111890579Y-117129646D01*
X111957618Y-116985878D01*
X112003790Y-116933439D01*
X112070983Y-116914287D01*
X112137864Y-116934502D01*
X112182382Y-116985879D01*
X112249419Y-117129642D01*
X112249423Y-117129650D01*
X112375322Y-117309452D01*
X112375327Y-117309458D01*
X112530541Y-117464672D01*
X112530547Y-117464677D01*
X112710349Y-117590576D01*
X112710351Y-117590577D01*
X112710354Y-117590579D01*
X112909297Y-117683347D01*
X113121326Y-117740161D01*
X113277521Y-117753826D01*
X113339998Y-117759292D01*
X113340000Y-117759292D01*
X113340002Y-117759292D01*
X113394668Y-117754509D01*
X113558674Y-117740161D01*
X113770703Y-117683347D01*
X113969646Y-117590579D01*
X114149457Y-117464674D01*
X114304674Y-117309457D01*
X114430579Y-117129646D01*
X114497618Y-116985878D01*
X114543790Y-116933439D01*
X114610983Y-116914287D01*
X114677864Y-116934502D01*
X114722382Y-116985879D01*
X114789419Y-117129642D01*
X114789423Y-117129650D01*
X114915322Y-117309452D01*
X114915327Y-117309458D01*
X115070541Y-117464672D01*
X115070547Y-117464677D01*
X115250349Y-117590576D01*
X115250351Y-117590577D01*
X115250354Y-117590579D01*
X115449297Y-117683347D01*
X115661326Y-117740161D01*
X115817521Y-117753826D01*
X115879998Y-117759292D01*
X115880000Y-117759292D01*
X115880002Y-117759292D01*
X115934668Y-117754509D01*
X116098674Y-117740161D01*
X116310703Y-117683347D01*
X116509646Y-117590579D01*
X116689457Y-117464674D01*
X116844674Y-117309457D01*
X116970579Y-117129646D01*
X117037618Y-116985878D01*
X117083790Y-116933439D01*
X117150983Y-116914287D01*
X117217864Y-116934502D01*
X117262382Y-116985879D01*
X117329419Y-117129642D01*
X117329423Y-117129650D01*
X117455322Y-117309452D01*
X117455327Y-117309458D01*
X117610541Y-117464672D01*
X117610547Y-117464677D01*
X117790349Y-117590576D01*
X117790351Y-117590577D01*
X117790354Y-117590579D01*
X117989297Y-117683347D01*
X118201326Y-117740161D01*
X118357521Y-117753826D01*
X118419998Y-117759292D01*
X118420000Y-117759292D01*
X118420002Y-117759292D01*
X118474668Y-117754509D01*
X118638674Y-117740161D01*
X118850703Y-117683347D01*
X119049646Y-117590579D01*
X119229457Y-117464674D01*
X119384674Y-117309457D01*
X119510579Y-117129646D01*
X119577618Y-116985878D01*
X119623790Y-116933439D01*
X119690983Y-116914287D01*
X119757864Y-116934502D01*
X119802382Y-116985879D01*
X119869419Y-117129642D01*
X119869423Y-117129650D01*
X119995322Y-117309452D01*
X119995327Y-117309458D01*
X120150541Y-117464672D01*
X120150547Y-117464677D01*
X120330349Y-117590576D01*
X120330351Y-117590577D01*
X120330354Y-117590579D01*
X120529297Y-117683347D01*
X120741326Y-117740161D01*
X120897521Y-117753826D01*
X120959998Y-117759292D01*
X120960000Y-117759292D01*
X120960002Y-117759292D01*
X121014668Y-117754509D01*
X121178674Y-117740161D01*
X121390703Y-117683347D01*
X121589646Y-117590579D01*
X121769457Y-117464674D01*
X121924674Y-117309457D01*
X122050579Y-117129646D01*
X122117618Y-116985878D01*
X122163790Y-116933439D01*
X122230983Y-116914287D01*
X122297864Y-116934502D01*
X122342382Y-116985879D01*
X122409419Y-117129642D01*
X122409423Y-117129650D01*
X122535322Y-117309452D01*
X122535327Y-117309458D01*
X122690541Y-117464672D01*
X122690547Y-117464677D01*
X122870349Y-117590576D01*
X122870351Y-117590577D01*
X122870354Y-117590579D01*
X123069297Y-117683347D01*
X123281326Y-117740161D01*
X123437521Y-117753826D01*
X123499998Y-117759292D01*
X123500000Y-117759292D01*
X123500002Y-117759292D01*
X123554668Y-117754509D01*
X123718674Y-117740161D01*
X123930703Y-117683347D01*
X124129646Y-117590579D01*
X124309457Y-117464674D01*
X124464674Y-117309457D01*
X124590579Y-117129646D01*
X124657618Y-116985878D01*
X124703790Y-116933439D01*
X124770983Y-116914287D01*
X124837864Y-116934502D01*
X124882382Y-116985879D01*
X124949419Y-117129642D01*
X124949423Y-117129650D01*
X125075322Y-117309452D01*
X125075327Y-117309458D01*
X125230541Y-117464672D01*
X125230547Y-117464677D01*
X125410349Y-117590576D01*
X125410351Y-117590577D01*
X125410354Y-117590579D01*
X125609297Y-117683347D01*
X125821326Y-117740161D01*
X125977521Y-117753826D01*
X126039998Y-117759292D01*
X126040000Y-117759292D01*
X126040002Y-117759292D01*
X126094668Y-117754509D01*
X126258674Y-117740161D01*
X126470703Y-117683347D01*
X126669646Y-117590579D01*
X126849457Y-117464674D01*
X127004674Y-117309457D01*
X127130579Y-117129646D01*
X127223347Y-116930703D01*
X127280161Y-116718674D01*
X127299292Y-116500000D01*
X127280161Y-116281326D01*
X127223347Y-116069297D01*
X127130579Y-115870354D01*
X127130577Y-115870351D01*
X127130576Y-115870349D01*
X127004677Y-115690547D01*
X127004672Y-115690541D01*
X126849457Y-115535326D01*
X126740112Y-115458761D01*
X126696487Y-115404184D01*
X126687237Y-115357541D01*
X126685158Y-114629815D01*
X126651939Y-103003128D01*
X126670944Y-102936805D01*
X126725789Y-102849522D01*
X126785368Y-102679255D01*
X126791720Y-102622880D01*
X126805565Y-102500003D01*
X126805565Y-102499996D01*
X126785369Y-102320750D01*
X126785367Y-102320742D01*
X126783517Y-102315454D01*
X126779956Y-102245675D01*
X126814685Y-102185048D01*
X126876678Y-102152821D01*
X126900559Y-102150500D01*
X147994932Y-102150500D01*
X148060904Y-102169506D01*
X148150477Y-102225789D01*
X148150481Y-102225790D01*
X148320737Y-102285366D01*
X148320743Y-102285367D01*
X148320745Y-102285368D01*
X148320746Y-102285368D01*
X148320750Y-102285369D01*
X148499996Y-102305565D01*
X148500000Y-102305565D01*
X148500004Y-102305565D01*
X148679249Y-102285369D01*
X148679251Y-102285368D01*
X148679255Y-102285368D01*
X148679258Y-102285366D01*
X148679262Y-102285366D01*
X148794817Y-102244931D01*
X148849522Y-102225789D01*
X148939096Y-102169505D01*
X149005068Y-102150500D01*
X150935931Y-102150500D01*
X153435931Y-102150500D01*
X153494932Y-102150500D01*
X153560904Y-102169506D01*
X153650477Y-102225789D01*
X153650481Y-102225790D01*
X153820737Y-102285366D01*
X153820743Y-102285367D01*
X153820745Y-102285368D01*
X153820746Y-102285368D01*
X153820750Y-102285369D01*
X153999996Y-102305565D01*
X154000000Y-102305565D01*
X154000004Y-102305565D01*
X154179249Y-102285369D01*
X154179252Y-102285368D01*
X154179255Y-102285368D01*
X154349522Y-102225789D01*
X154502262Y-102129816D01*
X154629816Y-102002262D01*
X154674945Y-101930438D01*
X154727280Y-101884148D01*
X154796333Y-101873500D01*
X154860182Y-101901875D01*
X154883041Y-101927521D01*
X154917046Y-101978414D01*
X154917052Y-101978421D01*
X155076450Y-102137819D01*
X155109935Y-102199142D01*
X155104951Y-102268834D01*
X155063079Y-102324767D01*
X154997615Y-102349184D01*
X154988769Y-102349500D01*
X154826080Y-102349500D01*
X154681092Y-102378340D01*
X154681082Y-102378343D01*
X154544508Y-102434914D01*
X154495808Y-102467454D01*
X154421581Y-102517049D01*
X154421578Y-102517052D01*
X152417047Y-104521584D01*
X152417043Y-104521589D01*
X152371032Y-104590453D01*
X152369209Y-104593182D01*
X152352062Y-104618843D01*
X152334916Y-104644504D01*
X152334912Y-104644511D01*
X152278343Y-104781082D01*
X152278340Y-104781092D01*
X152249500Y-104926079D01*
X152249500Y-140450028D01*
X152242542Y-140490982D01*
X152214631Y-140570747D01*
X152194435Y-140749996D01*
X152194435Y-140750003D01*
X152214630Y-140929249D01*
X152214631Y-140929254D01*
X152274211Y-141099523D01*
X152330901Y-141189744D01*
X152370184Y-141252262D01*
X152497738Y-141379816D01*
X152650478Y-141475789D01*
X152820745Y-141535368D01*
X152820750Y-141535369D01*
X152999996Y-141555565D01*
X153000000Y-141555565D01*
X153000004Y-141555565D01*
X153179249Y-141535369D01*
X153179252Y-141535368D01*
X153179255Y-141535368D01*
X153349522Y-141475789D01*
X153502262Y-141379816D01*
X153629816Y-141252262D01*
X153725789Y-141099522D01*
X153785368Y-140929255D01*
X153805565Y-140750000D01*
X153805140Y-140746231D01*
X153785368Y-140570747D01*
X153785368Y-140570745D01*
X153757458Y-140490982D01*
X153750500Y-140450028D01*
X153750500Y-136302155D01*
X157825000Y-136302155D01*
X157825000Y-137000000D01*
X158849722Y-137000000D01*
X158805667Y-137076306D01*
X158775000Y-137190756D01*
X158775000Y-137309244D01*
X158805667Y-137423694D01*
X158849722Y-137500000D01*
X157825000Y-137500000D01*
X157825000Y-138197844D01*
X157831401Y-138257372D01*
X157831403Y-138257379D01*
X157881645Y-138392086D01*
X157881649Y-138392093D01*
X157967809Y-138507187D01*
X157967812Y-138507190D01*
X158082906Y-138593350D01*
X158082913Y-138593354D01*
X158217620Y-138643596D01*
X158217627Y-138643598D01*
X158277155Y-138649999D01*
X158277172Y-138650000D01*
X158975000Y-138650000D01*
X158975000Y-137625277D01*
X159051306Y-137669333D01*
X159165756Y-137700000D01*
X159284244Y-137700000D01*
X159398694Y-137669333D01*
X159475000Y-137625277D01*
X159475000Y-138650000D01*
X160172828Y-138650000D01*
X160172844Y-138649999D01*
X160232372Y-138643598D01*
X160232379Y-138643596D01*
X160367086Y-138593354D01*
X160367093Y-138593350D01*
X160482187Y-138507190D01*
X160482190Y-138507187D01*
X160568350Y-138392093D01*
X160568355Y-138392084D01*
X160597075Y-138315081D01*
X160638945Y-138259147D01*
X160704409Y-138234729D01*
X160772682Y-138249580D01*
X160804484Y-138274428D01*
X160813216Y-138283913D01*
X160813219Y-138283915D01*
X160813222Y-138283918D01*
X160996365Y-138426464D01*
X160996380Y-138426474D01*
X161049516Y-138455229D01*
X161099107Y-138504447D01*
X161114500Y-138564284D01*
X161114500Y-141329070D01*
X161123014Y-141371869D01*
X161131528Y-141414670D01*
X161139499Y-141454744D01*
X161139500Y-141454746D01*
X161188534Y-141573125D01*
X161259726Y-141679673D01*
X162585326Y-143005273D01*
X162585329Y-143005275D01*
X162585331Y-143005277D01*
X162691873Y-143076465D01*
X162810256Y-143125501D01*
X162810260Y-143125501D01*
X162810261Y-143125502D01*
X162935928Y-143150500D01*
X162935931Y-143150500D01*
X172564071Y-143150500D01*
X172648615Y-143133682D01*
X172689744Y-143125501D01*
X172808127Y-143076465D01*
X172914669Y-143005277D01*
X174505276Y-141414670D01*
X174576465Y-141308127D01*
X174625501Y-141189744D01*
X174626537Y-141184535D01*
X174626538Y-141184535D01*
X174626538Y-141184530D01*
X174650500Y-141064069D01*
X174650500Y-124065931D01*
X174650500Y-124065928D01*
X174625502Y-123940261D01*
X174625501Y-123940260D01*
X174625501Y-123940256D01*
X174576465Y-123821873D01*
X174576464Y-123821870D01*
X174505277Y-123715331D01*
X174505271Y-123715324D01*
X172926884Y-122136938D01*
X172893399Y-122075615D01*
X172894791Y-122017162D01*
X172905633Y-121976699D01*
X172905632Y-121976699D01*
X172905635Y-121976692D01*
X172925468Y-121750000D01*
X172905635Y-121523308D01*
X172846739Y-121303504D01*
X172750568Y-121097266D01*
X172620047Y-120910861D01*
X172620045Y-120910858D01*
X172459141Y-120749954D01*
X172272734Y-120619432D01*
X172272732Y-120619431D01*
X172066497Y-120523261D01*
X172066488Y-120523258D01*
X171846697Y-120464366D01*
X171846693Y-120464365D01*
X171846692Y-120464365D01*
X171846691Y-120464364D01*
X171846686Y-120464364D01*
X171620002Y-120444532D01*
X171619998Y-120444532D01*
X171393313Y-120464364D01*
X171393302Y-120464366D01*
X171173511Y-120523258D01*
X171173502Y-120523261D01*
X170967267Y-120619431D01*
X170967265Y-120619432D01*
X170780858Y-120749954D01*
X170619954Y-120910858D01*
X170489432Y-121097265D01*
X170489431Y-121097267D01*
X170393261Y-121303502D01*
X170393258Y-121303511D01*
X170334366Y-121523302D01*
X170334364Y-121523313D01*
X170314532Y-121749998D01*
X170314532Y-121750001D01*
X170334364Y-121976686D01*
X170334366Y-121976697D01*
X170393258Y-122196488D01*
X170393261Y-122196497D01*
X170489431Y-122402732D01*
X170489432Y-122402734D01*
X170619954Y-122589141D01*
X170780858Y-122750045D01*
X170780861Y-122750047D01*
X170967266Y-122880568D01*
X171173504Y-122976739D01*
X171393308Y-123035635D01*
X171555230Y-123049801D01*
X171619998Y-123055468D01*
X171620000Y-123055468D01*
X171620002Y-123055468D01*
X171651421Y-123052719D01*
X171846692Y-123035635D01*
X171887162Y-123024791D01*
X171957012Y-123026452D01*
X172006938Y-123056884D01*
X173313181Y-124363127D01*
X173346666Y-124424450D01*
X173349500Y-124450808D01*
X173349500Y-140679192D01*
X173329815Y-140746231D01*
X173313181Y-140766873D01*
X172266873Y-141813181D01*
X172205550Y-141846666D01*
X172179192Y-141849500D01*
X163320808Y-141849500D01*
X163253769Y-141829815D01*
X163233127Y-141813181D01*
X162451819Y-141031873D01*
X162418334Y-140970550D01*
X162415500Y-140944192D01*
X162415500Y-138564284D01*
X162435185Y-138497245D01*
X162480484Y-138455229D01*
X162533619Y-138426474D01*
X162533620Y-138426472D01*
X162533626Y-138426470D01*
X162716784Y-138283913D01*
X162873979Y-138113153D01*
X163000924Y-137918849D01*
X163094157Y-137706300D01*
X163151134Y-137481305D01*
X163170300Y-137250000D01*
X163170300Y-137249993D01*
X163151135Y-137018702D01*
X163151133Y-137018691D01*
X163094157Y-136793699D01*
X163000924Y-136581151D01*
X162873983Y-136386852D01*
X162873980Y-136386849D01*
X162873979Y-136386847D01*
X162796015Y-136302155D01*
X164325000Y-136302155D01*
X164325000Y-137000000D01*
X165349722Y-137000000D01*
X165305667Y-137076306D01*
X165275000Y-137190756D01*
X165275000Y-137309244D01*
X165305667Y-137423694D01*
X165349722Y-137500000D01*
X164325000Y-137500000D01*
X164325000Y-138197844D01*
X164331401Y-138257372D01*
X164331403Y-138257379D01*
X164381645Y-138392086D01*
X164381649Y-138392093D01*
X164467809Y-138507187D01*
X164467812Y-138507190D01*
X164582906Y-138593350D01*
X164582913Y-138593354D01*
X164717620Y-138643596D01*
X164717627Y-138643598D01*
X164777155Y-138649999D01*
X164777172Y-138650000D01*
X165475000Y-138650000D01*
X165475000Y-137625277D01*
X165551306Y-137669333D01*
X165665756Y-137700000D01*
X165784244Y-137700000D01*
X165898694Y-137669333D01*
X165975000Y-137625277D01*
X165975000Y-138650000D01*
X166672828Y-138650000D01*
X166672844Y-138649999D01*
X166732372Y-138643598D01*
X166732379Y-138643596D01*
X166867086Y-138593354D01*
X166867093Y-138593350D01*
X166982187Y-138507190D01*
X166982190Y-138507187D01*
X167068350Y-138392093D01*
X167068355Y-138392084D01*
X167097075Y-138315081D01*
X167138945Y-138259147D01*
X167204409Y-138234729D01*
X167272682Y-138249580D01*
X167304484Y-138274428D01*
X167313216Y-138283913D01*
X167313219Y-138283915D01*
X167313222Y-138283918D01*
X167496365Y-138426464D01*
X167496371Y-138426468D01*
X167496374Y-138426470D01*
X167700497Y-138536936D01*
X167780159Y-138564284D01*
X167920015Y-138612297D01*
X167920017Y-138612297D01*
X167920019Y-138612298D01*
X168148951Y-138650500D01*
X168148952Y-138650500D01*
X168381048Y-138650500D01*
X168381049Y-138650500D01*
X168609981Y-138612298D01*
X168829503Y-138536936D01*
X169033626Y-138426470D01*
X169216784Y-138283913D01*
X169373979Y-138113153D01*
X169476209Y-137956678D01*
X169529354Y-137911322D01*
X169580017Y-137900500D01*
X170314071Y-137900500D01*
X170398615Y-137883682D01*
X170439744Y-137875501D01*
X170558127Y-137826465D01*
X170664669Y-137755277D01*
X172125277Y-136294669D01*
X172196466Y-136188126D01*
X172225189Y-136118779D01*
X172245501Y-136069744D01*
X172270500Y-135944069D01*
X172270500Y-130446682D01*
X172290185Y-130379643D01*
X172323371Y-130345111D01*
X172459139Y-130250047D01*
X172620047Y-130089139D01*
X172750568Y-129902734D01*
X172846739Y-129696496D01*
X172905635Y-129476692D01*
X172925468Y-129250000D01*
X172905635Y-129023308D01*
X172846739Y-128803504D01*
X172750568Y-128597266D01*
X172620047Y-128410861D01*
X172620045Y-128410858D01*
X172459141Y-128249954D01*
X172272734Y-128119432D01*
X172272732Y-128119431D01*
X172066497Y-128023261D01*
X172066488Y-128023258D01*
X171846697Y-127964366D01*
X171846693Y-127964365D01*
X171846692Y-127964365D01*
X171846691Y-127964364D01*
X171846686Y-127964364D01*
X171620002Y-127944532D01*
X171619998Y-127944532D01*
X171393313Y-127964364D01*
X171393302Y-127964366D01*
X171173511Y-128023258D01*
X171173502Y-128023261D01*
X170967267Y-128119431D01*
X170967265Y-128119432D01*
X170780858Y-128249954D01*
X170619954Y-128410858D01*
X170489432Y-128597265D01*
X170489431Y-128597267D01*
X170393261Y-128803502D01*
X170393258Y-128803511D01*
X170334366Y-129023302D01*
X170334364Y-129023313D01*
X170314532Y-129249998D01*
X170314532Y-129250001D01*
X170334364Y-129476686D01*
X170334366Y-129476697D01*
X170393258Y-129696488D01*
X170393261Y-129696497D01*
X170489431Y-129902732D01*
X170489432Y-129902734D01*
X170619954Y-130089141D01*
X170780855Y-130250042D01*
X170780858Y-130250044D01*
X170780861Y-130250047D01*
X170916626Y-130345109D01*
X170960248Y-130399683D01*
X170969500Y-130446682D01*
X170969500Y-135559192D01*
X170949815Y-135626231D01*
X170933181Y-135646873D01*
X170016873Y-136563181D01*
X169955550Y-136596666D01*
X169929192Y-136599500D01*
X169580017Y-136599500D01*
X169512978Y-136579815D01*
X169476208Y-136543321D01*
X169373983Y-136386852D01*
X169373980Y-136386849D01*
X169373979Y-136386847D01*
X169216784Y-136216087D01*
X169216779Y-136216083D01*
X169216777Y-136216081D01*
X169033634Y-136073535D01*
X169033628Y-136073531D01*
X168829504Y-135963064D01*
X168829495Y-135963061D01*
X168609984Y-135887702D01*
X168422404Y-135856401D01*
X168381049Y-135849500D01*
X168148951Y-135849500D01*
X168107596Y-135856401D01*
X167920015Y-135887702D01*
X167700504Y-135963061D01*
X167700495Y-135963064D01*
X167496371Y-136073531D01*
X167496365Y-136073535D01*
X167313222Y-136216081D01*
X167313215Y-136216087D01*
X167304484Y-136225572D01*
X167244595Y-136261561D01*
X167174757Y-136259458D01*
X167117143Y-136219932D01*
X167097075Y-136184918D01*
X167068355Y-136107915D01*
X167068350Y-136107906D01*
X166982190Y-135992812D01*
X166982187Y-135992809D01*
X166867093Y-135906649D01*
X166867086Y-135906645D01*
X166732379Y-135856403D01*
X166732372Y-135856401D01*
X166672844Y-135850000D01*
X165975000Y-135850000D01*
X165975000Y-136874722D01*
X165898694Y-136830667D01*
X165784244Y-136800000D01*
X165665756Y-136800000D01*
X165551306Y-136830667D01*
X165475000Y-136874722D01*
X165475000Y-135850000D01*
X164777155Y-135850000D01*
X164717627Y-135856401D01*
X164717620Y-135856403D01*
X164582913Y-135906645D01*
X164582906Y-135906649D01*
X164467812Y-135992809D01*
X164467809Y-135992812D01*
X164381649Y-136107906D01*
X164381645Y-136107913D01*
X164331403Y-136242620D01*
X164331401Y-136242627D01*
X164325000Y-136302155D01*
X162796015Y-136302155D01*
X162716784Y-136216087D01*
X162716779Y-136216083D01*
X162716777Y-136216081D01*
X162533634Y-136073535D01*
X162533628Y-136073531D01*
X162329504Y-135963064D01*
X162329495Y-135963061D01*
X162109984Y-135887702D01*
X161922404Y-135856401D01*
X161881049Y-135849500D01*
X161648951Y-135849500D01*
X161607596Y-135856401D01*
X161420015Y-135887702D01*
X161200504Y-135963061D01*
X161200495Y-135963064D01*
X160996371Y-136073531D01*
X160996365Y-136073535D01*
X160813222Y-136216081D01*
X160813215Y-136216087D01*
X160804484Y-136225572D01*
X160744595Y-136261561D01*
X160674757Y-136259458D01*
X160617143Y-136219932D01*
X160597075Y-136184918D01*
X160568355Y-136107915D01*
X160568350Y-136107906D01*
X160482190Y-135992812D01*
X160482187Y-135992809D01*
X160367093Y-135906649D01*
X160367086Y-135906645D01*
X160232379Y-135856403D01*
X160232372Y-135856401D01*
X160172844Y-135850000D01*
X159475000Y-135850000D01*
X159475000Y-136874722D01*
X159398694Y-136830667D01*
X159284244Y-136800000D01*
X159165756Y-136800000D01*
X159051306Y-136830667D01*
X158975000Y-136874722D01*
X158975000Y-135850000D01*
X158277155Y-135850000D01*
X158217627Y-135856401D01*
X158217620Y-135856403D01*
X158082913Y-135906645D01*
X158082906Y-135906649D01*
X157967812Y-135992809D01*
X157967809Y-135992812D01*
X157881649Y-136107906D01*
X157881645Y-136107913D01*
X157831403Y-136242620D01*
X157831401Y-136242627D01*
X157825000Y-136302155D01*
X153750500Y-136302155D01*
X153750500Y-129249998D01*
X155074532Y-129249998D01*
X155074532Y-129250001D01*
X155094364Y-129476686D01*
X155094366Y-129476697D01*
X155153258Y-129696488D01*
X155153261Y-129696497D01*
X155249431Y-129902732D01*
X155249432Y-129902734D01*
X155379954Y-130089141D01*
X155540858Y-130250045D01*
X155540861Y-130250047D01*
X155727266Y-130380568D01*
X155933504Y-130476739D01*
X156153308Y-130535635D01*
X156315230Y-130549801D01*
X156379998Y-130555468D01*
X156380000Y-130555468D01*
X156380002Y-130555468D01*
X156436673Y-130550509D01*
X156606692Y-130535635D01*
X156826496Y-130476739D01*
X157032734Y-130380568D01*
X157219139Y-130250047D01*
X157380047Y-130089139D01*
X157510568Y-129902734D01*
X157606739Y-129696496D01*
X157665635Y-129476692D01*
X157685468Y-129250000D01*
X157665635Y-129023308D01*
X157606739Y-128803504D01*
X157510568Y-128597266D01*
X157380047Y-128410861D01*
X157380045Y-128410858D01*
X157219141Y-128249954D01*
X157032734Y-128119432D01*
X157032732Y-128119431D01*
X156826497Y-128023261D01*
X156826488Y-128023258D01*
X156606697Y-127964366D01*
X156606693Y-127964365D01*
X156606692Y-127964365D01*
X156606691Y-127964364D01*
X156606686Y-127964364D01*
X156380002Y-127944532D01*
X156379998Y-127944532D01*
X156153313Y-127964364D01*
X156153302Y-127964366D01*
X155933511Y-128023258D01*
X155933502Y-128023261D01*
X155727267Y-128119431D01*
X155727265Y-128119432D01*
X155540858Y-128249954D01*
X155379954Y-128410858D01*
X155249432Y-128597265D01*
X155249431Y-128597267D01*
X155153261Y-128803502D01*
X155153258Y-128803511D01*
X155094366Y-129023302D01*
X155094364Y-129023313D01*
X155074532Y-129249998D01*
X153750500Y-129249998D01*
X153750500Y-121749998D01*
X155074532Y-121749998D01*
X155074532Y-121750001D01*
X155094364Y-121976686D01*
X155094366Y-121976697D01*
X155153258Y-122196488D01*
X155153261Y-122196497D01*
X155249431Y-122402732D01*
X155249432Y-122402734D01*
X155379954Y-122589141D01*
X155540858Y-122750045D01*
X155540861Y-122750047D01*
X155727266Y-122880568D01*
X155933504Y-122976739D01*
X156153308Y-123035635D01*
X156315230Y-123049801D01*
X156379998Y-123055468D01*
X156380000Y-123055468D01*
X156380002Y-123055468D01*
X156436673Y-123050509D01*
X156606692Y-123035635D01*
X156826496Y-122976739D01*
X157032734Y-122880568D01*
X157219139Y-122750047D01*
X157380047Y-122589139D01*
X157510568Y-122402734D01*
X157606739Y-122196496D01*
X157665635Y-121976692D01*
X157685468Y-121750000D01*
X157665635Y-121523308D01*
X157606739Y-121303504D01*
X157510568Y-121097266D01*
X157380047Y-120910861D01*
X157380045Y-120910858D01*
X157219141Y-120749954D01*
X157032734Y-120619432D01*
X157032732Y-120619431D01*
X156826497Y-120523261D01*
X156826488Y-120523258D01*
X156606697Y-120464366D01*
X156606693Y-120464365D01*
X156606692Y-120464365D01*
X156606691Y-120464364D01*
X156606686Y-120464364D01*
X156380002Y-120444532D01*
X156379998Y-120444532D01*
X156153313Y-120464364D01*
X156153302Y-120464366D01*
X155933511Y-120523258D01*
X155933502Y-120523261D01*
X155727267Y-120619431D01*
X155727265Y-120619432D01*
X155540858Y-120749954D01*
X155379954Y-120910858D01*
X155249432Y-121097265D01*
X155249431Y-121097267D01*
X155153261Y-121303502D01*
X155153258Y-121303511D01*
X155094366Y-121523302D01*
X155094364Y-121523313D01*
X155074532Y-121749998D01*
X153750500Y-121749998D01*
X153750500Y-106612230D01*
X153770185Y-106545191D01*
X153786819Y-106524549D01*
X154824549Y-105486819D01*
X154885872Y-105453334D01*
X154912230Y-105450500D01*
X158325500Y-105450500D01*
X158392539Y-105470185D01*
X158438294Y-105522989D01*
X158449500Y-105574500D01*
X158449500Y-105822869D01*
X158449501Y-105822879D01*
X158456367Y-105886751D01*
X158456367Y-105913257D01*
X158455909Y-105917516D01*
X158455909Y-105917517D01*
X158449500Y-105977127D01*
X158449500Y-105977129D01*
X158449500Y-105977133D01*
X158449500Y-106622870D01*
X158449501Y-106622876D01*
X158455908Y-106682483D01*
X158506202Y-106817328D01*
X158506206Y-106817335D01*
X158592452Y-106932544D01*
X158592455Y-106932547D01*
X158707664Y-107018793D01*
X158707671Y-107018797D01*
X158842517Y-107069091D01*
X158842516Y-107069091D01*
X158849444Y-107069835D01*
X158902127Y-107075500D01*
X160300500Y-107075499D01*
X160367539Y-107095184D01*
X160413294Y-107147987D01*
X160424500Y-107199499D01*
X160424500Y-108597870D01*
X160424501Y-108597876D01*
X160430908Y-108657483D01*
X160481202Y-108792328D01*
X160481204Y-108792331D01*
X160524766Y-108850522D01*
X160549184Y-108915985D01*
X160549500Y-108924833D01*
X160549500Y-113574507D01*
X160530494Y-113640478D01*
X160524209Y-113650479D01*
X160464633Y-113820737D01*
X160464630Y-113820750D01*
X160444435Y-113999996D01*
X160444435Y-114000003D01*
X160464630Y-114179249D01*
X160464631Y-114179254D01*
X160524211Y-114349523D01*
X160620184Y-114502262D01*
X160747738Y-114629816D01*
X160900478Y-114725789D01*
X161070745Y-114785368D01*
X161070750Y-114785369D01*
X161249996Y-114805565D01*
X161250000Y-114805565D01*
X161250004Y-114805565D01*
X161429249Y-114785369D01*
X161429252Y-114785368D01*
X161429255Y-114785368D01*
X161599522Y-114725789D01*
X161752262Y-114629816D01*
X161879816Y-114502262D01*
X161975789Y-114349522D01*
X162035368Y-114179255D01*
X162055565Y-114000000D01*
X162035368Y-113820745D01*
X161975789Y-113650478D01*
X161879816Y-113497738D01*
X161879815Y-113497737D01*
X161877700Y-113494371D01*
X161858700Y-113427135D01*
X161879068Y-113360299D01*
X161932335Y-113315085D01*
X161993036Y-113305727D01*
X161993036Y-113305565D01*
X161994089Y-113305565D01*
X161996584Y-113305180D01*
X162000000Y-113305565D01*
X162000000Y-113305564D01*
X162000001Y-113305565D01*
X162000004Y-113305565D01*
X162179249Y-113285369D01*
X162179252Y-113285368D01*
X162179255Y-113285368D01*
X162349522Y-113225789D01*
X162502262Y-113129816D01*
X162629816Y-113002262D01*
X162725789Y-112849522D01*
X162785368Y-112679255D01*
X162805565Y-112500000D01*
X162797119Y-112425040D01*
X162809173Y-112356219D01*
X162856522Y-112304840D01*
X162906456Y-112287936D01*
X162929255Y-112285368D01*
X163099522Y-112225789D01*
X163252262Y-112129816D01*
X163379816Y-112002262D01*
X163475789Y-111849522D01*
X163535368Y-111679255D01*
X163538751Y-111649226D01*
X163565816Y-111584816D01*
X163623409Y-111545259D01*
X163693246Y-111543120D01*
X163753154Y-111579077D01*
X163766963Y-111597137D01*
X163770180Y-111602257D01*
X163770184Y-111602262D01*
X163897738Y-111729816D01*
X164050478Y-111825789D01*
X164118306Y-111849523D01*
X164220745Y-111885368D01*
X164220750Y-111885369D01*
X164399996Y-111905565D01*
X164400000Y-111905565D01*
X164400004Y-111905565D01*
X164579249Y-111885369D01*
X164579252Y-111885368D01*
X164579255Y-111885368D01*
X164749522Y-111825789D01*
X164902262Y-111729816D01*
X165029816Y-111602262D01*
X165125789Y-111449522D01*
X165185368Y-111279255D01*
X165199878Y-111150478D01*
X165205565Y-111100003D01*
X165205565Y-111099996D01*
X165185369Y-110920750D01*
X165185366Y-110920737D01*
X165125790Y-110750481D01*
X165125789Y-110750478D01*
X165101765Y-110712244D01*
X165069506Y-110660903D01*
X165050500Y-110594931D01*
X165050500Y-109174499D01*
X165070185Y-109107460D01*
X165122989Y-109061705D01*
X165174500Y-109050499D01*
X165522871Y-109050499D01*
X165522872Y-109050499D01*
X165582483Y-109044091D01*
X165582486Y-109044089D01*
X165586744Y-109043632D01*
X165613254Y-109043632D01*
X165617514Y-109044089D01*
X165617517Y-109044091D01*
X165677127Y-109050500D01*
X166025500Y-109050499D01*
X166092539Y-109070183D01*
X166138294Y-109122987D01*
X166149500Y-109174499D01*
X166149500Y-109864069D01*
X166164977Y-109941873D01*
X166174499Y-109989744D01*
X166223535Y-110108127D01*
X166288640Y-110205565D01*
X166294726Y-110214673D01*
X166835325Y-110755272D01*
X166835328Y-110755274D01*
X166835331Y-110755277D01*
X166938931Y-110824499D01*
X166941873Y-110826465D01*
X167060256Y-110875501D01*
X167060260Y-110875501D01*
X167060261Y-110875502D01*
X167185928Y-110900500D01*
X167185931Y-110900500D01*
X177244932Y-110900500D01*
X177310904Y-110919506D01*
X177400477Y-110975789D01*
X177400481Y-110975790D01*
X177570737Y-111035366D01*
X177570743Y-111035367D01*
X177570745Y-111035368D01*
X177570746Y-111035368D01*
X177570750Y-111035369D01*
X177749996Y-111055565D01*
X177750000Y-111055565D01*
X177750004Y-111055565D01*
X177929249Y-111035369D01*
X177929252Y-111035368D01*
X177929255Y-111035368D01*
X178099522Y-110975789D01*
X178252262Y-110879816D01*
X178379816Y-110752262D01*
X178475789Y-110599522D01*
X178535368Y-110429255D01*
X178546836Y-110327476D01*
X178555565Y-110250003D01*
X178555565Y-110249996D01*
X178535369Y-110070750D01*
X178535368Y-110070745D01*
X178475789Y-109900478D01*
X178379816Y-109747738D01*
X178252262Y-109620184D01*
X178189096Y-109580494D01*
X178099523Y-109524211D01*
X177929254Y-109464631D01*
X177929249Y-109464630D01*
X177750004Y-109444435D01*
X177749996Y-109444435D01*
X177570750Y-109464630D01*
X177570737Y-109464633D01*
X177400481Y-109524209D01*
X177400477Y-109524210D01*
X177310904Y-109580494D01*
X177244932Y-109599500D01*
X167574500Y-109599500D01*
X167507461Y-109579815D01*
X167461706Y-109527011D01*
X167450500Y-109475500D01*
X167450500Y-108924833D01*
X167470185Y-108857794D01*
X167475225Y-108850533D01*
X167518796Y-108792331D01*
X167569091Y-108657483D01*
X167575500Y-108597873D01*
X167575499Y-107199498D01*
X167595184Y-107132460D01*
X167647987Y-107086705D01*
X167699499Y-107075499D01*
X169097871Y-107075499D01*
X169097872Y-107075499D01*
X169157483Y-107069091D01*
X169292331Y-107018796D01*
X169350524Y-106975233D01*
X169415989Y-106950816D01*
X169424835Y-106950500D01*
X179514071Y-106950500D01*
X179604337Y-106932544D01*
X179639744Y-106925501D01*
X179758127Y-106876465D01*
X179864669Y-106805277D01*
X180755277Y-105914669D01*
X180826465Y-105808127D01*
X180875501Y-105689744D01*
X180877586Y-105679259D01*
X180877587Y-105679259D01*
X180877587Y-105679255D01*
X180900500Y-105564069D01*
X180900500Y-63435931D01*
X180900500Y-63435928D01*
X180875502Y-63310261D01*
X180875501Y-63310260D01*
X180875501Y-63310256D01*
X180826465Y-63191873D01*
X180826464Y-63191872D01*
X180826461Y-63191866D01*
X180755277Y-63085332D01*
X180755276Y-63085331D01*
X180664669Y-62994724D01*
X178664674Y-60994727D01*
X178664673Y-60994726D01*
X178664669Y-60994723D01*
X178558127Y-60923535D01*
X178439744Y-60874499D01*
X178439738Y-60874497D01*
X178314071Y-60849500D01*
X178314069Y-60849500D01*
X170320807Y-60849500D01*
X170253768Y-60829815D01*
X170233126Y-60813181D01*
X169566819Y-60146873D01*
X169533334Y-60085550D01*
X169530500Y-60059192D01*
X169530500Y-35941359D01*
X169550185Y-35874320D01*
X169598205Y-35830874D01*
X169614022Y-35822815D01*
X169792365Y-35693242D01*
X169948242Y-35537365D01*
X170077815Y-35359022D01*
X170145719Y-35225754D01*
X173875176Y-35225754D01*
X173875176Y-35225765D01*
X173894930Y-35539764D01*
X173894931Y-35539771D01*
X173912596Y-35632372D01*
X173939556Y-35773705D01*
X173953890Y-35848843D01*
X174051117Y-36148076D01*
X174051119Y-36148081D01*
X174185081Y-36432763D01*
X174185084Y-36432769D01*
X174353671Y-36698421D01*
X174353674Y-36698425D01*
X174554226Y-36940850D01*
X174554228Y-36940852D01*
X174783588Y-37156236D01*
X174783598Y-37156244D01*
X175038124Y-37341168D01*
X175038129Y-37341170D01*
X175038136Y-37341176D01*
X175313854Y-37492754D01*
X175313859Y-37492756D01*
X175313861Y-37492757D01*
X175313862Y-37492758D01*
X175606391Y-37608578D01*
X175606394Y-37608579D01*
X175911143Y-37686825D01*
X175911147Y-37686826D01*
X175976630Y-37695098D01*
X176223290Y-37726259D01*
X176223299Y-37726259D01*
X176223302Y-37726260D01*
X176223304Y-37726260D01*
X176537936Y-37726260D01*
X176537938Y-37726260D01*
X176537941Y-37726259D01*
X176537949Y-37726259D01*
X176724213Y-37702728D01*
X176850093Y-37686826D01*
X177154845Y-37608579D01*
X177154848Y-37608578D01*
X177447377Y-37492758D01*
X177447378Y-37492757D01*
X177447376Y-37492757D01*
X177447386Y-37492754D01*
X177723104Y-37341176D01*
X177977650Y-37156238D01*
X178207010Y-36940854D01*
X178407567Y-36698423D01*
X178576157Y-36432767D01*
X178710123Y-36148075D01*
X178807351Y-35848839D01*
X178866308Y-35539775D01*
X178866480Y-35537041D01*
X178886064Y-35225765D01*
X178886064Y-35225754D01*
X178866309Y-34911755D01*
X178866308Y-34911748D01*
X178866308Y-34911745D01*
X178807351Y-34602681D01*
X178710123Y-34303445D01*
X178576157Y-34018753D01*
X178407567Y-33753097D01*
X178407565Y-33753094D01*
X178207013Y-33510669D01*
X178207011Y-33510667D01*
X177977651Y-33295283D01*
X177977641Y-33295275D01*
X177723115Y-33110351D01*
X177723108Y-33110346D01*
X177723104Y-33110344D01*
X177447386Y-32958766D01*
X177447383Y-32958764D01*
X177447378Y-32958762D01*
X177447377Y-32958761D01*
X177154848Y-32842941D01*
X177154845Y-32842940D01*
X176850096Y-32764694D01*
X176850083Y-32764692D01*
X176537949Y-32725260D01*
X176537938Y-32725260D01*
X176223302Y-32725260D01*
X176223290Y-32725260D01*
X175911156Y-32764692D01*
X175911143Y-32764694D01*
X175606394Y-32842940D01*
X175606391Y-32842941D01*
X175313862Y-32958761D01*
X175313861Y-32958762D01*
X175038136Y-33110344D01*
X175038124Y-33110351D01*
X174783598Y-33295275D01*
X174783588Y-33295283D01*
X174554228Y-33510667D01*
X174554226Y-33510669D01*
X174353674Y-33753094D01*
X174353671Y-33753098D01*
X174185084Y-34018750D01*
X174185081Y-34018756D01*
X174051119Y-34303438D01*
X174051117Y-34303443D01*
X173953890Y-34602676D01*
X173894931Y-34911748D01*
X173894930Y-34911755D01*
X173875176Y-35225754D01*
X170145719Y-35225754D01*
X170177895Y-35162606D01*
X170246015Y-34952951D01*
X170280500Y-34735222D01*
X170280500Y-33714778D01*
X170246015Y-33497049D01*
X170211955Y-33392221D01*
X170177896Y-33287396D01*
X170177895Y-33287393D01*
X170143237Y-33219375D01*
X170077815Y-33090978D01*
X169981755Y-32958762D01*
X169948247Y-32912641D01*
X169948243Y-32912636D01*
X169792363Y-32756756D01*
X169792358Y-32756752D01*
X169614025Y-32627187D01*
X169614024Y-32627186D01*
X169614022Y-32627185D01*
X169551096Y-32595122D01*
X169417606Y-32527104D01*
X169417603Y-32527103D01*
X169207952Y-32458985D01*
X169099086Y-32441742D01*
X168990222Y-32424500D01*
X168769778Y-32424500D01*
X168697201Y-32435995D01*
X168552047Y-32458985D01*
X168342396Y-32527103D01*
X168342393Y-32527104D01*
X168145974Y-32627187D01*
X167967641Y-32756752D01*
X167967636Y-32756756D01*
X167811756Y-32912636D01*
X167811752Y-32912641D01*
X167710318Y-33052254D01*
X167654988Y-33094920D01*
X167585375Y-33100899D01*
X167523580Y-33068293D01*
X167509682Y-33052254D01*
X167408247Y-32912641D01*
X167408243Y-32912636D01*
X167252363Y-32756756D01*
X167252358Y-32756752D01*
X167074025Y-32627187D01*
X167074024Y-32627186D01*
X167074022Y-32627185D01*
X167011096Y-32595122D01*
X166877606Y-32527104D01*
X166877603Y-32527103D01*
X166667952Y-32458985D01*
X166559086Y-32441742D01*
X166450222Y-32424500D01*
X166229778Y-32424500D01*
X166157201Y-32435995D01*
X166012047Y-32458985D01*
X165802396Y-32527103D01*
X165802393Y-32527104D01*
X165605974Y-32627187D01*
X165427641Y-32756752D01*
X165427636Y-32756756D01*
X165271756Y-32912636D01*
X165271752Y-32912641D01*
X165170318Y-33052254D01*
X165114988Y-33094920D01*
X165045375Y-33100899D01*
X164983580Y-33068293D01*
X164969682Y-33052254D01*
X164868247Y-32912641D01*
X164868243Y-32912636D01*
X164712363Y-32756756D01*
X164712358Y-32756752D01*
X164534025Y-32627187D01*
X164534024Y-32627186D01*
X164534022Y-32627185D01*
X164471096Y-32595122D01*
X164337606Y-32527104D01*
X164337603Y-32527103D01*
X164127952Y-32458985D01*
X164019086Y-32441742D01*
X163910222Y-32424500D01*
X163689778Y-32424500D01*
X163617201Y-32435995D01*
X163472047Y-32458985D01*
X163262396Y-32527103D01*
X163262393Y-32527104D01*
X163065974Y-32627187D01*
X162887641Y-32756752D01*
X162887636Y-32756756D01*
X162731756Y-32912636D01*
X162731752Y-32912641D01*
X162630318Y-33052254D01*
X162574988Y-33094920D01*
X162505375Y-33100899D01*
X162443580Y-33068293D01*
X162429682Y-33052254D01*
X162328247Y-32912641D01*
X162328243Y-32912636D01*
X162172363Y-32756756D01*
X162172358Y-32756752D01*
X161994025Y-32627187D01*
X161994024Y-32627186D01*
X161994022Y-32627185D01*
X161931096Y-32595122D01*
X161797606Y-32527104D01*
X161797603Y-32527103D01*
X161587952Y-32458985D01*
X161479086Y-32441742D01*
X161370222Y-32424500D01*
X161149778Y-32424500D01*
X161077201Y-32435995D01*
X160932047Y-32458985D01*
X160722396Y-32527103D01*
X160722393Y-32527104D01*
X160525974Y-32627187D01*
X160347641Y-32756752D01*
X160347636Y-32756756D01*
X160191756Y-32912636D01*
X160191752Y-32912641D01*
X160090318Y-33052254D01*
X160034988Y-33094920D01*
X159965375Y-33100899D01*
X159903580Y-33068293D01*
X159889682Y-33052254D01*
X159788247Y-32912641D01*
X159788243Y-32912636D01*
X159632363Y-32756756D01*
X159632358Y-32756752D01*
X159454025Y-32627187D01*
X159454024Y-32627186D01*
X159454022Y-32627185D01*
X159391096Y-32595122D01*
X159257606Y-32527104D01*
X159257603Y-32527103D01*
X159047952Y-32458985D01*
X158939086Y-32441742D01*
X158830222Y-32424500D01*
X158609778Y-32424500D01*
X158537201Y-32435995D01*
X158392047Y-32458985D01*
X158182396Y-32527103D01*
X158182393Y-32527104D01*
X157985974Y-32627187D01*
X157807641Y-32756752D01*
X157807636Y-32756756D01*
X157651756Y-32912636D01*
X157651752Y-32912641D01*
X157550318Y-33052254D01*
X157494988Y-33094920D01*
X157425375Y-33100899D01*
X157363580Y-33068293D01*
X157349682Y-33052254D01*
X157248247Y-32912641D01*
X157248243Y-32912636D01*
X157092363Y-32756756D01*
X157092358Y-32756752D01*
X156914025Y-32627187D01*
X156914024Y-32627186D01*
X156914022Y-32627185D01*
X156851096Y-32595122D01*
X156717606Y-32527104D01*
X156717603Y-32527103D01*
X156507952Y-32458985D01*
X156399086Y-32441742D01*
X156290222Y-32424500D01*
X156069778Y-32424500D01*
X155997201Y-32435995D01*
X155852047Y-32458985D01*
X155642396Y-32527103D01*
X155642393Y-32527104D01*
X155445974Y-32627187D01*
X155267641Y-32756752D01*
X155267636Y-32756756D01*
X155111756Y-32912636D01*
X155111752Y-32912641D01*
X155010318Y-33052254D01*
X154954988Y-33094920D01*
X154885375Y-33100899D01*
X154823580Y-33068293D01*
X154809682Y-33052254D01*
X154708247Y-32912641D01*
X154708243Y-32912636D01*
X154552363Y-32756756D01*
X154552358Y-32756752D01*
X154374025Y-32627187D01*
X154374024Y-32627186D01*
X154374022Y-32627185D01*
X154311096Y-32595122D01*
X154177606Y-32527104D01*
X154177603Y-32527103D01*
X153967952Y-32458985D01*
X153859086Y-32441742D01*
X153750222Y-32424500D01*
X153529778Y-32424500D01*
X153457201Y-32435995D01*
X153312047Y-32458985D01*
X153102396Y-32527103D01*
X153102393Y-32527104D01*
X152905974Y-32627187D01*
X152727641Y-32756752D01*
X152727636Y-32756756D01*
X152571756Y-32912636D01*
X152571752Y-32912641D01*
X152470318Y-33052254D01*
X152414988Y-33094920D01*
X152345375Y-33100899D01*
X152283580Y-33068293D01*
X152269682Y-33052254D01*
X152168247Y-32912641D01*
X152168243Y-32912636D01*
X152012363Y-32756756D01*
X152012358Y-32756752D01*
X151834025Y-32627187D01*
X151834024Y-32627186D01*
X151834022Y-32627185D01*
X151771096Y-32595122D01*
X151637606Y-32527104D01*
X151637603Y-32527103D01*
X151427952Y-32458985D01*
X151319086Y-32441742D01*
X151210222Y-32424500D01*
X150989778Y-32424500D01*
X150917201Y-32435995D01*
X150772047Y-32458985D01*
X150562396Y-32527103D01*
X150562393Y-32527104D01*
X150365974Y-32627187D01*
X150187641Y-32756752D01*
X150187636Y-32756756D01*
X150031756Y-32912636D01*
X150031752Y-32912641D01*
X149930318Y-33052254D01*
X149874988Y-33094920D01*
X149805375Y-33100899D01*
X149743580Y-33068293D01*
X149729682Y-33052254D01*
X149628247Y-32912641D01*
X149628243Y-32912636D01*
X149472363Y-32756756D01*
X149472358Y-32756752D01*
X149294025Y-32627187D01*
X149294024Y-32627186D01*
X149294022Y-32627185D01*
X149231096Y-32595122D01*
X149097606Y-32527104D01*
X149097603Y-32527103D01*
X148887952Y-32458985D01*
X148779086Y-32441742D01*
X148670222Y-32424500D01*
X148449778Y-32424500D01*
X148377201Y-32435995D01*
X148232047Y-32458985D01*
X148022396Y-32527103D01*
X148022393Y-32527104D01*
X147825974Y-32627187D01*
X147647641Y-32756752D01*
X147647636Y-32756756D01*
X147491756Y-32912636D01*
X147390008Y-33052681D01*
X147334678Y-33095346D01*
X147265065Y-33101325D01*
X147203270Y-33068719D01*
X147189372Y-33052680D01*
X147087862Y-32912964D01*
X147087857Y-32912958D01*
X146932041Y-32757142D01*
X146753760Y-32627613D01*
X146557410Y-32527567D01*
X146347836Y-32459473D01*
X146270000Y-32447144D01*
X146270000Y-33676517D01*
X146251591Y-33665889D01*
X146098991Y-33625000D01*
X145941009Y-33625000D01*
X145788409Y-33665889D01*
X145770000Y-33676517D01*
X145770000Y-32447144D01*
X145692164Y-32459473D01*
X145692161Y-32459473D01*
X145482589Y-32527567D01*
X145286239Y-32627613D01*
X145107958Y-32757142D01*
X144952142Y-32912958D01*
X144952142Y-32912959D01*
X144850627Y-33052681D01*
X144795297Y-33095346D01*
X144725683Y-33101325D01*
X144663888Y-33068719D01*
X144649991Y-33052680D01*
X144548247Y-32912641D01*
X144548243Y-32912636D01*
X144392363Y-32756756D01*
X144392358Y-32756752D01*
X144214025Y-32627187D01*
X144214024Y-32627186D01*
X144214022Y-32627185D01*
X144151096Y-32595122D01*
X144017606Y-32527104D01*
X144017603Y-32527103D01*
X143807952Y-32458985D01*
X143699086Y-32441742D01*
X143590222Y-32424500D01*
X143369778Y-32424500D01*
X143297201Y-32435995D01*
X143152047Y-32458985D01*
X142942396Y-32527103D01*
X142942393Y-32527104D01*
X142745974Y-32627187D01*
X142567641Y-32756752D01*
X142567636Y-32756756D01*
X142411756Y-32912636D01*
X142411752Y-32912641D01*
X142310318Y-33052254D01*
X142254988Y-33094920D01*
X142185375Y-33100899D01*
X142123580Y-33068293D01*
X142109682Y-33052254D01*
X142008247Y-32912641D01*
X142008243Y-32912636D01*
X141852363Y-32756756D01*
X141852358Y-32756752D01*
X141674025Y-32627187D01*
X141674024Y-32627186D01*
X141674022Y-32627185D01*
X141611096Y-32595122D01*
X141477606Y-32527104D01*
X141477603Y-32527103D01*
X141267952Y-32458985D01*
X141159086Y-32441742D01*
X141050222Y-32424500D01*
X140829778Y-32424500D01*
X140757201Y-32435995D01*
X140612047Y-32458985D01*
X140402396Y-32527103D01*
X140402393Y-32527104D01*
X140205974Y-32627187D01*
X140027641Y-32756752D01*
X140027636Y-32756756D01*
X139871756Y-32912636D01*
X139871752Y-32912641D01*
X139770318Y-33052254D01*
X139714988Y-33094920D01*
X139645375Y-33100899D01*
X139583580Y-33068293D01*
X139569682Y-33052254D01*
X139468247Y-32912641D01*
X139468243Y-32912636D01*
X139312363Y-32756756D01*
X139312358Y-32756752D01*
X139134025Y-32627187D01*
X139134024Y-32627186D01*
X139134022Y-32627185D01*
X139071096Y-32595122D01*
X138937606Y-32527104D01*
X138937603Y-32527103D01*
X138727952Y-32458985D01*
X138619086Y-32441742D01*
X138510222Y-32424500D01*
X138289778Y-32424500D01*
X138217201Y-32435995D01*
X138072047Y-32458985D01*
X137862396Y-32527103D01*
X137862393Y-32527104D01*
X137665974Y-32627187D01*
X137487641Y-32756752D01*
X137487636Y-32756756D01*
X137331756Y-32912636D01*
X137230008Y-33052681D01*
X137174678Y-33095346D01*
X137105065Y-33101325D01*
X137043270Y-33068719D01*
X137029372Y-33052680D01*
X136927862Y-32912964D01*
X136927857Y-32912958D01*
X136772041Y-32757142D01*
X136593760Y-32627613D01*
X136397410Y-32527567D01*
X136187836Y-32459473D01*
X136110000Y-32447144D01*
X136110000Y-33676517D01*
X136091591Y-33665889D01*
X135938991Y-33625000D01*
X135781009Y-33625000D01*
X135628409Y-33665889D01*
X135610000Y-33676517D01*
X135610000Y-32447144D01*
X135532164Y-32459473D01*
X135532161Y-32459473D01*
X135322589Y-32527567D01*
X135126239Y-32627613D01*
X134947958Y-32757142D01*
X134792142Y-32912958D01*
X134792142Y-32912959D01*
X134690627Y-33052681D01*
X134635297Y-33095346D01*
X134565683Y-33101325D01*
X134503888Y-33068719D01*
X134489991Y-33052680D01*
X134388247Y-32912641D01*
X134388243Y-32912636D01*
X134232363Y-32756756D01*
X134232358Y-32756752D01*
X134054025Y-32627187D01*
X134054024Y-32627186D01*
X134054022Y-32627185D01*
X133991096Y-32595122D01*
X133857606Y-32527104D01*
X133857603Y-32527103D01*
X133647952Y-32458985D01*
X133539086Y-32441742D01*
X133430222Y-32424500D01*
X133209778Y-32424500D01*
X133137201Y-32435995D01*
X132992047Y-32458985D01*
X132782396Y-32527103D01*
X132782393Y-32527104D01*
X132585974Y-32627187D01*
X132407641Y-32756752D01*
X132407636Y-32756756D01*
X132357075Y-32807317D01*
X132295752Y-32840801D01*
X132226060Y-32835816D01*
X132170127Y-32793945D01*
X132153213Y-32762968D01*
X132123354Y-32682913D01*
X132123350Y-32682906D01*
X132037190Y-32567812D01*
X132037187Y-32567809D01*
X131922093Y-32481649D01*
X131922086Y-32481645D01*
X131787379Y-32431403D01*
X131787372Y-32431401D01*
X131727844Y-32425000D01*
X131030000Y-32425000D01*
X131030000Y-33676517D01*
X131011591Y-33665889D01*
X130858991Y-33625000D01*
X130701009Y-33625000D01*
X130548409Y-33665889D01*
X130530000Y-33676517D01*
X130530000Y-32425000D01*
X129832155Y-32425000D01*
X129772627Y-32431401D01*
X129772620Y-32431403D01*
X129637913Y-32481645D01*
X129637906Y-32481649D01*
X129522812Y-32567809D01*
X129522809Y-32567812D01*
X129436649Y-32682906D01*
X129436645Y-32682913D01*
X129386403Y-32817620D01*
X129386401Y-32817627D01*
X129380000Y-32877155D01*
X129380000Y-33975000D01*
X130231518Y-33975000D01*
X130220889Y-33993409D01*
X130180000Y-34146009D01*
X130180000Y-34303991D01*
X130220889Y-34456591D01*
X130231518Y-34475000D01*
X129380000Y-34475000D01*
X129380000Y-35572844D01*
X129386401Y-35632372D01*
X129386403Y-35632379D01*
X129436645Y-35767086D01*
X129436649Y-35767093D01*
X129522809Y-35882187D01*
X129522812Y-35882190D01*
X129637906Y-35968350D01*
X129637913Y-35968354D01*
X129772620Y-36018596D01*
X129772627Y-36018598D01*
X129832155Y-36024999D01*
X129832172Y-36025000D01*
X130530000Y-36025000D01*
X130530000Y-34773482D01*
X130548409Y-34784111D01*
X130701009Y-34825000D01*
X130858991Y-34825000D01*
X131011591Y-34784111D01*
X131030000Y-34773482D01*
X131030000Y-36025000D01*
X131727828Y-36025000D01*
X131727844Y-36024999D01*
X131787372Y-36018598D01*
X131787379Y-36018596D01*
X131922086Y-35968354D01*
X131922093Y-35968350D01*
X132037187Y-35882190D01*
X132037190Y-35882187D01*
X132123350Y-35767093D01*
X132123354Y-35767086D01*
X132153213Y-35687031D01*
X132195084Y-35631097D01*
X132260548Y-35606680D01*
X132328821Y-35621531D01*
X132357076Y-35642683D01*
X132407636Y-35693243D01*
X132407641Y-35693247D01*
X132518383Y-35773705D01*
X132585978Y-35822815D01*
X132695948Y-35878848D01*
X132782393Y-35922895D01*
X132782396Y-35922896D01*
X132839221Y-35941359D01*
X132992049Y-35991015D01*
X133209778Y-36025500D01*
X133209779Y-36025500D01*
X133430221Y-36025500D01*
X133430222Y-36025500D01*
X133647951Y-35991015D01*
X133857606Y-35922895D01*
X134054022Y-35822815D01*
X134232365Y-35693242D01*
X134388242Y-35537365D01*
X134489991Y-35397317D01*
X134545320Y-35354653D01*
X134614933Y-35348674D01*
X134676729Y-35381279D01*
X134690627Y-35397318D01*
X134792142Y-35537041D01*
X134947958Y-35692857D01*
X135126239Y-35822386D01*
X135322589Y-35922432D01*
X135532163Y-35990526D01*
X135609999Y-36002854D01*
X135610000Y-36002854D01*
X135610000Y-34773482D01*
X135628409Y-34784111D01*
X135781009Y-34825000D01*
X135938991Y-34825000D01*
X136091591Y-34784111D01*
X136110000Y-34773482D01*
X136110000Y-36002854D01*
X136187834Y-35990526D01*
X136187837Y-35990526D01*
X136397410Y-35922432D01*
X136593760Y-35822386D01*
X136772041Y-35692857D01*
X136927857Y-35537041D01*
X136927862Y-35537035D01*
X137029372Y-35397319D01*
X137084702Y-35354653D01*
X137154315Y-35348674D01*
X137216110Y-35381279D01*
X137230008Y-35397319D01*
X137331752Y-35537358D01*
X137331756Y-35537363D01*
X137487638Y-35693245D01*
X137568243Y-35751807D01*
X137589273Y-35767086D01*
X137598384Y-35773705D01*
X137641051Y-35829035D01*
X137649500Y-35874024D01*
X137649500Y-48549375D01*
X137629815Y-48616414D01*
X137577011Y-48662169D01*
X137507853Y-48672113D01*
X137456610Y-48652478D01*
X137404729Y-48617813D01*
X137355491Y-48584913D01*
X137218917Y-48528343D01*
X137218907Y-48528340D01*
X137073920Y-48499500D01*
X137073918Y-48499500D01*
X85676082Y-48499500D01*
X85676080Y-48499500D01*
X85531092Y-48528340D01*
X85531082Y-48528343D01*
X85394508Y-48584913D01*
X85271584Y-48667048D01*
X85271584Y-48667049D01*
X83167050Y-50771580D01*
X83167044Y-50771588D01*
X83117812Y-50845268D01*
X83117813Y-50845269D01*
X83084921Y-50894496D01*
X83084914Y-50894508D01*
X83028342Y-51031086D01*
X83028340Y-51031092D01*
X82999500Y-51176079D01*
X82999500Y-85387770D01*
X82979815Y-85454809D01*
X82963181Y-85475451D01*
X81475451Y-86963181D01*
X81414128Y-86996666D01*
X81387770Y-86999500D01*
X63049972Y-86999500D01*
X63009017Y-86992542D01*
X62929254Y-86964631D01*
X62929249Y-86964630D01*
X62750004Y-86944435D01*
X62749996Y-86944435D01*
X62570750Y-86964630D01*
X62570745Y-86964631D01*
X62400476Y-87024211D01*
X62247737Y-87120184D01*
X62120184Y-87247737D01*
X62024211Y-87400476D01*
X61964631Y-87570745D01*
X61964630Y-87570750D01*
X61944435Y-87749996D01*
X55250500Y-87749996D01*
X55250500Y-72225934D01*
X58874136Y-72225934D01*
X58874136Y-72225945D01*
X58893890Y-72539944D01*
X58893891Y-72539951D01*
X58952850Y-72849023D01*
X59050077Y-73148256D01*
X59050079Y-73148261D01*
X59184041Y-73432943D01*
X59184044Y-73432949D01*
X59352631Y-73698601D01*
X59352634Y-73698605D01*
X59553186Y-73941030D01*
X59553188Y-73941032D01*
X59782548Y-74156416D01*
X59782558Y-74156424D01*
X60037084Y-74341348D01*
X60037089Y-74341350D01*
X60037096Y-74341356D01*
X60312814Y-74492934D01*
X60312819Y-74492936D01*
X60312821Y-74492937D01*
X60312822Y-74492938D01*
X60605351Y-74608758D01*
X60605354Y-74608759D01*
X60910103Y-74687005D01*
X60910107Y-74687006D01*
X60975590Y-74695278D01*
X61222250Y-74726439D01*
X61222259Y-74726439D01*
X61222262Y-74726440D01*
X61222264Y-74726440D01*
X61536896Y-74726440D01*
X61536898Y-74726440D01*
X61536901Y-74726439D01*
X61536909Y-74726439D01*
X61723173Y-74702908D01*
X61849053Y-74687006D01*
X62153805Y-74608759D01*
X62153808Y-74608758D01*
X62446337Y-74492938D01*
X62446338Y-74492937D01*
X62446336Y-74492937D01*
X62446346Y-74492934D01*
X62722064Y-74341356D01*
X62976610Y-74156418D01*
X63205970Y-73941034D01*
X63406527Y-73698603D01*
X63575117Y-73432947D01*
X63709083Y-73148255D01*
X63806311Y-72849019D01*
X63865268Y-72539955D01*
X63885024Y-72225940D01*
X63865268Y-71911925D01*
X63806311Y-71602861D01*
X63709083Y-71303625D01*
X63575117Y-71018933D01*
X63406527Y-70753277D01*
X63406525Y-70753274D01*
X63205973Y-70510849D01*
X63205971Y-70510847D01*
X62976611Y-70295463D01*
X62976601Y-70295455D01*
X62722075Y-70110531D01*
X62722068Y-70110526D01*
X62722064Y-70110524D01*
X62446346Y-69958946D01*
X62446343Y-69958944D01*
X62446338Y-69958942D01*
X62446337Y-69958941D01*
X62153808Y-69843121D01*
X62153805Y-69843120D01*
X61849056Y-69764874D01*
X61849043Y-69764872D01*
X61536909Y-69725440D01*
X61536898Y-69725440D01*
X61222262Y-69725440D01*
X61222250Y-69725440D01*
X60910116Y-69764872D01*
X60910103Y-69764874D01*
X60605354Y-69843120D01*
X60605351Y-69843121D01*
X60312822Y-69958941D01*
X60312821Y-69958942D01*
X60037096Y-70110524D01*
X60037084Y-70110531D01*
X59782558Y-70295455D01*
X59782548Y-70295463D01*
X59553188Y-70510847D01*
X59553186Y-70510849D01*
X59352634Y-70753274D01*
X59352631Y-70753278D01*
X59184044Y-71018930D01*
X59184041Y-71018936D01*
X59050079Y-71303618D01*
X59050077Y-71303623D01*
X58952850Y-71602856D01*
X58893891Y-71911928D01*
X58893890Y-71911935D01*
X58874136Y-72225934D01*
X55250500Y-72225934D01*
X55250500Y-35225754D01*
X58874136Y-35225754D01*
X58874136Y-35225765D01*
X58893890Y-35539764D01*
X58893891Y-35539771D01*
X58911556Y-35632372D01*
X58938516Y-35773705D01*
X58952850Y-35848843D01*
X59050077Y-36148076D01*
X59050079Y-36148081D01*
X59184041Y-36432763D01*
X59184044Y-36432769D01*
X59352631Y-36698421D01*
X59352634Y-36698425D01*
X59553186Y-36940850D01*
X59553188Y-36940852D01*
X59782548Y-37156236D01*
X59782558Y-37156244D01*
X60037084Y-37341168D01*
X60037089Y-37341170D01*
X60037096Y-37341176D01*
X60312814Y-37492754D01*
X60312819Y-37492756D01*
X60312821Y-37492757D01*
X60312822Y-37492758D01*
X60605351Y-37608578D01*
X60605354Y-37608579D01*
X60910103Y-37686825D01*
X60910107Y-37686826D01*
X60975590Y-37695098D01*
X61222250Y-37726259D01*
X61222259Y-37726259D01*
X61222262Y-37726260D01*
X61222264Y-37726260D01*
X61536896Y-37726260D01*
X61536898Y-37726260D01*
X61536901Y-37726259D01*
X61536909Y-37726259D01*
X61723173Y-37702728D01*
X61849053Y-37686826D01*
X62153805Y-37608579D01*
X62153808Y-37608578D01*
X62446337Y-37492758D01*
X62446338Y-37492757D01*
X62446336Y-37492757D01*
X62446346Y-37492754D01*
X62722064Y-37341176D01*
X62976610Y-37156238D01*
X63205970Y-36940854D01*
X63406527Y-36698423D01*
X63575117Y-36432767D01*
X63709083Y-36148075D01*
X63806311Y-35848839D01*
X63865268Y-35539775D01*
X63865440Y-35537041D01*
X63885024Y-35225765D01*
X63885024Y-35225754D01*
X63865269Y-34911755D01*
X63865268Y-34911748D01*
X63865268Y-34911745D01*
X63806311Y-34602681D01*
X63709083Y-34303445D01*
X63575117Y-34018753D01*
X63406527Y-33753097D01*
X63406525Y-33753094D01*
X63205973Y-33510669D01*
X63205971Y-33510667D01*
X62976611Y-33295283D01*
X62976601Y-33295275D01*
X62722075Y-33110351D01*
X62722068Y-33110346D01*
X62722064Y-33110344D01*
X62446346Y-32958766D01*
X62446343Y-32958764D01*
X62446338Y-32958762D01*
X62446337Y-32958761D01*
X62153808Y-32842941D01*
X62153805Y-32842940D01*
X61849056Y-32764694D01*
X61849043Y-32764692D01*
X61536909Y-32725260D01*
X61536898Y-32725260D01*
X61222262Y-32725260D01*
X61222250Y-32725260D01*
X60910116Y-32764692D01*
X60910103Y-32764694D01*
X60605354Y-32842940D01*
X60605351Y-32842941D01*
X60312822Y-32958761D01*
X60312821Y-32958762D01*
X60037096Y-33110344D01*
X60037084Y-33110351D01*
X59782558Y-33295275D01*
X59782548Y-33295283D01*
X59553188Y-33510667D01*
X59553186Y-33510669D01*
X59352634Y-33753094D01*
X59352631Y-33753098D01*
X59184044Y-34018750D01*
X59184041Y-34018756D01*
X59050079Y-34303438D01*
X59050077Y-34303443D01*
X58952850Y-34602676D01*
X58893891Y-34911748D01*
X58893890Y-34911755D01*
X58874136Y-35225754D01*
X55250500Y-35225754D01*
X55250500Y-28374500D01*
X55270185Y-28307461D01*
X55322989Y-28261706D01*
X55374500Y-28250500D01*
X182625500Y-28250500D01*
X182692539Y-28270185D01*
G37*
%TD.AperFunction*%
%TD*%
M02*
